G04 #@! TF.GenerationSoftware,KiCad,Pcbnew,5.1.2-f72e74a~84~ubuntu18.04.1*
G04 #@! TF.CreationDate,2019-08-10T16:00:54+02:00*
G04 #@! TF.ProjectId,roboy_2.0_forarm_shield,726f626f-795f-4322-9e30-5f666f726172,rev?*
G04 #@! TF.SameCoordinates,Original*
G04 #@! TF.FileFunction,Soldermask,Top*
G04 #@! TF.FilePolarity,Negative*
%FSLAX46Y46*%
G04 Gerber Fmt 4.6, Leading zero omitted, Abs format (unit mm)*
G04 Created by KiCad (PCBNEW 5.1.2-f72e74a~84~ubuntu18.04.1) date 2019-08-10 16:00:54*
%MOMM*%
%LPD*%
G04 APERTURE LIST*
%ADD10C,0.010000*%
%ADD11C,0.100000*%
G04 APERTURE END LIST*
D10*
G36*
X187111411Y-103247658D02*
G01*
X187160303Y-103249034D01*
X187201791Y-103251227D01*
X187204248Y-103251404D01*
X187370730Y-103268617D01*
X187534856Y-103295619D01*
X187696263Y-103332236D01*
X187854589Y-103378297D01*
X188009470Y-103433628D01*
X188160545Y-103498056D01*
X188307451Y-103571410D01*
X188449824Y-103653515D01*
X188587304Y-103744199D01*
X188719526Y-103843290D01*
X188846128Y-103950614D01*
X188966748Y-104065999D01*
X189011488Y-104112506D01*
X189122388Y-104237802D01*
X189224852Y-104368680D01*
X189318766Y-104504894D01*
X189404014Y-104646197D01*
X189480485Y-104792344D01*
X189548064Y-104943091D01*
X189606637Y-105098190D01*
X189656090Y-105257396D01*
X189696310Y-105420465D01*
X189727184Y-105587149D01*
X189741027Y-105687580D01*
X189743688Y-105715614D01*
X189746056Y-105752158D01*
X189748107Y-105795565D01*
X189749818Y-105844188D01*
X189751168Y-105896379D01*
X189752131Y-105950493D01*
X189752687Y-106004881D01*
X189752810Y-106057898D01*
X189752479Y-106107897D01*
X189751671Y-106153229D01*
X189750362Y-106192250D01*
X189748529Y-106223311D01*
X189748521Y-106223409D01*
X189730425Y-106387738D01*
X189702523Y-106549947D01*
X189665024Y-106709636D01*
X189618137Y-106866405D01*
X189562068Y-107019853D01*
X189497026Y-107169580D01*
X189423220Y-107315186D01*
X189340858Y-107456271D01*
X189250147Y-107592433D01*
X189151295Y-107723273D01*
X189044512Y-107848391D01*
X188930005Y-107967385D01*
X188807982Y-108079856D01*
X188763827Y-108117365D01*
X188632339Y-108220164D01*
X188495556Y-108314370D01*
X188353820Y-108399844D01*
X188207475Y-108476444D01*
X188056863Y-108544030D01*
X187902328Y-108602462D01*
X187744213Y-108651599D01*
X187582861Y-108691300D01*
X187418615Y-108721425D01*
X187251818Y-108741834D01*
X187236220Y-108743230D01*
X187204605Y-108745421D01*
X187165273Y-108747283D01*
X187120337Y-108748791D01*
X187071909Y-108749916D01*
X187022102Y-108750634D01*
X186973029Y-108750917D01*
X186926802Y-108750740D01*
X186885534Y-108750076D01*
X186851338Y-108748899D01*
X186838694Y-108748187D01*
X186669062Y-108732042D01*
X186502378Y-108706308D01*
X186338908Y-108671099D01*
X186178916Y-108626529D01*
X186022667Y-108572712D01*
X185870427Y-108509763D01*
X185722461Y-108437796D01*
X185579033Y-108356925D01*
X185440408Y-108267265D01*
X185306852Y-108168929D01*
X185178630Y-108062031D01*
X185117269Y-108006036D01*
X184998879Y-107887867D01*
X184888479Y-107763571D01*
X184786241Y-107633510D01*
X184692338Y-107498048D01*
X184606943Y-107357546D01*
X184530229Y-107212369D01*
X184462370Y-107062880D01*
X184403537Y-106909441D01*
X184353904Y-106752416D01*
X184313644Y-106592168D01*
X184282930Y-106429060D01*
X184261935Y-106263454D01*
X184256484Y-106199168D01*
X184254235Y-106158243D01*
X184252806Y-106109784D01*
X184252158Y-106055741D01*
X184252254Y-105998065D01*
X184252845Y-105954280D01*
X185935866Y-105954280D01*
X185936087Y-106014867D01*
X185936800Y-106067255D01*
X185938154Y-106113398D01*
X185940296Y-106155249D01*
X185943376Y-106194763D01*
X185947541Y-106233895D01*
X185952939Y-106274598D01*
X185959719Y-106318827D01*
X185966683Y-106360680D01*
X185991321Y-106485767D01*
X186023172Y-106615784D01*
X186061644Y-106749155D01*
X186106146Y-106884306D01*
X186156085Y-107019660D01*
X186210869Y-107153644D01*
X186269907Y-107284683D01*
X186332605Y-107411201D01*
X186398373Y-107531623D01*
X186422138Y-107572260D01*
X186447850Y-107614150D01*
X186472392Y-107651070D01*
X186497458Y-107685163D01*
X186524739Y-107718577D01*
X186555927Y-107753455D01*
X186592714Y-107791944D01*
X186606237Y-107805668D01*
X186674539Y-107872063D01*
X186740032Y-107930339D01*
X186804180Y-107981594D01*
X186868445Y-108026927D01*
X186934292Y-108067436D01*
X187003183Y-108104220D01*
X187005625Y-108105432D01*
X187072865Y-108136631D01*
X187140523Y-108163591D01*
X187209818Y-108186574D01*
X187281972Y-108205841D01*
X187358208Y-108221653D01*
X187439746Y-108234271D01*
X187527807Y-108243955D01*
X187623614Y-108250968D01*
X187704301Y-108254743D01*
X187718468Y-108254065D01*
X187739174Y-108251605D01*
X187763042Y-108247805D01*
X187776346Y-108245295D01*
X187882126Y-108218969D01*
X187986227Y-108182724D01*
X188088740Y-108136520D01*
X188189759Y-108080316D01*
X188268715Y-108028715D01*
X188304948Y-108002443D01*
X188345856Y-107971048D01*
X188390005Y-107935764D01*
X188435964Y-107897826D01*
X188482299Y-107858467D01*
X188527577Y-107818921D01*
X188570365Y-107780423D01*
X188609230Y-107744207D01*
X188642740Y-107711506D01*
X188669357Y-107683669D01*
X188719078Y-107626571D01*
X188768026Y-107565833D01*
X188815342Y-107502772D01*
X188860168Y-107438702D01*
X188901646Y-107374939D01*
X188938916Y-107312800D01*
X188971120Y-107253600D01*
X188997399Y-107198654D01*
X189015547Y-107153160D01*
X189027166Y-107116683D01*
X189033669Y-107086920D01*
X189035291Y-107061946D01*
X189032266Y-107039838D01*
X189030229Y-107032655D01*
X189021899Y-106999183D01*
X189015174Y-106955850D01*
X189010045Y-106902582D01*
X189008557Y-106880480D01*
X189006914Y-106857285D01*
X189005091Y-106837827D01*
X189003327Y-106824354D01*
X189002048Y-106819279D01*
X188995985Y-106815091D01*
X188983461Y-106808816D01*
X188971213Y-106803494D01*
X188935191Y-106785805D01*
X188905050Y-106764111D01*
X188880055Y-106737333D01*
X188859472Y-106704396D01*
X188842567Y-106664221D01*
X188828606Y-106615733D01*
X188821731Y-106584200D01*
X188813109Y-106529984D01*
X188806872Y-106467299D01*
X188803003Y-106397547D01*
X188801488Y-106322131D01*
X188802310Y-106242453D01*
X188805454Y-106159917D01*
X188810904Y-106075924D01*
X188818644Y-105991878D01*
X188828658Y-105909181D01*
X188829391Y-105903857D01*
X188837683Y-105852621D01*
X188848851Y-105798523D01*
X188863299Y-105739881D01*
X188881436Y-105675012D01*
X188897507Y-105621894D01*
X188908001Y-105586596D01*
X188914749Y-105560223D01*
X188917856Y-105542298D01*
X188917630Y-105532994D01*
X188916992Y-105525817D01*
X188916273Y-105509339D01*
X188915490Y-105484422D01*
X188914662Y-105451926D01*
X188913807Y-105412708D01*
X188912943Y-105367631D01*
X188912087Y-105317553D01*
X188911258Y-105263335D01*
X188910474Y-105205836D01*
X188910024Y-105169420D01*
X188909099Y-105094866D01*
X188908178Y-105029436D01*
X188907209Y-104972094D01*
X188906143Y-104921802D01*
X188904928Y-104877525D01*
X188903514Y-104838228D01*
X188901851Y-104802872D01*
X188899886Y-104770422D01*
X188897570Y-104739843D01*
X188894853Y-104710097D01*
X188891682Y-104680148D01*
X188888009Y-104648961D01*
X188883781Y-104615498D01*
X188882415Y-104604995D01*
X188873450Y-104542533D01*
X188862637Y-104477182D01*
X188850663Y-104412772D01*
X188838216Y-104353131D01*
X188833201Y-104331220D01*
X188827194Y-104305740D01*
X188821859Y-104283078D01*
X188817719Y-104265465D01*
X188815300Y-104255135D01*
X188815099Y-104254273D01*
X188809514Y-104244596D01*
X188796770Y-104230140D01*
X188778059Y-104211912D01*
X188754573Y-104190920D01*
X188727505Y-104168170D01*
X188698047Y-104144671D01*
X188667391Y-104121430D01*
X188636729Y-104099454D01*
X188612900Y-104083398D01*
X188519663Y-104028561D01*
X188420366Y-103981665D01*
X188314885Y-103942665D01*
X188203099Y-103911515D01*
X188084885Y-103888173D01*
X188074420Y-103886529D01*
X188029797Y-103880994D01*
X187977546Y-103876733D01*
X187920123Y-103873789D01*
X187859984Y-103872208D01*
X187799587Y-103872036D01*
X187741389Y-103873316D01*
X187687846Y-103876094D01*
X187655320Y-103878864D01*
X187518305Y-103896876D01*
X187386889Y-103922248D01*
X187261374Y-103954863D01*
X187142065Y-103994607D01*
X187029262Y-104041362D01*
X186923270Y-104095014D01*
X186824391Y-104155447D01*
X186732928Y-104222544D01*
X186712307Y-104239465D01*
X186679118Y-104268484D01*
X186646726Y-104299428D01*
X186613635Y-104333870D01*
X186578349Y-104373378D01*
X186539372Y-104419524D01*
X186530517Y-104430280D01*
X186426906Y-104562732D01*
X186333379Y-104695187D01*
X186249858Y-104827797D01*
X186176268Y-104960716D01*
X186112533Y-105094098D01*
X186058577Y-105228098D01*
X186014324Y-105362867D01*
X185979697Y-105498561D01*
X185964339Y-105575820D01*
X185956862Y-105618964D01*
X185950787Y-105657561D01*
X185945975Y-105693452D01*
X185942287Y-105728477D01*
X185939585Y-105764477D01*
X185937730Y-105803291D01*
X185936585Y-105846762D01*
X185936009Y-105896729D01*
X185935866Y-105954280D01*
X184252845Y-105954280D01*
X184253056Y-105938704D01*
X184254526Y-105879611D01*
X184256624Y-105822735D01*
X184259314Y-105770027D01*
X184262556Y-105723437D01*
X184266314Y-105684915D01*
X184266582Y-105682680D01*
X184292056Y-105513148D01*
X184326728Y-105347926D01*
X184370629Y-105186938D01*
X184423792Y-105030112D01*
X184486249Y-104877374D01*
X184558030Y-104728650D01*
X184639169Y-104583866D01*
X184729697Y-104442948D01*
X184829646Y-104305822D01*
X184897157Y-104221718D01*
X184922254Y-104192734D01*
X184953460Y-104158564D01*
X184989254Y-104120728D01*
X185028116Y-104080747D01*
X185068523Y-104040143D01*
X185108955Y-104000438D01*
X185147890Y-103963151D01*
X185183808Y-103929805D01*
X185215186Y-103901920D01*
X185226798Y-103892077D01*
X185343126Y-103799763D01*
X185460135Y-103716075D01*
X185579986Y-103639586D01*
X185704836Y-103568870D01*
X185757940Y-103541230D01*
X185903201Y-103472517D01*
X186050453Y-103413076D01*
X186200545Y-103362650D01*
X186354324Y-103320984D01*
X186512640Y-103287823D01*
X186676342Y-103262911D01*
X186687760Y-103261502D01*
X186725674Y-103257711D01*
X186771787Y-103254433D01*
X186824148Y-103251705D01*
X186880806Y-103249566D01*
X186939812Y-103248054D01*
X186999215Y-103247206D01*
X187057065Y-103247062D01*
X187111411Y-103247658D01*
X187111411Y-103247658D01*
G37*
X187111411Y-103247658D02*
X187160303Y-103249034D01*
X187201791Y-103251227D01*
X187204248Y-103251404D01*
X187370730Y-103268617D01*
X187534856Y-103295619D01*
X187696263Y-103332236D01*
X187854589Y-103378297D01*
X188009470Y-103433628D01*
X188160545Y-103498056D01*
X188307451Y-103571410D01*
X188449824Y-103653515D01*
X188587304Y-103744199D01*
X188719526Y-103843290D01*
X188846128Y-103950614D01*
X188966748Y-104065999D01*
X189011488Y-104112506D01*
X189122388Y-104237802D01*
X189224852Y-104368680D01*
X189318766Y-104504894D01*
X189404014Y-104646197D01*
X189480485Y-104792344D01*
X189548064Y-104943091D01*
X189606637Y-105098190D01*
X189656090Y-105257396D01*
X189696310Y-105420465D01*
X189727184Y-105587149D01*
X189741027Y-105687580D01*
X189743688Y-105715614D01*
X189746056Y-105752158D01*
X189748107Y-105795565D01*
X189749818Y-105844188D01*
X189751168Y-105896379D01*
X189752131Y-105950493D01*
X189752687Y-106004881D01*
X189752810Y-106057898D01*
X189752479Y-106107897D01*
X189751671Y-106153229D01*
X189750362Y-106192250D01*
X189748529Y-106223311D01*
X189748521Y-106223409D01*
X189730425Y-106387738D01*
X189702523Y-106549947D01*
X189665024Y-106709636D01*
X189618137Y-106866405D01*
X189562068Y-107019853D01*
X189497026Y-107169580D01*
X189423220Y-107315186D01*
X189340858Y-107456271D01*
X189250147Y-107592433D01*
X189151295Y-107723273D01*
X189044512Y-107848391D01*
X188930005Y-107967385D01*
X188807982Y-108079856D01*
X188763827Y-108117365D01*
X188632339Y-108220164D01*
X188495556Y-108314370D01*
X188353820Y-108399844D01*
X188207475Y-108476444D01*
X188056863Y-108544030D01*
X187902328Y-108602462D01*
X187744213Y-108651599D01*
X187582861Y-108691300D01*
X187418615Y-108721425D01*
X187251818Y-108741834D01*
X187236220Y-108743230D01*
X187204605Y-108745421D01*
X187165273Y-108747283D01*
X187120337Y-108748791D01*
X187071909Y-108749916D01*
X187022102Y-108750634D01*
X186973029Y-108750917D01*
X186926802Y-108750740D01*
X186885534Y-108750076D01*
X186851338Y-108748899D01*
X186838694Y-108748187D01*
X186669062Y-108732042D01*
X186502378Y-108706308D01*
X186338908Y-108671099D01*
X186178916Y-108626529D01*
X186022667Y-108572712D01*
X185870427Y-108509763D01*
X185722461Y-108437796D01*
X185579033Y-108356925D01*
X185440408Y-108267265D01*
X185306852Y-108168929D01*
X185178630Y-108062031D01*
X185117269Y-108006036D01*
X184998879Y-107887867D01*
X184888479Y-107763571D01*
X184786241Y-107633510D01*
X184692338Y-107498048D01*
X184606943Y-107357546D01*
X184530229Y-107212369D01*
X184462370Y-107062880D01*
X184403537Y-106909441D01*
X184353904Y-106752416D01*
X184313644Y-106592168D01*
X184282930Y-106429060D01*
X184261935Y-106263454D01*
X184256484Y-106199168D01*
X184254235Y-106158243D01*
X184252806Y-106109784D01*
X184252158Y-106055741D01*
X184252254Y-105998065D01*
X184252845Y-105954280D01*
X185935866Y-105954280D01*
X185936087Y-106014867D01*
X185936800Y-106067255D01*
X185938154Y-106113398D01*
X185940296Y-106155249D01*
X185943376Y-106194763D01*
X185947541Y-106233895D01*
X185952939Y-106274598D01*
X185959719Y-106318827D01*
X185966683Y-106360680D01*
X185991321Y-106485767D01*
X186023172Y-106615784D01*
X186061644Y-106749155D01*
X186106146Y-106884306D01*
X186156085Y-107019660D01*
X186210869Y-107153644D01*
X186269907Y-107284683D01*
X186332605Y-107411201D01*
X186398373Y-107531623D01*
X186422138Y-107572260D01*
X186447850Y-107614150D01*
X186472392Y-107651070D01*
X186497458Y-107685163D01*
X186524739Y-107718577D01*
X186555927Y-107753455D01*
X186592714Y-107791944D01*
X186606237Y-107805668D01*
X186674539Y-107872063D01*
X186740032Y-107930339D01*
X186804180Y-107981594D01*
X186868445Y-108026927D01*
X186934292Y-108067436D01*
X187003183Y-108104220D01*
X187005625Y-108105432D01*
X187072865Y-108136631D01*
X187140523Y-108163591D01*
X187209818Y-108186574D01*
X187281972Y-108205841D01*
X187358208Y-108221653D01*
X187439746Y-108234271D01*
X187527807Y-108243955D01*
X187623614Y-108250968D01*
X187704301Y-108254743D01*
X187718468Y-108254065D01*
X187739174Y-108251605D01*
X187763042Y-108247805D01*
X187776346Y-108245295D01*
X187882126Y-108218969D01*
X187986227Y-108182724D01*
X188088740Y-108136520D01*
X188189759Y-108080316D01*
X188268715Y-108028715D01*
X188304948Y-108002443D01*
X188345856Y-107971048D01*
X188390005Y-107935764D01*
X188435964Y-107897826D01*
X188482299Y-107858467D01*
X188527577Y-107818921D01*
X188570365Y-107780423D01*
X188609230Y-107744207D01*
X188642740Y-107711506D01*
X188669357Y-107683669D01*
X188719078Y-107626571D01*
X188768026Y-107565833D01*
X188815342Y-107502772D01*
X188860168Y-107438702D01*
X188901646Y-107374939D01*
X188938916Y-107312800D01*
X188971120Y-107253600D01*
X188997399Y-107198654D01*
X189015547Y-107153160D01*
X189027166Y-107116683D01*
X189033669Y-107086920D01*
X189035291Y-107061946D01*
X189032266Y-107039838D01*
X189030229Y-107032655D01*
X189021899Y-106999183D01*
X189015174Y-106955850D01*
X189010045Y-106902582D01*
X189008557Y-106880480D01*
X189006914Y-106857285D01*
X189005091Y-106837827D01*
X189003327Y-106824354D01*
X189002048Y-106819279D01*
X188995985Y-106815091D01*
X188983461Y-106808816D01*
X188971213Y-106803494D01*
X188935191Y-106785805D01*
X188905050Y-106764111D01*
X188880055Y-106737333D01*
X188859472Y-106704396D01*
X188842567Y-106664221D01*
X188828606Y-106615733D01*
X188821731Y-106584200D01*
X188813109Y-106529984D01*
X188806872Y-106467299D01*
X188803003Y-106397547D01*
X188801488Y-106322131D01*
X188802310Y-106242453D01*
X188805454Y-106159917D01*
X188810904Y-106075924D01*
X188818644Y-105991878D01*
X188828658Y-105909181D01*
X188829391Y-105903857D01*
X188837683Y-105852621D01*
X188848851Y-105798523D01*
X188863299Y-105739881D01*
X188881436Y-105675012D01*
X188897507Y-105621894D01*
X188908001Y-105586596D01*
X188914749Y-105560223D01*
X188917856Y-105542298D01*
X188917630Y-105532994D01*
X188916992Y-105525817D01*
X188916273Y-105509339D01*
X188915490Y-105484422D01*
X188914662Y-105451926D01*
X188913807Y-105412708D01*
X188912943Y-105367631D01*
X188912087Y-105317553D01*
X188911258Y-105263335D01*
X188910474Y-105205836D01*
X188910024Y-105169420D01*
X188909099Y-105094866D01*
X188908178Y-105029436D01*
X188907209Y-104972094D01*
X188906143Y-104921802D01*
X188904928Y-104877525D01*
X188903514Y-104838228D01*
X188901851Y-104802872D01*
X188899886Y-104770422D01*
X188897570Y-104739843D01*
X188894853Y-104710097D01*
X188891682Y-104680148D01*
X188888009Y-104648961D01*
X188883781Y-104615498D01*
X188882415Y-104604995D01*
X188873450Y-104542533D01*
X188862637Y-104477182D01*
X188850663Y-104412772D01*
X188838216Y-104353131D01*
X188833201Y-104331220D01*
X188827194Y-104305740D01*
X188821859Y-104283078D01*
X188817719Y-104265465D01*
X188815300Y-104255135D01*
X188815099Y-104254273D01*
X188809514Y-104244596D01*
X188796770Y-104230140D01*
X188778059Y-104211912D01*
X188754573Y-104190920D01*
X188727505Y-104168170D01*
X188698047Y-104144671D01*
X188667391Y-104121430D01*
X188636729Y-104099454D01*
X188612900Y-104083398D01*
X188519663Y-104028561D01*
X188420366Y-103981665D01*
X188314885Y-103942665D01*
X188203099Y-103911515D01*
X188084885Y-103888173D01*
X188074420Y-103886529D01*
X188029797Y-103880994D01*
X187977546Y-103876733D01*
X187920123Y-103873789D01*
X187859984Y-103872208D01*
X187799587Y-103872036D01*
X187741389Y-103873316D01*
X187687846Y-103876094D01*
X187655320Y-103878864D01*
X187518305Y-103896876D01*
X187386889Y-103922248D01*
X187261374Y-103954863D01*
X187142065Y-103994607D01*
X187029262Y-104041362D01*
X186923270Y-104095014D01*
X186824391Y-104155447D01*
X186732928Y-104222544D01*
X186712307Y-104239465D01*
X186679118Y-104268484D01*
X186646726Y-104299428D01*
X186613635Y-104333870D01*
X186578349Y-104373378D01*
X186539372Y-104419524D01*
X186530517Y-104430280D01*
X186426906Y-104562732D01*
X186333379Y-104695187D01*
X186249858Y-104827797D01*
X186176268Y-104960716D01*
X186112533Y-105094098D01*
X186058577Y-105228098D01*
X186014324Y-105362867D01*
X185979697Y-105498561D01*
X185964339Y-105575820D01*
X185956862Y-105618964D01*
X185950787Y-105657561D01*
X185945975Y-105693452D01*
X185942287Y-105728477D01*
X185939585Y-105764477D01*
X185937730Y-105803291D01*
X185936585Y-105846762D01*
X185936009Y-105896729D01*
X185935866Y-105954280D01*
X184252845Y-105954280D01*
X184253056Y-105938704D01*
X184254526Y-105879611D01*
X184256624Y-105822735D01*
X184259314Y-105770027D01*
X184262556Y-105723437D01*
X184266314Y-105684915D01*
X184266582Y-105682680D01*
X184292056Y-105513148D01*
X184326728Y-105347926D01*
X184370629Y-105186938D01*
X184423792Y-105030112D01*
X184486249Y-104877374D01*
X184558030Y-104728650D01*
X184639169Y-104583866D01*
X184729697Y-104442948D01*
X184829646Y-104305822D01*
X184897157Y-104221718D01*
X184922254Y-104192734D01*
X184953460Y-104158564D01*
X184989254Y-104120728D01*
X185028116Y-104080747D01*
X185068523Y-104040143D01*
X185108955Y-104000438D01*
X185147890Y-103963151D01*
X185183808Y-103929805D01*
X185215186Y-103901920D01*
X185226798Y-103892077D01*
X185343126Y-103799763D01*
X185460135Y-103716075D01*
X185579986Y-103639586D01*
X185704836Y-103568870D01*
X185757940Y-103541230D01*
X185903201Y-103472517D01*
X186050453Y-103413076D01*
X186200545Y-103362650D01*
X186354324Y-103320984D01*
X186512640Y-103287823D01*
X186676342Y-103262911D01*
X186687760Y-103261502D01*
X186725674Y-103257711D01*
X186771787Y-103254433D01*
X186824148Y-103251705D01*
X186880806Y-103249566D01*
X186939812Y-103248054D01*
X186999215Y-103247206D01*
X187057065Y-103247062D01*
X187111411Y-103247658D01*
G36*
X186524466Y-106929926D02*
G01*
X186539554Y-106941333D01*
X186541789Y-106943610D01*
X186557997Y-106964076D01*
X186571303Y-106987188D01*
X186581395Y-107011348D01*
X186587961Y-107034960D01*
X186590691Y-107056426D01*
X186589274Y-107074150D01*
X186583397Y-107086535D01*
X186572750Y-107091983D01*
X186570740Y-107092103D01*
X186563319Y-107089690D01*
X186551818Y-107083702D01*
X186550097Y-107082671D01*
X186533099Y-107067908D01*
X186517367Y-107046401D01*
X186503917Y-107020683D01*
X186493764Y-106993289D01*
X186487921Y-106966754D01*
X186487405Y-106943613D01*
X186490003Y-106932595D01*
X186497422Y-106925074D01*
X186509666Y-106924345D01*
X186524466Y-106929926D01*
X186524466Y-106929926D01*
G37*
X186524466Y-106929926D02*
X186539554Y-106941333D01*
X186541789Y-106943610D01*
X186557997Y-106964076D01*
X186571303Y-106987188D01*
X186581395Y-107011348D01*
X186587961Y-107034960D01*
X186590691Y-107056426D01*
X186589274Y-107074150D01*
X186583397Y-107086535D01*
X186572750Y-107091983D01*
X186570740Y-107092103D01*
X186563319Y-107089690D01*
X186551818Y-107083702D01*
X186550097Y-107082671D01*
X186533099Y-107067908D01*
X186517367Y-107046401D01*
X186503917Y-107020683D01*
X186493764Y-106993289D01*
X186487921Y-106966754D01*
X186487405Y-106943613D01*
X186490003Y-106932595D01*
X186497422Y-106925074D01*
X186509666Y-106924345D01*
X186524466Y-106929926D01*
G36*
X187963667Y-106651102D02*
G01*
X187976744Y-106654493D01*
X187988048Y-106661622D01*
X187990392Y-106663545D01*
X188009692Y-106685382D01*
X188019619Y-106709859D01*
X188019926Y-106735768D01*
X188010441Y-106761765D01*
X187996012Y-106780859D01*
X187977537Y-106792325D01*
X187953024Y-106797210D01*
X187942228Y-106797560D01*
X187924829Y-106796947D01*
X187913155Y-106793934D01*
X187902794Y-106786758D01*
X187893903Y-106778259D01*
X187877278Y-106755369D01*
X187869936Y-106730434D01*
X187871832Y-106705206D01*
X187882919Y-106681436D01*
X187896859Y-106665951D01*
X187908713Y-106656754D01*
X187920030Y-106652033D01*
X187935130Y-106650369D01*
X187944667Y-106650240D01*
X187963667Y-106651102D01*
X187963667Y-106651102D01*
G37*
X187963667Y-106651102D02*
X187976744Y-106654493D01*
X187988048Y-106661622D01*
X187990392Y-106663545D01*
X188009692Y-106685382D01*
X188019619Y-106709859D01*
X188019926Y-106735768D01*
X188010441Y-106761765D01*
X187996012Y-106780859D01*
X187977537Y-106792325D01*
X187953024Y-106797210D01*
X187942228Y-106797560D01*
X187924829Y-106796947D01*
X187913155Y-106793934D01*
X187902794Y-106786758D01*
X187893903Y-106778259D01*
X187877278Y-106755369D01*
X187869936Y-106730434D01*
X187871832Y-106705206D01*
X187882919Y-106681436D01*
X187896859Y-106665951D01*
X187908713Y-106656754D01*
X187920030Y-106652033D01*
X187935130Y-106650369D01*
X187944667Y-106650240D01*
X187963667Y-106651102D01*
D11*
G36*
X176351000Y-108601000D02*
G01*
X175399000Y-108601000D01*
X175399000Y-106899000D01*
X176351000Y-106899000D01*
X176351000Y-108601000D01*
X176351000Y-108601000D01*
G37*
G36*
X90601000Y-108601000D02*
G01*
X89649000Y-108601000D01*
X89649000Y-106899000D01*
X90601000Y-106899000D01*
X90601000Y-108601000D01*
X90601000Y-108601000D01*
G37*
G36*
X138601000Y-108601000D02*
G01*
X137649000Y-108601000D01*
X137649000Y-106899000D01*
X138601000Y-106899000D01*
X138601000Y-108601000D01*
X138601000Y-108601000D01*
G37*
G36*
X132601000Y-108601000D02*
G01*
X131649000Y-108601000D01*
X131649000Y-106899000D01*
X132601000Y-106899000D01*
X132601000Y-108601000D01*
X132601000Y-108601000D01*
G37*
G36*
X134351000Y-108601000D02*
G01*
X133399000Y-108601000D01*
X133399000Y-106899000D01*
X134351000Y-106899000D01*
X134351000Y-108601000D01*
X134351000Y-108601000D01*
G37*
G36*
X128351000Y-108601000D02*
G01*
X127399000Y-108601000D01*
X127399000Y-106899000D01*
X128351000Y-106899000D01*
X128351000Y-108601000D01*
X128351000Y-108601000D01*
G37*
G36*
X126601000Y-108601000D02*
G01*
X125649000Y-108601000D01*
X125649000Y-106899000D01*
X126601000Y-106899000D01*
X126601000Y-108601000D01*
X126601000Y-108601000D01*
G37*
G36*
X120601000Y-108601000D02*
G01*
X119649000Y-108601000D01*
X119649000Y-106899000D01*
X120601000Y-106899000D01*
X120601000Y-108601000D01*
X120601000Y-108601000D01*
G37*
G36*
X122351000Y-108601000D02*
G01*
X121399000Y-108601000D01*
X121399000Y-106899000D01*
X122351000Y-106899000D01*
X122351000Y-108601000D01*
X122351000Y-108601000D01*
G37*
G36*
X116351000Y-108601000D02*
G01*
X115399000Y-108601000D01*
X115399000Y-106899000D01*
X116351000Y-106899000D01*
X116351000Y-108601000D01*
X116351000Y-108601000D01*
G37*
G36*
X114601000Y-108601000D02*
G01*
X113649000Y-108601000D01*
X113649000Y-106899000D01*
X114601000Y-106899000D01*
X114601000Y-108601000D01*
X114601000Y-108601000D01*
G37*
G36*
X108601000Y-108601000D02*
G01*
X107649000Y-108601000D01*
X107649000Y-106899000D01*
X108601000Y-106899000D01*
X108601000Y-108601000D01*
X108601000Y-108601000D01*
G37*
G36*
X110351000Y-108601000D02*
G01*
X109399000Y-108601000D01*
X109399000Y-106899000D01*
X110351000Y-106899000D01*
X110351000Y-108601000D01*
X110351000Y-108601000D01*
G37*
G36*
X104351000Y-108601000D02*
G01*
X103399000Y-108601000D01*
X103399000Y-106899000D01*
X104351000Y-106899000D01*
X104351000Y-108601000D01*
X104351000Y-108601000D01*
G37*
G36*
X102601000Y-108601000D02*
G01*
X101649000Y-108601000D01*
X101649000Y-106899000D01*
X102601000Y-106899000D01*
X102601000Y-108601000D01*
X102601000Y-108601000D01*
G37*
G36*
X96601000Y-108601000D02*
G01*
X95649000Y-108601000D01*
X95649000Y-106899000D01*
X96601000Y-106899000D01*
X96601000Y-108601000D01*
X96601000Y-108601000D01*
G37*
G36*
X92351000Y-108601000D02*
G01*
X91399000Y-108601000D01*
X91399000Y-106899000D01*
X92351000Y-106899000D01*
X92351000Y-108601000D01*
X92351000Y-108601000D01*
G37*
G36*
X98351000Y-108601000D02*
G01*
X97399000Y-108601000D01*
X97399000Y-106899000D01*
X98351000Y-106899000D01*
X98351000Y-108601000D01*
X98351000Y-108601000D01*
G37*
G36*
X174601000Y-108601000D02*
G01*
X173649000Y-108601000D01*
X173649000Y-106899000D01*
X174601000Y-106899000D01*
X174601000Y-108601000D01*
X174601000Y-108601000D01*
G37*
G36*
X168601000Y-108601000D02*
G01*
X167649000Y-108601000D01*
X167649000Y-106899000D01*
X168601000Y-106899000D01*
X168601000Y-108601000D01*
X168601000Y-108601000D01*
G37*
G36*
X170351000Y-108601000D02*
G01*
X169399000Y-108601000D01*
X169399000Y-106899000D01*
X170351000Y-106899000D01*
X170351000Y-108601000D01*
X170351000Y-108601000D01*
G37*
G36*
X164351000Y-108601000D02*
G01*
X163399000Y-108601000D01*
X163399000Y-106899000D01*
X164351000Y-106899000D01*
X164351000Y-108601000D01*
X164351000Y-108601000D01*
G37*
G36*
X162601000Y-108601000D02*
G01*
X161649000Y-108601000D01*
X161649000Y-106899000D01*
X162601000Y-106899000D01*
X162601000Y-108601000D01*
X162601000Y-108601000D01*
G37*
G36*
X156601000Y-108601000D02*
G01*
X155649000Y-108601000D01*
X155649000Y-106899000D01*
X156601000Y-106899000D01*
X156601000Y-108601000D01*
X156601000Y-108601000D01*
G37*
G36*
X152351000Y-108601000D02*
G01*
X151399000Y-108601000D01*
X151399000Y-106899000D01*
X152351000Y-106899000D01*
X152351000Y-108601000D01*
X152351000Y-108601000D01*
G37*
G36*
X150601000Y-108601000D02*
G01*
X149649000Y-108601000D01*
X149649000Y-106899000D01*
X150601000Y-106899000D01*
X150601000Y-108601000D01*
X150601000Y-108601000D01*
G37*
G36*
X144601000Y-108601000D02*
G01*
X143649000Y-108601000D01*
X143649000Y-106899000D01*
X144601000Y-106899000D01*
X144601000Y-108601000D01*
X144601000Y-108601000D01*
G37*
G36*
X146351000Y-108601000D02*
G01*
X145399000Y-108601000D01*
X145399000Y-106899000D01*
X146351000Y-106899000D01*
X146351000Y-108601000D01*
X146351000Y-108601000D01*
G37*
G36*
X140351000Y-108601000D02*
G01*
X139399000Y-108601000D01*
X139399000Y-106899000D01*
X140351000Y-106899000D01*
X140351000Y-108601000D01*
X140351000Y-108601000D01*
G37*
G36*
X158351000Y-108601000D02*
G01*
X157399000Y-108601000D01*
X157399000Y-106899000D01*
X158351000Y-106899000D01*
X158351000Y-108601000D01*
X158351000Y-108601000D01*
G37*
G36*
X144601000Y-105101000D02*
G01*
X143649000Y-105101000D01*
X143649000Y-103399000D01*
X144601000Y-103399000D01*
X144601000Y-105101000D01*
X144601000Y-105101000D01*
G37*
G36*
X138601000Y-105101000D02*
G01*
X137649000Y-105101000D01*
X137649000Y-103399000D01*
X138601000Y-103399000D01*
X138601000Y-105101000D01*
X138601000Y-105101000D01*
G37*
G36*
X110351000Y-105101000D02*
G01*
X109399000Y-105101000D01*
X109399000Y-103399000D01*
X110351000Y-103399000D01*
X110351000Y-105101000D01*
X110351000Y-105101000D01*
G37*
G36*
X114601000Y-105101000D02*
G01*
X113649000Y-105101000D01*
X113649000Y-103399000D01*
X114601000Y-103399000D01*
X114601000Y-105101000D01*
X114601000Y-105101000D01*
G37*
G36*
X116351000Y-105101000D02*
G01*
X115399000Y-105101000D01*
X115399000Y-103399000D01*
X116351000Y-103399000D01*
X116351000Y-105101000D01*
X116351000Y-105101000D01*
G37*
G36*
X120601000Y-105101000D02*
G01*
X119649000Y-105101000D01*
X119649000Y-103399000D01*
X120601000Y-103399000D01*
X120601000Y-105101000D01*
X120601000Y-105101000D01*
G37*
G36*
X122351000Y-105101000D02*
G01*
X121399000Y-105101000D01*
X121399000Y-103399000D01*
X122351000Y-103399000D01*
X122351000Y-105101000D01*
X122351000Y-105101000D01*
G37*
G36*
X126601000Y-105101000D02*
G01*
X125649000Y-105101000D01*
X125649000Y-103399000D01*
X126601000Y-103399000D01*
X126601000Y-105101000D01*
X126601000Y-105101000D01*
G37*
G36*
X128351000Y-105101000D02*
G01*
X127399000Y-105101000D01*
X127399000Y-103399000D01*
X128351000Y-103399000D01*
X128351000Y-105101000D01*
X128351000Y-105101000D01*
G37*
G36*
X132601000Y-105101000D02*
G01*
X131649000Y-105101000D01*
X131649000Y-103399000D01*
X132601000Y-103399000D01*
X132601000Y-105101000D01*
X132601000Y-105101000D01*
G37*
G36*
X134351000Y-105101000D02*
G01*
X133399000Y-105101000D01*
X133399000Y-103399000D01*
X134351000Y-103399000D01*
X134351000Y-105101000D01*
X134351000Y-105101000D01*
G37*
G36*
X104351000Y-105101000D02*
G01*
X103399000Y-105101000D01*
X103399000Y-103399000D01*
X104351000Y-103399000D01*
X104351000Y-105101000D01*
X104351000Y-105101000D01*
G37*
G36*
X102601000Y-105101000D02*
G01*
X101649000Y-105101000D01*
X101649000Y-103399000D01*
X102601000Y-103399000D01*
X102601000Y-105101000D01*
X102601000Y-105101000D01*
G37*
G36*
X108601000Y-105101000D02*
G01*
X107649000Y-105101000D01*
X107649000Y-103399000D01*
X108601000Y-103399000D01*
X108601000Y-105101000D01*
X108601000Y-105101000D01*
G37*
G36*
X140351000Y-105101000D02*
G01*
X139399000Y-105101000D01*
X139399000Y-103399000D01*
X140351000Y-103399000D01*
X140351000Y-105101000D01*
X140351000Y-105101000D01*
G37*
G36*
X150601000Y-105101000D02*
G01*
X149649000Y-105101000D01*
X149649000Y-103399000D01*
X150601000Y-103399000D01*
X150601000Y-105101000D01*
X150601000Y-105101000D01*
G37*
G36*
X90601000Y-105101000D02*
G01*
X89649000Y-105101000D01*
X89649000Y-103399000D01*
X90601000Y-103399000D01*
X90601000Y-105101000D01*
X90601000Y-105101000D01*
G37*
G36*
X146351000Y-105101000D02*
G01*
X145399000Y-105101000D01*
X145399000Y-103399000D01*
X146351000Y-103399000D01*
X146351000Y-105101000D01*
X146351000Y-105101000D01*
G37*
G36*
X98351000Y-105101000D02*
G01*
X97399000Y-105101000D01*
X97399000Y-103399000D01*
X98351000Y-103399000D01*
X98351000Y-105101000D01*
X98351000Y-105101000D01*
G37*
G36*
X96601000Y-105101000D02*
G01*
X95649000Y-105101000D01*
X95649000Y-103399000D01*
X96601000Y-103399000D01*
X96601000Y-105101000D01*
X96601000Y-105101000D01*
G37*
G36*
X156601000Y-105101000D02*
G01*
X155649000Y-105101000D01*
X155649000Y-103399000D01*
X156601000Y-103399000D01*
X156601000Y-105101000D01*
X156601000Y-105101000D01*
G37*
G36*
X176351000Y-105101000D02*
G01*
X175399000Y-105101000D01*
X175399000Y-103399000D01*
X176351000Y-103399000D01*
X176351000Y-105101000D01*
X176351000Y-105101000D01*
G37*
G36*
X174601000Y-105101000D02*
G01*
X173649000Y-105101000D01*
X173649000Y-103399000D01*
X174601000Y-103399000D01*
X174601000Y-105101000D01*
X174601000Y-105101000D01*
G37*
G36*
X168601000Y-105101000D02*
G01*
X167649000Y-105101000D01*
X167649000Y-103399000D01*
X168601000Y-103399000D01*
X168601000Y-105101000D01*
X168601000Y-105101000D01*
G37*
G36*
X170351000Y-105101000D02*
G01*
X169399000Y-105101000D01*
X169399000Y-103399000D01*
X170351000Y-103399000D01*
X170351000Y-105101000D01*
X170351000Y-105101000D01*
G37*
G36*
X164351000Y-105101000D02*
G01*
X163399000Y-105101000D01*
X163399000Y-103399000D01*
X164351000Y-103399000D01*
X164351000Y-105101000D01*
X164351000Y-105101000D01*
G37*
G36*
X162601000Y-105101000D02*
G01*
X161649000Y-105101000D01*
X161649000Y-103399000D01*
X162601000Y-103399000D01*
X162601000Y-105101000D01*
X162601000Y-105101000D01*
G37*
G36*
X92351000Y-105101000D02*
G01*
X91399000Y-105101000D01*
X91399000Y-103399000D01*
X92351000Y-103399000D01*
X92351000Y-105101000D01*
X92351000Y-105101000D01*
G37*
G36*
X158351000Y-105101000D02*
G01*
X157399000Y-105101000D01*
X157399000Y-103399000D01*
X158351000Y-103399000D01*
X158351000Y-105101000D01*
X158351000Y-105101000D01*
G37*
G36*
X152351000Y-105101000D02*
G01*
X151399000Y-105101000D01*
X151399000Y-103399000D01*
X152351000Y-103399000D01*
X152351000Y-105101000D01*
X152351000Y-105101000D01*
G37*
G36*
X180901000Y-103201000D02*
G01*
X177599000Y-103201000D01*
X177599000Y-100799000D01*
X180901000Y-100799000D01*
X180901000Y-103201000D01*
X180901000Y-103201000D01*
G37*
G36*
X138771938Y-101631716D02*
G01*
X138792557Y-101637971D01*
X138811553Y-101648124D01*
X138828208Y-101661792D01*
X138841876Y-101678447D01*
X138852029Y-101697443D01*
X138858284Y-101718062D01*
X138861000Y-101745640D01*
X138861000Y-102254360D01*
X138858284Y-102281938D01*
X138852029Y-102302557D01*
X138841876Y-102321553D01*
X138828208Y-102338208D01*
X138811553Y-102351876D01*
X138792557Y-102362029D01*
X138771938Y-102368284D01*
X138744360Y-102371000D01*
X138285640Y-102371000D01*
X138258062Y-102368284D01*
X138237443Y-102362029D01*
X138218447Y-102351876D01*
X138201792Y-102338208D01*
X138188124Y-102321553D01*
X138177971Y-102302557D01*
X138171716Y-102281938D01*
X138169000Y-102254360D01*
X138169000Y-101745640D01*
X138171716Y-101718062D01*
X138177971Y-101697443D01*
X138188124Y-101678447D01*
X138201792Y-101661792D01*
X138218447Y-101648124D01*
X138237443Y-101637971D01*
X138258062Y-101631716D01*
X138285640Y-101629000D01*
X138744360Y-101629000D01*
X138771938Y-101631716D01*
X138771938Y-101631716D01*
G37*
G36*
X139741938Y-101631716D02*
G01*
X139762557Y-101637971D01*
X139781553Y-101648124D01*
X139798208Y-101661792D01*
X139811876Y-101678447D01*
X139822029Y-101697443D01*
X139828284Y-101718062D01*
X139831000Y-101745640D01*
X139831000Y-102254360D01*
X139828284Y-102281938D01*
X139822029Y-102302557D01*
X139811876Y-102321553D01*
X139798208Y-102338208D01*
X139781553Y-102351876D01*
X139762557Y-102362029D01*
X139741938Y-102368284D01*
X139714360Y-102371000D01*
X139255640Y-102371000D01*
X139228062Y-102368284D01*
X139207443Y-102362029D01*
X139188447Y-102351876D01*
X139171792Y-102338208D01*
X139158124Y-102321553D01*
X139147971Y-102302557D01*
X139141716Y-102281938D01*
X139139000Y-102254360D01*
X139139000Y-101745640D01*
X139141716Y-101718062D01*
X139147971Y-101697443D01*
X139158124Y-101678447D01*
X139171792Y-101661792D01*
X139188447Y-101648124D01*
X139207443Y-101637971D01*
X139228062Y-101631716D01*
X139255640Y-101629000D01*
X139714360Y-101629000D01*
X139741938Y-101631716D01*
X139741938Y-101631716D01*
G37*
G36*
X144771938Y-101631716D02*
G01*
X144792557Y-101637971D01*
X144811553Y-101648124D01*
X144828208Y-101661792D01*
X144841876Y-101678447D01*
X144852029Y-101697443D01*
X144858284Y-101718062D01*
X144861000Y-101745640D01*
X144861000Y-102254360D01*
X144858284Y-102281938D01*
X144852029Y-102302557D01*
X144841876Y-102321553D01*
X144828208Y-102338208D01*
X144811553Y-102351876D01*
X144792557Y-102362029D01*
X144771938Y-102368284D01*
X144744360Y-102371000D01*
X144285640Y-102371000D01*
X144258062Y-102368284D01*
X144237443Y-102362029D01*
X144218447Y-102351876D01*
X144201792Y-102338208D01*
X144188124Y-102321553D01*
X144177971Y-102302557D01*
X144171716Y-102281938D01*
X144169000Y-102254360D01*
X144169000Y-101745640D01*
X144171716Y-101718062D01*
X144177971Y-101697443D01*
X144188124Y-101678447D01*
X144201792Y-101661792D01*
X144218447Y-101648124D01*
X144237443Y-101637971D01*
X144258062Y-101631716D01*
X144285640Y-101629000D01*
X144744360Y-101629000D01*
X144771938Y-101631716D01*
X144771938Y-101631716D01*
G37*
G36*
X145741938Y-101631716D02*
G01*
X145762557Y-101637971D01*
X145781553Y-101648124D01*
X145798208Y-101661792D01*
X145811876Y-101678447D01*
X145822029Y-101697443D01*
X145828284Y-101718062D01*
X145831000Y-101745640D01*
X145831000Y-102254360D01*
X145828284Y-102281938D01*
X145822029Y-102302557D01*
X145811876Y-102321553D01*
X145798208Y-102338208D01*
X145781553Y-102351876D01*
X145762557Y-102362029D01*
X145741938Y-102368284D01*
X145714360Y-102371000D01*
X145255640Y-102371000D01*
X145228062Y-102368284D01*
X145207443Y-102362029D01*
X145188447Y-102351876D01*
X145171792Y-102338208D01*
X145158124Y-102321553D01*
X145147971Y-102302557D01*
X145141716Y-102281938D01*
X145139000Y-102254360D01*
X145139000Y-101745640D01*
X145141716Y-101718062D01*
X145147971Y-101697443D01*
X145158124Y-101678447D01*
X145171792Y-101661792D01*
X145188447Y-101648124D01*
X145207443Y-101637971D01*
X145228062Y-101631716D01*
X145255640Y-101629000D01*
X145714360Y-101629000D01*
X145741938Y-101631716D01*
X145741938Y-101631716D01*
G37*
G36*
X147171938Y-101631716D02*
G01*
X147192557Y-101637971D01*
X147211553Y-101648124D01*
X147228208Y-101661792D01*
X147241876Y-101678447D01*
X147252029Y-101697443D01*
X147258284Y-101718062D01*
X147261000Y-101745640D01*
X147261000Y-102254360D01*
X147258284Y-102281938D01*
X147252029Y-102302557D01*
X147241876Y-102321553D01*
X147228208Y-102338208D01*
X147211553Y-102351876D01*
X147192557Y-102362029D01*
X147171938Y-102368284D01*
X147144360Y-102371000D01*
X146685640Y-102371000D01*
X146658062Y-102368284D01*
X146637443Y-102362029D01*
X146618447Y-102351876D01*
X146601792Y-102338208D01*
X146588124Y-102321553D01*
X146577971Y-102302557D01*
X146571716Y-102281938D01*
X146569000Y-102254360D01*
X146569000Y-101745640D01*
X146571716Y-101718062D01*
X146577971Y-101697443D01*
X146588124Y-101678447D01*
X146601792Y-101661792D01*
X146618447Y-101648124D01*
X146637443Y-101637971D01*
X146658062Y-101631716D01*
X146685640Y-101629000D01*
X147144360Y-101629000D01*
X147171938Y-101631716D01*
X147171938Y-101631716D01*
G37*
G36*
X148141938Y-101631716D02*
G01*
X148162557Y-101637971D01*
X148181553Y-101648124D01*
X148198208Y-101661792D01*
X148211876Y-101678447D01*
X148222029Y-101697443D01*
X148228284Y-101718062D01*
X148231000Y-101745640D01*
X148231000Y-102254360D01*
X148228284Y-102281938D01*
X148222029Y-102302557D01*
X148211876Y-102321553D01*
X148198208Y-102338208D01*
X148181553Y-102351876D01*
X148162557Y-102362029D01*
X148141938Y-102368284D01*
X148114360Y-102371000D01*
X147655640Y-102371000D01*
X147628062Y-102368284D01*
X147607443Y-102362029D01*
X147588447Y-102351876D01*
X147571792Y-102338208D01*
X147558124Y-102321553D01*
X147547971Y-102302557D01*
X147541716Y-102281938D01*
X147539000Y-102254360D01*
X147539000Y-101745640D01*
X147541716Y-101718062D01*
X147547971Y-101697443D01*
X147558124Y-101678447D01*
X147571792Y-101661792D01*
X147588447Y-101648124D01*
X147607443Y-101637971D01*
X147628062Y-101631716D01*
X147655640Y-101629000D01*
X148114360Y-101629000D01*
X148141938Y-101631716D01*
X148141938Y-101631716D01*
G37*
G36*
X156771938Y-101631716D02*
G01*
X156792557Y-101637971D01*
X156811553Y-101648124D01*
X156828208Y-101661792D01*
X156841876Y-101678447D01*
X156852029Y-101697443D01*
X156858284Y-101718062D01*
X156861000Y-101745640D01*
X156861000Y-102254360D01*
X156858284Y-102281938D01*
X156852029Y-102302557D01*
X156841876Y-102321553D01*
X156828208Y-102338208D01*
X156811553Y-102351876D01*
X156792557Y-102362029D01*
X156771938Y-102368284D01*
X156744360Y-102371000D01*
X156285640Y-102371000D01*
X156258062Y-102368284D01*
X156237443Y-102362029D01*
X156218447Y-102351876D01*
X156201792Y-102338208D01*
X156188124Y-102321553D01*
X156177971Y-102302557D01*
X156171716Y-102281938D01*
X156169000Y-102254360D01*
X156169000Y-101745640D01*
X156171716Y-101718062D01*
X156177971Y-101697443D01*
X156188124Y-101678447D01*
X156201792Y-101661792D01*
X156218447Y-101648124D01*
X156237443Y-101637971D01*
X156258062Y-101631716D01*
X156285640Y-101629000D01*
X156744360Y-101629000D01*
X156771938Y-101631716D01*
X156771938Y-101631716D01*
G37*
G36*
X157741938Y-101631716D02*
G01*
X157762557Y-101637971D01*
X157781553Y-101648124D01*
X157798208Y-101661792D01*
X157811876Y-101678447D01*
X157822029Y-101697443D01*
X157828284Y-101718062D01*
X157831000Y-101745640D01*
X157831000Y-102254360D01*
X157828284Y-102281938D01*
X157822029Y-102302557D01*
X157811876Y-102321553D01*
X157798208Y-102338208D01*
X157781553Y-102351876D01*
X157762557Y-102362029D01*
X157741938Y-102368284D01*
X157714360Y-102371000D01*
X157255640Y-102371000D01*
X157228062Y-102368284D01*
X157207443Y-102362029D01*
X157188447Y-102351876D01*
X157171792Y-102338208D01*
X157158124Y-102321553D01*
X157147971Y-102302557D01*
X157141716Y-102281938D01*
X157139000Y-102254360D01*
X157139000Y-101745640D01*
X157141716Y-101718062D01*
X157147971Y-101697443D01*
X157158124Y-101678447D01*
X157171792Y-101661792D01*
X157188447Y-101648124D01*
X157207443Y-101637971D01*
X157228062Y-101631716D01*
X157255640Y-101629000D01*
X157714360Y-101629000D01*
X157741938Y-101631716D01*
X157741938Y-101631716D01*
G37*
G36*
X162571938Y-101631716D02*
G01*
X162592557Y-101637971D01*
X162611553Y-101648124D01*
X162628208Y-101661792D01*
X162641876Y-101678447D01*
X162652029Y-101697443D01*
X162658284Y-101718062D01*
X162661000Y-101745640D01*
X162661000Y-102254360D01*
X162658284Y-102281938D01*
X162652029Y-102302557D01*
X162641876Y-102321553D01*
X162628208Y-102338208D01*
X162611553Y-102351876D01*
X162592557Y-102362029D01*
X162571938Y-102368284D01*
X162544360Y-102371000D01*
X162085640Y-102371000D01*
X162058062Y-102368284D01*
X162037443Y-102362029D01*
X162018447Y-102351876D01*
X162001792Y-102338208D01*
X161988124Y-102321553D01*
X161977971Y-102302557D01*
X161971716Y-102281938D01*
X161969000Y-102254360D01*
X161969000Y-101745640D01*
X161971716Y-101718062D01*
X161977971Y-101697443D01*
X161988124Y-101678447D01*
X162001792Y-101661792D01*
X162018447Y-101648124D01*
X162037443Y-101637971D01*
X162058062Y-101631716D01*
X162085640Y-101629000D01*
X162544360Y-101629000D01*
X162571938Y-101631716D01*
X162571938Y-101631716D01*
G37*
G36*
X163541938Y-101631716D02*
G01*
X163562557Y-101637971D01*
X163581553Y-101648124D01*
X163598208Y-101661792D01*
X163611876Y-101678447D01*
X163622029Y-101697443D01*
X163628284Y-101718062D01*
X163631000Y-101745640D01*
X163631000Y-102254360D01*
X163628284Y-102281938D01*
X163622029Y-102302557D01*
X163611876Y-102321553D01*
X163598208Y-102338208D01*
X163581553Y-102351876D01*
X163562557Y-102362029D01*
X163541938Y-102368284D01*
X163514360Y-102371000D01*
X163055640Y-102371000D01*
X163028062Y-102368284D01*
X163007443Y-102362029D01*
X162988447Y-102351876D01*
X162971792Y-102338208D01*
X162958124Y-102321553D01*
X162947971Y-102302557D01*
X162941716Y-102281938D01*
X162939000Y-102254360D01*
X162939000Y-101745640D01*
X162941716Y-101718062D01*
X162947971Y-101697443D01*
X162958124Y-101678447D01*
X162971792Y-101661792D01*
X162988447Y-101648124D01*
X163007443Y-101637971D01*
X163028062Y-101631716D01*
X163055640Y-101629000D01*
X163514360Y-101629000D01*
X163541938Y-101631716D01*
X163541938Y-101631716D01*
G37*
G36*
X168771938Y-101631716D02*
G01*
X168792557Y-101637971D01*
X168811553Y-101648124D01*
X168828208Y-101661792D01*
X168841876Y-101678447D01*
X168852029Y-101697443D01*
X168858284Y-101718062D01*
X168861000Y-101745640D01*
X168861000Y-102254360D01*
X168858284Y-102281938D01*
X168852029Y-102302557D01*
X168841876Y-102321553D01*
X168828208Y-102338208D01*
X168811553Y-102351876D01*
X168792557Y-102362029D01*
X168771938Y-102368284D01*
X168744360Y-102371000D01*
X168285640Y-102371000D01*
X168258062Y-102368284D01*
X168237443Y-102362029D01*
X168218447Y-102351876D01*
X168201792Y-102338208D01*
X168188124Y-102321553D01*
X168177971Y-102302557D01*
X168171716Y-102281938D01*
X168169000Y-102254360D01*
X168169000Y-101745640D01*
X168171716Y-101718062D01*
X168177971Y-101697443D01*
X168188124Y-101678447D01*
X168201792Y-101661792D01*
X168218447Y-101648124D01*
X168237443Y-101637971D01*
X168258062Y-101631716D01*
X168285640Y-101629000D01*
X168744360Y-101629000D01*
X168771938Y-101631716D01*
X168771938Y-101631716D01*
G37*
G36*
X174771938Y-101631716D02*
G01*
X174792557Y-101637971D01*
X174811553Y-101648124D01*
X174828208Y-101661792D01*
X174841876Y-101678447D01*
X174852029Y-101697443D01*
X174858284Y-101718062D01*
X174861000Y-101745640D01*
X174861000Y-102254360D01*
X174858284Y-102281938D01*
X174852029Y-102302557D01*
X174841876Y-102321553D01*
X174828208Y-102338208D01*
X174811553Y-102351876D01*
X174792557Y-102362029D01*
X174771938Y-102368284D01*
X174744360Y-102371000D01*
X174285640Y-102371000D01*
X174258062Y-102368284D01*
X174237443Y-102362029D01*
X174218447Y-102351876D01*
X174201792Y-102338208D01*
X174188124Y-102321553D01*
X174177971Y-102302557D01*
X174171716Y-102281938D01*
X174169000Y-102254360D01*
X174169000Y-101745640D01*
X174171716Y-101718062D01*
X174177971Y-101697443D01*
X174188124Y-101678447D01*
X174201792Y-101661792D01*
X174218447Y-101648124D01*
X174237443Y-101637971D01*
X174258062Y-101631716D01*
X174285640Y-101629000D01*
X174744360Y-101629000D01*
X174771938Y-101631716D01*
X174771938Y-101631716D01*
G37*
G36*
X175741938Y-101631716D02*
G01*
X175762557Y-101637971D01*
X175781553Y-101648124D01*
X175798208Y-101661792D01*
X175811876Y-101678447D01*
X175822029Y-101697443D01*
X175828284Y-101718062D01*
X175831000Y-101745640D01*
X175831000Y-102254360D01*
X175828284Y-102281938D01*
X175822029Y-102302557D01*
X175811876Y-102321553D01*
X175798208Y-102338208D01*
X175781553Y-102351876D01*
X175762557Y-102362029D01*
X175741938Y-102368284D01*
X175714360Y-102371000D01*
X175255640Y-102371000D01*
X175228062Y-102368284D01*
X175207443Y-102362029D01*
X175188447Y-102351876D01*
X175171792Y-102338208D01*
X175158124Y-102321553D01*
X175147971Y-102302557D01*
X175141716Y-102281938D01*
X175139000Y-102254360D01*
X175139000Y-101745640D01*
X175141716Y-101718062D01*
X175147971Y-101697443D01*
X175158124Y-101678447D01*
X175171792Y-101661792D01*
X175188447Y-101648124D01*
X175207443Y-101637971D01*
X175228062Y-101631716D01*
X175255640Y-101629000D01*
X175714360Y-101629000D01*
X175741938Y-101631716D01*
X175741938Y-101631716D01*
G37*
G36*
X90771938Y-101631716D02*
G01*
X90792557Y-101637971D01*
X90811553Y-101648124D01*
X90828208Y-101661792D01*
X90841876Y-101678447D01*
X90852029Y-101697443D01*
X90858284Y-101718062D01*
X90861000Y-101745640D01*
X90861000Y-102254360D01*
X90858284Y-102281938D01*
X90852029Y-102302557D01*
X90841876Y-102321553D01*
X90828208Y-102338208D01*
X90811553Y-102351876D01*
X90792557Y-102362029D01*
X90771938Y-102368284D01*
X90744360Y-102371000D01*
X90285640Y-102371000D01*
X90258062Y-102368284D01*
X90237443Y-102362029D01*
X90218447Y-102351876D01*
X90201792Y-102338208D01*
X90188124Y-102321553D01*
X90177971Y-102302557D01*
X90171716Y-102281938D01*
X90169000Y-102254360D01*
X90169000Y-101745640D01*
X90171716Y-101718062D01*
X90177971Y-101697443D01*
X90188124Y-101678447D01*
X90201792Y-101661792D01*
X90218447Y-101648124D01*
X90237443Y-101637971D01*
X90258062Y-101631716D01*
X90285640Y-101629000D01*
X90744360Y-101629000D01*
X90771938Y-101631716D01*
X90771938Y-101631716D01*
G37*
G36*
X126771938Y-101631716D02*
G01*
X126792557Y-101637971D01*
X126811553Y-101648124D01*
X126828208Y-101661792D01*
X126841876Y-101678447D01*
X126852029Y-101697443D01*
X126858284Y-101718062D01*
X126861000Y-101745640D01*
X126861000Y-102254360D01*
X126858284Y-102281938D01*
X126852029Y-102302557D01*
X126841876Y-102321553D01*
X126828208Y-102338208D01*
X126811553Y-102351876D01*
X126792557Y-102362029D01*
X126771938Y-102368284D01*
X126744360Y-102371000D01*
X126285640Y-102371000D01*
X126258062Y-102368284D01*
X126237443Y-102362029D01*
X126218447Y-102351876D01*
X126201792Y-102338208D01*
X126188124Y-102321553D01*
X126177971Y-102302557D01*
X126171716Y-102281938D01*
X126169000Y-102254360D01*
X126169000Y-101745640D01*
X126171716Y-101718062D01*
X126177971Y-101697443D01*
X126188124Y-101678447D01*
X126201792Y-101661792D01*
X126218447Y-101648124D01*
X126237443Y-101637971D01*
X126258062Y-101631716D01*
X126285640Y-101629000D01*
X126744360Y-101629000D01*
X126771938Y-101631716D01*
X126771938Y-101631716D01*
G37*
G36*
X169741938Y-101631716D02*
G01*
X169762557Y-101637971D01*
X169781553Y-101648124D01*
X169798208Y-101661792D01*
X169811876Y-101678447D01*
X169822029Y-101697443D01*
X169828284Y-101718062D01*
X169831000Y-101745640D01*
X169831000Y-102254360D01*
X169828284Y-102281938D01*
X169822029Y-102302557D01*
X169811876Y-102321553D01*
X169798208Y-102338208D01*
X169781553Y-102351876D01*
X169762557Y-102362029D01*
X169741938Y-102368284D01*
X169714360Y-102371000D01*
X169255640Y-102371000D01*
X169228062Y-102368284D01*
X169207443Y-102362029D01*
X169188447Y-102351876D01*
X169171792Y-102338208D01*
X169158124Y-102321553D01*
X169147971Y-102302557D01*
X169141716Y-102281938D01*
X169139000Y-102254360D01*
X169139000Y-101745640D01*
X169141716Y-101718062D01*
X169147971Y-101697443D01*
X169158124Y-101678447D01*
X169171792Y-101661792D01*
X169188447Y-101648124D01*
X169207443Y-101637971D01*
X169228062Y-101631716D01*
X169255640Y-101629000D01*
X169714360Y-101629000D01*
X169741938Y-101631716D01*
X169741938Y-101631716D01*
G37*
G36*
X132771938Y-101631716D02*
G01*
X132792557Y-101637971D01*
X132811553Y-101648124D01*
X132828208Y-101661792D01*
X132841876Y-101678447D01*
X132852029Y-101697443D01*
X132858284Y-101718062D01*
X132861000Y-101745640D01*
X132861000Y-102254360D01*
X132858284Y-102281938D01*
X132852029Y-102302557D01*
X132841876Y-102321553D01*
X132828208Y-102338208D01*
X132811553Y-102351876D01*
X132792557Y-102362029D01*
X132771938Y-102368284D01*
X132744360Y-102371000D01*
X132285640Y-102371000D01*
X132258062Y-102368284D01*
X132237443Y-102362029D01*
X132218447Y-102351876D01*
X132201792Y-102338208D01*
X132188124Y-102321553D01*
X132177971Y-102302557D01*
X132171716Y-102281938D01*
X132169000Y-102254360D01*
X132169000Y-101745640D01*
X132171716Y-101718062D01*
X132177971Y-101697443D01*
X132188124Y-101678447D01*
X132201792Y-101661792D01*
X132218447Y-101648124D01*
X132237443Y-101637971D01*
X132258062Y-101631716D01*
X132285640Y-101629000D01*
X132744360Y-101629000D01*
X132771938Y-101631716D01*
X132771938Y-101631716D01*
G37*
G36*
X97741938Y-101631716D02*
G01*
X97762557Y-101637971D01*
X97781553Y-101648124D01*
X97798208Y-101661792D01*
X97811876Y-101678447D01*
X97822029Y-101697443D01*
X97828284Y-101718062D01*
X97831000Y-101745640D01*
X97831000Y-102254360D01*
X97828284Y-102281938D01*
X97822029Y-102302557D01*
X97811876Y-102321553D01*
X97798208Y-102338208D01*
X97781553Y-102351876D01*
X97762557Y-102362029D01*
X97741938Y-102368284D01*
X97714360Y-102371000D01*
X97255640Y-102371000D01*
X97228062Y-102368284D01*
X97207443Y-102362029D01*
X97188447Y-102351876D01*
X97171792Y-102338208D01*
X97158124Y-102321553D01*
X97147971Y-102302557D01*
X97141716Y-102281938D01*
X97139000Y-102254360D01*
X97139000Y-101745640D01*
X97141716Y-101718062D01*
X97147971Y-101697443D01*
X97158124Y-101678447D01*
X97171792Y-101661792D01*
X97188447Y-101648124D01*
X97207443Y-101637971D01*
X97228062Y-101631716D01*
X97255640Y-101629000D01*
X97714360Y-101629000D01*
X97741938Y-101631716D01*
X97741938Y-101631716D01*
G37*
G36*
X133741938Y-101631716D02*
G01*
X133762557Y-101637971D01*
X133781553Y-101648124D01*
X133798208Y-101661792D01*
X133811876Y-101678447D01*
X133822029Y-101697443D01*
X133828284Y-101718062D01*
X133831000Y-101745640D01*
X133831000Y-102254360D01*
X133828284Y-102281938D01*
X133822029Y-102302557D01*
X133811876Y-102321553D01*
X133798208Y-102338208D01*
X133781553Y-102351876D01*
X133762557Y-102362029D01*
X133741938Y-102368284D01*
X133714360Y-102371000D01*
X133255640Y-102371000D01*
X133228062Y-102368284D01*
X133207443Y-102362029D01*
X133188447Y-102351876D01*
X133171792Y-102338208D01*
X133158124Y-102321553D01*
X133147971Y-102302557D01*
X133141716Y-102281938D01*
X133139000Y-102254360D01*
X133139000Y-101745640D01*
X133141716Y-101718062D01*
X133147971Y-101697443D01*
X133158124Y-101678447D01*
X133171792Y-101661792D01*
X133188447Y-101648124D01*
X133207443Y-101637971D01*
X133228062Y-101631716D01*
X133255640Y-101629000D01*
X133714360Y-101629000D01*
X133741938Y-101631716D01*
X133741938Y-101631716D01*
G37*
G36*
X91741938Y-101631716D02*
G01*
X91762557Y-101637971D01*
X91781553Y-101648124D01*
X91798208Y-101661792D01*
X91811876Y-101678447D01*
X91822029Y-101697443D01*
X91828284Y-101718062D01*
X91831000Y-101745640D01*
X91831000Y-102254360D01*
X91828284Y-102281938D01*
X91822029Y-102302557D01*
X91811876Y-102321553D01*
X91798208Y-102338208D01*
X91781553Y-102351876D01*
X91762557Y-102362029D01*
X91741938Y-102368284D01*
X91714360Y-102371000D01*
X91255640Y-102371000D01*
X91228062Y-102368284D01*
X91207443Y-102362029D01*
X91188447Y-102351876D01*
X91171792Y-102338208D01*
X91158124Y-102321553D01*
X91147971Y-102302557D01*
X91141716Y-102281938D01*
X91139000Y-102254360D01*
X91139000Y-101745640D01*
X91141716Y-101718062D01*
X91147971Y-101697443D01*
X91158124Y-101678447D01*
X91171792Y-101661792D01*
X91188447Y-101648124D01*
X91207443Y-101637971D01*
X91228062Y-101631716D01*
X91255640Y-101629000D01*
X91714360Y-101629000D01*
X91741938Y-101631716D01*
X91741938Y-101631716D01*
G37*
G36*
X96771938Y-101631716D02*
G01*
X96792557Y-101637971D01*
X96811553Y-101648124D01*
X96828208Y-101661792D01*
X96841876Y-101678447D01*
X96852029Y-101697443D01*
X96858284Y-101718062D01*
X96861000Y-101745640D01*
X96861000Y-102254360D01*
X96858284Y-102281938D01*
X96852029Y-102302557D01*
X96841876Y-102321553D01*
X96828208Y-102338208D01*
X96811553Y-102351876D01*
X96792557Y-102362029D01*
X96771938Y-102368284D01*
X96744360Y-102371000D01*
X96285640Y-102371000D01*
X96258062Y-102368284D01*
X96237443Y-102362029D01*
X96218447Y-102351876D01*
X96201792Y-102338208D01*
X96188124Y-102321553D01*
X96177971Y-102302557D01*
X96171716Y-102281938D01*
X96169000Y-102254360D01*
X96169000Y-101745640D01*
X96171716Y-101718062D01*
X96177971Y-101697443D01*
X96188124Y-101678447D01*
X96201792Y-101661792D01*
X96218447Y-101648124D01*
X96237443Y-101637971D01*
X96258062Y-101631716D01*
X96285640Y-101629000D01*
X96744360Y-101629000D01*
X96771938Y-101631716D01*
X96771938Y-101631716D01*
G37*
G36*
X102771938Y-101631716D02*
G01*
X102792557Y-101637971D01*
X102811553Y-101648124D01*
X102828208Y-101661792D01*
X102841876Y-101678447D01*
X102852029Y-101697443D01*
X102858284Y-101718062D01*
X102861000Y-101745640D01*
X102861000Y-102254360D01*
X102858284Y-102281938D01*
X102852029Y-102302557D01*
X102841876Y-102321553D01*
X102828208Y-102338208D01*
X102811553Y-102351876D01*
X102792557Y-102362029D01*
X102771938Y-102368284D01*
X102744360Y-102371000D01*
X102285640Y-102371000D01*
X102258062Y-102368284D01*
X102237443Y-102362029D01*
X102218447Y-102351876D01*
X102201792Y-102338208D01*
X102188124Y-102321553D01*
X102177971Y-102302557D01*
X102171716Y-102281938D01*
X102169000Y-102254360D01*
X102169000Y-101745640D01*
X102171716Y-101718062D01*
X102177971Y-101697443D01*
X102188124Y-101678447D01*
X102201792Y-101661792D01*
X102218447Y-101648124D01*
X102237443Y-101637971D01*
X102258062Y-101631716D01*
X102285640Y-101629000D01*
X102744360Y-101629000D01*
X102771938Y-101631716D01*
X102771938Y-101631716D01*
G37*
G36*
X103741938Y-101631716D02*
G01*
X103762557Y-101637971D01*
X103781553Y-101648124D01*
X103798208Y-101661792D01*
X103811876Y-101678447D01*
X103822029Y-101697443D01*
X103828284Y-101718062D01*
X103831000Y-101745640D01*
X103831000Y-102254360D01*
X103828284Y-102281938D01*
X103822029Y-102302557D01*
X103811876Y-102321553D01*
X103798208Y-102338208D01*
X103781553Y-102351876D01*
X103762557Y-102362029D01*
X103741938Y-102368284D01*
X103714360Y-102371000D01*
X103255640Y-102371000D01*
X103228062Y-102368284D01*
X103207443Y-102362029D01*
X103188447Y-102351876D01*
X103171792Y-102338208D01*
X103158124Y-102321553D01*
X103147971Y-102302557D01*
X103141716Y-102281938D01*
X103139000Y-102254360D01*
X103139000Y-101745640D01*
X103141716Y-101718062D01*
X103147971Y-101697443D01*
X103158124Y-101678447D01*
X103171792Y-101661792D01*
X103188447Y-101648124D01*
X103207443Y-101637971D01*
X103228062Y-101631716D01*
X103255640Y-101629000D01*
X103714360Y-101629000D01*
X103741938Y-101631716D01*
X103741938Y-101631716D01*
G37*
G36*
X109941938Y-101631716D02*
G01*
X109962557Y-101637971D01*
X109981553Y-101648124D01*
X109998208Y-101661792D01*
X110011876Y-101678447D01*
X110022029Y-101697443D01*
X110028284Y-101718062D01*
X110031000Y-101745640D01*
X110031000Y-102254360D01*
X110028284Y-102281938D01*
X110022029Y-102302557D01*
X110011876Y-102321553D01*
X109998208Y-102338208D01*
X109981553Y-102351876D01*
X109962557Y-102362029D01*
X109941938Y-102368284D01*
X109914360Y-102371000D01*
X109455640Y-102371000D01*
X109428062Y-102368284D01*
X109407443Y-102362029D01*
X109388447Y-102351876D01*
X109371792Y-102338208D01*
X109358124Y-102321553D01*
X109347971Y-102302557D01*
X109341716Y-102281938D01*
X109339000Y-102254360D01*
X109339000Y-101745640D01*
X109341716Y-101718062D01*
X109347971Y-101697443D01*
X109358124Y-101678447D01*
X109371792Y-101661792D01*
X109388447Y-101648124D01*
X109407443Y-101637971D01*
X109428062Y-101631716D01*
X109455640Y-101629000D01*
X109914360Y-101629000D01*
X109941938Y-101631716D01*
X109941938Y-101631716D01*
G37*
G36*
X127741938Y-101631716D02*
G01*
X127762557Y-101637971D01*
X127781553Y-101648124D01*
X127798208Y-101661792D01*
X127811876Y-101678447D01*
X127822029Y-101697443D01*
X127828284Y-101718062D01*
X127831000Y-101745640D01*
X127831000Y-102254360D01*
X127828284Y-102281938D01*
X127822029Y-102302557D01*
X127811876Y-102321553D01*
X127798208Y-102338208D01*
X127781553Y-102351876D01*
X127762557Y-102362029D01*
X127741938Y-102368284D01*
X127714360Y-102371000D01*
X127255640Y-102371000D01*
X127228062Y-102368284D01*
X127207443Y-102362029D01*
X127188447Y-102351876D01*
X127171792Y-102338208D01*
X127158124Y-102321553D01*
X127147971Y-102302557D01*
X127141716Y-102281938D01*
X127139000Y-102254360D01*
X127139000Y-101745640D01*
X127141716Y-101718062D01*
X127147971Y-101697443D01*
X127158124Y-101678447D01*
X127171792Y-101661792D01*
X127188447Y-101648124D01*
X127207443Y-101637971D01*
X127228062Y-101631716D01*
X127255640Y-101629000D01*
X127714360Y-101629000D01*
X127741938Y-101631716D01*
X127741938Y-101631716D01*
G37*
G36*
X121741938Y-101631716D02*
G01*
X121762557Y-101637971D01*
X121781553Y-101648124D01*
X121798208Y-101661792D01*
X121811876Y-101678447D01*
X121822029Y-101697443D01*
X121828284Y-101718062D01*
X121831000Y-101745640D01*
X121831000Y-102254360D01*
X121828284Y-102281938D01*
X121822029Y-102302557D01*
X121811876Y-102321553D01*
X121798208Y-102338208D01*
X121781553Y-102351876D01*
X121762557Y-102362029D01*
X121741938Y-102368284D01*
X121714360Y-102371000D01*
X121255640Y-102371000D01*
X121228062Y-102368284D01*
X121207443Y-102362029D01*
X121188447Y-102351876D01*
X121171792Y-102338208D01*
X121158124Y-102321553D01*
X121147971Y-102302557D01*
X121141716Y-102281938D01*
X121139000Y-102254360D01*
X121139000Y-101745640D01*
X121141716Y-101718062D01*
X121147971Y-101697443D01*
X121158124Y-101678447D01*
X121171792Y-101661792D01*
X121188447Y-101648124D01*
X121207443Y-101637971D01*
X121228062Y-101631716D01*
X121255640Y-101629000D01*
X121714360Y-101629000D01*
X121741938Y-101631716D01*
X121741938Y-101631716D01*
G37*
G36*
X120771938Y-101631716D02*
G01*
X120792557Y-101637971D01*
X120811553Y-101648124D01*
X120828208Y-101661792D01*
X120841876Y-101678447D01*
X120852029Y-101697443D01*
X120858284Y-101718062D01*
X120861000Y-101745640D01*
X120861000Y-102254360D01*
X120858284Y-102281938D01*
X120852029Y-102302557D01*
X120841876Y-102321553D01*
X120828208Y-102338208D01*
X120811553Y-102351876D01*
X120792557Y-102362029D01*
X120771938Y-102368284D01*
X120744360Y-102371000D01*
X120285640Y-102371000D01*
X120258062Y-102368284D01*
X120237443Y-102362029D01*
X120218447Y-102351876D01*
X120201792Y-102338208D01*
X120188124Y-102321553D01*
X120177971Y-102302557D01*
X120171716Y-102281938D01*
X120169000Y-102254360D01*
X120169000Y-101745640D01*
X120171716Y-101718062D01*
X120177971Y-101697443D01*
X120188124Y-101678447D01*
X120201792Y-101661792D01*
X120218447Y-101648124D01*
X120237443Y-101637971D01*
X120258062Y-101631716D01*
X120285640Y-101629000D01*
X120744360Y-101629000D01*
X120771938Y-101631716D01*
X120771938Y-101631716D01*
G37*
G36*
X114771938Y-101631716D02*
G01*
X114792557Y-101637971D01*
X114811553Y-101648124D01*
X114828208Y-101661792D01*
X114841876Y-101678447D01*
X114852029Y-101697443D01*
X114858284Y-101718062D01*
X114861000Y-101745640D01*
X114861000Y-102254360D01*
X114858284Y-102281938D01*
X114852029Y-102302557D01*
X114841876Y-102321553D01*
X114828208Y-102338208D01*
X114811553Y-102351876D01*
X114792557Y-102362029D01*
X114771938Y-102368284D01*
X114744360Y-102371000D01*
X114285640Y-102371000D01*
X114258062Y-102368284D01*
X114237443Y-102362029D01*
X114218447Y-102351876D01*
X114201792Y-102338208D01*
X114188124Y-102321553D01*
X114177971Y-102302557D01*
X114171716Y-102281938D01*
X114169000Y-102254360D01*
X114169000Y-101745640D01*
X114171716Y-101718062D01*
X114177971Y-101697443D01*
X114188124Y-101678447D01*
X114201792Y-101661792D01*
X114218447Y-101648124D01*
X114237443Y-101637971D01*
X114258062Y-101631716D01*
X114285640Y-101629000D01*
X114744360Y-101629000D01*
X114771938Y-101631716D01*
X114771938Y-101631716D01*
G37*
G36*
X108971938Y-101631716D02*
G01*
X108992557Y-101637971D01*
X109011553Y-101648124D01*
X109028208Y-101661792D01*
X109041876Y-101678447D01*
X109052029Y-101697443D01*
X109058284Y-101718062D01*
X109061000Y-101745640D01*
X109061000Y-102254360D01*
X109058284Y-102281938D01*
X109052029Y-102302557D01*
X109041876Y-102321553D01*
X109028208Y-102338208D01*
X109011553Y-102351876D01*
X108992557Y-102362029D01*
X108971938Y-102368284D01*
X108944360Y-102371000D01*
X108485640Y-102371000D01*
X108458062Y-102368284D01*
X108437443Y-102362029D01*
X108418447Y-102351876D01*
X108401792Y-102338208D01*
X108388124Y-102321553D01*
X108377971Y-102302557D01*
X108371716Y-102281938D01*
X108369000Y-102254360D01*
X108369000Y-101745640D01*
X108371716Y-101718062D01*
X108377971Y-101697443D01*
X108388124Y-101678447D01*
X108401792Y-101661792D01*
X108418447Y-101648124D01*
X108437443Y-101637971D01*
X108458062Y-101631716D01*
X108485640Y-101629000D01*
X108944360Y-101629000D01*
X108971938Y-101631716D01*
X108971938Y-101631716D01*
G37*
G36*
X115741938Y-101631716D02*
G01*
X115762557Y-101637971D01*
X115781553Y-101648124D01*
X115798208Y-101661792D01*
X115811876Y-101678447D01*
X115822029Y-101697443D01*
X115828284Y-101718062D01*
X115831000Y-101745640D01*
X115831000Y-102254360D01*
X115828284Y-102281938D01*
X115822029Y-102302557D01*
X115811876Y-102321553D01*
X115798208Y-102338208D01*
X115781553Y-102351876D01*
X115762557Y-102362029D01*
X115741938Y-102368284D01*
X115714360Y-102371000D01*
X115255640Y-102371000D01*
X115228062Y-102368284D01*
X115207443Y-102362029D01*
X115188447Y-102351876D01*
X115171792Y-102338208D01*
X115158124Y-102321553D01*
X115147971Y-102302557D01*
X115141716Y-102281938D01*
X115139000Y-102254360D01*
X115139000Y-101745640D01*
X115141716Y-101718062D01*
X115147971Y-101697443D01*
X115158124Y-101678447D01*
X115171792Y-101661792D01*
X115188447Y-101648124D01*
X115207443Y-101637971D01*
X115228062Y-101631716D01*
X115255640Y-101629000D01*
X115714360Y-101629000D01*
X115741938Y-101631716D01*
X115741938Y-101631716D01*
G37*
G36*
X175998228Y-99031703D02*
G01*
X176153100Y-99095853D01*
X176292481Y-99188985D01*
X176411015Y-99307519D01*
X176504147Y-99446900D01*
X176568297Y-99601772D01*
X176601000Y-99766184D01*
X176601000Y-99933816D01*
X176568297Y-100098228D01*
X176504147Y-100253100D01*
X176411015Y-100392481D01*
X176292481Y-100511015D01*
X176153100Y-100604147D01*
X175998228Y-100668297D01*
X175833816Y-100701000D01*
X175666184Y-100701000D01*
X175501772Y-100668297D01*
X175346900Y-100604147D01*
X175207519Y-100511015D01*
X175088985Y-100392481D01*
X174995853Y-100253100D01*
X174931703Y-100098228D01*
X174899000Y-99933816D01*
X174899000Y-99766184D01*
X174931703Y-99601772D01*
X174995853Y-99446900D01*
X175088985Y-99307519D01*
X175207519Y-99188985D01*
X175346900Y-99095853D01*
X175501772Y-99031703D01*
X175666184Y-98999000D01*
X175833816Y-98999000D01*
X175998228Y-99031703D01*
X175998228Y-99031703D01*
G37*
G36*
X109031000Y-98271700D02*
G01*
X109033402Y-98296086D01*
X109040515Y-98319535D01*
X109052066Y-98341146D01*
X109067611Y-98360088D01*
X109086553Y-98375633D01*
X109108164Y-98387184D01*
X109131613Y-98394297D01*
X109155999Y-98396699D01*
X109180385Y-98394297D01*
X109203834Y-98387184D01*
X109225445Y-98375633D01*
X109244387Y-98360088D01*
X109255049Y-98347096D01*
X109257783Y-98344362D01*
X109257784Y-98344360D01*
X109369360Y-98232784D01*
X109500561Y-98145119D01*
X109500562Y-98145118D01*
X109646343Y-98084733D01*
X109801102Y-98053950D01*
X109958898Y-98053950D01*
X110113657Y-98084733D01*
X110259438Y-98145118D01*
X110259439Y-98145119D01*
X110390640Y-98232784D01*
X110502216Y-98344360D01*
X110538725Y-98399000D01*
X110589882Y-98475562D01*
X110650267Y-98621343D01*
X110681050Y-98776102D01*
X110681050Y-98933898D01*
X110650267Y-99088657D01*
X110589882Y-99234438D01*
X110589881Y-99234439D01*
X110502216Y-99365640D01*
X110390640Y-99477216D01*
X110355044Y-99501000D01*
X110259438Y-99564882D01*
X110113657Y-99625267D01*
X109958898Y-99656050D01*
X109801102Y-99656050D01*
X109646343Y-99625267D01*
X109500562Y-99564882D01*
X109404956Y-99501000D01*
X109369360Y-99477216D01*
X109257784Y-99365640D01*
X109170119Y-99234439D01*
X109170118Y-99234438D01*
X109109733Y-99088657D01*
X109078950Y-98933898D01*
X109078950Y-98776102D01*
X109109733Y-98621345D01*
X109127341Y-98578835D01*
X109134454Y-98555386D01*
X109136856Y-98531000D01*
X109134454Y-98506614D01*
X109127341Y-98483165D01*
X109115790Y-98461554D01*
X109100245Y-98442612D01*
X109081303Y-98427067D01*
X109059693Y-98415515D01*
X109036244Y-98408402D01*
X109011857Y-98406000D01*
X107129000Y-98406000D01*
X107129000Y-96504000D01*
X109031000Y-96504000D01*
X109031000Y-98271700D01*
X109031000Y-98271700D01*
G37*
G36*
X99281000Y-98271700D02*
G01*
X99283402Y-98296086D01*
X99290515Y-98319535D01*
X99302066Y-98341146D01*
X99317611Y-98360088D01*
X99336553Y-98375633D01*
X99358164Y-98387184D01*
X99381613Y-98394297D01*
X99405999Y-98396699D01*
X99430385Y-98394297D01*
X99453834Y-98387184D01*
X99475445Y-98375633D01*
X99494387Y-98360088D01*
X99505049Y-98347096D01*
X99507783Y-98344362D01*
X99507784Y-98344360D01*
X99619360Y-98232784D01*
X99750561Y-98145119D01*
X99750562Y-98145118D01*
X99896343Y-98084733D01*
X100051102Y-98053950D01*
X100208898Y-98053950D01*
X100363657Y-98084733D01*
X100509438Y-98145118D01*
X100509439Y-98145119D01*
X100640640Y-98232784D01*
X100752216Y-98344360D01*
X100788725Y-98399000D01*
X100839882Y-98475562D01*
X100900267Y-98621343D01*
X100931050Y-98776102D01*
X100931050Y-98933898D01*
X100900267Y-99088657D01*
X100839882Y-99234438D01*
X100839881Y-99234439D01*
X100752216Y-99365640D01*
X100640640Y-99477216D01*
X100605044Y-99501000D01*
X100509438Y-99564882D01*
X100363657Y-99625267D01*
X100208898Y-99656050D01*
X100051102Y-99656050D01*
X99896343Y-99625267D01*
X99750562Y-99564882D01*
X99654956Y-99501000D01*
X99619360Y-99477216D01*
X99507784Y-99365640D01*
X99420119Y-99234439D01*
X99420118Y-99234438D01*
X99359733Y-99088657D01*
X99328950Y-98933898D01*
X99328950Y-98776102D01*
X99359733Y-98621345D01*
X99377341Y-98578835D01*
X99384454Y-98555386D01*
X99386856Y-98531000D01*
X99384454Y-98506614D01*
X99377341Y-98483165D01*
X99365790Y-98461554D01*
X99350245Y-98442612D01*
X99331303Y-98427067D01*
X99309693Y-98415515D01*
X99286244Y-98408402D01*
X99261857Y-98406000D01*
X97379000Y-98406000D01*
X97379000Y-96504000D01*
X99281000Y-96504000D01*
X99281000Y-98271700D01*
X99281000Y-98271700D01*
G37*
G36*
X180901000Y-99501000D02*
G01*
X178799000Y-99501000D01*
X178799000Y-93199000D01*
X180901000Y-93199000D01*
X180901000Y-99501000D01*
X180901000Y-99501000D01*
G37*
G36*
X172701000Y-99101000D02*
G01*
X170599000Y-99101000D01*
X170599000Y-92799000D01*
X172701000Y-92799000D01*
X172701000Y-99101000D01*
X172701000Y-99101000D01*
G37*
G36*
X95324549Y-96621116D02*
G01*
X95435734Y-96643232D01*
X95575198Y-96701000D01*
X95629917Y-96723665D01*
X95645203Y-96729997D01*
X95833720Y-96855960D01*
X95994040Y-97016280D01*
X96120003Y-97204797D01*
X96206768Y-97414266D01*
X96251000Y-97636636D01*
X96251000Y-97863364D01*
X96206768Y-98085734D01*
X96120003Y-98295203D01*
X95994040Y-98483720D01*
X95833720Y-98644040D01*
X95645203Y-98770003D01*
X95645202Y-98770004D01*
X95645201Y-98770004D01*
X95583850Y-98795416D01*
X95435734Y-98856768D01*
X95324549Y-98878884D01*
X95213365Y-98901000D01*
X94986635Y-98901000D01*
X94875451Y-98878884D01*
X94764266Y-98856768D01*
X94616150Y-98795416D01*
X94554799Y-98770004D01*
X94554798Y-98770004D01*
X94554797Y-98770003D01*
X94366280Y-98644040D01*
X94205960Y-98483720D01*
X94079997Y-98295203D01*
X93993232Y-98085734D01*
X93949000Y-97863364D01*
X93949000Y-97636636D01*
X93993232Y-97414266D01*
X94079997Y-97204797D01*
X94205960Y-97016280D01*
X94366280Y-96855960D01*
X94554797Y-96729997D01*
X94570084Y-96723665D01*
X94624802Y-96701000D01*
X94764266Y-96643232D01*
X94875451Y-96621116D01*
X94986635Y-96599000D01*
X95213365Y-96599000D01*
X95324549Y-96621116D01*
X95324549Y-96621116D01*
G37*
G36*
X125170443Y-96805519D02*
G01*
X125236627Y-96812037D01*
X125406466Y-96863557D01*
X125562991Y-96947222D01*
X125598729Y-96976552D01*
X125700186Y-97059814D01*
X125762709Y-97136000D01*
X125812778Y-97197009D01*
X125896443Y-97353534D01*
X125947963Y-97523373D01*
X125965359Y-97700000D01*
X125947963Y-97876627D01*
X125896443Y-98046466D01*
X125812778Y-98202991D01*
X125788328Y-98232783D01*
X125700186Y-98340186D01*
X125619990Y-98406000D01*
X125562991Y-98452778D01*
X125406466Y-98536443D01*
X125236627Y-98587963D01*
X125170442Y-98594482D01*
X125104260Y-98601000D01*
X125015740Y-98601000D01*
X124949558Y-98594482D01*
X124883373Y-98587963D01*
X124713534Y-98536443D01*
X124557009Y-98452778D01*
X124500010Y-98406000D01*
X124419814Y-98340186D01*
X124331672Y-98232783D01*
X124307222Y-98202991D01*
X124223557Y-98046466D01*
X124172037Y-97876627D01*
X124154641Y-97700000D01*
X124172037Y-97523373D01*
X124223557Y-97353534D01*
X124307222Y-97197009D01*
X124357291Y-97136000D01*
X124419814Y-97059814D01*
X124521271Y-96976552D01*
X124557009Y-96947222D01*
X124713534Y-96863557D01*
X124883373Y-96812037D01*
X124949558Y-96805518D01*
X125015740Y-96799000D01*
X125104260Y-96799000D01*
X125170443Y-96805519D01*
X125170443Y-96805519D01*
G37*
G36*
X148030443Y-96805519D02*
G01*
X148096627Y-96812037D01*
X148266466Y-96863557D01*
X148422991Y-96947222D01*
X148458729Y-96976552D01*
X148560186Y-97059814D01*
X148622709Y-97136000D01*
X148672778Y-97197009D01*
X148756443Y-97353534D01*
X148807963Y-97523373D01*
X148825359Y-97700000D01*
X148807963Y-97876627D01*
X148756443Y-98046466D01*
X148672778Y-98202991D01*
X148648328Y-98232783D01*
X148560186Y-98340186D01*
X148479990Y-98406000D01*
X148422991Y-98452778D01*
X148266466Y-98536443D01*
X148096627Y-98587963D01*
X148030442Y-98594482D01*
X147964260Y-98601000D01*
X147875740Y-98601000D01*
X147809558Y-98594482D01*
X147743373Y-98587963D01*
X147573534Y-98536443D01*
X147417009Y-98452778D01*
X147360010Y-98406000D01*
X147279814Y-98340186D01*
X147191672Y-98232783D01*
X147167222Y-98202991D01*
X147083557Y-98046466D01*
X147032037Y-97876627D01*
X147014641Y-97700000D01*
X147032037Y-97523373D01*
X147083557Y-97353534D01*
X147167222Y-97197009D01*
X147217291Y-97136000D01*
X147279814Y-97059814D01*
X147381271Y-96976552D01*
X147417009Y-96947222D01*
X147573534Y-96863557D01*
X147743373Y-96812037D01*
X147809558Y-96805518D01*
X147875740Y-96799000D01*
X147964260Y-96799000D01*
X148030443Y-96805519D01*
X148030443Y-96805519D01*
G37*
G36*
X145490443Y-96805519D02*
G01*
X145556627Y-96812037D01*
X145726466Y-96863557D01*
X145882991Y-96947222D01*
X145918729Y-96976552D01*
X146020186Y-97059814D01*
X146082709Y-97136000D01*
X146132778Y-97197009D01*
X146216443Y-97353534D01*
X146267963Y-97523373D01*
X146285359Y-97700000D01*
X146267963Y-97876627D01*
X146216443Y-98046466D01*
X146132778Y-98202991D01*
X146108328Y-98232783D01*
X146020186Y-98340186D01*
X145939990Y-98406000D01*
X145882991Y-98452778D01*
X145726466Y-98536443D01*
X145556627Y-98587963D01*
X145490442Y-98594482D01*
X145424260Y-98601000D01*
X145335740Y-98601000D01*
X145269558Y-98594482D01*
X145203373Y-98587963D01*
X145033534Y-98536443D01*
X144877009Y-98452778D01*
X144820010Y-98406000D01*
X144739814Y-98340186D01*
X144651672Y-98232783D01*
X144627222Y-98202991D01*
X144543557Y-98046466D01*
X144492037Y-97876627D01*
X144474641Y-97700000D01*
X144492037Y-97523373D01*
X144543557Y-97353534D01*
X144627222Y-97197009D01*
X144677291Y-97136000D01*
X144739814Y-97059814D01*
X144841271Y-96976552D01*
X144877009Y-96947222D01*
X145033534Y-96863557D01*
X145203373Y-96812037D01*
X145269558Y-96805518D01*
X145335740Y-96799000D01*
X145424260Y-96799000D01*
X145490443Y-96805519D01*
X145490443Y-96805519D01*
G37*
G36*
X142950443Y-96805519D02*
G01*
X143016627Y-96812037D01*
X143186466Y-96863557D01*
X143342991Y-96947222D01*
X143378729Y-96976552D01*
X143480186Y-97059814D01*
X143542709Y-97136000D01*
X143592778Y-97197009D01*
X143676443Y-97353534D01*
X143727963Y-97523373D01*
X143745359Y-97700000D01*
X143727963Y-97876627D01*
X143676443Y-98046466D01*
X143592778Y-98202991D01*
X143568328Y-98232783D01*
X143480186Y-98340186D01*
X143399990Y-98406000D01*
X143342991Y-98452778D01*
X143186466Y-98536443D01*
X143016627Y-98587963D01*
X142950442Y-98594482D01*
X142884260Y-98601000D01*
X142795740Y-98601000D01*
X142729558Y-98594482D01*
X142663373Y-98587963D01*
X142493534Y-98536443D01*
X142337009Y-98452778D01*
X142280010Y-98406000D01*
X142199814Y-98340186D01*
X142111672Y-98232783D01*
X142087222Y-98202991D01*
X142003557Y-98046466D01*
X141952037Y-97876627D01*
X141934641Y-97700000D01*
X141952037Y-97523373D01*
X142003557Y-97353534D01*
X142087222Y-97197009D01*
X142137291Y-97136000D01*
X142199814Y-97059814D01*
X142301271Y-96976552D01*
X142337009Y-96947222D01*
X142493534Y-96863557D01*
X142663373Y-96812037D01*
X142729558Y-96805518D01*
X142795740Y-96799000D01*
X142884260Y-96799000D01*
X142950443Y-96805519D01*
X142950443Y-96805519D01*
G37*
G36*
X140410443Y-96805519D02*
G01*
X140476627Y-96812037D01*
X140646466Y-96863557D01*
X140802991Y-96947222D01*
X140838729Y-96976552D01*
X140940186Y-97059814D01*
X141002709Y-97136000D01*
X141052778Y-97197009D01*
X141136443Y-97353534D01*
X141187963Y-97523373D01*
X141205359Y-97700000D01*
X141187963Y-97876627D01*
X141136443Y-98046466D01*
X141052778Y-98202991D01*
X141028328Y-98232783D01*
X140940186Y-98340186D01*
X140859990Y-98406000D01*
X140802991Y-98452778D01*
X140646466Y-98536443D01*
X140476627Y-98587963D01*
X140410442Y-98594482D01*
X140344260Y-98601000D01*
X140255740Y-98601000D01*
X140189558Y-98594482D01*
X140123373Y-98587963D01*
X139953534Y-98536443D01*
X139797009Y-98452778D01*
X139740010Y-98406000D01*
X139659814Y-98340186D01*
X139571672Y-98232783D01*
X139547222Y-98202991D01*
X139463557Y-98046466D01*
X139412037Y-97876627D01*
X139394641Y-97700000D01*
X139412037Y-97523373D01*
X139463557Y-97353534D01*
X139547222Y-97197009D01*
X139597291Y-97136000D01*
X139659814Y-97059814D01*
X139761271Y-96976552D01*
X139797009Y-96947222D01*
X139953534Y-96863557D01*
X140123373Y-96812037D01*
X140189558Y-96805518D01*
X140255740Y-96799000D01*
X140344260Y-96799000D01*
X140410443Y-96805519D01*
X140410443Y-96805519D01*
G37*
G36*
X137870443Y-96805519D02*
G01*
X137936627Y-96812037D01*
X138106466Y-96863557D01*
X138262991Y-96947222D01*
X138298729Y-96976552D01*
X138400186Y-97059814D01*
X138462709Y-97136000D01*
X138512778Y-97197009D01*
X138596443Y-97353534D01*
X138647963Y-97523373D01*
X138665359Y-97700000D01*
X138647963Y-97876627D01*
X138596443Y-98046466D01*
X138512778Y-98202991D01*
X138488328Y-98232783D01*
X138400186Y-98340186D01*
X138319990Y-98406000D01*
X138262991Y-98452778D01*
X138106466Y-98536443D01*
X137936627Y-98587963D01*
X137870442Y-98594482D01*
X137804260Y-98601000D01*
X137715740Y-98601000D01*
X137649558Y-98594482D01*
X137583373Y-98587963D01*
X137413534Y-98536443D01*
X137257009Y-98452778D01*
X137200010Y-98406000D01*
X137119814Y-98340186D01*
X137031672Y-98232783D01*
X137007222Y-98202991D01*
X136923557Y-98046466D01*
X136872037Y-97876627D01*
X136854641Y-97700000D01*
X136872037Y-97523373D01*
X136923557Y-97353534D01*
X137007222Y-97197009D01*
X137057291Y-97136000D01*
X137119814Y-97059814D01*
X137221271Y-96976552D01*
X137257009Y-96947222D01*
X137413534Y-96863557D01*
X137583373Y-96812037D01*
X137649558Y-96805518D01*
X137715740Y-96799000D01*
X137804260Y-96799000D01*
X137870443Y-96805519D01*
X137870443Y-96805519D01*
G37*
G36*
X135330443Y-96805519D02*
G01*
X135396627Y-96812037D01*
X135566466Y-96863557D01*
X135722991Y-96947222D01*
X135758729Y-96976552D01*
X135860186Y-97059814D01*
X135922709Y-97136000D01*
X135972778Y-97197009D01*
X136056443Y-97353534D01*
X136107963Y-97523373D01*
X136125359Y-97700000D01*
X136107963Y-97876627D01*
X136056443Y-98046466D01*
X135972778Y-98202991D01*
X135948328Y-98232783D01*
X135860186Y-98340186D01*
X135779990Y-98406000D01*
X135722991Y-98452778D01*
X135566466Y-98536443D01*
X135396627Y-98587963D01*
X135330442Y-98594482D01*
X135264260Y-98601000D01*
X135175740Y-98601000D01*
X135109558Y-98594482D01*
X135043373Y-98587963D01*
X134873534Y-98536443D01*
X134717009Y-98452778D01*
X134660010Y-98406000D01*
X134579814Y-98340186D01*
X134491672Y-98232783D01*
X134467222Y-98202991D01*
X134383557Y-98046466D01*
X134332037Y-97876627D01*
X134314641Y-97700000D01*
X134332037Y-97523373D01*
X134383557Y-97353534D01*
X134467222Y-97197009D01*
X134517291Y-97136000D01*
X134579814Y-97059814D01*
X134681271Y-96976552D01*
X134717009Y-96947222D01*
X134873534Y-96863557D01*
X135043373Y-96812037D01*
X135109558Y-96805518D01*
X135175740Y-96799000D01*
X135264260Y-96799000D01*
X135330443Y-96805519D01*
X135330443Y-96805519D01*
G37*
G36*
X132790443Y-96805519D02*
G01*
X132856627Y-96812037D01*
X133026466Y-96863557D01*
X133182991Y-96947222D01*
X133218729Y-96976552D01*
X133320186Y-97059814D01*
X133382709Y-97136000D01*
X133432778Y-97197009D01*
X133516443Y-97353534D01*
X133567963Y-97523373D01*
X133585359Y-97700000D01*
X133567963Y-97876627D01*
X133516443Y-98046466D01*
X133432778Y-98202991D01*
X133408328Y-98232783D01*
X133320186Y-98340186D01*
X133239990Y-98406000D01*
X133182991Y-98452778D01*
X133026466Y-98536443D01*
X132856627Y-98587963D01*
X132790442Y-98594482D01*
X132724260Y-98601000D01*
X132635740Y-98601000D01*
X132569558Y-98594482D01*
X132503373Y-98587963D01*
X132333534Y-98536443D01*
X132177009Y-98452778D01*
X132120010Y-98406000D01*
X132039814Y-98340186D01*
X131951672Y-98232783D01*
X131927222Y-98202991D01*
X131843557Y-98046466D01*
X131792037Y-97876627D01*
X131774641Y-97700000D01*
X131792037Y-97523373D01*
X131843557Y-97353534D01*
X131927222Y-97197009D01*
X131977291Y-97136000D01*
X132039814Y-97059814D01*
X132141271Y-96976552D01*
X132177009Y-96947222D01*
X132333534Y-96863557D01*
X132503373Y-96812037D01*
X132569558Y-96805518D01*
X132635740Y-96799000D01*
X132724260Y-96799000D01*
X132790443Y-96805519D01*
X132790443Y-96805519D01*
G37*
G36*
X122630443Y-96805519D02*
G01*
X122696627Y-96812037D01*
X122866466Y-96863557D01*
X123022991Y-96947222D01*
X123058729Y-96976552D01*
X123160186Y-97059814D01*
X123222709Y-97136000D01*
X123272778Y-97197009D01*
X123356443Y-97353534D01*
X123407963Y-97523373D01*
X123425359Y-97700000D01*
X123407963Y-97876627D01*
X123356443Y-98046466D01*
X123272778Y-98202991D01*
X123248328Y-98232783D01*
X123160186Y-98340186D01*
X123079990Y-98406000D01*
X123022991Y-98452778D01*
X122866466Y-98536443D01*
X122696627Y-98587963D01*
X122630442Y-98594482D01*
X122564260Y-98601000D01*
X122475740Y-98601000D01*
X122409558Y-98594482D01*
X122343373Y-98587963D01*
X122173534Y-98536443D01*
X122017009Y-98452778D01*
X121960010Y-98406000D01*
X121879814Y-98340186D01*
X121791672Y-98232783D01*
X121767222Y-98202991D01*
X121683557Y-98046466D01*
X121632037Y-97876627D01*
X121614641Y-97700000D01*
X121632037Y-97523373D01*
X121683557Y-97353534D01*
X121767222Y-97197009D01*
X121817291Y-97136000D01*
X121879814Y-97059814D01*
X121981271Y-96976552D01*
X122017009Y-96947222D01*
X122173534Y-96863557D01*
X122343373Y-96812037D01*
X122409558Y-96805518D01*
X122475740Y-96799000D01*
X122564260Y-96799000D01*
X122630443Y-96805519D01*
X122630443Y-96805519D01*
G37*
G36*
X127710443Y-96805519D02*
G01*
X127776627Y-96812037D01*
X127946466Y-96863557D01*
X128102991Y-96947222D01*
X128138729Y-96976552D01*
X128240186Y-97059814D01*
X128302709Y-97136000D01*
X128352778Y-97197009D01*
X128436443Y-97353534D01*
X128487963Y-97523373D01*
X128505359Y-97700000D01*
X128487963Y-97876627D01*
X128436443Y-98046466D01*
X128352778Y-98202991D01*
X128328328Y-98232783D01*
X128240186Y-98340186D01*
X128159990Y-98406000D01*
X128102991Y-98452778D01*
X127946466Y-98536443D01*
X127776627Y-98587963D01*
X127710442Y-98594482D01*
X127644260Y-98601000D01*
X127555740Y-98601000D01*
X127489558Y-98594482D01*
X127423373Y-98587963D01*
X127253534Y-98536443D01*
X127097009Y-98452778D01*
X127040010Y-98406000D01*
X126959814Y-98340186D01*
X126871672Y-98232783D01*
X126847222Y-98202991D01*
X126763557Y-98046466D01*
X126712037Y-97876627D01*
X126694641Y-97700000D01*
X126712037Y-97523373D01*
X126763557Y-97353534D01*
X126847222Y-97197009D01*
X126897291Y-97136000D01*
X126959814Y-97059814D01*
X127061271Y-96976552D01*
X127097009Y-96947222D01*
X127253534Y-96863557D01*
X127423373Y-96812037D01*
X127489558Y-96805518D01*
X127555740Y-96799000D01*
X127644260Y-96799000D01*
X127710443Y-96805519D01*
X127710443Y-96805519D01*
G37*
G36*
X115801000Y-98601000D02*
G01*
X113999000Y-98601000D01*
X113999000Y-96799000D01*
X115801000Y-96799000D01*
X115801000Y-98601000D01*
X115801000Y-98601000D01*
G37*
G36*
X117550443Y-96805519D02*
G01*
X117616627Y-96812037D01*
X117786466Y-96863557D01*
X117942991Y-96947222D01*
X117978729Y-96976552D01*
X118080186Y-97059814D01*
X118142709Y-97136000D01*
X118192778Y-97197009D01*
X118276443Y-97353534D01*
X118327963Y-97523373D01*
X118345359Y-97700000D01*
X118327963Y-97876627D01*
X118276443Y-98046466D01*
X118192778Y-98202991D01*
X118168328Y-98232783D01*
X118080186Y-98340186D01*
X117999990Y-98406000D01*
X117942991Y-98452778D01*
X117786466Y-98536443D01*
X117616627Y-98587963D01*
X117550442Y-98594482D01*
X117484260Y-98601000D01*
X117395740Y-98601000D01*
X117329558Y-98594482D01*
X117263373Y-98587963D01*
X117093534Y-98536443D01*
X116937009Y-98452778D01*
X116880010Y-98406000D01*
X116799814Y-98340186D01*
X116711672Y-98232783D01*
X116687222Y-98202991D01*
X116603557Y-98046466D01*
X116552037Y-97876627D01*
X116534641Y-97700000D01*
X116552037Y-97523373D01*
X116603557Y-97353534D01*
X116687222Y-97197009D01*
X116737291Y-97136000D01*
X116799814Y-97059814D01*
X116901271Y-96976552D01*
X116937009Y-96947222D01*
X117093534Y-96863557D01*
X117263373Y-96812037D01*
X117329558Y-96805518D01*
X117395740Y-96799000D01*
X117484260Y-96799000D01*
X117550443Y-96805519D01*
X117550443Y-96805519D01*
G37*
G36*
X120090443Y-96805519D02*
G01*
X120156627Y-96812037D01*
X120326466Y-96863557D01*
X120482991Y-96947222D01*
X120518729Y-96976552D01*
X120620186Y-97059814D01*
X120682709Y-97136000D01*
X120732778Y-97197009D01*
X120816443Y-97353534D01*
X120867963Y-97523373D01*
X120885359Y-97700000D01*
X120867963Y-97876627D01*
X120816443Y-98046466D01*
X120732778Y-98202991D01*
X120708328Y-98232783D01*
X120620186Y-98340186D01*
X120539990Y-98406000D01*
X120482991Y-98452778D01*
X120326466Y-98536443D01*
X120156627Y-98587963D01*
X120090442Y-98594482D01*
X120024260Y-98601000D01*
X119935740Y-98601000D01*
X119869558Y-98594482D01*
X119803373Y-98587963D01*
X119633534Y-98536443D01*
X119477009Y-98452778D01*
X119420010Y-98406000D01*
X119339814Y-98340186D01*
X119251672Y-98232783D01*
X119227222Y-98202991D01*
X119143557Y-98046466D01*
X119092037Y-97876627D01*
X119074641Y-97700000D01*
X119092037Y-97523373D01*
X119143557Y-97353534D01*
X119227222Y-97197009D01*
X119277291Y-97136000D01*
X119339814Y-97059814D01*
X119441271Y-96976552D01*
X119477009Y-96947222D01*
X119633534Y-96863557D01*
X119803373Y-96812037D01*
X119869558Y-96805518D01*
X119935740Y-96799000D01*
X120024260Y-96799000D01*
X120090443Y-96805519D01*
X120090443Y-96805519D01*
G37*
G36*
X130250443Y-96805519D02*
G01*
X130316627Y-96812037D01*
X130486466Y-96863557D01*
X130642991Y-96947222D01*
X130678729Y-96976552D01*
X130780186Y-97059814D01*
X130842709Y-97136000D01*
X130892778Y-97197009D01*
X130976443Y-97353534D01*
X131027963Y-97523373D01*
X131045359Y-97700000D01*
X131027963Y-97876627D01*
X130976443Y-98046466D01*
X130892778Y-98202991D01*
X130868328Y-98232783D01*
X130780186Y-98340186D01*
X130699990Y-98406000D01*
X130642991Y-98452778D01*
X130486466Y-98536443D01*
X130316627Y-98587963D01*
X130250442Y-98594482D01*
X130184260Y-98601000D01*
X130095740Y-98601000D01*
X130029558Y-98594482D01*
X129963373Y-98587963D01*
X129793534Y-98536443D01*
X129637009Y-98452778D01*
X129580010Y-98406000D01*
X129499814Y-98340186D01*
X129411672Y-98232783D01*
X129387222Y-98202991D01*
X129303557Y-98046466D01*
X129252037Y-97876627D01*
X129234641Y-97700000D01*
X129252037Y-97523373D01*
X129303557Y-97353534D01*
X129387222Y-97197009D01*
X129437291Y-97136000D01*
X129499814Y-97059814D01*
X129601271Y-96976552D01*
X129637009Y-96947222D01*
X129793534Y-96863557D01*
X129963373Y-96812037D01*
X130029558Y-96805518D01*
X130095740Y-96799000D01*
X130184260Y-96799000D01*
X130250443Y-96805519D01*
X130250443Y-96805519D01*
G37*
G36*
X186737395Y-95715546D02*
G01*
X186910466Y-95787234D01*
X186973651Y-95829453D01*
X187066227Y-95891310D01*
X187198690Y-96023773D01*
X187198691Y-96023775D01*
X187302766Y-96179534D01*
X187374454Y-96352605D01*
X187411000Y-96536333D01*
X187411000Y-96723667D01*
X187374454Y-96907395D01*
X187302766Y-97080466D01*
X187265659Y-97136000D01*
X187198690Y-97236227D01*
X187066227Y-97368690D01*
X186998017Y-97414266D01*
X186910466Y-97472766D01*
X186737395Y-97544454D01*
X186553667Y-97581000D01*
X186366333Y-97581000D01*
X186182605Y-97544454D01*
X186009534Y-97472766D01*
X185921983Y-97414266D01*
X185853773Y-97368690D01*
X185721310Y-97236227D01*
X185654341Y-97136000D01*
X185617234Y-97080466D01*
X185545546Y-96907395D01*
X185509000Y-96723667D01*
X185509000Y-96536333D01*
X185545546Y-96352605D01*
X185617234Y-96179534D01*
X185721309Y-96023775D01*
X185721310Y-96023773D01*
X185853773Y-95891310D01*
X185946349Y-95829453D01*
X186009534Y-95787234D01*
X186182605Y-95715546D01*
X186366333Y-95679000D01*
X186553667Y-95679000D01*
X186737395Y-95715546D01*
X186737395Y-95715546D01*
G37*
G36*
X110897395Y-95270546D02*
G01*
X111070466Y-95342234D01*
X111147818Y-95393919D01*
X111226227Y-95446310D01*
X111358690Y-95578773D01*
X111358691Y-95578775D01*
X111462766Y-95734534D01*
X111534454Y-95907605D01*
X111571000Y-96091333D01*
X111571000Y-96278667D01*
X111534454Y-96462395D01*
X111462766Y-96635466D01*
X111411081Y-96712818D01*
X111358690Y-96791227D01*
X111226227Y-96923690D01*
X111147818Y-96976081D01*
X111070466Y-97027766D01*
X110897395Y-97099454D01*
X110713667Y-97136000D01*
X110526333Y-97136000D01*
X110342605Y-97099454D01*
X110169534Y-97027766D01*
X110092182Y-96976081D01*
X110013773Y-96923690D01*
X109881310Y-96791227D01*
X109828919Y-96712818D01*
X109777234Y-96635466D01*
X109705546Y-96462395D01*
X109669000Y-96278667D01*
X109669000Y-96091333D01*
X109705546Y-95907605D01*
X109777234Y-95734534D01*
X109881309Y-95578775D01*
X109881310Y-95578773D01*
X110013773Y-95446310D01*
X110092182Y-95393919D01*
X110169534Y-95342234D01*
X110342605Y-95270546D01*
X110526333Y-95234000D01*
X110713667Y-95234000D01*
X110897395Y-95270546D01*
X110897395Y-95270546D01*
G37*
G36*
X101147395Y-95270546D02*
G01*
X101320466Y-95342234D01*
X101397818Y-95393919D01*
X101476227Y-95446310D01*
X101608690Y-95578773D01*
X101608691Y-95578775D01*
X101712766Y-95734534D01*
X101784454Y-95907605D01*
X101821000Y-96091333D01*
X101821000Y-96278667D01*
X101784454Y-96462395D01*
X101712766Y-96635466D01*
X101661081Y-96712818D01*
X101608690Y-96791227D01*
X101476227Y-96923690D01*
X101397818Y-96976081D01*
X101320466Y-97027766D01*
X101147395Y-97099454D01*
X100963667Y-97136000D01*
X100776333Y-97136000D01*
X100592605Y-97099454D01*
X100419534Y-97027766D01*
X100342182Y-96976081D01*
X100263773Y-96923690D01*
X100131310Y-96791227D01*
X100078919Y-96712818D01*
X100027234Y-96635466D01*
X99955546Y-96462395D01*
X99919000Y-96278667D01*
X99919000Y-96091333D01*
X99955546Y-95907605D01*
X100027234Y-95734534D01*
X100131309Y-95578775D01*
X100131310Y-95578773D01*
X100263773Y-95446310D01*
X100342182Y-95393919D01*
X100419534Y-95342234D01*
X100592605Y-95270546D01*
X100776333Y-95234000D01*
X100963667Y-95234000D01*
X101147395Y-95270546D01*
X101147395Y-95270546D01*
G37*
G36*
X189277395Y-94445546D02*
G01*
X189450466Y-94517234D01*
X189513651Y-94559453D01*
X189606227Y-94621310D01*
X189738690Y-94753773D01*
X189783832Y-94821333D01*
X189842766Y-94909534D01*
X189914454Y-95082605D01*
X189951000Y-95266333D01*
X189951000Y-95453667D01*
X189914454Y-95637395D01*
X189842766Y-95810466D01*
X189805659Y-95866000D01*
X189738690Y-95966227D01*
X189606227Y-96098690D01*
X189527818Y-96151081D01*
X189450466Y-96202766D01*
X189277395Y-96274454D01*
X189093667Y-96311000D01*
X188906333Y-96311000D01*
X188722605Y-96274454D01*
X188549534Y-96202766D01*
X188472182Y-96151081D01*
X188393773Y-96098690D01*
X188261310Y-95966227D01*
X188194341Y-95866000D01*
X188157234Y-95810466D01*
X188085546Y-95637395D01*
X188049000Y-95453667D01*
X188049000Y-95266333D01*
X188085546Y-95082605D01*
X188157234Y-94909534D01*
X188216168Y-94821333D01*
X188261310Y-94753773D01*
X188393773Y-94621310D01*
X188486349Y-94559453D01*
X188549534Y-94517234D01*
X188722605Y-94445546D01*
X188906333Y-94409000D01*
X189093667Y-94409000D01*
X189277395Y-94445546D01*
X189277395Y-94445546D01*
G37*
G36*
X98607395Y-94000546D02*
G01*
X98780466Y-94072234D01*
X98857818Y-94123919D01*
X98936227Y-94176310D01*
X99068690Y-94308773D01*
X99068691Y-94308775D01*
X99172766Y-94464534D01*
X99244454Y-94637605D01*
X99281000Y-94821333D01*
X99281000Y-95008667D01*
X99244454Y-95192395D01*
X99172766Y-95365466D01*
X99172765Y-95365467D01*
X99068690Y-95521227D01*
X98936227Y-95653690D01*
X98857818Y-95706081D01*
X98780466Y-95757766D01*
X98607395Y-95829454D01*
X98423667Y-95866000D01*
X98236333Y-95866000D01*
X98052605Y-95829454D01*
X97879534Y-95757766D01*
X97802182Y-95706081D01*
X97723773Y-95653690D01*
X97591310Y-95521227D01*
X97487235Y-95365467D01*
X97487234Y-95365466D01*
X97415546Y-95192395D01*
X97379000Y-95008667D01*
X97379000Y-94821333D01*
X97415546Y-94637605D01*
X97487234Y-94464534D01*
X97591309Y-94308775D01*
X97591310Y-94308773D01*
X97723773Y-94176310D01*
X97802182Y-94123919D01*
X97879534Y-94072234D01*
X98052605Y-94000546D01*
X98236333Y-93964000D01*
X98423667Y-93964000D01*
X98607395Y-94000546D01*
X98607395Y-94000546D01*
G37*
G36*
X108357395Y-94000546D02*
G01*
X108530466Y-94072234D01*
X108607818Y-94123919D01*
X108686227Y-94176310D01*
X108818690Y-94308773D01*
X108818691Y-94308775D01*
X108922766Y-94464534D01*
X108994454Y-94637605D01*
X109031000Y-94821333D01*
X109031000Y-95008667D01*
X108994454Y-95192395D01*
X108922766Y-95365466D01*
X108922765Y-95365467D01*
X108818690Y-95521227D01*
X108686227Y-95653690D01*
X108607818Y-95706081D01*
X108530466Y-95757766D01*
X108357395Y-95829454D01*
X108173667Y-95866000D01*
X107986333Y-95866000D01*
X107802605Y-95829454D01*
X107629534Y-95757766D01*
X107552182Y-95706081D01*
X107473773Y-95653690D01*
X107341310Y-95521227D01*
X107237235Y-95365467D01*
X107237234Y-95365466D01*
X107165546Y-95192395D01*
X107129000Y-95008667D01*
X107129000Y-94821333D01*
X107165546Y-94637605D01*
X107237234Y-94464534D01*
X107341309Y-94308775D01*
X107341310Y-94308773D01*
X107473773Y-94176310D01*
X107552182Y-94123919D01*
X107629534Y-94072234D01*
X107802605Y-94000546D01*
X107986333Y-93964000D01*
X108173667Y-93964000D01*
X108357395Y-94000546D01*
X108357395Y-94000546D01*
G37*
G36*
X186737395Y-93175546D02*
G01*
X186910466Y-93247234D01*
X186987818Y-93298919D01*
X187066227Y-93351310D01*
X187198690Y-93483773D01*
X187243832Y-93551333D01*
X187302766Y-93639534D01*
X187374454Y-93812605D01*
X187411000Y-93996333D01*
X187411000Y-94183667D01*
X187374454Y-94367395D01*
X187302766Y-94540466D01*
X187265659Y-94596000D01*
X187198690Y-94696227D01*
X187066227Y-94828690D01*
X186987818Y-94881081D01*
X186910466Y-94932766D01*
X186737395Y-95004454D01*
X186553667Y-95041000D01*
X186366333Y-95041000D01*
X186182605Y-95004454D01*
X186009534Y-94932766D01*
X185932182Y-94881081D01*
X185853773Y-94828690D01*
X185721310Y-94696227D01*
X185654341Y-94596000D01*
X185617234Y-94540466D01*
X185545546Y-94367395D01*
X185509000Y-94183667D01*
X185509000Y-93996333D01*
X185545546Y-93812605D01*
X185617234Y-93639534D01*
X185676168Y-93551333D01*
X185721310Y-93483773D01*
X185853773Y-93351310D01*
X185932182Y-93298919D01*
X186009534Y-93247234D01*
X186182605Y-93175546D01*
X186366333Y-93139000D01*
X186553667Y-93139000D01*
X186737395Y-93175546D01*
X186737395Y-93175546D01*
G37*
G36*
X101147395Y-92730546D02*
G01*
X101320466Y-92802234D01*
X101320467Y-92802235D01*
X101476227Y-92906310D01*
X101608690Y-93038773D01*
X101608691Y-93038775D01*
X101712766Y-93194534D01*
X101784454Y-93367605D01*
X101821000Y-93551333D01*
X101821000Y-93738667D01*
X101784454Y-93922395D01*
X101712766Y-94095466D01*
X101712765Y-94095467D01*
X101608690Y-94251227D01*
X101476227Y-94383690D01*
X101397818Y-94436081D01*
X101320466Y-94487766D01*
X101147395Y-94559454D01*
X100963667Y-94596000D01*
X100776333Y-94596000D01*
X100592605Y-94559454D01*
X100419534Y-94487766D01*
X100342182Y-94436081D01*
X100263773Y-94383690D01*
X100131310Y-94251227D01*
X100027235Y-94095467D01*
X100027234Y-94095466D01*
X99955546Y-93922395D01*
X99919000Y-93738667D01*
X99919000Y-93551333D01*
X99955546Y-93367605D01*
X100027234Y-93194534D01*
X100131309Y-93038775D01*
X100131310Y-93038773D01*
X100263773Y-92906310D01*
X100419533Y-92802235D01*
X100419534Y-92802234D01*
X100592605Y-92730546D01*
X100776333Y-92694000D01*
X100963667Y-92694000D01*
X101147395Y-92730546D01*
X101147395Y-92730546D01*
G37*
G36*
X110897395Y-92730546D02*
G01*
X111070466Y-92802234D01*
X111070467Y-92802235D01*
X111226227Y-92906310D01*
X111358690Y-93038773D01*
X111358691Y-93038775D01*
X111462766Y-93194534D01*
X111534454Y-93367605D01*
X111571000Y-93551333D01*
X111571000Y-93738667D01*
X111534454Y-93922395D01*
X111462766Y-94095466D01*
X111462765Y-94095467D01*
X111358690Y-94251227D01*
X111226227Y-94383690D01*
X111147818Y-94436081D01*
X111070466Y-94487766D01*
X110897395Y-94559454D01*
X110713667Y-94596000D01*
X110526333Y-94596000D01*
X110342605Y-94559454D01*
X110169534Y-94487766D01*
X110092182Y-94436081D01*
X110013773Y-94383690D01*
X109881310Y-94251227D01*
X109777235Y-94095467D01*
X109777234Y-94095466D01*
X109705546Y-93922395D01*
X109669000Y-93738667D01*
X109669000Y-93551333D01*
X109705546Y-93367605D01*
X109777234Y-93194534D01*
X109881309Y-93038775D01*
X109881310Y-93038773D01*
X110013773Y-92906310D01*
X110169533Y-92802235D01*
X110169534Y-92802234D01*
X110342605Y-92730546D01*
X110526333Y-92694000D01*
X110713667Y-92694000D01*
X110897395Y-92730546D01*
X110897395Y-92730546D01*
G37*
G36*
X189277395Y-91905546D02*
G01*
X189450466Y-91977234D01*
X189527818Y-92028919D01*
X189606227Y-92081310D01*
X189738690Y-92213773D01*
X189738691Y-92213775D01*
X189842766Y-92369534D01*
X189914454Y-92542605D01*
X189951000Y-92726333D01*
X189951000Y-92913667D01*
X189914454Y-93097395D01*
X189842766Y-93270466D01*
X189842765Y-93270467D01*
X189738690Y-93426227D01*
X189606227Y-93558690D01*
X189527818Y-93611081D01*
X189450466Y-93662766D01*
X189277395Y-93734454D01*
X189093667Y-93771000D01*
X188906333Y-93771000D01*
X188722605Y-93734454D01*
X188549534Y-93662766D01*
X188472182Y-93611081D01*
X188393773Y-93558690D01*
X188261310Y-93426227D01*
X188157235Y-93270467D01*
X188157234Y-93270466D01*
X188085546Y-93097395D01*
X188049000Y-92913667D01*
X188049000Y-92726333D01*
X188085546Y-92542605D01*
X188157234Y-92369534D01*
X188261309Y-92213775D01*
X188261310Y-92213773D01*
X188393773Y-92081310D01*
X188472182Y-92028919D01*
X188549534Y-91977234D01*
X188722605Y-91905546D01*
X188906333Y-91869000D01*
X189093667Y-91869000D01*
X189277395Y-91905546D01*
X189277395Y-91905546D01*
G37*
G36*
X186737395Y-90635546D02*
G01*
X186910466Y-90707234D01*
X186987818Y-90758919D01*
X187066227Y-90811310D01*
X187198690Y-90943773D01*
X187198691Y-90943775D01*
X187302766Y-91099534D01*
X187374454Y-91272605D01*
X187411000Y-91456333D01*
X187411000Y-91643667D01*
X187374454Y-91827395D01*
X187302766Y-92000466D01*
X187302765Y-92000467D01*
X187198690Y-92156227D01*
X187066227Y-92288690D01*
X186987818Y-92341081D01*
X186910466Y-92392766D01*
X186737395Y-92464454D01*
X186553667Y-92501000D01*
X186366333Y-92501000D01*
X186182605Y-92464454D01*
X186009534Y-92392766D01*
X185932182Y-92341081D01*
X185853773Y-92288690D01*
X185721310Y-92156227D01*
X185617235Y-92000467D01*
X185617234Y-92000466D01*
X185545546Y-91827395D01*
X185509000Y-91643667D01*
X185509000Y-91456333D01*
X185545546Y-91272605D01*
X185617234Y-91099534D01*
X185721309Y-90943775D01*
X185721310Y-90943773D01*
X185853773Y-90811310D01*
X185932182Y-90758919D01*
X186009534Y-90707234D01*
X186182605Y-90635546D01*
X186366333Y-90599000D01*
X186553667Y-90599000D01*
X186737395Y-90635546D01*
X186737395Y-90635546D01*
G37*
G36*
X115437395Y-90035546D02*
G01*
X115610466Y-90107234D01*
X115687818Y-90158919D01*
X115766227Y-90211310D01*
X115898690Y-90343773D01*
X115898691Y-90343775D01*
X116002766Y-90499534D01*
X116074454Y-90672605D01*
X116111000Y-90856333D01*
X116111000Y-91043667D01*
X116074454Y-91227395D01*
X116002766Y-91400466D01*
X116002765Y-91400467D01*
X115898690Y-91556227D01*
X115766227Y-91688690D01*
X115687818Y-91741081D01*
X115610466Y-91792766D01*
X115437395Y-91864454D01*
X115253667Y-91901000D01*
X115066333Y-91901000D01*
X114882605Y-91864454D01*
X114709534Y-91792766D01*
X114632182Y-91741081D01*
X114553773Y-91688690D01*
X114421310Y-91556227D01*
X114317235Y-91400467D01*
X114317234Y-91400466D01*
X114245546Y-91227395D01*
X114209000Y-91043667D01*
X114209000Y-90856333D01*
X114245546Y-90672605D01*
X114317234Y-90499534D01*
X114421309Y-90343775D01*
X114421310Y-90343773D01*
X114553773Y-90211310D01*
X114632182Y-90158919D01*
X114709534Y-90107234D01*
X114882605Y-90035546D01*
X115066333Y-89999000D01*
X115253667Y-89999000D01*
X115437395Y-90035546D01*
X115437395Y-90035546D01*
G37*
G36*
X189277395Y-89365546D02*
G01*
X189450466Y-89437234D01*
X189527818Y-89488919D01*
X189606227Y-89541310D01*
X189738690Y-89673773D01*
X189741250Y-89677605D01*
X189842766Y-89829534D01*
X189914454Y-90002605D01*
X189951000Y-90186333D01*
X189951000Y-90373667D01*
X189914454Y-90557395D01*
X189842766Y-90730466D01*
X189791081Y-90807818D01*
X189738690Y-90886227D01*
X189606227Y-91018690D01*
X189568849Y-91043665D01*
X189450466Y-91122766D01*
X189277395Y-91194454D01*
X189093667Y-91231000D01*
X188906333Y-91231000D01*
X188722605Y-91194454D01*
X188549534Y-91122766D01*
X188431151Y-91043665D01*
X188393773Y-91018690D01*
X188261310Y-90886227D01*
X188208919Y-90807818D01*
X188157234Y-90730466D01*
X188085546Y-90557395D01*
X188049000Y-90373667D01*
X188049000Y-90186333D01*
X188085546Y-90002605D01*
X188157234Y-89829534D01*
X188258750Y-89677605D01*
X188261310Y-89673773D01*
X188393773Y-89541310D01*
X188472182Y-89488919D01*
X188549534Y-89437234D01*
X188722605Y-89365546D01*
X188906333Y-89329000D01*
X189093667Y-89329000D01*
X189277395Y-89365546D01*
X189277395Y-89365546D01*
G37*
G36*
X125757395Y-89040546D02*
G01*
X125930466Y-89112234D01*
X125985026Y-89148690D01*
X126086227Y-89216310D01*
X126218690Y-89348773D01*
X126254659Y-89402605D01*
X126322766Y-89504534D01*
X126394454Y-89677605D01*
X126431000Y-89861333D01*
X126431000Y-90048667D01*
X126394454Y-90232395D01*
X126322766Y-90405466D01*
X126322765Y-90405467D01*
X126218690Y-90561227D01*
X126086227Y-90693690D01*
X126031186Y-90730467D01*
X125930466Y-90797766D01*
X125757395Y-90869454D01*
X125573667Y-90906000D01*
X125386333Y-90906000D01*
X125202605Y-90869454D01*
X125029534Y-90797766D01*
X124928814Y-90730467D01*
X124873773Y-90693690D01*
X124741310Y-90561227D01*
X124637235Y-90405467D01*
X124637234Y-90405466D01*
X124565546Y-90232395D01*
X124529000Y-90048667D01*
X124529000Y-89861333D01*
X124565546Y-89677605D01*
X124637234Y-89504534D01*
X124705341Y-89402605D01*
X124741310Y-89348773D01*
X124873773Y-89216310D01*
X124974974Y-89148690D01*
X125029534Y-89112234D01*
X125202605Y-89040546D01*
X125386333Y-89004000D01*
X125573667Y-89004000D01*
X125757395Y-89040546D01*
X125757395Y-89040546D01*
G37*
G36*
X117977395Y-88765546D02*
G01*
X118150466Y-88837234D01*
X118227818Y-88888919D01*
X118306227Y-88941310D01*
X118438690Y-89073773D01*
X118438691Y-89073775D01*
X118542766Y-89229534D01*
X118614454Y-89402605D01*
X118651000Y-89586333D01*
X118651000Y-89773667D01*
X118614454Y-89957395D01*
X118542766Y-90130466D01*
X118542765Y-90130467D01*
X118438690Y-90286227D01*
X118306227Y-90418690D01*
X118227818Y-90471081D01*
X118150466Y-90522766D01*
X117977395Y-90594454D01*
X117793667Y-90631000D01*
X117606333Y-90631000D01*
X117422605Y-90594454D01*
X117249534Y-90522766D01*
X117172182Y-90471081D01*
X117093773Y-90418690D01*
X116961310Y-90286227D01*
X116857235Y-90130467D01*
X116857234Y-90130466D01*
X116785546Y-89957395D01*
X116749000Y-89773667D01*
X116749000Y-89586333D01*
X116785546Y-89402605D01*
X116857234Y-89229534D01*
X116961309Y-89073775D01*
X116961310Y-89073773D01*
X117093773Y-88941310D01*
X117172182Y-88888919D01*
X117249534Y-88837234D01*
X117422605Y-88765546D01*
X117606333Y-88729000D01*
X117793667Y-88729000D01*
X117977395Y-88765546D01*
X117977395Y-88765546D01*
G37*
G36*
X186737395Y-88095546D02*
G01*
X186910466Y-88167234D01*
X186987818Y-88218919D01*
X187066227Y-88271310D01*
X187198690Y-88403773D01*
X187201250Y-88407605D01*
X187302766Y-88559534D01*
X187374454Y-88732605D01*
X187411000Y-88916333D01*
X187411000Y-89103667D01*
X187374454Y-89287395D01*
X187302766Y-89460466D01*
X187251081Y-89537818D01*
X187198690Y-89616227D01*
X187066227Y-89748690D01*
X187028849Y-89773665D01*
X186910466Y-89852766D01*
X186737395Y-89924454D01*
X186553667Y-89961000D01*
X186366333Y-89961000D01*
X186182605Y-89924454D01*
X186009534Y-89852766D01*
X185891151Y-89773665D01*
X185853773Y-89748690D01*
X185721310Y-89616227D01*
X185668919Y-89537818D01*
X185617234Y-89460466D01*
X185545546Y-89287395D01*
X185509000Y-89103667D01*
X185509000Y-88916333D01*
X185545546Y-88732605D01*
X185617234Y-88559534D01*
X185718750Y-88407605D01*
X185721310Y-88403773D01*
X185853773Y-88271310D01*
X185932182Y-88218919D01*
X186009534Y-88167234D01*
X186182605Y-88095546D01*
X186366333Y-88059000D01*
X186553667Y-88059000D01*
X186737395Y-88095546D01*
X186737395Y-88095546D01*
G37*
G36*
X180901000Y-89901000D02*
G01*
X178799000Y-89901000D01*
X178799000Y-75599000D01*
X180901000Y-75599000D01*
X180901000Y-89901000D01*
X180901000Y-89901000D01*
G37*
G36*
X128297395Y-87770546D02*
G01*
X128470466Y-87842234D01*
X128525026Y-87878690D01*
X128626227Y-87946310D01*
X128758690Y-88078773D01*
X128794659Y-88132605D01*
X128862766Y-88234534D01*
X128934454Y-88407605D01*
X128971000Y-88591333D01*
X128971000Y-88778667D01*
X128934454Y-88962395D01*
X128862766Y-89135466D01*
X128862765Y-89135467D01*
X128758690Y-89291227D01*
X128626227Y-89423690D01*
X128571186Y-89460467D01*
X128470466Y-89527766D01*
X128297395Y-89599454D01*
X128113667Y-89636000D01*
X127926333Y-89636000D01*
X127742605Y-89599454D01*
X127569534Y-89527766D01*
X127468814Y-89460467D01*
X127413773Y-89423690D01*
X127281310Y-89291227D01*
X127177235Y-89135467D01*
X127177234Y-89135466D01*
X127105546Y-88962395D01*
X127069000Y-88778667D01*
X127069000Y-88591333D01*
X127105546Y-88407605D01*
X127177234Y-88234534D01*
X127245341Y-88132605D01*
X127281310Y-88078773D01*
X127413773Y-87946310D01*
X127514974Y-87878690D01*
X127569534Y-87842234D01*
X127742605Y-87770546D01*
X127926333Y-87734000D01*
X128113667Y-87734000D01*
X128297395Y-87770546D01*
X128297395Y-87770546D01*
G37*
G36*
X172701000Y-89501000D02*
G01*
X170599000Y-89501000D01*
X170599000Y-75199000D01*
X172701000Y-75199000D01*
X172701000Y-89501000D01*
X172701000Y-89501000D01*
G37*
G36*
X115437395Y-87495546D02*
G01*
X115610466Y-87567234D01*
X115658007Y-87599000D01*
X115766227Y-87671310D01*
X115898690Y-87803773D01*
X115898691Y-87803775D01*
X116002766Y-87959534D01*
X116074454Y-88132605D01*
X116111000Y-88316333D01*
X116111000Y-88503667D01*
X116074454Y-88687395D01*
X116002766Y-88860466D01*
X116002765Y-88860467D01*
X115898690Y-89016227D01*
X115766227Y-89148690D01*
X115690932Y-89199000D01*
X115610466Y-89252766D01*
X115437395Y-89324454D01*
X115253667Y-89361000D01*
X115066333Y-89361000D01*
X114882605Y-89324454D01*
X114709534Y-89252766D01*
X114629068Y-89199000D01*
X114553773Y-89148690D01*
X114421310Y-89016227D01*
X114317235Y-88860467D01*
X114317234Y-88860466D01*
X114245546Y-88687395D01*
X114209000Y-88503667D01*
X114209000Y-88316333D01*
X114245546Y-88132605D01*
X114317234Y-87959534D01*
X114421309Y-87803775D01*
X114421310Y-87803773D01*
X114553773Y-87671310D01*
X114661993Y-87599000D01*
X114709534Y-87567234D01*
X114882605Y-87495546D01*
X115066333Y-87459000D01*
X115253667Y-87459000D01*
X115437395Y-87495546D01*
X115437395Y-87495546D01*
G37*
G36*
X189277395Y-86825546D02*
G01*
X189450466Y-86897234D01*
X189450467Y-86897235D01*
X189606227Y-87001310D01*
X189738690Y-87133773D01*
X189741250Y-87137605D01*
X189842766Y-87289534D01*
X189914454Y-87462605D01*
X189951000Y-87646333D01*
X189951000Y-87833667D01*
X189914454Y-88017395D01*
X189842766Y-88190466D01*
X189791081Y-88267818D01*
X189738690Y-88346227D01*
X189606227Y-88478690D01*
X189568849Y-88503665D01*
X189450466Y-88582766D01*
X189277395Y-88654454D01*
X189093667Y-88691000D01*
X188906333Y-88691000D01*
X188722605Y-88654454D01*
X188549534Y-88582766D01*
X188431151Y-88503665D01*
X188393773Y-88478690D01*
X188261310Y-88346227D01*
X188208919Y-88267818D01*
X188157234Y-88190466D01*
X188085546Y-88017395D01*
X188049000Y-87833667D01*
X188049000Y-87646333D01*
X188085546Y-87462605D01*
X188157234Y-87289534D01*
X188258750Y-87137605D01*
X188261310Y-87133773D01*
X188393773Y-87001310D01*
X188549533Y-86897235D01*
X188549534Y-86897234D01*
X188722605Y-86825546D01*
X188906333Y-86789000D01*
X189093667Y-86789000D01*
X189277395Y-86825546D01*
X189277395Y-86825546D01*
G37*
G36*
X125757395Y-86500546D02*
G01*
X125930466Y-86572234D01*
X125930467Y-86572235D01*
X126086227Y-86676310D01*
X126218690Y-86808773D01*
X126254659Y-86862605D01*
X126322766Y-86964534D01*
X126394454Y-87137605D01*
X126431000Y-87321333D01*
X126431000Y-87508667D01*
X126394454Y-87692395D01*
X126322766Y-87865466D01*
X126322765Y-87865467D01*
X126218690Y-88021227D01*
X126086227Y-88153690D01*
X126031186Y-88190467D01*
X125930466Y-88257766D01*
X125757395Y-88329454D01*
X125573667Y-88366000D01*
X125386333Y-88366000D01*
X125202605Y-88329454D01*
X125029534Y-88257766D01*
X124928814Y-88190467D01*
X124873773Y-88153690D01*
X124741310Y-88021227D01*
X124637235Y-87865467D01*
X124637234Y-87865466D01*
X124565546Y-87692395D01*
X124529000Y-87508667D01*
X124529000Y-87321333D01*
X124565546Y-87137605D01*
X124637234Y-86964534D01*
X124705341Y-86862605D01*
X124741310Y-86808773D01*
X124873773Y-86676310D01*
X125029533Y-86572235D01*
X125029534Y-86572234D01*
X125202605Y-86500546D01*
X125386333Y-86464000D01*
X125573667Y-86464000D01*
X125757395Y-86500546D01*
X125757395Y-86500546D01*
G37*
G36*
X117977395Y-86225546D02*
G01*
X118150466Y-86297234D01*
X118227818Y-86348919D01*
X118306227Y-86401310D01*
X118438690Y-86533773D01*
X118438691Y-86533775D01*
X118542766Y-86689534D01*
X118614454Y-86862605D01*
X118651000Y-87046333D01*
X118651000Y-87233667D01*
X118614454Y-87417395D01*
X118542766Y-87590466D01*
X118505437Y-87646333D01*
X118438690Y-87746227D01*
X118306227Y-87878690D01*
X118227818Y-87931081D01*
X118150466Y-87982766D01*
X117977395Y-88054454D01*
X117793667Y-88091000D01*
X117606333Y-88091000D01*
X117422605Y-88054454D01*
X117249534Y-87982766D01*
X117172182Y-87931081D01*
X117093773Y-87878690D01*
X116961310Y-87746227D01*
X116894563Y-87646333D01*
X116857234Y-87590466D01*
X116785546Y-87417395D01*
X116749000Y-87233667D01*
X116749000Y-87046333D01*
X116785546Y-86862605D01*
X116857234Y-86689534D01*
X116961309Y-86533775D01*
X116961310Y-86533773D01*
X117093773Y-86401310D01*
X117172182Y-86348919D01*
X117249534Y-86297234D01*
X117422605Y-86225546D01*
X117606333Y-86189000D01*
X117793667Y-86189000D01*
X117977395Y-86225546D01*
X117977395Y-86225546D01*
G37*
G36*
X186737395Y-85605546D02*
G01*
X186910466Y-85677234D01*
X186910467Y-85677235D01*
X187066227Y-85781310D01*
X187198690Y-85913773D01*
X187232028Y-85963667D01*
X187302766Y-86069534D01*
X187374454Y-86242605D01*
X187411000Y-86426333D01*
X187411000Y-86613667D01*
X187374454Y-86797395D01*
X187302766Y-86970466D01*
X187252073Y-87046333D01*
X187198690Y-87126227D01*
X187066227Y-87258690D01*
X187020067Y-87289533D01*
X186910466Y-87362766D01*
X186737395Y-87434454D01*
X186553667Y-87471000D01*
X186366333Y-87471000D01*
X186182605Y-87434454D01*
X186009534Y-87362766D01*
X185899933Y-87289533D01*
X185853773Y-87258690D01*
X185721310Y-87126227D01*
X185667927Y-87046333D01*
X185617234Y-86970466D01*
X185545546Y-86797395D01*
X185509000Y-86613667D01*
X185509000Y-86426333D01*
X185545546Y-86242605D01*
X185617234Y-86069534D01*
X185687972Y-85963667D01*
X185721310Y-85913773D01*
X185853773Y-85781310D01*
X186009533Y-85677235D01*
X186009534Y-85677234D01*
X186182605Y-85605546D01*
X186366333Y-85569000D01*
X186553667Y-85569000D01*
X186737395Y-85605546D01*
X186737395Y-85605546D01*
G37*
G36*
X126453657Y-83974733D02*
G01*
X126599438Y-84035118D01*
X126599439Y-84035119D01*
X126730640Y-84122784D01*
X126842216Y-84234360D01*
X126842217Y-84234362D01*
X126929882Y-84365562D01*
X126990267Y-84511343D01*
X127021050Y-84666102D01*
X127021050Y-84823898D01*
X126990267Y-84978655D01*
X126972659Y-85021165D01*
X126965546Y-85044614D01*
X126963144Y-85069000D01*
X126965546Y-85093386D01*
X126972659Y-85116835D01*
X126984210Y-85138446D01*
X126999755Y-85157388D01*
X127018697Y-85172933D01*
X127040307Y-85184485D01*
X127063756Y-85191598D01*
X127088143Y-85194000D01*
X128971000Y-85194000D01*
X128971000Y-87096000D01*
X127069000Y-87096000D01*
X127069000Y-85328300D01*
X127066598Y-85303914D01*
X127059485Y-85280465D01*
X127047934Y-85258854D01*
X127032389Y-85239912D01*
X127013447Y-85224367D01*
X126991836Y-85212816D01*
X126968387Y-85205703D01*
X126944001Y-85203301D01*
X126919615Y-85205703D01*
X126896166Y-85212816D01*
X126874555Y-85224367D01*
X126855613Y-85239912D01*
X126844951Y-85252904D01*
X126842218Y-85255637D01*
X126842216Y-85255640D01*
X126730640Y-85367216D01*
X126664594Y-85411346D01*
X126599438Y-85454882D01*
X126453657Y-85515267D01*
X126298898Y-85546050D01*
X126141102Y-85546050D01*
X125986343Y-85515267D01*
X125840562Y-85454882D01*
X125775406Y-85411346D01*
X125709360Y-85367216D01*
X125597784Y-85255640D01*
X125542521Y-85172933D01*
X125510118Y-85124438D01*
X125449733Y-84978657D01*
X125418950Y-84823898D01*
X125418950Y-84666102D01*
X125449733Y-84511343D01*
X125510118Y-84365562D01*
X125597783Y-84234362D01*
X125597784Y-84234360D01*
X125709360Y-84122784D01*
X125840561Y-84035119D01*
X125840562Y-84035118D01*
X125986343Y-83974733D01*
X126141102Y-83943950D01*
X126298898Y-83943950D01*
X126453657Y-83974733D01*
X126453657Y-83974733D01*
G37*
G36*
X115437395Y-84955546D02*
G01*
X115610466Y-85027234D01*
X115610467Y-85027235D01*
X115766227Y-85131310D01*
X115898690Y-85263773D01*
X115898691Y-85263775D01*
X116002766Y-85419534D01*
X116074454Y-85592605D01*
X116111000Y-85776333D01*
X116111000Y-85963667D01*
X116074454Y-86147395D01*
X116002766Y-86320466D01*
X116002765Y-86320467D01*
X115898690Y-86476227D01*
X115766227Y-86608690D01*
X115758781Y-86613665D01*
X115610466Y-86712766D01*
X115437395Y-86784454D01*
X115253667Y-86821000D01*
X115066333Y-86821000D01*
X114882605Y-86784454D01*
X114709534Y-86712766D01*
X114561219Y-86613665D01*
X114553773Y-86608690D01*
X114421310Y-86476227D01*
X114317235Y-86320467D01*
X114317234Y-86320466D01*
X114245546Y-86147395D01*
X114209000Y-85963667D01*
X114209000Y-85776333D01*
X114245546Y-85592605D01*
X114317234Y-85419534D01*
X114421309Y-85263775D01*
X114421310Y-85263773D01*
X114553773Y-85131310D01*
X114709533Y-85027235D01*
X114709534Y-85027234D01*
X114882605Y-84955546D01*
X115066333Y-84919000D01*
X115253667Y-84919000D01*
X115437395Y-84955546D01*
X115437395Y-84955546D01*
G37*
G36*
X189277395Y-84285546D02*
G01*
X189450466Y-84357234D01*
X189512973Y-84399000D01*
X189606227Y-84461310D01*
X189738690Y-84593773D01*
X189738691Y-84593775D01*
X189842766Y-84749534D01*
X189914454Y-84922605D01*
X189951000Y-85106333D01*
X189951000Y-85293667D01*
X189914454Y-85477395D01*
X189842766Y-85650466D01*
X189842765Y-85650467D01*
X189738690Y-85806227D01*
X189606227Y-85938690D01*
X189568849Y-85963665D01*
X189450466Y-86042766D01*
X189277395Y-86114454D01*
X189093667Y-86151000D01*
X188906333Y-86151000D01*
X188722605Y-86114454D01*
X188549534Y-86042766D01*
X188431151Y-85963665D01*
X188393773Y-85938690D01*
X188261310Y-85806227D01*
X188157235Y-85650467D01*
X188157234Y-85650466D01*
X188085546Y-85477395D01*
X188049000Y-85293667D01*
X188049000Y-85106333D01*
X188085546Y-84922605D01*
X188157234Y-84749534D01*
X188261309Y-84593775D01*
X188261310Y-84593773D01*
X188393773Y-84461310D01*
X188487027Y-84399000D01*
X188549534Y-84357234D01*
X188722605Y-84285546D01*
X188906333Y-84249000D01*
X189093667Y-84249000D01*
X189277395Y-84285546D01*
X189277395Y-84285546D01*
G37*
G36*
X116133657Y-82429733D02*
G01*
X116279438Y-82490118D01*
X116279439Y-82490119D01*
X116410640Y-82577784D01*
X116522216Y-82689360D01*
X116565183Y-82753665D01*
X116609882Y-82820562D01*
X116670267Y-82966343D01*
X116701050Y-83121102D01*
X116701050Y-83278898D01*
X116670267Y-83433655D01*
X116652659Y-83476165D01*
X116645546Y-83499614D01*
X116643144Y-83524000D01*
X116645546Y-83548386D01*
X116652659Y-83571835D01*
X116664210Y-83593446D01*
X116679755Y-83612388D01*
X116698697Y-83627933D01*
X116720307Y-83639485D01*
X116743756Y-83646598D01*
X116768143Y-83649000D01*
X118651000Y-83649000D01*
X118651000Y-85551000D01*
X116749000Y-85551000D01*
X116749000Y-83783300D01*
X116746598Y-83758914D01*
X116739485Y-83735465D01*
X116727934Y-83713854D01*
X116712389Y-83694912D01*
X116693447Y-83679367D01*
X116671836Y-83667816D01*
X116648387Y-83660703D01*
X116624001Y-83658301D01*
X116599615Y-83660703D01*
X116576166Y-83667816D01*
X116554555Y-83679367D01*
X116535613Y-83694912D01*
X116524951Y-83707904D01*
X116522218Y-83710637D01*
X116522216Y-83710640D01*
X116410640Y-83822216D01*
X116389512Y-83836333D01*
X116279438Y-83909882D01*
X116133657Y-83970267D01*
X115978898Y-84001050D01*
X115821102Y-84001050D01*
X115666343Y-83970267D01*
X115520562Y-83909882D01*
X115410488Y-83836333D01*
X115389360Y-83822216D01*
X115277784Y-83710640D01*
X115222521Y-83627933D01*
X115190118Y-83579438D01*
X115129733Y-83433657D01*
X115098950Y-83278898D01*
X115098950Y-83121102D01*
X115129733Y-82966343D01*
X115190118Y-82820562D01*
X115234817Y-82753665D01*
X115277784Y-82689360D01*
X115389360Y-82577784D01*
X115520561Y-82490119D01*
X115520562Y-82490118D01*
X115666343Y-82429733D01*
X115821102Y-82398950D01*
X115978898Y-82398950D01*
X116133657Y-82429733D01*
X116133657Y-82429733D01*
G37*
G36*
X186737395Y-83015546D02*
G01*
X186910466Y-83087234D01*
X186961153Y-83121102D01*
X187066227Y-83191310D01*
X187198690Y-83323773D01*
X187198691Y-83323775D01*
X187302766Y-83479534D01*
X187374454Y-83652605D01*
X187411000Y-83836333D01*
X187411000Y-84023667D01*
X187374454Y-84207395D01*
X187302766Y-84380466D01*
X187302765Y-84380467D01*
X187198690Y-84536227D01*
X187066227Y-84668690D01*
X187017871Y-84701000D01*
X186910466Y-84772766D01*
X186737395Y-84844454D01*
X186553667Y-84881000D01*
X186366333Y-84881000D01*
X186182605Y-84844454D01*
X186009534Y-84772766D01*
X185902129Y-84701000D01*
X185853773Y-84668690D01*
X185721310Y-84536227D01*
X185617235Y-84380467D01*
X185617234Y-84380466D01*
X185545546Y-84207395D01*
X185509000Y-84023667D01*
X185509000Y-83836333D01*
X185545546Y-83652605D01*
X185617234Y-83479534D01*
X185721309Y-83323775D01*
X185721310Y-83323773D01*
X185853773Y-83191310D01*
X185958847Y-83121102D01*
X186009534Y-83087234D01*
X186182605Y-83015546D01*
X186366333Y-82979000D01*
X186553667Y-82979000D01*
X186737395Y-83015546D01*
X186737395Y-83015546D01*
G37*
G36*
X189277395Y-81745546D02*
G01*
X189450466Y-81817234D01*
X189527818Y-81868919D01*
X189606227Y-81921310D01*
X189738690Y-82053773D01*
X189738691Y-82053775D01*
X189842766Y-82209534D01*
X189914454Y-82382605D01*
X189951000Y-82566333D01*
X189951000Y-82753667D01*
X189914454Y-82937395D01*
X189842766Y-83110466D01*
X189791081Y-83187818D01*
X189738690Y-83266227D01*
X189606227Y-83398690D01*
X189553898Y-83433655D01*
X189450466Y-83502766D01*
X189277395Y-83574454D01*
X189093667Y-83611000D01*
X188906333Y-83611000D01*
X188722605Y-83574454D01*
X188549534Y-83502766D01*
X188446102Y-83433655D01*
X188393773Y-83398690D01*
X188261310Y-83266227D01*
X188208919Y-83187818D01*
X188157234Y-83110466D01*
X188085546Y-82937395D01*
X188049000Y-82753667D01*
X188049000Y-82566333D01*
X188085546Y-82382605D01*
X188157234Y-82209534D01*
X188261309Y-82053775D01*
X188261310Y-82053773D01*
X188393773Y-81921310D01*
X188472182Y-81868919D01*
X188549534Y-81817234D01*
X188722605Y-81745546D01*
X188906333Y-81709000D01*
X189093667Y-81709000D01*
X189277395Y-81745546D01*
X189277395Y-81745546D01*
G37*
G36*
X186737395Y-80475546D02*
G01*
X186910466Y-80547234D01*
X186987818Y-80598919D01*
X187066227Y-80651310D01*
X187198690Y-80783773D01*
X187198691Y-80783775D01*
X187302766Y-80939534D01*
X187374454Y-81112605D01*
X187411000Y-81296333D01*
X187411000Y-81483667D01*
X187374454Y-81667395D01*
X187302766Y-81840466D01*
X187302765Y-81840467D01*
X187198690Y-81996227D01*
X187066227Y-82128690D01*
X186987818Y-82181081D01*
X186910466Y-82232766D01*
X186737395Y-82304454D01*
X186553667Y-82341000D01*
X186366333Y-82341000D01*
X186182605Y-82304454D01*
X186009534Y-82232766D01*
X185932182Y-82181081D01*
X185853773Y-82128690D01*
X185721310Y-81996227D01*
X185617235Y-81840467D01*
X185617234Y-81840466D01*
X185545546Y-81667395D01*
X185509000Y-81483667D01*
X185509000Y-81296333D01*
X185545546Y-81112605D01*
X185617234Y-80939534D01*
X185721309Y-80783775D01*
X185721310Y-80783773D01*
X185853773Y-80651310D01*
X185932182Y-80598919D01*
X186009534Y-80547234D01*
X186182605Y-80475546D01*
X186366333Y-80439000D01*
X186553667Y-80439000D01*
X186737395Y-80475546D01*
X186737395Y-80475546D01*
G37*
G36*
X189277395Y-79205546D02*
G01*
X189450466Y-79277234D01*
X189527818Y-79328919D01*
X189606227Y-79381310D01*
X189738690Y-79513773D01*
X189738691Y-79513775D01*
X189842766Y-79669534D01*
X189914454Y-79842605D01*
X189951000Y-80026333D01*
X189951000Y-80213667D01*
X189914454Y-80397395D01*
X189842766Y-80570466D01*
X189842765Y-80570467D01*
X189738690Y-80726227D01*
X189606227Y-80858690D01*
X189527818Y-80911081D01*
X189450466Y-80962766D01*
X189277395Y-81034454D01*
X189093667Y-81071000D01*
X188906333Y-81071000D01*
X188722605Y-81034454D01*
X188549534Y-80962766D01*
X188472182Y-80911081D01*
X188393773Y-80858690D01*
X188261310Y-80726227D01*
X188157235Y-80570467D01*
X188157234Y-80570466D01*
X188085546Y-80397395D01*
X188049000Y-80213667D01*
X188049000Y-80026333D01*
X188085546Y-79842605D01*
X188157234Y-79669534D01*
X188261309Y-79513775D01*
X188261310Y-79513773D01*
X188393773Y-79381310D01*
X188472182Y-79328919D01*
X188549534Y-79277234D01*
X188722605Y-79205546D01*
X188906333Y-79169000D01*
X189093667Y-79169000D01*
X189277395Y-79205546D01*
X189277395Y-79205546D01*
G37*
G36*
X186737395Y-77935546D02*
G01*
X186910466Y-78007234D01*
X186978627Y-78052778D01*
X187066227Y-78111310D01*
X187198690Y-78243773D01*
X187198691Y-78243775D01*
X187302766Y-78399534D01*
X187374454Y-78572605D01*
X187411000Y-78756333D01*
X187411000Y-78943667D01*
X187374454Y-79127395D01*
X187302766Y-79300466D01*
X187302765Y-79300467D01*
X187198690Y-79456227D01*
X187066227Y-79588690D01*
X187050797Y-79599000D01*
X186910466Y-79692766D01*
X186737395Y-79764454D01*
X186553667Y-79801000D01*
X186366333Y-79801000D01*
X186182605Y-79764454D01*
X186009534Y-79692766D01*
X185869203Y-79599000D01*
X185853773Y-79588690D01*
X185721310Y-79456227D01*
X185617235Y-79300467D01*
X185617234Y-79300466D01*
X185545546Y-79127395D01*
X185509000Y-78943667D01*
X185509000Y-78756333D01*
X185545546Y-78572605D01*
X185617234Y-78399534D01*
X185721309Y-78243775D01*
X185721310Y-78243773D01*
X185853773Y-78111310D01*
X185941373Y-78052778D01*
X186009534Y-78007234D01*
X186182605Y-77935546D01*
X186366333Y-77899000D01*
X186553667Y-77899000D01*
X186737395Y-77935546D01*
X186737395Y-77935546D01*
G37*
G36*
X189277395Y-76665546D02*
G01*
X189450466Y-76737234D01*
X189527818Y-76788919D01*
X189606227Y-76841310D01*
X189738690Y-76973773D01*
X189738691Y-76973775D01*
X189842766Y-77129534D01*
X189914454Y-77302605D01*
X189951000Y-77486333D01*
X189951000Y-77673667D01*
X189914454Y-77857395D01*
X189842766Y-78030466D01*
X189827857Y-78052779D01*
X189738690Y-78186227D01*
X189606227Y-78318690D01*
X189549239Y-78356768D01*
X189450466Y-78422766D01*
X189277395Y-78494454D01*
X189093667Y-78531000D01*
X188906333Y-78531000D01*
X188722605Y-78494454D01*
X188549534Y-78422766D01*
X188450761Y-78356768D01*
X188393773Y-78318690D01*
X188261310Y-78186227D01*
X188172143Y-78052779D01*
X188157234Y-78030466D01*
X188085546Y-77857395D01*
X188049000Y-77673667D01*
X188049000Y-77486333D01*
X188085546Y-77302605D01*
X188157234Y-77129534D01*
X188261309Y-76973775D01*
X188261310Y-76973773D01*
X188393773Y-76841310D01*
X188472182Y-76788919D01*
X188549534Y-76737234D01*
X188722605Y-76665546D01*
X188906333Y-76629000D01*
X189093667Y-76629000D01*
X189277395Y-76665546D01*
X189277395Y-76665546D01*
G37*
G36*
X95324549Y-76121116D02*
G01*
X95435734Y-76143232D01*
X95645203Y-76229997D01*
X95833720Y-76355960D01*
X95994040Y-76516280D01*
X96120003Y-76704797D01*
X96206768Y-76914266D01*
X96207158Y-76916227D01*
X96249588Y-77129534D01*
X96251000Y-77136636D01*
X96251000Y-77363364D01*
X96206768Y-77585734D01*
X96120003Y-77795203D01*
X95994040Y-77983720D01*
X95833720Y-78144040D01*
X95645203Y-78270003D01*
X95435734Y-78356768D01*
X95324549Y-78378884D01*
X95213365Y-78401000D01*
X94986635Y-78401000D01*
X94875451Y-78378884D01*
X94764266Y-78356768D01*
X94554797Y-78270003D01*
X94366280Y-78144040D01*
X94205960Y-77983720D01*
X94079997Y-77795203D01*
X93993232Y-77585734D01*
X93949000Y-77363364D01*
X93949000Y-77136636D01*
X93950413Y-77129534D01*
X93992842Y-76916227D01*
X93993232Y-76914266D01*
X94079997Y-76704797D01*
X94205960Y-76516280D01*
X94366280Y-76355960D01*
X94554797Y-76229997D01*
X94764266Y-76143232D01*
X94875451Y-76121116D01*
X94986635Y-76099000D01*
X95213365Y-76099000D01*
X95324549Y-76121116D01*
X95324549Y-76121116D01*
G37*
G36*
X130211644Y-76403667D02*
G01*
X130296627Y-76412037D01*
X130466466Y-76463557D01*
X130622991Y-76547222D01*
X130658729Y-76576552D01*
X130760186Y-76659814D01*
X130842788Y-76760466D01*
X130872778Y-76797009D01*
X130956443Y-76953534D01*
X131007963Y-77123373D01*
X131025359Y-77300000D01*
X131007963Y-77476627D01*
X130956443Y-77646466D01*
X130872778Y-77802991D01*
X130843448Y-77838729D01*
X130760186Y-77940186D01*
X130678485Y-78007235D01*
X130622991Y-78052778D01*
X130466466Y-78136443D01*
X130296627Y-78187963D01*
X130230442Y-78194482D01*
X130164260Y-78201000D01*
X130075740Y-78201000D01*
X130009558Y-78194482D01*
X129943373Y-78187963D01*
X129773534Y-78136443D01*
X129617009Y-78052778D01*
X129561515Y-78007235D01*
X129479814Y-77940186D01*
X129396552Y-77838729D01*
X129367222Y-77802991D01*
X129283557Y-77646466D01*
X129232037Y-77476627D01*
X129214641Y-77300000D01*
X129232037Y-77123373D01*
X129283557Y-76953534D01*
X129367222Y-76797009D01*
X129397212Y-76760466D01*
X129479814Y-76659814D01*
X129581271Y-76576552D01*
X129617009Y-76547222D01*
X129773534Y-76463557D01*
X129943373Y-76412037D01*
X130028356Y-76403667D01*
X130075740Y-76399000D01*
X130164260Y-76399000D01*
X130211644Y-76403667D01*
X130211644Y-76403667D01*
G37*
G36*
X114971644Y-76403667D02*
G01*
X115056627Y-76412037D01*
X115226466Y-76463557D01*
X115382991Y-76547222D01*
X115418729Y-76576552D01*
X115520186Y-76659814D01*
X115602788Y-76760466D01*
X115632778Y-76797009D01*
X115716443Y-76953534D01*
X115767963Y-77123373D01*
X115785359Y-77300000D01*
X115767963Y-77476627D01*
X115716443Y-77646466D01*
X115632778Y-77802991D01*
X115603448Y-77838729D01*
X115520186Y-77940186D01*
X115438485Y-78007235D01*
X115382991Y-78052778D01*
X115226466Y-78136443D01*
X115056627Y-78187963D01*
X114990442Y-78194482D01*
X114924260Y-78201000D01*
X114835740Y-78201000D01*
X114769558Y-78194482D01*
X114703373Y-78187963D01*
X114533534Y-78136443D01*
X114377009Y-78052778D01*
X114321515Y-78007235D01*
X114239814Y-77940186D01*
X114156552Y-77838729D01*
X114127222Y-77802991D01*
X114043557Y-77646466D01*
X113992037Y-77476627D01*
X113974641Y-77300000D01*
X113992037Y-77123373D01*
X114043557Y-76953534D01*
X114127222Y-76797009D01*
X114157212Y-76760466D01*
X114239814Y-76659814D01*
X114341271Y-76576552D01*
X114377009Y-76547222D01*
X114533534Y-76463557D01*
X114703373Y-76412037D01*
X114788356Y-76403667D01*
X114835740Y-76399000D01*
X114924260Y-76399000D01*
X114971644Y-76403667D01*
X114971644Y-76403667D01*
G37*
G36*
X117511644Y-76403667D02*
G01*
X117596627Y-76412037D01*
X117766466Y-76463557D01*
X117922991Y-76547222D01*
X117958729Y-76576552D01*
X118060186Y-76659814D01*
X118142788Y-76760466D01*
X118172778Y-76797009D01*
X118256443Y-76953534D01*
X118307963Y-77123373D01*
X118325359Y-77300000D01*
X118307963Y-77476627D01*
X118256443Y-77646466D01*
X118172778Y-77802991D01*
X118143448Y-77838729D01*
X118060186Y-77940186D01*
X117978485Y-78007235D01*
X117922991Y-78052778D01*
X117766466Y-78136443D01*
X117596627Y-78187963D01*
X117530442Y-78194482D01*
X117464260Y-78201000D01*
X117375740Y-78201000D01*
X117309558Y-78194482D01*
X117243373Y-78187963D01*
X117073534Y-78136443D01*
X116917009Y-78052778D01*
X116861515Y-78007235D01*
X116779814Y-77940186D01*
X116696552Y-77838729D01*
X116667222Y-77802991D01*
X116583557Y-77646466D01*
X116532037Y-77476627D01*
X116514641Y-77300000D01*
X116532037Y-77123373D01*
X116583557Y-76953534D01*
X116667222Y-76797009D01*
X116697212Y-76760466D01*
X116779814Y-76659814D01*
X116881271Y-76576552D01*
X116917009Y-76547222D01*
X117073534Y-76463557D01*
X117243373Y-76412037D01*
X117328356Y-76403667D01*
X117375740Y-76399000D01*
X117464260Y-76399000D01*
X117511644Y-76403667D01*
X117511644Y-76403667D01*
G37*
G36*
X120051644Y-76403667D02*
G01*
X120136627Y-76412037D01*
X120306466Y-76463557D01*
X120462991Y-76547222D01*
X120498729Y-76576552D01*
X120600186Y-76659814D01*
X120682788Y-76760466D01*
X120712778Y-76797009D01*
X120796443Y-76953534D01*
X120847963Y-77123373D01*
X120865359Y-77300000D01*
X120847963Y-77476627D01*
X120796443Y-77646466D01*
X120712778Y-77802991D01*
X120683448Y-77838729D01*
X120600186Y-77940186D01*
X120518485Y-78007235D01*
X120462991Y-78052778D01*
X120306466Y-78136443D01*
X120136627Y-78187963D01*
X120070442Y-78194482D01*
X120004260Y-78201000D01*
X119915740Y-78201000D01*
X119849558Y-78194482D01*
X119783373Y-78187963D01*
X119613534Y-78136443D01*
X119457009Y-78052778D01*
X119401515Y-78007235D01*
X119319814Y-77940186D01*
X119236552Y-77838729D01*
X119207222Y-77802991D01*
X119123557Y-77646466D01*
X119072037Y-77476627D01*
X119054641Y-77300000D01*
X119072037Y-77123373D01*
X119123557Y-76953534D01*
X119207222Y-76797009D01*
X119237212Y-76760466D01*
X119319814Y-76659814D01*
X119421271Y-76576552D01*
X119457009Y-76547222D01*
X119613534Y-76463557D01*
X119783373Y-76412037D01*
X119868356Y-76403667D01*
X119915740Y-76399000D01*
X120004260Y-76399000D01*
X120051644Y-76403667D01*
X120051644Y-76403667D01*
G37*
G36*
X122591644Y-76403667D02*
G01*
X122676627Y-76412037D01*
X122846466Y-76463557D01*
X123002991Y-76547222D01*
X123038729Y-76576552D01*
X123140186Y-76659814D01*
X123222788Y-76760466D01*
X123252778Y-76797009D01*
X123336443Y-76953534D01*
X123387963Y-77123373D01*
X123405359Y-77300000D01*
X123387963Y-77476627D01*
X123336443Y-77646466D01*
X123252778Y-77802991D01*
X123223448Y-77838729D01*
X123140186Y-77940186D01*
X123058485Y-78007235D01*
X123002991Y-78052778D01*
X122846466Y-78136443D01*
X122676627Y-78187963D01*
X122610442Y-78194482D01*
X122544260Y-78201000D01*
X122455740Y-78201000D01*
X122389558Y-78194482D01*
X122323373Y-78187963D01*
X122153534Y-78136443D01*
X121997009Y-78052778D01*
X121941515Y-78007235D01*
X121859814Y-77940186D01*
X121776552Y-77838729D01*
X121747222Y-77802991D01*
X121663557Y-77646466D01*
X121612037Y-77476627D01*
X121594641Y-77300000D01*
X121612037Y-77123373D01*
X121663557Y-76953534D01*
X121747222Y-76797009D01*
X121777212Y-76760466D01*
X121859814Y-76659814D01*
X121961271Y-76576552D01*
X121997009Y-76547222D01*
X122153534Y-76463557D01*
X122323373Y-76412037D01*
X122408356Y-76403667D01*
X122455740Y-76399000D01*
X122544260Y-76399000D01*
X122591644Y-76403667D01*
X122591644Y-76403667D01*
G37*
G36*
X125131644Y-76403667D02*
G01*
X125216627Y-76412037D01*
X125386466Y-76463557D01*
X125542991Y-76547222D01*
X125578729Y-76576552D01*
X125680186Y-76659814D01*
X125762788Y-76760466D01*
X125792778Y-76797009D01*
X125876443Y-76953534D01*
X125927963Y-77123373D01*
X125945359Y-77300000D01*
X125927963Y-77476627D01*
X125876443Y-77646466D01*
X125792778Y-77802991D01*
X125763448Y-77838729D01*
X125680186Y-77940186D01*
X125598485Y-78007235D01*
X125542991Y-78052778D01*
X125386466Y-78136443D01*
X125216627Y-78187963D01*
X125150442Y-78194482D01*
X125084260Y-78201000D01*
X124995740Y-78201000D01*
X124929558Y-78194482D01*
X124863373Y-78187963D01*
X124693534Y-78136443D01*
X124537009Y-78052778D01*
X124481515Y-78007235D01*
X124399814Y-77940186D01*
X124316552Y-77838729D01*
X124287222Y-77802991D01*
X124203557Y-77646466D01*
X124152037Y-77476627D01*
X124134641Y-77300000D01*
X124152037Y-77123373D01*
X124203557Y-76953534D01*
X124287222Y-76797009D01*
X124317212Y-76760466D01*
X124399814Y-76659814D01*
X124501271Y-76576552D01*
X124537009Y-76547222D01*
X124693534Y-76463557D01*
X124863373Y-76412037D01*
X124948356Y-76403667D01*
X124995740Y-76399000D01*
X125084260Y-76399000D01*
X125131644Y-76403667D01*
X125131644Y-76403667D01*
G37*
G36*
X132751644Y-76403667D02*
G01*
X132836627Y-76412037D01*
X133006466Y-76463557D01*
X133162991Y-76547222D01*
X133198729Y-76576552D01*
X133300186Y-76659814D01*
X133382788Y-76760466D01*
X133412778Y-76797009D01*
X133496443Y-76953534D01*
X133547963Y-77123373D01*
X133565359Y-77300000D01*
X133547963Y-77476627D01*
X133496443Y-77646466D01*
X133412778Y-77802991D01*
X133383448Y-77838729D01*
X133300186Y-77940186D01*
X133218485Y-78007235D01*
X133162991Y-78052778D01*
X133006466Y-78136443D01*
X132836627Y-78187963D01*
X132770442Y-78194482D01*
X132704260Y-78201000D01*
X132615740Y-78201000D01*
X132549558Y-78194482D01*
X132483373Y-78187963D01*
X132313534Y-78136443D01*
X132157009Y-78052778D01*
X132101515Y-78007235D01*
X132019814Y-77940186D01*
X131936552Y-77838729D01*
X131907222Y-77802991D01*
X131823557Y-77646466D01*
X131772037Y-77476627D01*
X131754641Y-77300000D01*
X131772037Y-77123373D01*
X131823557Y-76953534D01*
X131907222Y-76797009D01*
X131937212Y-76760466D01*
X132019814Y-76659814D01*
X132121271Y-76576552D01*
X132157009Y-76547222D01*
X132313534Y-76463557D01*
X132483373Y-76412037D01*
X132568356Y-76403667D01*
X132615740Y-76399000D01*
X132704260Y-76399000D01*
X132751644Y-76403667D01*
X132751644Y-76403667D01*
G37*
G36*
X127671644Y-76403667D02*
G01*
X127756627Y-76412037D01*
X127926466Y-76463557D01*
X128082991Y-76547222D01*
X128118729Y-76576552D01*
X128220186Y-76659814D01*
X128302788Y-76760466D01*
X128332778Y-76797009D01*
X128416443Y-76953534D01*
X128467963Y-77123373D01*
X128485359Y-77300000D01*
X128467963Y-77476627D01*
X128416443Y-77646466D01*
X128332778Y-77802991D01*
X128303448Y-77838729D01*
X128220186Y-77940186D01*
X128138485Y-78007235D01*
X128082991Y-78052778D01*
X127926466Y-78136443D01*
X127756627Y-78187963D01*
X127690442Y-78194482D01*
X127624260Y-78201000D01*
X127535740Y-78201000D01*
X127469558Y-78194482D01*
X127403373Y-78187963D01*
X127233534Y-78136443D01*
X127077009Y-78052778D01*
X127021515Y-78007235D01*
X126939814Y-77940186D01*
X126856552Y-77838729D01*
X126827222Y-77802991D01*
X126743557Y-77646466D01*
X126692037Y-77476627D01*
X126674641Y-77300000D01*
X126692037Y-77123373D01*
X126743557Y-76953534D01*
X126827222Y-76797009D01*
X126857212Y-76760466D01*
X126939814Y-76659814D01*
X127041271Y-76576552D01*
X127077009Y-76547222D01*
X127233534Y-76463557D01*
X127403373Y-76412037D01*
X127488356Y-76403667D01*
X127535740Y-76399000D01*
X127624260Y-76399000D01*
X127671644Y-76403667D01*
X127671644Y-76403667D01*
G37*
G36*
X137831644Y-76403667D02*
G01*
X137916627Y-76412037D01*
X138086466Y-76463557D01*
X138242991Y-76547222D01*
X138278729Y-76576552D01*
X138380186Y-76659814D01*
X138462788Y-76760466D01*
X138492778Y-76797009D01*
X138576443Y-76953534D01*
X138627963Y-77123373D01*
X138645359Y-77300000D01*
X138627963Y-77476627D01*
X138576443Y-77646466D01*
X138492778Y-77802991D01*
X138463448Y-77838729D01*
X138380186Y-77940186D01*
X138298485Y-78007235D01*
X138242991Y-78052778D01*
X138086466Y-78136443D01*
X137916627Y-78187963D01*
X137850442Y-78194482D01*
X137784260Y-78201000D01*
X137695740Y-78201000D01*
X137629558Y-78194482D01*
X137563373Y-78187963D01*
X137393534Y-78136443D01*
X137237009Y-78052778D01*
X137181515Y-78007235D01*
X137099814Y-77940186D01*
X137016552Y-77838729D01*
X136987222Y-77802991D01*
X136903557Y-77646466D01*
X136852037Y-77476627D01*
X136834641Y-77300000D01*
X136852037Y-77123373D01*
X136903557Y-76953534D01*
X136987222Y-76797009D01*
X137017212Y-76760466D01*
X137099814Y-76659814D01*
X137201271Y-76576552D01*
X137237009Y-76547222D01*
X137393534Y-76463557D01*
X137563373Y-76412037D01*
X137648356Y-76403667D01*
X137695740Y-76399000D01*
X137784260Y-76399000D01*
X137831644Y-76403667D01*
X137831644Y-76403667D01*
G37*
G36*
X140371644Y-76403667D02*
G01*
X140456627Y-76412037D01*
X140626466Y-76463557D01*
X140782991Y-76547222D01*
X140818729Y-76576552D01*
X140920186Y-76659814D01*
X141002788Y-76760466D01*
X141032778Y-76797009D01*
X141116443Y-76953534D01*
X141167963Y-77123373D01*
X141185359Y-77300000D01*
X141167963Y-77476627D01*
X141116443Y-77646466D01*
X141032778Y-77802991D01*
X141003448Y-77838729D01*
X140920186Y-77940186D01*
X140838485Y-78007235D01*
X140782991Y-78052778D01*
X140626466Y-78136443D01*
X140456627Y-78187963D01*
X140390442Y-78194482D01*
X140324260Y-78201000D01*
X140235740Y-78201000D01*
X140169558Y-78194482D01*
X140103373Y-78187963D01*
X139933534Y-78136443D01*
X139777009Y-78052778D01*
X139721515Y-78007235D01*
X139639814Y-77940186D01*
X139556552Y-77838729D01*
X139527222Y-77802991D01*
X139443557Y-77646466D01*
X139392037Y-77476627D01*
X139374641Y-77300000D01*
X139392037Y-77123373D01*
X139443557Y-76953534D01*
X139527222Y-76797009D01*
X139557212Y-76760466D01*
X139639814Y-76659814D01*
X139741271Y-76576552D01*
X139777009Y-76547222D01*
X139933534Y-76463557D01*
X140103373Y-76412037D01*
X140188356Y-76403667D01*
X140235740Y-76399000D01*
X140324260Y-76399000D01*
X140371644Y-76403667D01*
X140371644Y-76403667D01*
G37*
G36*
X142911644Y-76403667D02*
G01*
X142996627Y-76412037D01*
X143166466Y-76463557D01*
X143322991Y-76547222D01*
X143358729Y-76576552D01*
X143460186Y-76659814D01*
X143542788Y-76760466D01*
X143572778Y-76797009D01*
X143656443Y-76953534D01*
X143707963Y-77123373D01*
X143725359Y-77300000D01*
X143707963Y-77476627D01*
X143656443Y-77646466D01*
X143572778Y-77802991D01*
X143543448Y-77838729D01*
X143460186Y-77940186D01*
X143378485Y-78007235D01*
X143322991Y-78052778D01*
X143166466Y-78136443D01*
X142996627Y-78187963D01*
X142930442Y-78194482D01*
X142864260Y-78201000D01*
X142775740Y-78201000D01*
X142709558Y-78194482D01*
X142643373Y-78187963D01*
X142473534Y-78136443D01*
X142317009Y-78052778D01*
X142261515Y-78007235D01*
X142179814Y-77940186D01*
X142096552Y-77838729D01*
X142067222Y-77802991D01*
X141983557Y-77646466D01*
X141932037Y-77476627D01*
X141914641Y-77300000D01*
X141932037Y-77123373D01*
X141983557Y-76953534D01*
X142067222Y-76797009D01*
X142097212Y-76760466D01*
X142179814Y-76659814D01*
X142281271Y-76576552D01*
X142317009Y-76547222D01*
X142473534Y-76463557D01*
X142643373Y-76412037D01*
X142728356Y-76403667D01*
X142775740Y-76399000D01*
X142864260Y-76399000D01*
X142911644Y-76403667D01*
X142911644Y-76403667D01*
G37*
G36*
X145451644Y-76403667D02*
G01*
X145536627Y-76412037D01*
X145706466Y-76463557D01*
X145862991Y-76547222D01*
X145898729Y-76576552D01*
X146000186Y-76659814D01*
X146082788Y-76760466D01*
X146112778Y-76797009D01*
X146196443Y-76953534D01*
X146247963Y-77123373D01*
X146265359Y-77300000D01*
X146247963Y-77476627D01*
X146196443Y-77646466D01*
X146112778Y-77802991D01*
X146083448Y-77838729D01*
X146000186Y-77940186D01*
X145918485Y-78007235D01*
X145862991Y-78052778D01*
X145706466Y-78136443D01*
X145536627Y-78187963D01*
X145470442Y-78194482D01*
X145404260Y-78201000D01*
X145315740Y-78201000D01*
X145249558Y-78194482D01*
X145183373Y-78187963D01*
X145013534Y-78136443D01*
X144857009Y-78052778D01*
X144801515Y-78007235D01*
X144719814Y-77940186D01*
X144636552Y-77838729D01*
X144607222Y-77802991D01*
X144523557Y-77646466D01*
X144472037Y-77476627D01*
X144454641Y-77300000D01*
X144472037Y-77123373D01*
X144523557Y-76953534D01*
X144607222Y-76797009D01*
X144637212Y-76760466D01*
X144719814Y-76659814D01*
X144821271Y-76576552D01*
X144857009Y-76547222D01*
X145013534Y-76463557D01*
X145183373Y-76412037D01*
X145268356Y-76403667D01*
X145315740Y-76399000D01*
X145404260Y-76399000D01*
X145451644Y-76403667D01*
X145451644Y-76403667D01*
G37*
G36*
X148801000Y-78201000D02*
G01*
X146999000Y-78201000D01*
X146999000Y-76399000D01*
X148801000Y-76399000D01*
X148801000Y-78201000D01*
X148801000Y-78201000D01*
G37*
G36*
X135291644Y-76403667D02*
G01*
X135376627Y-76412037D01*
X135546466Y-76463557D01*
X135702991Y-76547222D01*
X135738729Y-76576552D01*
X135840186Y-76659814D01*
X135922788Y-76760466D01*
X135952778Y-76797009D01*
X136036443Y-76953534D01*
X136087963Y-77123373D01*
X136105359Y-77300000D01*
X136087963Y-77476627D01*
X136036443Y-77646466D01*
X135952778Y-77802991D01*
X135923448Y-77838729D01*
X135840186Y-77940186D01*
X135758485Y-78007235D01*
X135702991Y-78052778D01*
X135546466Y-78136443D01*
X135376627Y-78187963D01*
X135310442Y-78194482D01*
X135244260Y-78201000D01*
X135155740Y-78201000D01*
X135089558Y-78194482D01*
X135023373Y-78187963D01*
X134853534Y-78136443D01*
X134697009Y-78052778D01*
X134641515Y-78007235D01*
X134559814Y-77940186D01*
X134476552Y-77838729D01*
X134447222Y-77802991D01*
X134363557Y-77646466D01*
X134312037Y-77476627D01*
X134294641Y-77300000D01*
X134312037Y-77123373D01*
X134363557Y-76953534D01*
X134447222Y-76797009D01*
X134477212Y-76760466D01*
X134559814Y-76659814D01*
X134661271Y-76576552D01*
X134697009Y-76547222D01*
X134853534Y-76463557D01*
X135023373Y-76412037D01*
X135108356Y-76403667D01*
X135155740Y-76399000D01*
X135244260Y-76399000D01*
X135291644Y-76403667D01*
X135291644Y-76403667D01*
G37*
G36*
X186737395Y-75395546D02*
G01*
X186910466Y-75467234D01*
X186987818Y-75518919D01*
X187066227Y-75571310D01*
X187198690Y-75703773D01*
X187198691Y-75703775D01*
X187302766Y-75859534D01*
X187374454Y-76032605D01*
X187411000Y-76216333D01*
X187411000Y-76403667D01*
X187374454Y-76587395D01*
X187302766Y-76760466D01*
X187302765Y-76760467D01*
X187198690Y-76916227D01*
X187066227Y-77048690D01*
X186987939Y-77101000D01*
X186910466Y-77152766D01*
X186737395Y-77224454D01*
X186553667Y-77261000D01*
X186366333Y-77261000D01*
X186182605Y-77224454D01*
X186009534Y-77152766D01*
X185932061Y-77101000D01*
X185853773Y-77048690D01*
X185721310Y-76916227D01*
X185617235Y-76760467D01*
X185617234Y-76760466D01*
X185545546Y-76587395D01*
X185509000Y-76403667D01*
X185509000Y-76216333D01*
X185545546Y-76032605D01*
X185617234Y-75859534D01*
X185721309Y-75703775D01*
X185721310Y-75703773D01*
X185853773Y-75571310D01*
X185932182Y-75518919D01*
X186009534Y-75467234D01*
X186182605Y-75395546D01*
X186366333Y-75359000D01*
X186553667Y-75359000D01*
X186737395Y-75395546D01*
X186737395Y-75395546D01*
G37*
G36*
X189277395Y-74125546D02*
G01*
X189450466Y-74197234D01*
X189527818Y-74248919D01*
X189606227Y-74301310D01*
X189738690Y-74433773D01*
X189788748Y-74508690D01*
X189842766Y-74589534D01*
X189914454Y-74762605D01*
X189951000Y-74946333D01*
X189951000Y-75133667D01*
X189914454Y-75317395D01*
X189842766Y-75490466D01*
X189842765Y-75490467D01*
X189738690Y-75646227D01*
X189606227Y-75778690D01*
X189527818Y-75831081D01*
X189450466Y-75882766D01*
X189277395Y-75954454D01*
X189093667Y-75991000D01*
X188906333Y-75991000D01*
X188722605Y-75954454D01*
X188549534Y-75882766D01*
X188472182Y-75831081D01*
X188393773Y-75778690D01*
X188261310Y-75646227D01*
X188157235Y-75490467D01*
X188157234Y-75490466D01*
X188085546Y-75317395D01*
X188049000Y-75133667D01*
X188049000Y-74946333D01*
X188085546Y-74762605D01*
X188157234Y-74589534D01*
X188211252Y-74508690D01*
X188261310Y-74433773D01*
X188393773Y-74301310D01*
X188472182Y-74248919D01*
X188549534Y-74197234D01*
X188722605Y-74125546D01*
X188906333Y-74089000D01*
X189093667Y-74089000D01*
X189277395Y-74125546D01*
X189277395Y-74125546D01*
G37*
G36*
X175886601Y-74264397D02*
G01*
X175925305Y-74272096D01*
X175957340Y-74285365D01*
X176034680Y-74317400D01*
X176133115Y-74383173D01*
X176216827Y-74466885D01*
X176282600Y-74565320D01*
X176327904Y-74674696D01*
X176351000Y-74790805D01*
X176351000Y-74909195D01*
X176327904Y-75025304D01*
X176282600Y-75134680D01*
X176216827Y-75233115D01*
X176133115Y-75316827D01*
X176034680Y-75382600D01*
X175957340Y-75414635D01*
X175925305Y-75427904D01*
X175886601Y-75435603D01*
X175809195Y-75451000D01*
X175690805Y-75451000D01*
X175613399Y-75435603D01*
X175574695Y-75427904D01*
X175542660Y-75414635D01*
X175465320Y-75382600D01*
X175366885Y-75316827D01*
X175283173Y-75233115D01*
X175217400Y-75134680D01*
X175172096Y-75025304D01*
X175149000Y-74909195D01*
X175149000Y-74790805D01*
X175172096Y-74674696D01*
X175217400Y-74565320D01*
X175283173Y-74466885D01*
X175366885Y-74383173D01*
X175465320Y-74317400D01*
X175542660Y-74285365D01*
X175574695Y-74272096D01*
X175613399Y-74264397D01*
X175690805Y-74249000D01*
X175809195Y-74249000D01*
X175886601Y-74264397D01*
X175886601Y-74264397D01*
G37*
G36*
X186737395Y-72855546D02*
G01*
X186910466Y-72927234D01*
X186910467Y-72927235D01*
X187066227Y-73031310D01*
X187198690Y-73163773D01*
X187244111Y-73231751D01*
X187302766Y-73319534D01*
X187374454Y-73492605D01*
X187411000Y-73676333D01*
X187411000Y-73863667D01*
X187374454Y-74047395D01*
X187302766Y-74220466D01*
X187302765Y-74220467D01*
X187198690Y-74376227D01*
X187066227Y-74508690D01*
X186987818Y-74561081D01*
X186910466Y-74612766D01*
X186737395Y-74684454D01*
X186553667Y-74721000D01*
X186366333Y-74721000D01*
X186182605Y-74684454D01*
X186009534Y-74612766D01*
X185932182Y-74561081D01*
X185853773Y-74508690D01*
X185721310Y-74376227D01*
X185617235Y-74220467D01*
X185617234Y-74220466D01*
X185545546Y-74047395D01*
X185509000Y-73863667D01*
X185509000Y-73676333D01*
X185545546Y-73492605D01*
X185617234Y-73319534D01*
X185675889Y-73231751D01*
X185721310Y-73163773D01*
X185853773Y-73031310D01*
X186009533Y-72927235D01*
X186009534Y-72927234D01*
X186182605Y-72855546D01*
X186366333Y-72819000D01*
X186553667Y-72819000D01*
X186737395Y-72855546D01*
X186737395Y-72855546D01*
G37*
G36*
X180901000Y-73901000D02*
G01*
X177599000Y-73901000D01*
X177599000Y-71499000D01*
X180901000Y-71499000D01*
X180901000Y-73901000D01*
X180901000Y-73901000D01*
G37*
G36*
X187433657Y-70329733D02*
G01*
X187579438Y-70390118D01*
X187579439Y-70390119D01*
X187710640Y-70477784D01*
X187822216Y-70589360D01*
X187822217Y-70589362D01*
X187909882Y-70720562D01*
X187970267Y-70866343D01*
X188001050Y-71021102D01*
X188001050Y-71178898D01*
X187970267Y-71333655D01*
X187952659Y-71376165D01*
X187945546Y-71399614D01*
X187943144Y-71424000D01*
X187945546Y-71448386D01*
X187952659Y-71471835D01*
X187964210Y-71493446D01*
X187979755Y-71512388D01*
X187998697Y-71527933D01*
X188020307Y-71539485D01*
X188043756Y-71546598D01*
X188068143Y-71549000D01*
X189951000Y-71549000D01*
X189951000Y-73451000D01*
X188049000Y-73451000D01*
X188049000Y-71683300D01*
X188046598Y-71658914D01*
X188039485Y-71635465D01*
X188027934Y-71613854D01*
X188012389Y-71594912D01*
X187993447Y-71579367D01*
X187971836Y-71567816D01*
X187948387Y-71560703D01*
X187924001Y-71558301D01*
X187899615Y-71560703D01*
X187876166Y-71567816D01*
X187854555Y-71579367D01*
X187835613Y-71594912D01*
X187824951Y-71607904D01*
X187822218Y-71610637D01*
X187822216Y-71610640D01*
X187710640Y-71722216D01*
X187644594Y-71766346D01*
X187579438Y-71809882D01*
X187433657Y-71870267D01*
X187278898Y-71901050D01*
X187121102Y-71901050D01*
X186966343Y-71870267D01*
X186820562Y-71809882D01*
X186755406Y-71766346D01*
X186689360Y-71722216D01*
X186577784Y-71610640D01*
X186522521Y-71527933D01*
X186490118Y-71479438D01*
X186429733Y-71333657D01*
X186398950Y-71178898D01*
X186398950Y-71021102D01*
X186429733Y-70866343D01*
X186490118Y-70720562D01*
X186577783Y-70589362D01*
X186577784Y-70589360D01*
X186689360Y-70477784D01*
X186820561Y-70390119D01*
X186820562Y-70390118D01*
X186966343Y-70329733D01*
X187121102Y-70298950D01*
X187278898Y-70298950D01*
X187433657Y-70329733D01*
X187433657Y-70329733D01*
G37*
G36*
X114771938Y-72631716D02*
G01*
X114792557Y-72637971D01*
X114811553Y-72648124D01*
X114828208Y-72661792D01*
X114841876Y-72678447D01*
X114852029Y-72697443D01*
X114858284Y-72718062D01*
X114861000Y-72745640D01*
X114861000Y-73254360D01*
X114858284Y-73281938D01*
X114852029Y-73302557D01*
X114841876Y-73321553D01*
X114828208Y-73338208D01*
X114811553Y-73351876D01*
X114792557Y-73362029D01*
X114771938Y-73368284D01*
X114744360Y-73371000D01*
X114285640Y-73371000D01*
X114258062Y-73368284D01*
X114237443Y-73362029D01*
X114218447Y-73351876D01*
X114201792Y-73338208D01*
X114188124Y-73321553D01*
X114177971Y-73302557D01*
X114171716Y-73281938D01*
X114169000Y-73254360D01*
X114169000Y-72745640D01*
X114171716Y-72718062D01*
X114177971Y-72697443D01*
X114188124Y-72678447D01*
X114201792Y-72661792D01*
X114218447Y-72648124D01*
X114237443Y-72637971D01*
X114258062Y-72631716D01*
X114285640Y-72629000D01*
X114744360Y-72629000D01*
X114771938Y-72631716D01*
X114771938Y-72631716D01*
G37*
G36*
X109741938Y-72631716D02*
G01*
X109762557Y-72637971D01*
X109781553Y-72648124D01*
X109798208Y-72661792D01*
X109811876Y-72678447D01*
X109822029Y-72697443D01*
X109828284Y-72718062D01*
X109831000Y-72745640D01*
X109831000Y-73254360D01*
X109828284Y-73281938D01*
X109822029Y-73302557D01*
X109811876Y-73321553D01*
X109798208Y-73338208D01*
X109781553Y-73351876D01*
X109762557Y-73362029D01*
X109741938Y-73368284D01*
X109714360Y-73371000D01*
X109255640Y-73371000D01*
X109228062Y-73368284D01*
X109207443Y-73362029D01*
X109188447Y-73351876D01*
X109171792Y-73338208D01*
X109158124Y-73321553D01*
X109147971Y-73302557D01*
X109141716Y-73281938D01*
X109139000Y-73254360D01*
X109139000Y-72745640D01*
X109141716Y-72718062D01*
X109147971Y-72697443D01*
X109158124Y-72678447D01*
X109171792Y-72661792D01*
X109188447Y-72648124D01*
X109207443Y-72637971D01*
X109228062Y-72631716D01*
X109255640Y-72629000D01*
X109714360Y-72629000D01*
X109741938Y-72631716D01*
X109741938Y-72631716D01*
G37*
G36*
X115741938Y-72631716D02*
G01*
X115762557Y-72637971D01*
X115781553Y-72648124D01*
X115798208Y-72661792D01*
X115811876Y-72678447D01*
X115822029Y-72697443D01*
X115828284Y-72718062D01*
X115831000Y-72745640D01*
X115831000Y-73254360D01*
X115828284Y-73281938D01*
X115822029Y-73302557D01*
X115811876Y-73321553D01*
X115798208Y-73338208D01*
X115781553Y-73351876D01*
X115762557Y-73362029D01*
X115741938Y-73368284D01*
X115714360Y-73371000D01*
X115255640Y-73371000D01*
X115228062Y-73368284D01*
X115207443Y-73362029D01*
X115188447Y-73351876D01*
X115171792Y-73338208D01*
X115158124Y-73321553D01*
X115147971Y-73302557D01*
X115141716Y-73281938D01*
X115139000Y-73254360D01*
X115139000Y-72745640D01*
X115141716Y-72718062D01*
X115147971Y-72697443D01*
X115158124Y-72678447D01*
X115171792Y-72661792D01*
X115188447Y-72648124D01*
X115207443Y-72637971D01*
X115228062Y-72631716D01*
X115255640Y-72629000D01*
X115714360Y-72629000D01*
X115741938Y-72631716D01*
X115741938Y-72631716D01*
G37*
G36*
X90771938Y-72631716D02*
G01*
X90792557Y-72637971D01*
X90811553Y-72648124D01*
X90828208Y-72661792D01*
X90841876Y-72678447D01*
X90852029Y-72697443D01*
X90858284Y-72718062D01*
X90861000Y-72745640D01*
X90861000Y-73254360D01*
X90858284Y-73281938D01*
X90852029Y-73302557D01*
X90841876Y-73321553D01*
X90828208Y-73338208D01*
X90811553Y-73351876D01*
X90792557Y-73362029D01*
X90771938Y-73368284D01*
X90744360Y-73371000D01*
X90285640Y-73371000D01*
X90258062Y-73368284D01*
X90237443Y-73362029D01*
X90218447Y-73351876D01*
X90201792Y-73338208D01*
X90188124Y-73321553D01*
X90177971Y-73302557D01*
X90171716Y-73281938D01*
X90169000Y-73254360D01*
X90169000Y-72745640D01*
X90171716Y-72718062D01*
X90177971Y-72697443D01*
X90188124Y-72678447D01*
X90201792Y-72661792D01*
X90218447Y-72648124D01*
X90237443Y-72637971D01*
X90258062Y-72631716D01*
X90285640Y-72629000D01*
X90744360Y-72629000D01*
X90771938Y-72631716D01*
X90771938Y-72631716D01*
G37*
G36*
X120771938Y-72631716D02*
G01*
X120792557Y-72637971D01*
X120811553Y-72648124D01*
X120828208Y-72661792D01*
X120841876Y-72678447D01*
X120852029Y-72697443D01*
X120858284Y-72718062D01*
X120861000Y-72745640D01*
X120861000Y-73254360D01*
X120858284Y-73281938D01*
X120852029Y-73302557D01*
X120841876Y-73321553D01*
X120828208Y-73338208D01*
X120811553Y-73351876D01*
X120792557Y-73362029D01*
X120771938Y-73368284D01*
X120744360Y-73371000D01*
X120285640Y-73371000D01*
X120258062Y-73368284D01*
X120237443Y-73362029D01*
X120218447Y-73351876D01*
X120201792Y-73338208D01*
X120188124Y-73321553D01*
X120177971Y-73302557D01*
X120171716Y-73281938D01*
X120169000Y-73254360D01*
X120169000Y-72745640D01*
X120171716Y-72718062D01*
X120177971Y-72697443D01*
X120188124Y-72678447D01*
X120201792Y-72661792D01*
X120218447Y-72648124D01*
X120237443Y-72637971D01*
X120258062Y-72631716D01*
X120285640Y-72629000D01*
X120744360Y-72629000D01*
X120771938Y-72631716D01*
X120771938Y-72631716D01*
G37*
G36*
X121741938Y-72631716D02*
G01*
X121762557Y-72637971D01*
X121781553Y-72648124D01*
X121798208Y-72661792D01*
X121811876Y-72678447D01*
X121822029Y-72697443D01*
X121828284Y-72718062D01*
X121831000Y-72745640D01*
X121831000Y-73254360D01*
X121828284Y-73281938D01*
X121822029Y-73302557D01*
X121811876Y-73321553D01*
X121798208Y-73338208D01*
X121781553Y-73351876D01*
X121762557Y-73362029D01*
X121741938Y-73368284D01*
X121714360Y-73371000D01*
X121255640Y-73371000D01*
X121228062Y-73368284D01*
X121207443Y-73362029D01*
X121188447Y-73351876D01*
X121171792Y-73338208D01*
X121158124Y-73321553D01*
X121147971Y-73302557D01*
X121141716Y-73281938D01*
X121139000Y-73254360D01*
X121139000Y-72745640D01*
X121141716Y-72718062D01*
X121147971Y-72697443D01*
X121158124Y-72678447D01*
X121171792Y-72661792D01*
X121188447Y-72648124D01*
X121207443Y-72637971D01*
X121228062Y-72631716D01*
X121255640Y-72629000D01*
X121714360Y-72629000D01*
X121741938Y-72631716D01*
X121741938Y-72631716D01*
G37*
G36*
X126771938Y-72631716D02*
G01*
X126792557Y-72637971D01*
X126811553Y-72648124D01*
X126828208Y-72661792D01*
X126841876Y-72678447D01*
X126852029Y-72697443D01*
X126858284Y-72718062D01*
X126861000Y-72745640D01*
X126861000Y-73254360D01*
X126858284Y-73281938D01*
X126852029Y-73302557D01*
X126841876Y-73321553D01*
X126828208Y-73338208D01*
X126811553Y-73351876D01*
X126792557Y-73362029D01*
X126771938Y-73368284D01*
X126744360Y-73371000D01*
X126285640Y-73371000D01*
X126258062Y-73368284D01*
X126237443Y-73362029D01*
X126218447Y-73351876D01*
X126201792Y-73338208D01*
X126188124Y-73321553D01*
X126177971Y-73302557D01*
X126171716Y-73281938D01*
X126169000Y-73254360D01*
X126169000Y-72745640D01*
X126171716Y-72718062D01*
X126177971Y-72697443D01*
X126188124Y-72678447D01*
X126201792Y-72661792D01*
X126218447Y-72648124D01*
X126237443Y-72637971D01*
X126258062Y-72631716D01*
X126285640Y-72629000D01*
X126744360Y-72629000D01*
X126771938Y-72631716D01*
X126771938Y-72631716D01*
G37*
G36*
X127741938Y-72631716D02*
G01*
X127762557Y-72637971D01*
X127781553Y-72648124D01*
X127798208Y-72661792D01*
X127811876Y-72678447D01*
X127822029Y-72697443D01*
X127828284Y-72718062D01*
X127831000Y-72745640D01*
X127831000Y-73254360D01*
X127828284Y-73281938D01*
X127822029Y-73302557D01*
X127811876Y-73321553D01*
X127798208Y-73338208D01*
X127781553Y-73351876D01*
X127762557Y-73362029D01*
X127741938Y-73368284D01*
X127714360Y-73371000D01*
X127255640Y-73371000D01*
X127228062Y-73368284D01*
X127207443Y-73362029D01*
X127188447Y-73351876D01*
X127171792Y-73338208D01*
X127158124Y-73321553D01*
X127147971Y-73302557D01*
X127141716Y-73281938D01*
X127139000Y-73254360D01*
X127139000Y-72745640D01*
X127141716Y-72718062D01*
X127147971Y-72697443D01*
X127158124Y-72678447D01*
X127171792Y-72661792D01*
X127188447Y-72648124D01*
X127207443Y-72637971D01*
X127228062Y-72631716D01*
X127255640Y-72629000D01*
X127714360Y-72629000D01*
X127741938Y-72631716D01*
X127741938Y-72631716D01*
G37*
G36*
X108771938Y-72631716D02*
G01*
X108792557Y-72637971D01*
X108811553Y-72648124D01*
X108828208Y-72661792D01*
X108841876Y-72678447D01*
X108852029Y-72697443D01*
X108858284Y-72718062D01*
X108861000Y-72745640D01*
X108861000Y-73254360D01*
X108858284Y-73281938D01*
X108852029Y-73302557D01*
X108841876Y-73321553D01*
X108828208Y-73338208D01*
X108811553Y-73351876D01*
X108792557Y-73362029D01*
X108771938Y-73368284D01*
X108744360Y-73371000D01*
X108285640Y-73371000D01*
X108258062Y-73368284D01*
X108237443Y-73362029D01*
X108218447Y-73351876D01*
X108201792Y-73338208D01*
X108188124Y-73321553D01*
X108177971Y-73302557D01*
X108171716Y-73281938D01*
X108169000Y-73254360D01*
X108169000Y-72745640D01*
X108171716Y-72718062D01*
X108177971Y-72697443D01*
X108188124Y-72678447D01*
X108201792Y-72661792D01*
X108218447Y-72648124D01*
X108237443Y-72637971D01*
X108258062Y-72631716D01*
X108285640Y-72629000D01*
X108744360Y-72629000D01*
X108771938Y-72631716D01*
X108771938Y-72631716D01*
G37*
G36*
X103741938Y-72631716D02*
G01*
X103762557Y-72637971D01*
X103781553Y-72648124D01*
X103798208Y-72661792D01*
X103811876Y-72678447D01*
X103822029Y-72697443D01*
X103828284Y-72718062D01*
X103831000Y-72745640D01*
X103831000Y-73254360D01*
X103828284Y-73281938D01*
X103822029Y-73302557D01*
X103811876Y-73321553D01*
X103798208Y-73338208D01*
X103781553Y-73351876D01*
X103762557Y-73362029D01*
X103741938Y-73368284D01*
X103714360Y-73371000D01*
X103255640Y-73371000D01*
X103228062Y-73368284D01*
X103207443Y-73362029D01*
X103188447Y-73351876D01*
X103171792Y-73338208D01*
X103158124Y-73321553D01*
X103147971Y-73302557D01*
X103141716Y-73281938D01*
X103139000Y-73254360D01*
X103139000Y-72745640D01*
X103141716Y-72718062D01*
X103147971Y-72697443D01*
X103158124Y-72678447D01*
X103171792Y-72661792D01*
X103188447Y-72648124D01*
X103207443Y-72637971D01*
X103228062Y-72631716D01*
X103255640Y-72629000D01*
X103714360Y-72629000D01*
X103741938Y-72631716D01*
X103741938Y-72631716D01*
G37*
G36*
X174771938Y-72631716D02*
G01*
X174792557Y-72637971D01*
X174811553Y-72648124D01*
X174828208Y-72661792D01*
X174841876Y-72678447D01*
X174852029Y-72697443D01*
X174858284Y-72718062D01*
X174861000Y-72745640D01*
X174861000Y-73254360D01*
X174858284Y-73281938D01*
X174852029Y-73302557D01*
X174841876Y-73321553D01*
X174828208Y-73338208D01*
X174811553Y-73351876D01*
X174792557Y-73362029D01*
X174771938Y-73368284D01*
X174744360Y-73371000D01*
X174285640Y-73371000D01*
X174258062Y-73368284D01*
X174237443Y-73362029D01*
X174218447Y-73351876D01*
X174201792Y-73338208D01*
X174188124Y-73321553D01*
X174177971Y-73302557D01*
X174171716Y-73281938D01*
X174169000Y-73254360D01*
X174169000Y-72745640D01*
X174171716Y-72718062D01*
X174177971Y-72697443D01*
X174188124Y-72678447D01*
X174201792Y-72661792D01*
X174218447Y-72648124D01*
X174237443Y-72637971D01*
X174258062Y-72631716D01*
X174285640Y-72629000D01*
X174744360Y-72629000D01*
X174771938Y-72631716D01*
X174771938Y-72631716D01*
G37*
G36*
X102771938Y-72631716D02*
G01*
X102792557Y-72637971D01*
X102811553Y-72648124D01*
X102828208Y-72661792D01*
X102841876Y-72678447D01*
X102852029Y-72697443D01*
X102858284Y-72718062D01*
X102861000Y-72745640D01*
X102861000Y-73254360D01*
X102858284Y-73281938D01*
X102852029Y-73302557D01*
X102841876Y-73321553D01*
X102828208Y-73338208D01*
X102811553Y-73351876D01*
X102792557Y-73362029D01*
X102771938Y-73368284D01*
X102744360Y-73371000D01*
X102285640Y-73371000D01*
X102258062Y-73368284D01*
X102237443Y-73362029D01*
X102218447Y-73351876D01*
X102201792Y-73338208D01*
X102188124Y-73321553D01*
X102177971Y-73302557D01*
X102171716Y-73281938D01*
X102169000Y-73254360D01*
X102169000Y-72745640D01*
X102171716Y-72718062D01*
X102177971Y-72697443D01*
X102188124Y-72678447D01*
X102201792Y-72661792D01*
X102218447Y-72648124D01*
X102237443Y-72637971D01*
X102258062Y-72631716D01*
X102285640Y-72629000D01*
X102744360Y-72629000D01*
X102771938Y-72631716D01*
X102771938Y-72631716D01*
G37*
G36*
X96771938Y-72631716D02*
G01*
X96792557Y-72637971D01*
X96811553Y-72648124D01*
X96828208Y-72661792D01*
X96841876Y-72678447D01*
X96852029Y-72697443D01*
X96858284Y-72718062D01*
X96861000Y-72745640D01*
X96861000Y-73254360D01*
X96858284Y-73281938D01*
X96852029Y-73302557D01*
X96841876Y-73321553D01*
X96828208Y-73338208D01*
X96811553Y-73351876D01*
X96792557Y-73362029D01*
X96771938Y-73368284D01*
X96744360Y-73371000D01*
X96285640Y-73371000D01*
X96258062Y-73368284D01*
X96237443Y-73362029D01*
X96218447Y-73351876D01*
X96201792Y-73338208D01*
X96188124Y-73321553D01*
X96177971Y-73302557D01*
X96171716Y-73281938D01*
X96169000Y-73254360D01*
X96169000Y-72745640D01*
X96171716Y-72718062D01*
X96177971Y-72697443D01*
X96188124Y-72678447D01*
X96201792Y-72661792D01*
X96218447Y-72648124D01*
X96237443Y-72637971D01*
X96258062Y-72631716D01*
X96285640Y-72629000D01*
X96744360Y-72629000D01*
X96771938Y-72631716D01*
X96771938Y-72631716D01*
G37*
G36*
X91741938Y-72631716D02*
G01*
X91762557Y-72637971D01*
X91781553Y-72648124D01*
X91798208Y-72661792D01*
X91811876Y-72678447D01*
X91822029Y-72697443D01*
X91828284Y-72718062D01*
X91831000Y-72745640D01*
X91831000Y-73254360D01*
X91828284Y-73281938D01*
X91822029Y-73302557D01*
X91811876Y-73321553D01*
X91798208Y-73338208D01*
X91781553Y-73351876D01*
X91762557Y-73362029D01*
X91741938Y-73368284D01*
X91714360Y-73371000D01*
X91255640Y-73371000D01*
X91228062Y-73368284D01*
X91207443Y-73362029D01*
X91188447Y-73351876D01*
X91171792Y-73338208D01*
X91158124Y-73321553D01*
X91147971Y-73302557D01*
X91141716Y-73281938D01*
X91139000Y-73254360D01*
X91139000Y-72745640D01*
X91141716Y-72718062D01*
X91147971Y-72697443D01*
X91158124Y-72678447D01*
X91171792Y-72661792D01*
X91188447Y-72648124D01*
X91207443Y-72637971D01*
X91228062Y-72631716D01*
X91255640Y-72629000D01*
X91714360Y-72629000D01*
X91741938Y-72631716D01*
X91741938Y-72631716D01*
G37*
G36*
X97741938Y-72631716D02*
G01*
X97762557Y-72637971D01*
X97781553Y-72648124D01*
X97798208Y-72661792D01*
X97811876Y-72678447D01*
X97822029Y-72697443D01*
X97828284Y-72718062D01*
X97831000Y-72745640D01*
X97831000Y-73254360D01*
X97828284Y-73281938D01*
X97822029Y-73302557D01*
X97811876Y-73321553D01*
X97798208Y-73338208D01*
X97781553Y-73351876D01*
X97762557Y-73362029D01*
X97741938Y-73368284D01*
X97714360Y-73371000D01*
X97255640Y-73371000D01*
X97228062Y-73368284D01*
X97207443Y-73362029D01*
X97188447Y-73351876D01*
X97171792Y-73338208D01*
X97158124Y-73321553D01*
X97147971Y-73302557D01*
X97141716Y-73281938D01*
X97139000Y-73254360D01*
X97139000Y-72745640D01*
X97141716Y-72718062D01*
X97147971Y-72697443D01*
X97158124Y-72678447D01*
X97171792Y-72661792D01*
X97188447Y-72648124D01*
X97207443Y-72637971D01*
X97228062Y-72631716D01*
X97255640Y-72629000D01*
X97714360Y-72629000D01*
X97741938Y-72631716D01*
X97741938Y-72631716D01*
G37*
G36*
X133741938Y-72631716D02*
G01*
X133762557Y-72637971D01*
X133781553Y-72648124D01*
X133798208Y-72661792D01*
X133811876Y-72678447D01*
X133822029Y-72697443D01*
X133828284Y-72718062D01*
X133831000Y-72745640D01*
X133831000Y-73254360D01*
X133828284Y-73281938D01*
X133822029Y-73302557D01*
X133811876Y-73321553D01*
X133798208Y-73338208D01*
X133781553Y-73351876D01*
X133762557Y-73362029D01*
X133741938Y-73368284D01*
X133714360Y-73371000D01*
X133255640Y-73371000D01*
X133228062Y-73368284D01*
X133207443Y-73362029D01*
X133188447Y-73351876D01*
X133171792Y-73338208D01*
X133158124Y-73321553D01*
X133147971Y-73302557D01*
X133141716Y-73281938D01*
X133139000Y-73254360D01*
X133139000Y-72745640D01*
X133141716Y-72718062D01*
X133147971Y-72697443D01*
X133158124Y-72678447D01*
X133171792Y-72661792D01*
X133188447Y-72648124D01*
X133207443Y-72637971D01*
X133228062Y-72631716D01*
X133255640Y-72629000D01*
X133714360Y-72629000D01*
X133741938Y-72631716D01*
X133741938Y-72631716D01*
G37*
G36*
X138771938Y-72631716D02*
G01*
X138792557Y-72637971D01*
X138811553Y-72648124D01*
X138828208Y-72661792D01*
X138841876Y-72678447D01*
X138852029Y-72697443D01*
X138858284Y-72718062D01*
X138861000Y-72745640D01*
X138861000Y-73254360D01*
X138858284Y-73281938D01*
X138852029Y-73302557D01*
X138841876Y-73321553D01*
X138828208Y-73338208D01*
X138811553Y-73351876D01*
X138792557Y-73362029D01*
X138771938Y-73368284D01*
X138744360Y-73371000D01*
X138285640Y-73371000D01*
X138258062Y-73368284D01*
X138237443Y-73362029D01*
X138218447Y-73351876D01*
X138201792Y-73338208D01*
X138188124Y-73321553D01*
X138177971Y-73302557D01*
X138171716Y-73281938D01*
X138169000Y-73254360D01*
X138169000Y-72745640D01*
X138171716Y-72718062D01*
X138177971Y-72697443D01*
X138188124Y-72678447D01*
X138201792Y-72661792D01*
X138218447Y-72648124D01*
X138237443Y-72637971D01*
X138258062Y-72631716D01*
X138285640Y-72629000D01*
X138744360Y-72629000D01*
X138771938Y-72631716D01*
X138771938Y-72631716D01*
G37*
G36*
X175741938Y-72631716D02*
G01*
X175762557Y-72637971D01*
X175781553Y-72648124D01*
X175798208Y-72661792D01*
X175811876Y-72678447D01*
X175822029Y-72697443D01*
X175828284Y-72718062D01*
X175831000Y-72745640D01*
X175831000Y-73254360D01*
X175828284Y-73281938D01*
X175822029Y-73302557D01*
X175811876Y-73321553D01*
X175798208Y-73338208D01*
X175781553Y-73351876D01*
X175762557Y-73362029D01*
X175741938Y-73368284D01*
X175714360Y-73371000D01*
X175255640Y-73371000D01*
X175228062Y-73368284D01*
X175207443Y-73362029D01*
X175188447Y-73351876D01*
X175171792Y-73338208D01*
X175158124Y-73321553D01*
X175147971Y-73302557D01*
X175141716Y-73281938D01*
X175139000Y-73254360D01*
X175139000Y-72745640D01*
X175141716Y-72718062D01*
X175147971Y-72697443D01*
X175158124Y-72678447D01*
X175171792Y-72661792D01*
X175188447Y-72648124D01*
X175207443Y-72637971D01*
X175228062Y-72631716D01*
X175255640Y-72629000D01*
X175714360Y-72629000D01*
X175741938Y-72631716D01*
X175741938Y-72631716D01*
G37*
G36*
X144571938Y-72631716D02*
G01*
X144592557Y-72637971D01*
X144611553Y-72648124D01*
X144628208Y-72661792D01*
X144641876Y-72678447D01*
X144652029Y-72697443D01*
X144658284Y-72718062D01*
X144661000Y-72745640D01*
X144661000Y-73254360D01*
X144658284Y-73281938D01*
X144652029Y-73302557D01*
X144641876Y-73321553D01*
X144628208Y-73338208D01*
X144611553Y-73351876D01*
X144592557Y-73362029D01*
X144571938Y-73368284D01*
X144544360Y-73371000D01*
X144085640Y-73371000D01*
X144058062Y-73368284D01*
X144037443Y-73362029D01*
X144018447Y-73351876D01*
X144001792Y-73338208D01*
X143988124Y-73321553D01*
X143977971Y-73302557D01*
X143971716Y-73281938D01*
X143969000Y-73254360D01*
X143969000Y-72745640D01*
X143971716Y-72718062D01*
X143977971Y-72697443D01*
X143988124Y-72678447D01*
X144001792Y-72661792D01*
X144018447Y-72648124D01*
X144037443Y-72637971D01*
X144058062Y-72631716D01*
X144085640Y-72629000D01*
X144544360Y-72629000D01*
X144571938Y-72631716D01*
X144571938Y-72631716D01*
G37*
G36*
X145541938Y-72631716D02*
G01*
X145562557Y-72637971D01*
X145581553Y-72648124D01*
X145598208Y-72661792D01*
X145611876Y-72678447D01*
X145622029Y-72697443D01*
X145628284Y-72718062D01*
X145631000Y-72745640D01*
X145631000Y-73254360D01*
X145628284Y-73281938D01*
X145622029Y-73302557D01*
X145611876Y-73321553D01*
X145598208Y-73338208D01*
X145581553Y-73351876D01*
X145562557Y-73362029D01*
X145541938Y-73368284D01*
X145514360Y-73371000D01*
X145055640Y-73371000D01*
X145028062Y-73368284D01*
X145007443Y-73362029D01*
X144988447Y-73351876D01*
X144971792Y-73338208D01*
X144958124Y-73321553D01*
X144947971Y-73302557D01*
X144941716Y-73281938D01*
X144939000Y-73254360D01*
X144939000Y-72745640D01*
X144941716Y-72718062D01*
X144947971Y-72697443D01*
X144958124Y-72678447D01*
X144971792Y-72661792D01*
X144988447Y-72648124D01*
X145007443Y-72637971D01*
X145028062Y-72631716D01*
X145055640Y-72629000D01*
X145514360Y-72629000D01*
X145541938Y-72631716D01*
X145541938Y-72631716D01*
G37*
G36*
X146771938Y-72631716D02*
G01*
X146792557Y-72637971D01*
X146811553Y-72648124D01*
X146828208Y-72661792D01*
X146841876Y-72678447D01*
X146852029Y-72697443D01*
X146858284Y-72718062D01*
X146861000Y-72745640D01*
X146861000Y-73254360D01*
X146858284Y-73281938D01*
X146852029Y-73302557D01*
X146841876Y-73321553D01*
X146828208Y-73338208D01*
X146811553Y-73351876D01*
X146792557Y-73362029D01*
X146771938Y-73368284D01*
X146744360Y-73371000D01*
X146285640Y-73371000D01*
X146258062Y-73368284D01*
X146237443Y-73362029D01*
X146218447Y-73351876D01*
X146201792Y-73338208D01*
X146188124Y-73321553D01*
X146177971Y-73302557D01*
X146171716Y-73281938D01*
X146169000Y-73254360D01*
X146169000Y-72745640D01*
X146171716Y-72718062D01*
X146177971Y-72697443D01*
X146188124Y-72678447D01*
X146201792Y-72661792D01*
X146218447Y-72648124D01*
X146237443Y-72637971D01*
X146258062Y-72631716D01*
X146285640Y-72629000D01*
X146744360Y-72629000D01*
X146771938Y-72631716D01*
X146771938Y-72631716D01*
G37*
G36*
X147741938Y-72631716D02*
G01*
X147762557Y-72637971D01*
X147781553Y-72648124D01*
X147798208Y-72661792D01*
X147811876Y-72678447D01*
X147822029Y-72697443D01*
X147828284Y-72718062D01*
X147831000Y-72745640D01*
X147831000Y-73254360D01*
X147828284Y-73281938D01*
X147822029Y-73302557D01*
X147811876Y-73321553D01*
X147798208Y-73338208D01*
X147781553Y-73351876D01*
X147762557Y-73362029D01*
X147741938Y-73368284D01*
X147714360Y-73371000D01*
X147255640Y-73371000D01*
X147228062Y-73368284D01*
X147207443Y-73362029D01*
X147188447Y-73351876D01*
X147171792Y-73338208D01*
X147158124Y-73321553D01*
X147147971Y-73302557D01*
X147141716Y-73281938D01*
X147139000Y-73254360D01*
X147139000Y-72745640D01*
X147141716Y-72718062D01*
X147147971Y-72697443D01*
X147158124Y-72678447D01*
X147171792Y-72661792D01*
X147188447Y-72648124D01*
X147207443Y-72637971D01*
X147228062Y-72631716D01*
X147255640Y-72629000D01*
X147714360Y-72629000D01*
X147741938Y-72631716D01*
X147741938Y-72631716D01*
G37*
G36*
X156771938Y-72631716D02*
G01*
X156792557Y-72637971D01*
X156811553Y-72648124D01*
X156828208Y-72661792D01*
X156841876Y-72678447D01*
X156852029Y-72697443D01*
X156858284Y-72718062D01*
X156861000Y-72745640D01*
X156861000Y-73254360D01*
X156858284Y-73281938D01*
X156852029Y-73302557D01*
X156841876Y-73321553D01*
X156828208Y-73338208D01*
X156811553Y-73351876D01*
X156792557Y-73362029D01*
X156771938Y-73368284D01*
X156744360Y-73371000D01*
X156285640Y-73371000D01*
X156258062Y-73368284D01*
X156237443Y-73362029D01*
X156218447Y-73351876D01*
X156201792Y-73338208D01*
X156188124Y-73321553D01*
X156177971Y-73302557D01*
X156171716Y-73281938D01*
X156169000Y-73254360D01*
X156169000Y-72745640D01*
X156171716Y-72718062D01*
X156177971Y-72697443D01*
X156188124Y-72678447D01*
X156201792Y-72661792D01*
X156218447Y-72648124D01*
X156237443Y-72637971D01*
X156258062Y-72631716D01*
X156285640Y-72629000D01*
X156744360Y-72629000D01*
X156771938Y-72631716D01*
X156771938Y-72631716D01*
G37*
G36*
X157741938Y-72631716D02*
G01*
X157762557Y-72637971D01*
X157781553Y-72648124D01*
X157798208Y-72661792D01*
X157811876Y-72678447D01*
X157822029Y-72697443D01*
X157828284Y-72718062D01*
X157831000Y-72745640D01*
X157831000Y-73254360D01*
X157828284Y-73281938D01*
X157822029Y-73302557D01*
X157811876Y-73321553D01*
X157798208Y-73338208D01*
X157781553Y-73351876D01*
X157762557Y-73362029D01*
X157741938Y-73368284D01*
X157714360Y-73371000D01*
X157255640Y-73371000D01*
X157228062Y-73368284D01*
X157207443Y-73362029D01*
X157188447Y-73351876D01*
X157171792Y-73338208D01*
X157158124Y-73321553D01*
X157147971Y-73302557D01*
X157141716Y-73281938D01*
X157139000Y-73254360D01*
X157139000Y-72745640D01*
X157141716Y-72718062D01*
X157147971Y-72697443D01*
X157158124Y-72678447D01*
X157171792Y-72661792D01*
X157188447Y-72648124D01*
X157207443Y-72637971D01*
X157228062Y-72631716D01*
X157255640Y-72629000D01*
X157714360Y-72629000D01*
X157741938Y-72631716D01*
X157741938Y-72631716D01*
G37*
G36*
X162771938Y-72631716D02*
G01*
X162792557Y-72637971D01*
X162811553Y-72648124D01*
X162828208Y-72661792D01*
X162841876Y-72678447D01*
X162852029Y-72697443D01*
X162858284Y-72718062D01*
X162861000Y-72745640D01*
X162861000Y-73254360D01*
X162858284Y-73281938D01*
X162852029Y-73302557D01*
X162841876Y-73321553D01*
X162828208Y-73338208D01*
X162811553Y-73351876D01*
X162792557Y-73362029D01*
X162771938Y-73368284D01*
X162744360Y-73371000D01*
X162285640Y-73371000D01*
X162258062Y-73368284D01*
X162237443Y-73362029D01*
X162218447Y-73351876D01*
X162201792Y-73338208D01*
X162188124Y-73321553D01*
X162177971Y-73302557D01*
X162171716Y-73281938D01*
X162169000Y-73254360D01*
X162169000Y-72745640D01*
X162171716Y-72718062D01*
X162177971Y-72697443D01*
X162188124Y-72678447D01*
X162201792Y-72661792D01*
X162218447Y-72648124D01*
X162237443Y-72637971D01*
X162258062Y-72631716D01*
X162285640Y-72629000D01*
X162744360Y-72629000D01*
X162771938Y-72631716D01*
X162771938Y-72631716D01*
G37*
G36*
X163741938Y-72631716D02*
G01*
X163762557Y-72637971D01*
X163781553Y-72648124D01*
X163798208Y-72661792D01*
X163811876Y-72678447D01*
X163822029Y-72697443D01*
X163828284Y-72718062D01*
X163831000Y-72745640D01*
X163831000Y-73254360D01*
X163828284Y-73281938D01*
X163822029Y-73302557D01*
X163811876Y-73321553D01*
X163798208Y-73338208D01*
X163781553Y-73351876D01*
X163762557Y-73362029D01*
X163741938Y-73368284D01*
X163714360Y-73371000D01*
X163255640Y-73371000D01*
X163228062Y-73368284D01*
X163207443Y-73362029D01*
X163188447Y-73351876D01*
X163171792Y-73338208D01*
X163158124Y-73321553D01*
X163147971Y-73302557D01*
X163141716Y-73281938D01*
X163139000Y-73254360D01*
X163139000Y-72745640D01*
X163141716Y-72718062D01*
X163147971Y-72697443D01*
X163158124Y-72678447D01*
X163171792Y-72661792D01*
X163188447Y-72648124D01*
X163207443Y-72637971D01*
X163228062Y-72631716D01*
X163255640Y-72629000D01*
X163714360Y-72629000D01*
X163741938Y-72631716D01*
X163741938Y-72631716D01*
G37*
G36*
X168771938Y-72631716D02*
G01*
X168792557Y-72637971D01*
X168811553Y-72648124D01*
X168828208Y-72661792D01*
X168841876Y-72678447D01*
X168852029Y-72697443D01*
X168858284Y-72718062D01*
X168861000Y-72745640D01*
X168861000Y-73254360D01*
X168858284Y-73281938D01*
X168852029Y-73302557D01*
X168841876Y-73321553D01*
X168828208Y-73338208D01*
X168811553Y-73351876D01*
X168792557Y-73362029D01*
X168771938Y-73368284D01*
X168744360Y-73371000D01*
X168285640Y-73371000D01*
X168258062Y-73368284D01*
X168237443Y-73362029D01*
X168218447Y-73351876D01*
X168201792Y-73338208D01*
X168188124Y-73321553D01*
X168177971Y-73302557D01*
X168171716Y-73281938D01*
X168169000Y-73254360D01*
X168169000Y-72745640D01*
X168171716Y-72718062D01*
X168177971Y-72697443D01*
X168188124Y-72678447D01*
X168201792Y-72661792D01*
X168218447Y-72648124D01*
X168237443Y-72637971D01*
X168258062Y-72631716D01*
X168285640Y-72629000D01*
X168744360Y-72629000D01*
X168771938Y-72631716D01*
X168771938Y-72631716D01*
G37*
G36*
X169741938Y-72631716D02*
G01*
X169762557Y-72637971D01*
X169781553Y-72648124D01*
X169798208Y-72661792D01*
X169811876Y-72678447D01*
X169822029Y-72697443D01*
X169828284Y-72718062D01*
X169831000Y-72745640D01*
X169831000Y-73254360D01*
X169828284Y-73281938D01*
X169822029Y-73302557D01*
X169811876Y-73321553D01*
X169798208Y-73338208D01*
X169781553Y-73351876D01*
X169762557Y-73362029D01*
X169741938Y-73368284D01*
X169714360Y-73371000D01*
X169255640Y-73371000D01*
X169228062Y-73368284D01*
X169207443Y-73362029D01*
X169188447Y-73351876D01*
X169171792Y-73338208D01*
X169158124Y-73321553D01*
X169147971Y-73302557D01*
X169141716Y-73281938D01*
X169139000Y-73254360D01*
X169139000Y-72745640D01*
X169141716Y-72718062D01*
X169147971Y-72697443D01*
X169158124Y-72678447D01*
X169171792Y-72661792D01*
X169188447Y-72648124D01*
X169207443Y-72637971D01*
X169228062Y-72631716D01*
X169255640Y-72629000D01*
X169714360Y-72629000D01*
X169741938Y-72631716D01*
X169741938Y-72631716D01*
G37*
G36*
X139741938Y-72631716D02*
G01*
X139762557Y-72637971D01*
X139781553Y-72648124D01*
X139798208Y-72661792D01*
X139811876Y-72678447D01*
X139822029Y-72697443D01*
X139828284Y-72718062D01*
X139831000Y-72745640D01*
X139831000Y-73254360D01*
X139828284Y-73281938D01*
X139822029Y-73302557D01*
X139811876Y-73321553D01*
X139798208Y-73338208D01*
X139781553Y-73351876D01*
X139762557Y-73362029D01*
X139741938Y-73368284D01*
X139714360Y-73371000D01*
X139255640Y-73371000D01*
X139228062Y-73368284D01*
X139207443Y-73362029D01*
X139188447Y-73351876D01*
X139171792Y-73338208D01*
X139158124Y-73321553D01*
X139147971Y-73302557D01*
X139141716Y-73281938D01*
X139139000Y-73254360D01*
X139139000Y-72745640D01*
X139141716Y-72718062D01*
X139147971Y-72697443D01*
X139158124Y-72678447D01*
X139171792Y-72661792D01*
X139188447Y-72648124D01*
X139207443Y-72637971D01*
X139228062Y-72631716D01*
X139255640Y-72629000D01*
X139714360Y-72629000D01*
X139741938Y-72631716D01*
X139741938Y-72631716D01*
G37*
G36*
X132771938Y-72631716D02*
G01*
X132792557Y-72637971D01*
X132811553Y-72648124D01*
X132828208Y-72661792D01*
X132841876Y-72678447D01*
X132852029Y-72697443D01*
X132858284Y-72718062D01*
X132861000Y-72745640D01*
X132861000Y-73254360D01*
X132858284Y-73281938D01*
X132852029Y-73302557D01*
X132841876Y-73321553D01*
X132828208Y-73338208D01*
X132811553Y-73351876D01*
X132792557Y-73362029D01*
X132771938Y-73368284D01*
X132744360Y-73371000D01*
X132285640Y-73371000D01*
X132258062Y-73368284D01*
X132237443Y-73362029D01*
X132218447Y-73351876D01*
X132201792Y-73338208D01*
X132188124Y-73321553D01*
X132177971Y-73302557D01*
X132171716Y-73281938D01*
X132169000Y-73254360D01*
X132169000Y-72745640D01*
X132171716Y-72718062D01*
X132177971Y-72697443D01*
X132188124Y-72678447D01*
X132201792Y-72661792D01*
X132218447Y-72648124D01*
X132237443Y-72637971D01*
X132258062Y-72631716D01*
X132285640Y-72629000D01*
X132744360Y-72629000D01*
X132771938Y-72631716D01*
X132771938Y-72631716D01*
G37*
G36*
X158351000Y-71601000D02*
G01*
X157399000Y-71601000D01*
X157399000Y-69899000D01*
X158351000Y-69899000D01*
X158351000Y-71601000D01*
X158351000Y-71601000D01*
G37*
G36*
X164351000Y-71601000D02*
G01*
X163399000Y-71601000D01*
X163399000Y-69899000D01*
X164351000Y-69899000D01*
X164351000Y-71601000D01*
X164351000Y-71601000D01*
G37*
G36*
X162601000Y-71601000D02*
G01*
X161649000Y-71601000D01*
X161649000Y-69899000D01*
X162601000Y-69899000D01*
X162601000Y-71601000D01*
X162601000Y-71601000D01*
G37*
G36*
X176351000Y-71601000D02*
G01*
X175399000Y-71601000D01*
X175399000Y-69899000D01*
X176351000Y-69899000D01*
X176351000Y-71601000D01*
X176351000Y-71601000D01*
G37*
G36*
X170351000Y-71601000D02*
G01*
X169399000Y-71601000D01*
X169399000Y-69899000D01*
X170351000Y-69899000D01*
X170351000Y-71601000D01*
X170351000Y-71601000D01*
G37*
G36*
X168601000Y-71601000D02*
G01*
X167649000Y-71601000D01*
X167649000Y-69899000D01*
X168601000Y-69899000D01*
X168601000Y-71601000D01*
X168601000Y-71601000D01*
G37*
G36*
X174601000Y-71601000D02*
G01*
X173649000Y-71601000D01*
X173649000Y-69899000D01*
X174601000Y-69899000D01*
X174601000Y-71601000D01*
X174601000Y-71601000D01*
G37*
G36*
X128351000Y-71601000D02*
G01*
X127399000Y-71601000D01*
X127399000Y-69899000D01*
X128351000Y-69899000D01*
X128351000Y-71601000D01*
X128351000Y-71601000D01*
G37*
G36*
X126601000Y-71601000D02*
G01*
X125649000Y-71601000D01*
X125649000Y-69899000D01*
X126601000Y-69899000D01*
X126601000Y-71601000D01*
X126601000Y-71601000D01*
G37*
G36*
X132601000Y-71601000D02*
G01*
X131649000Y-71601000D01*
X131649000Y-69899000D01*
X132601000Y-69899000D01*
X132601000Y-71601000D01*
X132601000Y-71601000D01*
G37*
G36*
X98351000Y-71601000D02*
G01*
X97399000Y-71601000D01*
X97399000Y-69899000D01*
X98351000Y-69899000D01*
X98351000Y-71601000D01*
X98351000Y-71601000D01*
G37*
G36*
X96601000Y-71601000D02*
G01*
X95649000Y-71601000D01*
X95649000Y-69899000D01*
X96601000Y-69899000D01*
X96601000Y-71601000D01*
X96601000Y-71601000D01*
G37*
G36*
X92351000Y-71601000D02*
G01*
X91399000Y-71601000D01*
X91399000Y-69899000D01*
X92351000Y-69899000D01*
X92351000Y-71601000D01*
X92351000Y-71601000D01*
G37*
G36*
X90601000Y-71601000D02*
G01*
X89649000Y-71601000D01*
X89649000Y-69899000D01*
X90601000Y-69899000D01*
X90601000Y-71601000D01*
X90601000Y-71601000D01*
G37*
G36*
X156601000Y-71601000D02*
G01*
X155649000Y-71601000D01*
X155649000Y-69899000D01*
X156601000Y-69899000D01*
X156601000Y-71601000D01*
X156601000Y-71601000D01*
G37*
G36*
X152351000Y-71601000D02*
G01*
X151399000Y-71601000D01*
X151399000Y-69899000D01*
X152351000Y-69899000D01*
X152351000Y-71601000D01*
X152351000Y-71601000D01*
G37*
G36*
X150601000Y-71601000D02*
G01*
X149649000Y-71601000D01*
X149649000Y-69899000D01*
X150601000Y-69899000D01*
X150601000Y-71601000D01*
X150601000Y-71601000D01*
G37*
G36*
X146351000Y-71601000D02*
G01*
X145399000Y-71601000D01*
X145399000Y-69899000D01*
X146351000Y-69899000D01*
X146351000Y-71601000D01*
X146351000Y-71601000D01*
G37*
G36*
X116226000Y-71601000D02*
G01*
X115274000Y-71601000D01*
X115274000Y-69899000D01*
X116226000Y-69899000D01*
X116226000Y-71601000D01*
X116226000Y-71601000D01*
G37*
G36*
X114476000Y-71601000D02*
G01*
X113524000Y-71601000D01*
X113524000Y-69899000D01*
X114476000Y-69899000D01*
X114476000Y-71601000D01*
X114476000Y-71601000D01*
G37*
G36*
X144601000Y-71601000D02*
G01*
X143649000Y-71601000D01*
X143649000Y-69899000D01*
X144601000Y-69899000D01*
X144601000Y-71601000D01*
X144601000Y-71601000D01*
G37*
G36*
X134351000Y-71601000D02*
G01*
X133399000Y-71601000D01*
X133399000Y-69899000D01*
X134351000Y-69899000D01*
X134351000Y-71601000D01*
X134351000Y-71601000D01*
G37*
G36*
X120601000Y-71601000D02*
G01*
X119649000Y-71601000D01*
X119649000Y-69899000D01*
X120601000Y-69899000D01*
X120601000Y-71601000D01*
X120601000Y-71601000D01*
G37*
G36*
X108601000Y-71601000D02*
G01*
X107649000Y-71601000D01*
X107649000Y-69899000D01*
X108601000Y-69899000D01*
X108601000Y-71601000D01*
X108601000Y-71601000D01*
G37*
G36*
X110351000Y-71601000D02*
G01*
X109399000Y-71601000D01*
X109399000Y-69899000D01*
X110351000Y-69899000D01*
X110351000Y-71601000D01*
X110351000Y-71601000D01*
G37*
G36*
X104351000Y-71601000D02*
G01*
X103399000Y-71601000D01*
X103399000Y-69899000D01*
X104351000Y-69899000D01*
X104351000Y-71601000D01*
X104351000Y-71601000D01*
G37*
G36*
X102601000Y-71601000D02*
G01*
X101649000Y-71601000D01*
X101649000Y-69899000D01*
X102601000Y-69899000D01*
X102601000Y-71601000D01*
X102601000Y-71601000D01*
G37*
G36*
X140351000Y-71601000D02*
G01*
X139399000Y-71601000D01*
X139399000Y-69899000D01*
X140351000Y-69899000D01*
X140351000Y-71601000D01*
X140351000Y-71601000D01*
G37*
G36*
X138601000Y-71601000D02*
G01*
X137649000Y-71601000D01*
X137649000Y-69899000D01*
X138601000Y-69899000D01*
X138601000Y-71601000D01*
X138601000Y-71601000D01*
G37*
G36*
X122351000Y-71601000D02*
G01*
X121399000Y-71601000D01*
X121399000Y-69899000D01*
X122351000Y-69899000D01*
X122351000Y-71601000D01*
X122351000Y-71601000D01*
G37*
G36*
X181724549Y-66871116D02*
G01*
X181835734Y-66893232D01*
X182045203Y-66979997D01*
X182233720Y-67105960D01*
X182394040Y-67266280D01*
X182520003Y-67454797D01*
X182606768Y-67664266D01*
X182651000Y-67886636D01*
X182651000Y-68113364D01*
X182606768Y-68335734D01*
X182520003Y-68545203D01*
X182394040Y-68733720D01*
X182233720Y-68894040D01*
X182045203Y-69020003D01*
X181835734Y-69106768D01*
X181724549Y-69128884D01*
X181613365Y-69151000D01*
X181386635Y-69151000D01*
X181275451Y-69128884D01*
X181164266Y-69106768D01*
X180954797Y-69020003D01*
X180766280Y-68894040D01*
X180605960Y-68733720D01*
X180479997Y-68545203D01*
X180393232Y-68335734D01*
X180349000Y-68113364D01*
X180349000Y-67886636D01*
X180393232Y-67664266D01*
X180479997Y-67454797D01*
X180605960Y-67266280D01*
X180766280Y-67105960D01*
X180954797Y-66979997D01*
X181164266Y-66893232D01*
X181275451Y-66871116D01*
X181386635Y-66849000D01*
X181613365Y-66849000D01*
X181724549Y-66871116D01*
X181724549Y-66871116D01*
G37*
G36*
X162601000Y-68101000D02*
G01*
X161649000Y-68101000D01*
X161649000Y-66399000D01*
X162601000Y-66399000D01*
X162601000Y-68101000D01*
X162601000Y-68101000D01*
G37*
G36*
X168601000Y-68101000D02*
G01*
X167649000Y-68101000D01*
X167649000Y-66399000D01*
X168601000Y-66399000D01*
X168601000Y-68101000D01*
X168601000Y-68101000D01*
G37*
G36*
X170351000Y-68101000D02*
G01*
X169399000Y-68101000D01*
X169399000Y-66399000D01*
X170351000Y-66399000D01*
X170351000Y-68101000D01*
X170351000Y-68101000D01*
G37*
G36*
X174601000Y-68101000D02*
G01*
X173649000Y-68101000D01*
X173649000Y-66399000D01*
X174601000Y-66399000D01*
X174601000Y-68101000D01*
X174601000Y-68101000D01*
G37*
G36*
X176351000Y-68101000D02*
G01*
X175399000Y-68101000D01*
X175399000Y-66399000D01*
X176351000Y-66399000D01*
X176351000Y-68101000D01*
X176351000Y-68101000D01*
G37*
G36*
X126601000Y-68101000D02*
G01*
X125649000Y-68101000D01*
X125649000Y-66399000D01*
X126601000Y-66399000D01*
X126601000Y-68101000D01*
X126601000Y-68101000D01*
G37*
G36*
X120601000Y-68101000D02*
G01*
X119649000Y-68101000D01*
X119649000Y-66399000D01*
X120601000Y-66399000D01*
X120601000Y-68101000D01*
X120601000Y-68101000D01*
G37*
G36*
X164351000Y-68101000D02*
G01*
X163399000Y-68101000D01*
X163399000Y-66399000D01*
X164351000Y-66399000D01*
X164351000Y-68101000D01*
X164351000Y-68101000D01*
G37*
G36*
X128351000Y-68101000D02*
G01*
X127399000Y-68101000D01*
X127399000Y-66399000D01*
X128351000Y-66399000D01*
X128351000Y-68101000D01*
X128351000Y-68101000D01*
G37*
G36*
X132601000Y-68101000D02*
G01*
X131649000Y-68101000D01*
X131649000Y-66399000D01*
X132601000Y-66399000D01*
X132601000Y-68101000D01*
X132601000Y-68101000D01*
G37*
G36*
X158351000Y-68101000D02*
G01*
X157399000Y-68101000D01*
X157399000Y-66399000D01*
X158351000Y-66399000D01*
X158351000Y-68101000D01*
X158351000Y-68101000D01*
G37*
G36*
X134351000Y-68101000D02*
G01*
X133399000Y-68101000D01*
X133399000Y-66399000D01*
X134351000Y-66399000D01*
X134351000Y-68101000D01*
X134351000Y-68101000D01*
G37*
G36*
X138601000Y-68101000D02*
G01*
X137649000Y-68101000D01*
X137649000Y-66399000D01*
X138601000Y-66399000D01*
X138601000Y-68101000D01*
X138601000Y-68101000D01*
G37*
G36*
X108601000Y-68101000D02*
G01*
X107649000Y-68101000D01*
X107649000Y-66399000D01*
X108601000Y-66399000D01*
X108601000Y-68101000D01*
X108601000Y-68101000D01*
G37*
G36*
X140351000Y-68101000D02*
G01*
X139399000Y-68101000D01*
X139399000Y-66399000D01*
X140351000Y-66399000D01*
X140351000Y-68101000D01*
X140351000Y-68101000D01*
G37*
G36*
X144601000Y-68101000D02*
G01*
X143649000Y-68101000D01*
X143649000Y-66399000D01*
X144601000Y-66399000D01*
X144601000Y-68101000D01*
X144601000Y-68101000D01*
G37*
G36*
X146351000Y-68101000D02*
G01*
X145399000Y-68101000D01*
X145399000Y-66399000D01*
X146351000Y-66399000D01*
X146351000Y-68101000D01*
X146351000Y-68101000D01*
G37*
G36*
X122351000Y-68101000D02*
G01*
X121399000Y-68101000D01*
X121399000Y-66399000D01*
X122351000Y-66399000D01*
X122351000Y-68101000D01*
X122351000Y-68101000D01*
G37*
G36*
X104351000Y-68101000D02*
G01*
X103399000Y-68101000D01*
X103399000Y-66399000D01*
X104351000Y-66399000D01*
X104351000Y-68101000D01*
X104351000Y-68101000D01*
G37*
G36*
X102601000Y-68101000D02*
G01*
X101649000Y-68101000D01*
X101649000Y-66399000D01*
X102601000Y-66399000D01*
X102601000Y-68101000D01*
X102601000Y-68101000D01*
G37*
G36*
X152351000Y-68101000D02*
G01*
X151399000Y-68101000D01*
X151399000Y-66399000D01*
X152351000Y-66399000D01*
X152351000Y-68101000D01*
X152351000Y-68101000D01*
G37*
G36*
X98351000Y-68101000D02*
G01*
X97399000Y-68101000D01*
X97399000Y-66399000D01*
X98351000Y-66399000D01*
X98351000Y-68101000D01*
X98351000Y-68101000D01*
G37*
G36*
X96601000Y-68101000D02*
G01*
X95649000Y-68101000D01*
X95649000Y-66399000D01*
X96601000Y-66399000D01*
X96601000Y-68101000D01*
X96601000Y-68101000D01*
G37*
G36*
X116226000Y-68101000D02*
G01*
X115274000Y-68101000D01*
X115274000Y-66399000D01*
X116226000Y-66399000D01*
X116226000Y-68101000D01*
X116226000Y-68101000D01*
G37*
G36*
X114476000Y-68101000D02*
G01*
X113524000Y-68101000D01*
X113524000Y-66399000D01*
X114476000Y-66399000D01*
X114476000Y-68101000D01*
X114476000Y-68101000D01*
G37*
G36*
X156601000Y-68101000D02*
G01*
X155649000Y-68101000D01*
X155649000Y-66399000D01*
X156601000Y-66399000D01*
X156601000Y-68101000D01*
X156601000Y-68101000D01*
G37*
G36*
X92351000Y-68101000D02*
G01*
X91399000Y-68101000D01*
X91399000Y-66399000D01*
X92351000Y-66399000D01*
X92351000Y-68101000D01*
X92351000Y-68101000D01*
G37*
G36*
X90601000Y-68101000D02*
G01*
X89649000Y-68101000D01*
X89649000Y-66399000D01*
X90601000Y-66399000D01*
X90601000Y-68101000D01*
X90601000Y-68101000D01*
G37*
G36*
X110351000Y-68101000D02*
G01*
X109399000Y-68101000D01*
X109399000Y-66399000D01*
X110351000Y-66399000D01*
X110351000Y-68101000D01*
X110351000Y-68101000D01*
G37*
G36*
X150601000Y-68101000D02*
G01*
X149649000Y-68101000D01*
X149649000Y-66399000D01*
X150601000Y-66399000D01*
X150601000Y-68101000D01*
X150601000Y-68101000D01*
G37*
M02*
