G04 #@! TF.GenerationSoftware,KiCad,Pcbnew,5.1.2-f72e74a~84~ubuntu18.04.1*
G04 #@! TF.CreationDate,2019-08-10T16:00:54+02:00*
G04 #@! TF.ProjectId,roboy_2.0_forarm_shield,726f626f-795f-4322-9e30-5f666f726172,rev?*
G04 #@! TF.SameCoordinates,Original*
G04 #@! TF.FileFunction,Copper,L2,Bot*
G04 #@! TF.FilePolarity,Positive*
%FSLAX46Y46*%
G04 Gerber Fmt 4.6, Leading zero omitted, Abs format (unit mm)*
G04 Created by KiCad (PCBNEW 5.1.2-f72e74a~84~ubuntu18.04.1) date 2019-08-10 16:00:54*
%MOMM*%
%LPD*%
G04 APERTURE LIST*
%ADD10C,2.200000*%
%ADD11R,1.700000X1.700000*%
%ADD12O,1.700000X1.700000*%
%ADD13C,0.100000*%
%ADD14C,0.590000*%
%ADD15R,1.800000X1.800000*%
%ADD16C,1.800000*%
%ADD17R,3.500000X2.000000*%
%ADD18R,6.000000X2.000000*%
%ADD19C,2.060000*%
%ADD20R,0.450000X0.750000*%
%ADD21C,0.800000*%
%ADD22C,0.250000*%
%ADD23C,1.000000*%
%ADD24C,0.254000*%
G04 APERTURE END LIST*
D10*
X95100000Y-77250000D03*
X95100000Y-97750000D03*
X181500000Y-68000000D03*
D11*
X147900000Y-77300000D03*
D12*
X145360000Y-77300000D03*
X142820000Y-77300000D03*
X140280000Y-77300000D03*
X137740000Y-77300000D03*
X135200000Y-77300000D03*
X132660000Y-77300000D03*
X130120000Y-77300000D03*
X127580000Y-77300000D03*
X125040000Y-77300000D03*
X122500000Y-77300000D03*
X119960000Y-77300000D03*
X117420000Y-77300000D03*
X114880000Y-77300000D03*
X147920000Y-97700000D03*
X145380000Y-97700000D03*
X142840000Y-97700000D03*
X140300000Y-97700000D03*
X137760000Y-97700000D03*
X135220000Y-97700000D03*
X132680000Y-97700000D03*
X130140000Y-97700000D03*
X127600000Y-97700000D03*
X125060000Y-97700000D03*
X122520000Y-97700000D03*
X119980000Y-97700000D03*
X117440000Y-97700000D03*
D11*
X114900000Y-97700000D03*
D13*
G36*
X185686958Y-67690710D02*
G01*
X185701276Y-67692834D01*
X185715317Y-67696351D01*
X185728946Y-67701228D01*
X185742031Y-67707417D01*
X185754447Y-67714858D01*
X185766073Y-67723481D01*
X185776798Y-67733202D01*
X185786519Y-67743927D01*
X185795142Y-67755553D01*
X185802583Y-67767969D01*
X185808772Y-67781054D01*
X185813649Y-67794683D01*
X185817166Y-67808724D01*
X185819290Y-67823042D01*
X185820000Y-67837500D01*
X185820000Y-68132500D01*
X185819290Y-68146958D01*
X185817166Y-68161276D01*
X185813649Y-68175317D01*
X185808772Y-68188946D01*
X185802583Y-68202031D01*
X185795142Y-68214447D01*
X185786519Y-68226073D01*
X185776798Y-68236798D01*
X185766073Y-68246519D01*
X185754447Y-68255142D01*
X185742031Y-68262583D01*
X185728946Y-68268772D01*
X185715317Y-68273649D01*
X185701276Y-68277166D01*
X185686958Y-68279290D01*
X185672500Y-68280000D01*
X185327500Y-68280000D01*
X185313042Y-68279290D01*
X185298724Y-68277166D01*
X185284683Y-68273649D01*
X185271054Y-68268772D01*
X185257969Y-68262583D01*
X185245553Y-68255142D01*
X185233927Y-68246519D01*
X185223202Y-68236798D01*
X185213481Y-68226073D01*
X185204858Y-68214447D01*
X185197417Y-68202031D01*
X185191228Y-68188946D01*
X185186351Y-68175317D01*
X185182834Y-68161276D01*
X185180710Y-68146958D01*
X185180000Y-68132500D01*
X185180000Y-67837500D01*
X185180710Y-67823042D01*
X185182834Y-67808724D01*
X185186351Y-67794683D01*
X185191228Y-67781054D01*
X185197417Y-67767969D01*
X185204858Y-67755553D01*
X185213481Y-67743927D01*
X185223202Y-67733202D01*
X185233927Y-67723481D01*
X185245553Y-67714858D01*
X185257969Y-67707417D01*
X185271054Y-67701228D01*
X185284683Y-67696351D01*
X185298724Y-67692834D01*
X185313042Y-67690710D01*
X185327500Y-67690000D01*
X185672500Y-67690000D01*
X185686958Y-67690710D01*
X185686958Y-67690710D01*
G37*
D14*
X185500000Y-67985000D03*
D13*
G36*
X185686958Y-66720710D02*
G01*
X185701276Y-66722834D01*
X185715317Y-66726351D01*
X185728946Y-66731228D01*
X185742031Y-66737417D01*
X185754447Y-66744858D01*
X185766073Y-66753481D01*
X185776798Y-66763202D01*
X185786519Y-66773927D01*
X185795142Y-66785553D01*
X185802583Y-66797969D01*
X185808772Y-66811054D01*
X185813649Y-66824683D01*
X185817166Y-66838724D01*
X185819290Y-66853042D01*
X185820000Y-66867500D01*
X185820000Y-67162500D01*
X185819290Y-67176958D01*
X185817166Y-67191276D01*
X185813649Y-67205317D01*
X185808772Y-67218946D01*
X185802583Y-67232031D01*
X185795142Y-67244447D01*
X185786519Y-67256073D01*
X185776798Y-67266798D01*
X185766073Y-67276519D01*
X185754447Y-67285142D01*
X185742031Y-67292583D01*
X185728946Y-67298772D01*
X185715317Y-67303649D01*
X185701276Y-67307166D01*
X185686958Y-67309290D01*
X185672500Y-67310000D01*
X185327500Y-67310000D01*
X185313042Y-67309290D01*
X185298724Y-67307166D01*
X185284683Y-67303649D01*
X185271054Y-67298772D01*
X185257969Y-67292583D01*
X185245553Y-67285142D01*
X185233927Y-67276519D01*
X185223202Y-67266798D01*
X185213481Y-67256073D01*
X185204858Y-67244447D01*
X185197417Y-67232031D01*
X185191228Y-67218946D01*
X185186351Y-67205317D01*
X185182834Y-67191276D01*
X185180710Y-67176958D01*
X185180000Y-67162500D01*
X185180000Y-66867500D01*
X185180710Y-66853042D01*
X185182834Y-66838724D01*
X185186351Y-66824683D01*
X185191228Y-66811054D01*
X185197417Y-66797969D01*
X185204858Y-66785553D01*
X185213481Y-66773927D01*
X185223202Y-66763202D01*
X185233927Y-66753481D01*
X185245553Y-66744858D01*
X185257969Y-66737417D01*
X185271054Y-66731228D01*
X185284683Y-66726351D01*
X185298724Y-66722834D01*
X185313042Y-66720710D01*
X185327500Y-66720000D01*
X185672500Y-66720000D01*
X185686958Y-66720710D01*
X185686958Y-66720710D01*
G37*
D14*
X185500000Y-67015000D03*
D15*
X128020000Y-86145000D03*
D16*
X125480000Y-87415000D03*
X128020000Y-88685000D03*
X125480000Y-89955000D03*
X115160000Y-90950000D03*
X117700000Y-89680000D03*
D15*
X117700000Y-84600000D03*
D16*
X115160000Y-85870000D03*
X117700000Y-87140000D03*
X115160000Y-88410000D03*
X100870000Y-93645000D03*
X98330000Y-94915000D03*
X100870000Y-96185000D03*
D15*
X98330000Y-97455000D03*
X108080000Y-97455000D03*
D16*
X110620000Y-96185000D03*
X108080000Y-94915000D03*
X110620000Y-93645000D03*
D17*
X105650000Y-87050000D03*
D18*
X96400000Y-87050000D03*
X96400000Y-83050000D03*
D17*
X105650000Y-83050000D03*
D16*
X186460000Y-83930000D03*
X189000000Y-82660000D03*
X186460000Y-81390000D03*
X189000000Y-80120000D03*
X186460000Y-78850000D03*
X189000000Y-77580000D03*
D15*
X189000000Y-72500000D03*
D16*
X186460000Y-73770000D03*
X189000000Y-75040000D03*
X186460000Y-76310000D03*
X186460000Y-91550000D03*
X186460000Y-89010000D03*
X189000000Y-87740000D03*
X186460000Y-86520000D03*
X189000000Y-90280000D03*
X189000000Y-92820000D03*
X186460000Y-94090000D03*
X186460000Y-96630000D03*
X189000000Y-95360000D03*
X189000000Y-85200000D03*
D19*
X189180000Y-67500000D03*
D20*
X187000000Y-68350000D03*
X187000000Y-66650000D03*
X187700000Y-66650000D03*
X187700000Y-68350000D03*
D17*
X178250000Y-103000000D03*
D18*
X187500000Y-103000000D03*
X187500000Y-107000000D03*
D17*
X178250000Y-107000000D03*
D21*
X173500000Y-102000000D03*
X167500000Y-102000000D03*
X161000000Y-102000000D03*
X155500000Y-102000000D03*
X143500000Y-102000000D03*
X137500000Y-102000000D03*
X131500000Y-102000000D03*
X125500000Y-102000000D03*
X119500000Y-102000000D03*
X113500000Y-102000000D03*
X107500000Y-102000000D03*
X101000000Y-102000000D03*
X95000000Y-102000000D03*
X90000000Y-101000000D03*
X92500000Y-73000000D03*
X98500000Y-73000000D03*
X104500000Y-73000000D03*
X110500000Y-73000000D03*
X116500000Y-73000000D03*
X122500000Y-73000000D03*
X128500000Y-73000000D03*
X134500000Y-73000000D03*
X140500000Y-73000000D03*
X143000000Y-73000000D03*
X158500000Y-73000000D03*
X164500000Y-73000000D03*
X170500000Y-73000000D03*
X176500000Y-73000000D03*
X93500000Y-106000000D03*
X93500000Y-107000000D03*
X94500000Y-106500000D03*
X94500000Y-107500000D03*
X93500000Y-108000000D03*
X94500000Y-108500000D03*
X93500000Y-109000000D03*
X142157500Y-70842500D03*
X145687500Y-68812500D03*
X174500000Y-82500000D03*
X174000000Y-90500000D03*
X168500000Y-83500000D03*
X167000000Y-86000000D03*
X176500000Y-84500000D03*
X178000000Y-85500000D03*
X184500000Y-67500000D03*
X189500000Y-69500000D03*
X181500000Y-80000000D03*
X172019448Y-99980552D03*
X169500000Y-86000000D03*
X155000000Y-71000000D03*
X153000000Y-68000000D03*
X168775000Y-95811340D03*
X168775000Y-93500000D03*
X174000000Y-96500000D03*
X184097335Y-68549949D03*
X183000000Y-71500000D03*
X173500000Y-95500000D03*
X173500000Y-94000000D03*
X183000000Y-67500000D03*
X177000000Y-74500000D03*
X174707108Y-97207108D03*
X173500000Y-88500000D03*
X173500000Y-84500000D03*
X173500000Y-83500000D03*
X169000000Y-79500000D03*
X173962347Y-80037653D03*
X175000000Y-80000000D03*
D22*
X147900000Y-78400000D02*
X147900000Y-77300000D01*
X144900000Y-81400000D02*
X147900000Y-78400000D01*
X125600000Y-81400000D02*
X144900000Y-81400000D01*
X118590000Y-88410000D02*
X125600000Y-81400000D01*
X115160000Y-88410000D02*
X118590000Y-88410000D01*
X149075001Y-76189999D02*
X149075001Y-78410001D01*
X149010001Y-76124999D02*
X149075001Y-76189999D01*
X145360000Y-77300000D02*
X146535001Y-76124999D01*
X146535001Y-76124999D02*
X149010001Y-76124999D01*
X126660291Y-81992501D02*
X118972792Y-89680000D01*
X118972792Y-89680000D02*
X117700000Y-89680000D01*
X145492501Y-81992501D02*
X126660291Y-81992501D01*
X149075001Y-78410001D02*
X145492501Y-81992501D01*
D23*
X105650000Y-87050000D02*
X96400000Y-87050000D01*
X107670000Y-87050000D02*
X105650000Y-87050000D01*
X117420000Y-77300000D02*
X107670000Y-87050000D01*
X187500000Y-103000000D02*
X178250000Y-103000000D01*
X178250000Y-103000000D02*
X174500000Y-103000000D01*
X174500000Y-103000000D02*
X173500000Y-102000000D01*
X173500000Y-102000000D02*
X167500000Y-102000000D01*
X167500000Y-102000000D02*
X161000000Y-102000000D01*
X161000000Y-102000000D02*
X155500000Y-102000000D01*
X155500000Y-102000000D02*
X143500000Y-102000000D01*
X188049949Y-69649949D02*
X189000000Y-70600000D01*
X183850051Y-69649949D02*
X188049949Y-69649949D01*
X183500000Y-70000000D02*
X183850051Y-69649949D01*
X176500000Y-70000000D02*
X183500000Y-70000000D01*
X189000000Y-70600000D02*
X189000000Y-72500000D01*
X143500000Y-102000000D02*
X137500000Y-102000000D01*
X90000000Y-102000000D02*
X90000000Y-101000000D01*
X90000000Y-75500000D02*
X92500000Y-73000000D01*
X92500000Y-73000000D02*
X98500000Y-73000000D01*
X137500000Y-102000000D02*
X131500000Y-102000000D01*
X131500000Y-102000000D02*
X125500000Y-102000000D01*
X125500000Y-102000000D02*
X119500000Y-102000000D01*
X119500000Y-102000000D02*
X113500000Y-102000000D01*
X113500000Y-102000000D02*
X107500000Y-102000000D01*
X107500000Y-102000000D02*
X101000000Y-102000000D01*
X101000000Y-102000000D02*
X95000000Y-102000000D01*
X95000000Y-102000000D02*
X90000000Y-102000000D01*
X90000000Y-101000000D02*
X90000000Y-75500000D01*
X98500000Y-73000000D02*
X104500000Y-73000000D01*
X104500000Y-73000000D02*
X110500000Y-73000000D01*
X110500000Y-73000000D02*
X116500000Y-73000000D01*
X116500000Y-73000000D02*
X122500000Y-73000000D01*
X122500000Y-73000000D02*
X128500000Y-73000000D01*
X128500000Y-73000000D02*
X134500000Y-73000000D01*
X134500000Y-73000000D02*
X140500000Y-73000000D01*
X140500000Y-73000000D02*
X143000000Y-73000000D01*
X143000000Y-73000000D02*
X158500000Y-73000000D01*
X158500000Y-73000000D02*
X164500000Y-73000000D01*
X164500000Y-73000000D02*
X170500000Y-73000000D01*
X170500000Y-73000000D02*
X176500000Y-73000000D01*
X176500000Y-73000000D02*
X176500000Y-70000000D01*
D22*
X139450001Y-96850001D02*
X140300000Y-97700000D01*
X136600000Y-94000000D02*
X139450001Y-96850001D01*
X118210000Y-94000000D02*
X136600000Y-94000000D01*
X115160000Y-90950000D02*
X118210000Y-94000000D01*
X135009991Y-100450009D02*
X136910001Y-98549999D01*
X98940007Y-100450009D02*
X135009991Y-100450009D01*
X97104999Y-98615001D02*
X98940007Y-100450009D01*
X136910001Y-98549999D02*
X137760000Y-97700000D01*
X97104999Y-96140001D02*
X97104999Y-98615001D01*
X98330000Y-94915000D02*
X97104999Y-96140001D01*
X100870000Y-93645000D02*
X107225000Y-100000000D01*
X132920000Y-100000000D02*
X135220000Y-97700000D01*
X107225000Y-100000000D02*
X132920000Y-100000000D01*
X131504999Y-98875001D02*
X131830001Y-98549999D01*
X129575999Y-98875001D02*
X131504999Y-98875001D01*
X131830001Y-98549999D02*
X132680000Y-97700000D01*
X128964999Y-98264001D02*
X129575999Y-98875001D01*
X128964999Y-97161409D02*
X128964999Y-98264001D01*
X127803590Y-96000000D02*
X128964999Y-97161409D01*
X112338590Y-96000000D02*
X127803590Y-96000000D01*
X111253590Y-94915000D02*
X112338590Y-96000000D01*
X108080000Y-94915000D02*
X111253590Y-94915000D01*
X129290001Y-96850001D02*
X130140000Y-97700000D01*
X126984999Y-94544999D02*
X129290001Y-96850001D01*
X111519999Y-94544999D02*
X126984999Y-94544999D01*
X110620000Y-93645000D02*
X111519999Y-94544999D01*
X187008003Y-87784999D02*
X184215001Y-87784999D01*
X189000000Y-87740000D02*
X187053002Y-87740000D01*
X187053002Y-87740000D02*
X187008003Y-87784999D01*
X184215001Y-87784999D02*
X184000000Y-88000000D01*
X185500000Y-67985000D02*
X184985000Y-67985000D01*
X184985000Y-67985000D02*
X184500000Y-67500000D01*
X188824940Y-68824940D02*
X188174940Y-68824940D01*
X188174940Y-68824940D02*
X187700000Y-68350000D01*
X189500000Y-69500000D02*
X188824940Y-68824940D01*
X181500000Y-78730000D02*
X186460000Y-73770000D01*
X181500000Y-80000000D02*
X181500000Y-78730000D01*
X189500000Y-69933260D02*
X189500000Y-69500000D01*
X190225001Y-70658261D02*
X189500000Y-69933260D01*
X190225001Y-73660001D02*
X190225001Y-70658261D01*
X186460000Y-73770000D02*
X190115002Y-73770000D01*
X190115002Y-73770000D02*
X190225001Y-73660001D01*
X172019448Y-99980552D02*
X169500000Y-97461104D01*
X169500000Y-97461104D02*
X169500000Y-86000000D01*
X187700000Y-66025000D02*
X187700000Y-66650000D01*
X187624999Y-65949999D02*
X187700000Y-66025000D01*
X188330000Y-66650000D02*
X189180000Y-67500000D01*
X187700000Y-66650000D02*
X188330000Y-66650000D01*
X187700000Y-67275000D02*
X187700000Y-66650000D01*
X185500000Y-67015000D02*
X185835001Y-67350001D01*
X187624999Y-67350001D02*
X187700000Y-67275000D01*
X185835001Y-67350001D02*
X187624999Y-67350001D01*
X155000000Y-71000000D02*
X153000000Y-69000000D01*
X153000000Y-69000000D02*
X153000000Y-68000000D01*
X168775000Y-95811340D02*
X168775000Y-93500000D01*
X184152396Y-68605010D02*
X184097335Y-68549949D01*
X186269990Y-68605010D02*
X184152396Y-68605010D01*
X187000000Y-68350000D02*
X186525000Y-68350000D01*
X186525000Y-68350000D02*
X186269990Y-68605010D01*
X173426998Y-96500000D02*
X173434315Y-96500000D01*
X172774999Y-95848001D02*
X173426998Y-96500000D01*
X181426998Y-71500000D02*
X172774999Y-80151999D01*
X173434315Y-96500000D02*
X174000000Y-96500000D01*
X172774999Y-80151999D02*
X172774999Y-95848001D01*
X183000000Y-71500000D02*
X181426998Y-71500000D01*
X185187208Y-96630000D02*
X186460000Y-96630000D01*
X176566592Y-96630000D02*
X185187208Y-96630000D01*
X175661593Y-95725001D02*
X176566592Y-96630000D01*
X173725001Y-95725001D02*
X175661593Y-95725001D01*
X173500000Y-95500000D02*
X173725001Y-95725001D01*
X174065685Y-94000000D02*
X173500000Y-94000000D01*
X175933002Y-95360000D02*
X174573002Y-94000000D01*
X174573002Y-94000000D02*
X174065685Y-94000000D01*
X189000000Y-95360000D02*
X175933002Y-95360000D01*
X187000000Y-66650000D02*
X186150000Y-66650000D01*
X184105010Y-66394990D02*
X183000000Y-67500000D01*
X186150000Y-66650000D02*
X185894990Y-66394990D01*
X185894990Y-66394990D02*
X184105010Y-66394990D01*
X173515589Y-97225001D02*
X174348001Y-97225001D01*
X172324990Y-96034402D02*
X173515589Y-97225001D01*
X172324989Y-79740696D02*
X172324990Y-96034402D01*
X177000000Y-75065685D02*
X172324989Y-79740696D01*
X177000000Y-74500000D02*
X177000000Y-75065685D01*
X179090000Y-94090000D02*
X173500000Y-88500000D01*
X186460000Y-94090000D02*
X179090000Y-94090000D01*
X180550000Y-91550000D02*
X186460000Y-91550000D01*
X173500000Y-84500000D02*
X180550000Y-91550000D01*
X173573002Y-83500000D02*
X173500000Y-83500000D01*
X180353002Y-90280000D02*
X173573002Y-83500000D01*
X189000000Y-90280000D02*
X180353002Y-90280000D01*
X190225001Y-94045001D02*
X190225001Y-95948001D01*
X189000000Y-92820000D02*
X190225001Y-94045001D01*
X190225001Y-95948001D02*
X188240893Y-97932109D01*
X188240893Y-97932109D02*
X173586289Y-97932109D01*
X170225001Y-80725001D02*
X169000000Y-79500000D01*
X173586289Y-97932109D02*
X170225001Y-94570821D01*
X170225001Y-94570821D02*
X170225001Y-80725001D01*
X180444694Y-86520000D02*
X186460000Y-86520000D01*
X173962347Y-80037653D02*
X180444694Y-86520000D01*
X175399999Y-80399999D02*
X175000000Y-80000000D01*
X180155001Y-85155001D02*
X175399999Y-80399999D01*
X188955001Y-85155001D02*
X180155001Y-85155001D01*
X189000000Y-85200000D02*
X188955001Y-85155001D01*
D24*
G36*
X89193551Y-102806449D02*
G01*
X89366377Y-102948284D01*
X89563553Y-103053676D01*
X89777501Y-103118577D01*
X90000000Y-103140491D01*
X90055751Y-103135000D01*
X173029868Y-103135000D01*
X173658013Y-103763145D01*
X173693551Y-103806449D01*
X173736854Y-103841987D01*
X173736856Y-103841989D01*
X173866377Y-103948284D01*
X174063553Y-104053676D01*
X174277501Y-104118577D01*
X174500000Y-104140491D01*
X174555752Y-104135000D01*
X175877379Y-104135000D01*
X175910498Y-104244180D01*
X175969463Y-104354494D01*
X176048815Y-104451185D01*
X176145506Y-104530537D01*
X176255820Y-104589502D01*
X176375518Y-104625812D01*
X176500000Y-104638072D01*
X180000000Y-104638072D01*
X180124482Y-104625812D01*
X180244180Y-104589502D01*
X180354494Y-104530537D01*
X180451185Y-104451185D01*
X180530537Y-104354494D01*
X180589502Y-104244180D01*
X180622621Y-104135000D01*
X183877379Y-104135000D01*
X183910498Y-104244180D01*
X183969463Y-104354494D01*
X184048815Y-104451185D01*
X184145506Y-104530537D01*
X184255820Y-104589502D01*
X184375518Y-104625812D01*
X184500000Y-104638072D01*
X190500000Y-104638072D01*
X190624482Y-104625812D01*
X190744180Y-104589502D01*
X190840001Y-104538284D01*
X190840001Y-105461716D01*
X190744180Y-105410498D01*
X190624482Y-105374188D01*
X190500000Y-105361928D01*
X187785750Y-105365000D01*
X187627000Y-105523750D01*
X187627000Y-106873000D01*
X187647000Y-106873000D01*
X187647000Y-107127000D01*
X187627000Y-107127000D01*
X187627000Y-108476250D01*
X187785750Y-108635000D01*
X190500000Y-108638072D01*
X190624482Y-108625812D01*
X190744180Y-108589502D01*
X190840001Y-108538284D01*
X190840001Y-109340000D01*
X89160000Y-109340000D01*
X89160000Y-108000000D01*
X175861928Y-108000000D01*
X175874188Y-108124482D01*
X175910498Y-108244180D01*
X175969463Y-108354494D01*
X176048815Y-108451185D01*
X176145506Y-108530537D01*
X176255820Y-108589502D01*
X176375518Y-108625812D01*
X176500000Y-108638072D01*
X177964250Y-108635000D01*
X178123000Y-108476250D01*
X178123000Y-107127000D01*
X178377000Y-107127000D01*
X178377000Y-108476250D01*
X178535750Y-108635000D01*
X180000000Y-108638072D01*
X180124482Y-108625812D01*
X180244180Y-108589502D01*
X180354494Y-108530537D01*
X180451185Y-108451185D01*
X180530537Y-108354494D01*
X180589502Y-108244180D01*
X180625812Y-108124482D01*
X180638072Y-108000000D01*
X183861928Y-108000000D01*
X183874188Y-108124482D01*
X183910498Y-108244180D01*
X183969463Y-108354494D01*
X184048815Y-108451185D01*
X184145506Y-108530537D01*
X184255820Y-108589502D01*
X184375518Y-108625812D01*
X184500000Y-108638072D01*
X187214250Y-108635000D01*
X187373000Y-108476250D01*
X187373000Y-107127000D01*
X184023750Y-107127000D01*
X183865000Y-107285750D01*
X183861928Y-108000000D01*
X180638072Y-108000000D01*
X180635000Y-107285750D01*
X180476250Y-107127000D01*
X178377000Y-107127000D01*
X178123000Y-107127000D01*
X176023750Y-107127000D01*
X175865000Y-107285750D01*
X175861928Y-108000000D01*
X89160000Y-108000000D01*
X89160000Y-106000000D01*
X175861928Y-106000000D01*
X175865000Y-106714250D01*
X176023750Y-106873000D01*
X178123000Y-106873000D01*
X178123000Y-105523750D01*
X178377000Y-105523750D01*
X178377000Y-106873000D01*
X180476250Y-106873000D01*
X180635000Y-106714250D01*
X180638072Y-106000000D01*
X183861928Y-106000000D01*
X183865000Y-106714250D01*
X184023750Y-106873000D01*
X187373000Y-106873000D01*
X187373000Y-105523750D01*
X187214250Y-105365000D01*
X184500000Y-105361928D01*
X184375518Y-105374188D01*
X184255820Y-105410498D01*
X184145506Y-105469463D01*
X184048815Y-105548815D01*
X183969463Y-105645506D01*
X183910498Y-105755820D01*
X183874188Y-105875518D01*
X183861928Y-106000000D01*
X180638072Y-106000000D01*
X180625812Y-105875518D01*
X180589502Y-105755820D01*
X180530537Y-105645506D01*
X180451185Y-105548815D01*
X180354494Y-105469463D01*
X180244180Y-105410498D01*
X180124482Y-105374188D01*
X180000000Y-105361928D01*
X178535750Y-105365000D01*
X178377000Y-105523750D01*
X178123000Y-105523750D01*
X177964250Y-105365000D01*
X176500000Y-105361928D01*
X176375518Y-105374188D01*
X176255820Y-105410498D01*
X176145506Y-105469463D01*
X176048815Y-105548815D01*
X175969463Y-105645506D01*
X175910498Y-105755820D01*
X175874188Y-105875518D01*
X175861928Y-106000000D01*
X89160000Y-106000000D01*
X89160000Y-102765567D01*
X89193551Y-102806449D01*
X89193551Y-102806449D01*
G37*
X89193551Y-102806449D02*
X89366377Y-102948284D01*
X89563553Y-103053676D01*
X89777501Y-103118577D01*
X90000000Y-103140491D01*
X90055751Y-103135000D01*
X173029868Y-103135000D01*
X173658013Y-103763145D01*
X173693551Y-103806449D01*
X173736854Y-103841987D01*
X173736856Y-103841989D01*
X173866377Y-103948284D01*
X174063553Y-104053676D01*
X174277501Y-104118577D01*
X174500000Y-104140491D01*
X174555752Y-104135000D01*
X175877379Y-104135000D01*
X175910498Y-104244180D01*
X175969463Y-104354494D01*
X176048815Y-104451185D01*
X176145506Y-104530537D01*
X176255820Y-104589502D01*
X176375518Y-104625812D01*
X176500000Y-104638072D01*
X180000000Y-104638072D01*
X180124482Y-104625812D01*
X180244180Y-104589502D01*
X180354494Y-104530537D01*
X180451185Y-104451185D01*
X180530537Y-104354494D01*
X180589502Y-104244180D01*
X180622621Y-104135000D01*
X183877379Y-104135000D01*
X183910498Y-104244180D01*
X183969463Y-104354494D01*
X184048815Y-104451185D01*
X184145506Y-104530537D01*
X184255820Y-104589502D01*
X184375518Y-104625812D01*
X184500000Y-104638072D01*
X190500000Y-104638072D01*
X190624482Y-104625812D01*
X190744180Y-104589502D01*
X190840001Y-104538284D01*
X190840001Y-105461716D01*
X190744180Y-105410498D01*
X190624482Y-105374188D01*
X190500000Y-105361928D01*
X187785750Y-105365000D01*
X187627000Y-105523750D01*
X187627000Y-106873000D01*
X187647000Y-106873000D01*
X187647000Y-107127000D01*
X187627000Y-107127000D01*
X187627000Y-108476250D01*
X187785750Y-108635000D01*
X190500000Y-108638072D01*
X190624482Y-108625812D01*
X190744180Y-108589502D01*
X190840001Y-108538284D01*
X190840001Y-109340000D01*
X89160000Y-109340000D01*
X89160000Y-108000000D01*
X175861928Y-108000000D01*
X175874188Y-108124482D01*
X175910498Y-108244180D01*
X175969463Y-108354494D01*
X176048815Y-108451185D01*
X176145506Y-108530537D01*
X176255820Y-108589502D01*
X176375518Y-108625812D01*
X176500000Y-108638072D01*
X177964250Y-108635000D01*
X178123000Y-108476250D01*
X178123000Y-107127000D01*
X178377000Y-107127000D01*
X178377000Y-108476250D01*
X178535750Y-108635000D01*
X180000000Y-108638072D01*
X180124482Y-108625812D01*
X180244180Y-108589502D01*
X180354494Y-108530537D01*
X180451185Y-108451185D01*
X180530537Y-108354494D01*
X180589502Y-108244180D01*
X180625812Y-108124482D01*
X180638072Y-108000000D01*
X183861928Y-108000000D01*
X183874188Y-108124482D01*
X183910498Y-108244180D01*
X183969463Y-108354494D01*
X184048815Y-108451185D01*
X184145506Y-108530537D01*
X184255820Y-108589502D01*
X184375518Y-108625812D01*
X184500000Y-108638072D01*
X187214250Y-108635000D01*
X187373000Y-108476250D01*
X187373000Y-107127000D01*
X184023750Y-107127000D01*
X183865000Y-107285750D01*
X183861928Y-108000000D01*
X180638072Y-108000000D01*
X180635000Y-107285750D01*
X180476250Y-107127000D01*
X178377000Y-107127000D01*
X178123000Y-107127000D01*
X176023750Y-107127000D01*
X175865000Y-107285750D01*
X175861928Y-108000000D01*
X89160000Y-108000000D01*
X89160000Y-106000000D01*
X175861928Y-106000000D01*
X175865000Y-106714250D01*
X176023750Y-106873000D01*
X178123000Y-106873000D01*
X178123000Y-105523750D01*
X178377000Y-105523750D01*
X178377000Y-106873000D01*
X180476250Y-106873000D01*
X180635000Y-106714250D01*
X180638072Y-106000000D01*
X183861928Y-106000000D01*
X183865000Y-106714250D01*
X184023750Y-106873000D01*
X187373000Y-106873000D01*
X187373000Y-105523750D01*
X187214250Y-105365000D01*
X184500000Y-105361928D01*
X184375518Y-105374188D01*
X184255820Y-105410498D01*
X184145506Y-105469463D01*
X184048815Y-105548815D01*
X183969463Y-105645506D01*
X183910498Y-105755820D01*
X183874188Y-105875518D01*
X183861928Y-106000000D01*
X180638072Y-106000000D01*
X180625812Y-105875518D01*
X180589502Y-105755820D01*
X180530537Y-105645506D01*
X180451185Y-105548815D01*
X180354494Y-105469463D01*
X180244180Y-105410498D01*
X180124482Y-105374188D01*
X180000000Y-105361928D01*
X178535750Y-105365000D01*
X178377000Y-105523750D01*
X178123000Y-105523750D01*
X177964250Y-105365000D01*
X176500000Y-105361928D01*
X176375518Y-105374188D01*
X176255820Y-105410498D01*
X176145506Y-105469463D01*
X176048815Y-105548815D01*
X175969463Y-105645506D01*
X175910498Y-105755820D01*
X175874188Y-105875518D01*
X175861928Y-106000000D01*
X89160000Y-106000000D01*
X89160000Y-102765567D01*
X89193551Y-102806449D01*
G36*
X174699866Y-74288692D02*
G01*
X174610539Y-74504348D01*
X174565000Y-74733288D01*
X174565000Y-74966712D01*
X174610539Y-75195652D01*
X174699866Y-75411308D01*
X174829550Y-75605394D01*
X174994606Y-75770450D01*
X175129980Y-75860904D01*
X171813986Y-79176898D01*
X171784988Y-79200696D01*
X171761190Y-79229694D01*
X171690015Y-79316420D01*
X171646377Y-79398061D01*
X171619443Y-79448450D01*
X171575986Y-79591711D01*
X171564989Y-79703364D01*
X171564989Y-79703374D01*
X171561313Y-79740696D01*
X171564989Y-79778018D01*
X171564991Y-94836010D01*
X170985001Y-94256020D01*
X170985001Y-80762323D01*
X170988677Y-80725000D01*
X170985001Y-80687677D01*
X170985001Y-80687668D01*
X170974004Y-80576015D01*
X170930547Y-80432754D01*
X170900035Y-80375670D01*
X170859975Y-80300724D01*
X170788800Y-80213998D01*
X170765002Y-80185000D01*
X170736004Y-80161202D01*
X170035000Y-79460199D01*
X170035000Y-79398061D01*
X169995226Y-79198102D01*
X169917205Y-79009744D01*
X169803937Y-78840226D01*
X169659774Y-78696063D01*
X169490256Y-78582795D01*
X169301898Y-78504774D01*
X169101939Y-78465000D01*
X168898061Y-78465000D01*
X168698102Y-78504774D01*
X168509744Y-78582795D01*
X168340226Y-78696063D01*
X168196063Y-78840226D01*
X168082795Y-79009744D01*
X168004774Y-79198102D01*
X167965000Y-79398061D01*
X167965000Y-79601939D01*
X168004774Y-79801898D01*
X168082795Y-79990256D01*
X168196063Y-80159774D01*
X168340226Y-80303937D01*
X168509744Y-80417205D01*
X168698102Y-80495226D01*
X168898061Y-80535000D01*
X168960199Y-80535000D01*
X169465002Y-81039804D01*
X169465002Y-84965000D01*
X169398061Y-84965000D01*
X169198102Y-85004774D01*
X169009744Y-85082795D01*
X168840226Y-85196063D01*
X168696063Y-85340226D01*
X168582795Y-85509744D01*
X168504774Y-85698102D01*
X168465000Y-85898061D01*
X168465000Y-86101939D01*
X168504774Y-86301898D01*
X168582795Y-86490256D01*
X168696063Y-86659774D01*
X168740001Y-86703712D01*
X168740000Y-92465000D01*
X168673061Y-92465000D01*
X168473102Y-92504774D01*
X168284744Y-92582795D01*
X168115226Y-92696063D01*
X167971063Y-92840226D01*
X167857795Y-93009744D01*
X167779774Y-93198102D01*
X167740000Y-93398061D01*
X167740000Y-93601939D01*
X167779774Y-93801898D01*
X167857795Y-93990256D01*
X167971063Y-94159774D01*
X168015001Y-94203712D01*
X168015000Y-95107629D01*
X167971063Y-95151566D01*
X167857795Y-95321084D01*
X167779774Y-95509442D01*
X167740000Y-95709401D01*
X167740000Y-95913279D01*
X167779774Y-96113238D01*
X167857795Y-96301596D01*
X167971063Y-96471114D01*
X168115226Y-96615277D01*
X168284744Y-96728545D01*
X168473102Y-96806566D01*
X168673061Y-96846340D01*
X168740000Y-96846340D01*
X168740000Y-97423782D01*
X168736324Y-97461104D01*
X168740000Y-97498426D01*
X168740000Y-97498436D01*
X168750997Y-97610089D01*
X168790632Y-97740750D01*
X168794454Y-97753350D01*
X168865026Y-97885380D01*
X168901321Y-97929605D01*
X168959999Y-98001105D01*
X168989003Y-98024908D01*
X170984448Y-100020354D01*
X170984448Y-100082491D01*
X171024222Y-100282450D01*
X171102243Y-100470808D01*
X171215511Y-100640326D01*
X171359674Y-100784489D01*
X171480168Y-100865000D01*
X135669801Y-100865000D01*
X137394005Y-99140797D01*
X137468889Y-99163513D01*
X137687050Y-99185000D01*
X137832950Y-99185000D01*
X138051111Y-99163513D01*
X138331034Y-99078599D01*
X138589014Y-98940706D01*
X138815134Y-98755134D01*
X139000706Y-98529014D01*
X139030000Y-98474209D01*
X139059294Y-98529014D01*
X139244866Y-98755134D01*
X139470986Y-98940706D01*
X139728966Y-99078599D01*
X140008889Y-99163513D01*
X140227050Y-99185000D01*
X140372950Y-99185000D01*
X140591111Y-99163513D01*
X140871034Y-99078599D01*
X141129014Y-98940706D01*
X141355134Y-98755134D01*
X141540706Y-98529014D01*
X141570000Y-98474209D01*
X141599294Y-98529014D01*
X141784866Y-98755134D01*
X142010986Y-98940706D01*
X142268966Y-99078599D01*
X142548889Y-99163513D01*
X142767050Y-99185000D01*
X142912950Y-99185000D01*
X143131111Y-99163513D01*
X143411034Y-99078599D01*
X143669014Y-98940706D01*
X143895134Y-98755134D01*
X144080706Y-98529014D01*
X144110000Y-98474209D01*
X144139294Y-98529014D01*
X144324866Y-98755134D01*
X144550986Y-98940706D01*
X144808966Y-99078599D01*
X145088889Y-99163513D01*
X145307050Y-99185000D01*
X145452950Y-99185000D01*
X145671111Y-99163513D01*
X145951034Y-99078599D01*
X146209014Y-98940706D01*
X146435134Y-98755134D01*
X146620706Y-98529014D01*
X146650000Y-98474209D01*
X146679294Y-98529014D01*
X146864866Y-98755134D01*
X147090986Y-98940706D01*
X147348966Y-99078599D01*
X147628889Y-99163513D01*
X147847050Y-99185000D01*
X147992950Y-99185000D01*
X148211111Y-99163513D01*
X148491034Y-99078599D01*
X148749014Y-98940706D01*
X148975134Y-98755134D01*
X149160706Y-98529014D01*
X149298599Y-98271034D01*
X149383513Y-97991111D01*
X149412185Y-97700000D01*
X149383513Y-97408889D01*
X149298599Y-97128966D01*
X149160706Y-96870986D01*
X148975134Y-96644866D01*
X148749014Y-96459294D01*
X148491034Y-96321401D01*
X148211111Y-96236487D01*
X147992950Y-96215000D01*
X147847050Y-96215000D01*
X147628889Y-96236487D01*
X147348966Y-96321401D01*
X147090986Y-96459294D01*
X146864866Y-96644866D01*
X146679294Y-96870986D01*
X146650000Y-96925791D01*
X146620706Y-96870986D01*
X146435134Y-96644866D01*
X146209014Y-96459294D01*
X145951034Y-96321401D01*
X145671111Y-96236487D01*
X145452950Y-96215000D01*
X145307050Y-96215000D01*
X145088889Y-96236487D01*
X144808966Y-96321401D01*
X144550986Y-96459294D01*
X144324866Y-96644866D01*
X144139294Y-96870986D01*
X144110000Y-96925791D01*
X144080706Y-96870986D01*
X143895134Y-96644866D01*
X143669014Y-96459294D01*
X143411034Y-96321401D01*
X143131111Y-96236487D01*
X142912950Y-96215000D01*
X142767050Y-96215000D01*
X142548889Y-96236487D01*
X142268966Y-96321401D01*
X142010986Y-96459294D01*
X141784866Y-96644866D01*
X141599294Y-96870986D01*
X141570000Y-96925791D01*
X141540706Y-96870986D01*
X141355134Y-96644866D01*
X141129014Y-96459294D01*
X140871034Y-96321401D01*
X140591111Y-96236487D01*
X140372950Y-96215000D01*
X140227050Y-96215000D01*
X140008889Y-96236487D01*
X139934005Y-96259203D01*
X137163804Y-93489003D01*
X137140001Y-93459999D01*
X137024276Y-93365026D01*
X136892247Y-93294454D01*
X136748986Y-93250997D01*
X136637333Y-93240000D01*
X136637322Y-93240000D01*
X136600000Y-93236324D01*
X136562678Y-93240000D01*
X118524802Y-93240000D01*
X116643731Y-91358930D01*
X116695000Y-91101184D01*
X116695000Y-90845817D01*
X116721495Y-90872312D01*
X116972905Y-91040299D01*
X117252257Y-91156011D01*
X117548816Y-91215000D01*
X117851184Y-91215000D01*
X118147743Y-91156011D01*
X118427095Y-91040299D01*
X118458851Y-91019080D01*
X124595525Y-91019080D01*
X124679208Y-91273261D01*
X124951775Y-91404158D01*
X125244642Y-91479365D01*
X125546553Y-91495991D01*
X125845907Y-91453397D01*
X126131199Y-91353222D01*
X126280792Y-91273261D01*
X126364475Y-91019080D01*
X125480000Y-90134605D01*
X124595525Y-91019080D01*
X118458851Y-91019080D01*
X118678505Y-90872312D01*
X118892312Y-90658505D01*
X119040298Y-90437028D01*
X119121778Y-90429003D01*
X119265039Y-90385546D01*
X119397068Y-90314974D01*
X119512793Y-90220001D01*
X119536596Y-90190997D01*
X119706040Y-90021553D01*
X123939009Y-90021553D01*
X123981603Y-90320907D01*
X124081778Y-90606199D01*
X124161739Y-90755792D01*
X124415920Y-90839475D01*
X125300395Y-89955000D01*
X124415920Y-89070525D01*
X124161739Y-89154208D01*
X124030842Y-89426775D01*
X123955635Y-89719642D01*
X123939009Y-90021553D01*
X119706040Y-90021553D01*
X124836813Y-84890781D01*
X124888176Y-85149004D01*
X124992584Y-85401067D01*
X125144161Y-85627918D01*
X125337082Y-85820839D01*
X125425623Y-85880000D01*
X125328816Y-85880000D01*
X125032257Y-85938989D01*
X124752905Y-86054701D01*
X124501495Y-86222688D01*
X124287688Y-86436495D01*
X124119701Y-86687905D01*
X124003989Y-86967257D01*
X123945000Y-87263816D01*
X123945000Y-87566184D01*
X124003989Y-87862743D01*
X124119701Y-88142095D01*
X124287688Y-88393505D01*
X124501495Y-88607312D01*
X124655105Y-88709951D01*
X124595525Y-88890920D01*
X125480000Y-89775395D01*
X125494143Y-89761253D01*
X125673748Y-89940858D01*
X125659605Y-89955000D01*
X126544080Y-90839475D01*
X126798261Y-90755792D01*
X126929158Y-90483225D01*
X127004365Y-90190358D01*
X127020991Y-89888447D01*
X127015742Y-89851559D01*
X127041495Y-89877312D01*
X127292905Y-90045299D01*
X127572257Y-90161011D01*
X127868816Y-90220000D01*
X128171184Y-90220000D01*
X128467743Y-90161011D01*
X128747095Y-90045299D01*
X128998505Y-89877312D01*
X129212312Y-89663505D01*
X129380299Y-89412095D01*
X129496011Y-89132743D01*
X129555000Y-88836184D01*
X129555000Y-88533816D01*
X129496011Y-88237257D01*
X129380299Y-87957905D01*
X129212312Y-87706495D01*
X129145873Y-87640056D01*
X129164180Y-87634502D01*
X129274494Y-87575537D01*
X129371185Y-87496185D01*
X129450537Y-87399494D01*
X129509502Y-87289180D01*
X129545812Y-87169482D01*
X129558072Y-87045000D01*
X129558072Y-85245000D01*
X129545812Y-85120518D01*
X129509502Y-85000820D01*
X129450537Y-84890506D01*
X129371185Y-84793815D01*
X129274494Y-84714463D01*
X129164180Y-84655498D01*
X129044482Y-84619188D01*
X128920000Y-84606928D01*
X127604721Y-84606928D01*
X127551824Y-84340996D01*
X127447416Y-84088933D01*
X127295839Y-83862082D01*
X127102918Y-83669161D01*
X126876067Y-83517584D01*
X126624004Y-83413176D01*
X126365781Y-83361813D01*
X126975093Y-82752501D01*
X145455179Y-82752501D01*
X145492501Y-82756177D01*
X145529823Y-82752501D01*
X145529834Y-82752501D01*
X145641487Y-82741504D01*
X145784748Y-82698047D01*
X145916777Y-82627475D01*
X146032502Y-82532502D01*
X146056305Y-82503498D01*
X149586004Y-78973800D01*
X149615002Y-78950002D01*
X149684740Y-78865026D01*
X149709975Y-78834278D01*
X149780547Y-78702248D01*
X149805449Y-78620155D01*
X149824004Y-78558987D01*
X149835001Y-78447334D01*
X149835001Y-78447325D01*
X149838677Y-78410002D01*
X149835001Y-78372679D01*
X149835001Y-76227322D01*
X149838677Y-76189999D01*
X149835001Y-76152677D01*
X149835001Y-76152666D01*
X149824004Y-76041013D01*
X149780547Y-75897752D01*
X149709975Y-75765723D01*
X149615002Y-75649998D01*
X149585999Y-75626196D01*
X149573805Y-75614002D01*
X149550002Y-75584998D01*
X149434277Y-75490025D01*
X149302248Y-75419453D01*
X149158987Y-75375996D01*
X149047334Y-75364999D01*
X149047323Y-75364999D01*
X149010001Y-75361323D01*
X148972679Y-75364999D01*
X146572323Y-75364999D01*
X146535000Y-75361323D01*
X146497677Y-75364999D01*
X146497668Y-75364999D01*
X146386015Y-75375996D01*
X146242754Y-75419453D01*
X146110725Y-75490025D01*
X145995000Y-75584998D01*
X145971202Y-75613996D01*
X145725995Y-75859203D01*
X145651111Y-75836487D01*
X145432950Y-75815000D01*
X145287050Y-75815000D01*
X145068889Y-75836487D01*
X144788966Y-75921401D01*
X144530986Y-76059294D01*
X144304866Y-76244866D01*
X144119294Y-76470986D01*
X144090000Y-76525791D01*
X144060706Y-76470986D01*
X143875134Y-76244866D01*
X143649014Y-76059294D01*
X143391034Y-75921401D01*
X143111111Y-75836487D01*
X142892950Y-75815000D01*
X142747050Y-75815000D01*
X142528889Y-75836487D01*
X142248966Y-75921401D01*
X141990986Y-76059294D01*
X141764866Y-76244866D01*
X141579294Y-76470986D01*
X141550000Y-76525791D01*
X141520706Y-76470986D01*
X141335134Y-76244866D01*
X141109014Y-76059294D01*
X140851034Y-75921401D01*
X140571111Y-75836487D01*
X140352950Y-75815000D01*
X140207050Y-75815000D01*
X139988889Y-75836487D01*
X139708966Y-75921401D01*
X139450986Y-76059294D01*
X139224866Y-76244866D01*
X139039294Y-76470986D01*
X139010000Y-76525791D01*
X138980706Y-76470986D01*
X138795134Y-76244866D01*
X138569014Y-76059294D01*
X138311034Y-75921401D01*
X138031111Y-75836487D01*
X137812950Y-75815000D01*
X137667050Y-75815000D01*
X137448889Y-75836487D01*
X137168966Y-75921401D01*
X136910986Y-76059294D01*
X136684866Y-76244866D01*
X136499294Y-76470986D01*
X136470000Y-76525791D01*
X136440706Y-76470986D01*
X136255134Y-76244866D01*
X136029014Y-76059294D01*
X135771034Y-75921401D01*
X135491111Y-75836487D01*
X135272950Y-75815000D01*
X135127050Y-75815000D01*
X134908889Y-75836487D01*
X134628966Y-75921401D01*
X134370986Y-76059294D01*
X134144866Y-76244866D01*
X133959294Y-76470986D01*
X133930000Y-76525791D01*
X133900706Y-76470986D01*
X133715134Y-76244866D01*
X133489014Y-76059294D01*
X133231034Y-75921401D01*
X132951111Y-75836487D01*
X132732950Y-75815000D01*
X132587050Y-75815000D01*
X132368889Y-75836487D01*
X132088966Y-75921401D01*
X131830986Y-76059294D01*
X131604866Y-76244866D01*
X131419294Y-76470986D01*
X131390000Y-76525791D01*
X131360706Y-76470986D01*
X131175134Y-76244866D01*
X130949014Y-76059294D01*
X130691034Y-75921401D01*
X130411111Y-75836487D01*
X130192950Y-75815000D01*
X130047050Y-75815000D01*
X129828889Y-75836487D01*
X129548966Y-75921401D01*
X129290986Y-76059294D01*
X129064866Y-76244866D01*
X128879294Y-76470986D01*
X128850000Y-76525791D01*
X128820706Y-76470986D01*
X128635134Y-76244866D01*
X128409014Y-76059294D01*
X128151034Y-75921401D01*
X127871111Y-75836487D01*
X127652950Y-75815000D01*
X127507050Y-75815000D01*
X127288889Y-75836487D01*
X127008966Y-75921401D01*
X126750986Y-76059294D01*
X126524866Y-76244866D01*
X126339294Y-76470986D01*
X126310000Y-76525791D01*
X126280706Y-76470986D01*
X126095134Y-76244866D01*
X125869014Y-76059294D01*
X125611034Y-75921401D01*
X125331111Y-75836487D01*
X125112950Y-75815000D01*
X124967050Y-75815000D01*
X124748889Y-75836487D01*
X124468966Y-75921401D01*
X124210986Y-76059294D01*
X123984866Y-76244866D01*
X123799294Y-76470986D01*
X123764799Y-76535523D01*
X123695178Y-76418645D01*
X123500269Y-76202412D01*
X123266920Y-76028359D01*
X123004099Y-75903175D01*
X122856890Y-75858524D01*
X122627000Y-75979845D01*
X122627000Y-77173000D01*
X122647000Y-77173000D01*
X122647000Y-77427000D01*
X122627000Y-77427000D01*
X122627000Y-78620155D01*
X122856890Y-78741476D01*
X123004099Y-78696825D01*
X123266920Y-78571641D01*
X123500269Y-78397588D01*
X123695178Y-78181355D01*
X123764799Y-78064477D01*
X123799294Y-78129014D01*
X123984866Y-78355134D01*
X124210986Y-78540706D01*
X124468966Y-78678599D01*
X124748889Y-78763513D01*
X124967050Y-78785000D01*
X125112950Y-78785000D01*
X125331111Y-78763513D01*
X125611034Y-78678599D01*
X125869014Y-78540706D01*
X126095134Y-78355134D01*
X126280706Y-78129014D01*
X126310000Y-78074209D01*
X126339294Y-78129014D01*
X126524866Y-78355134D01*
X126750986Y-78540706D01*
X127008966Y-78678599D01*
X127288889Y-78763513D01*
X127507050Y-78785000D01*
X127652950Y-78785000D01*
X127871111Y-78763513D01*
X128151034Y-78678599D01*
X128409014Y-78540706D01*
X128635134Y-78355134D01*
X128820706Y-78129014D01*
X128850000Y-78074209D01*
X128879294Y-78129014D01*
X129064866Y-78355134D01*
X129290986Y-78540706D01*
X129548966Y-78678599D01*
X129828889Y-78763513D01*
X130047050Y-78785000D01*
X130192950Y-78785000D01*
X130411111Y-78763513D01*
X130691034Y-78678599D01*
X130949014Y-78540706D01*
X131175134Y-78355134D01*
X131360706Y-78129014D01*
X131390000Y-78074209D01*
X131419294Y-78129014D01*
X131604866Y-78355134D01*
X131830986Y-78540706D01*
X132088966Y-78678599D01*
X132368889Y-78763513D01*
X132587050Y-78785000D01*
X132732950Y-78785000D01*
X132951111Y-78763513D01*
X133231034Y-78678599D01*
X133489014Y-78540706D01*
X133715134Y-78355134D01*
X133900706Y-78129014D01*
X133930000Y-78074209D01*
X133959294Y-78129014D01*
X134144866Y-78355134D01*
X134370986Y-78540706D01*
X134628966Y-78678599D01*
X134908889Y-78763513D01*
X135127050Y-78785000D01*
X135272950Y-78785000D01*
X135491111Y-78763513D01*
X135771034Y-78678599D01*
X136029014Y-78540706D01*
X136255134Y-78355134D01*
X136440706Y-78129014D01*
X136470000Y-78074209D01*
X136499294Y-78129014D01*
X136684866Y-78355134D01*
X136910986Y-78540706D01*
X137168966Y-78678599D01*
X137448889Y-78763513D01*
X137667050Y-78785000D01*
X137812950Y-78785000D01*
X138031111Y-78763513D01*
X138311034Y-78678599D01*
X138569014Y-78540706D01*
X138795134Y-78355134D01*
X138980706Y-78129014D01*
X139010000Y-78074209D01*
X139039294Y-78129014D01*
X139224866Y-78355134D01*
X139450986Y-78540706D01*
X139708966Y-78678599D01*
X139988889Y-78763513D01*
X140207050Y-78785000D01*
X140352950Y-78785000D01*
X140571111Y-78763513D01*
X140851034Y-78678599D01*
X141109014Y-78540706D01*
X141335134Y-78355134D01*
X141520706Y-78129014D01*
X141550000Y-78074209D01*
X141579294Y-78129014D01*
X141764866Y-78355134D01*
X141990986Y-78540706D01*
X142248966Y-78678599D01*
X142528889Y-78763513D01*
X142747050Y-78785000D01*
X142892950Y-78785000D01*
X143111111Y-78763513D01*
X143391034Y-78678599D01*
X143649014Y-78540706D01*
X143875134Y-78355134D01*
X144060706Y-78129014D01*
X144090000Y-78074209D01*
X144119294Y-78129014D01*
X144304866Y-78355134D01*
X144530986Y-78540706D01*
X144788966Y-78678599D01*
X145068889Y-78763513D01*
X145287050Y-78785000D01*
X145432950Y-78785000D01*
X145651111Y-78763513D01*
X145931034Y-78678599D01*
X146189014Y-78540706D01*
X146415134Y-78355134D01*
X146439607Y-78325313D01*
X146460498Y-78394180D01*
X146519463Y-78504494D01*
X146598815Y-78601185D01*
X146612655Y-78612543D01*
X144585199Y-80640000D01*
X125637322Y-80640000D01*
X125599999Y-80636324D01*
X125562676Y-80640000D01*
X125562667Y-80640000D01*
X125451014Y-80650997D01*
X125330124Y-80687668D01*
X125307753Y-80694454D01*
X125175723Y-80765026D01*
X125103529Y-80824275D01*
X125059999Y-80859999D01*
X125036201Y-80888997D01*
X119185456Y-86739742D01*
X119176011Y-86692257D01*
X119060299Y-86412905D01*
X118892312Y-86161495D01*
X118825873Y-86095056D01*
X118844180Y-86089502D01*
X118954494Y-86030537D01*
X119051185Y-85951185D01*
X119130537Y-85854494D01*
X119189502Y-85744180D01*
X119225812Y-85624482D01*
X119238072Y-85500000D01*
X119238072Y-83700000D01*
X119225812Y-83575518D01*
X119189502Y-83455820D01*
X119130537Y-83345506D01*
X119051185Y-83248815D01*
X118954494Y-83169463D01*
X118844180Y-83110498D01*
X118724482Y-83074188D01*
X118600000Y-83061928D01*
X117284721Y-83061928D01*
X117231824Y-82795996D01*
X117127416Y-82543933D01*
X116975839Y-82317082D01*
X116782918Y-82124161D01*
X116556067Y-81972584D01*
X116304004Y-81868176D01*
X116036416Y-81814950D01*
X115763584Y-81814950D01*
X115495996Y-81868176D01*
X115243933Y-81972584D01*
X115017082Y-82124161D01*
X114824161Y-82317082D01*
X114672584Y-82543933D01*
X114568176Y-82795996D01*
X114514950Y-83063584D01*
X114514950Y-83336416D01*
X114568176Y-83604004D01*
X114672584Y-83856067D01*
X114824161Y-84082918D01*
X115017082Y-84275839D01*
X115105623Y-84335000D01*
X115008816Y-84335000D01*
X114712257Y-84393989D01*
X114432905Y-84509701D01*
X114181495Y-84677688D01*
X113967688Y-84891495D01*
X113799701Y-85142905D01*
X113683989Y-85422257D01*
X113625000Y-85718816D01*
X113625000Y-86021184D01*
X113683989Y-86317743D01*
X113799701Y-86597095D01*
X113967688Y-86848505D01*
X114181495Y-87062312D01*
X114297763Y-87140000D01*
X114181495Y-87217688D01*
X113967688Y-87431495D01*
X113799701Y-87682905D01*
X113683989Y-87962257D01*
X113625000Y-88258816D01*
X113625000Y-88561184D01*
X113683989Y-88857743D01*
X113799701Y-89137095D01*
X113967688Y-89388505D01*
X114181495Y-89602312D01*
X114297763Y-89680000D01*
X114181495Y-89757688D01*
X113967688Y-89971495D01*
X113799701Y-90222905D01*
X113683989Y-90502257D01*
X113625000Y-90798816D01*
X113625000Y-91101184D01*
X113683989Y-91397743D01*
X113799701Y-91677095D01*
X113967688Y-91928505D01*
X114181495Y-92142312D01*
X114432905Y-92310299D01*
X114712257Y-92426011D01*
X115008816Y-92485000D01*
X115311184Y-92485000D01*
X115568930Y-92433731D01*
X116920197Y-93784999D01*
X112155000Y-93784999D01*
X112155000Y-93493816D01*
X112096011Y-93197257D01*
X111980299Y-92917905D01*
X111812312Y-92666495D01*
X111598505Y-92452688D01*
X111347095Y-92284701D01*
X111067743Y-92168989D01*
X110771184Y-92110000D01*
X110468816Y-92110000D01*
X110172257Y-92168989D01*
X109892905Y-92284701D01*
X109641495Y-92452688D01*
X109427688Y-92666495D01*
X109259701Y-92917905D01*
X109143989Y-93197257D01*
X109085000Y-93493816D01*
X109085000Y-93749183D01*
X109058505Y-93722688D01*
X108807095Y-93554701D01*
X108527743Y-93438989D01*
X108231184Y-93380000D01*
X107928816Y-93380000D01*
X107632257Y-93438989D01*
X107352905Y-93554701D01*
X107101495Y-93722688D01*
X106887688Y-93936495D01*
X106719701Y-94187905D01*
X106603989Y-94467257D01*
X106545000Y-94763816D01*
X106545000Y-95066184D01*
X106603989Y-95362743D01*
X106719701Y-95642095D01*
X106887688Y-95893505D01*
X106954127Y-95959944D01*
X106935820Y-95965498D01*
X106825506Y-96024463D01*
X106728815Y-96103815D01*
X106649463Y-96200506D01*
X106590498Y-96310820D01*
X106554188Y-96430518D01*
X106541928Y-96555000D01*
X106545000Y-97169250D01*
X106703750Y-97328000D01*
X107953000Y-97328000D01*
X107953000Y-97308000D01*
X108207000Y-97308000D01*
X108207000Y-97328000D01*
X109456250Y-97328000D01*
X109524217Y-97260034D01*
X109641495Y-97377312D01*
X109780137Y-97469950D01*
X109743584Y-97469950D01*
X109475996Y-97523176D01*
X109333982Y-97582000D01*
X108207000Y-97582000D01*
X108207000Y-98831250D01*
X108365750Y-98990000D01*
X108494950Y-98990646D01*
X108494950Y-98991416D01*
X108544396Y-99240000D01*
X107539802Y-99240000D01*
X107292312Y-98992510D01*
X107794250Y-98990000D01*
X107953000Y-98831250D01*
X107953000Y-97582000D01*
X106703750Y-97582000D01*
X106545000Y-97740750D01*
X106542490Y-98242688D01*
X102353731Y-94053930D01*
X102405000Y-93796184D01*
X102405000Y-93493816D01*
X102346011Y-93197257D01*
X102230299Y-92917905D01*
X102062312Y-92666495D01*
X101848505Y-92452688D01*
X101597095Y-92284701D01*
X101317743Y-92168989D01*
X101021184Y-92110000D01*
X100718816Y-92110000D01*
X100422257Y-92168989D01*
X100142905Y-92284701D01*
X99891495Y-92452688D01*
X99677688Y-92666495D01*
X99509701Y-92917905D01*
X99393989Y-93197257D01*
X99335000Y-93493816D01*
X99335000Y-93749183D01*
X99308505Y-93722688D01*
X99057095Y-93554701D01*
X98777743Y-93438989D01*
X98481184Y-93380000D01*
X98178816Y-93380000D01*
X97882257Y-93438989D01*
X97602905Y-93554701D01*
X97351495Y-93722688D01*
X97137688Y-93936495D01*
X96969701Y-94187905D01*
X96853989Y-94467257D01*
X96795000Y-94763816D01*
X96795000Y-95066184D01*
X96846269Y-95323930D01*
X96594002Y-95576197D01*
X96564998Y-95600000D01*
X96512473Y-95664003D01*
X96470025Y-95715725D01*
X96427943Y-95794454D01*
X96399453Y-95847755D01*
X96355996Y-95991016D01*
X96344999Y-96102669D01*
X96344999Y-96102679D01*
X96341323Y-96140001D01*
X96344999Y-96177324D01*
X96344999Y-96737927D01*
X96306712Y-96722893D01*
X95279605Y-97750000D01*
X96306712Y-98777107D01*
X96355406Y-98757987D01*
X96355997Y-98763986D01*
X96399453Y-98907247D01*
X96470025Y-99039277D01*
X96503887Y-99080537D01*
X96564999Y-99155002D01*
X96593997Y-99178800D01*
X98280196Y-100865000D01*
X91135000Y-100865000D01*
X91135000Y-98956712D01*
X94072893Y-98956712D01*
X94180726Y-99231338D01*
X94487384Y-99382216D01*
X94817585Y-99470369D01*
X95158639Y-99492409D01*
X95497439Y-99447489D01*
X95820966Y-99337336D01*
X96019274Y-99231338D01*
X96127107Y-98956712D01*
X95100000Y-97929605D01*
X94072893Y-98956712D01*
X91135000Y-98956712D01*
X91135000Y-97808639D01*
X93357591Y-97808639D01*
X93402511Y-98147439D01*
X93512664Y-98470966D01*
X93618662Y-98669274D01*
X93893288Y-98777107D01*
X94920395Y-97750000D01*
X93893288Y-96722893D01*
X93618662Y-96830726D01*
X93467784Y-97137384D01*
X93379631Y-97467585D01*
X93357591Y-97808639D01*
X91135000Y-97808639D01*
X91135000Y-96543288D01*
X94072893Y-96543288D01*
X95100000Y-97570395D01*
X96127107Y-96543288D01*
X96019274Y-96268662D01*
X95712616Y-96117784D01*
X95382415Y-96029631D01*
X95041361Y-96007591D01*
X94702561Y-96052511D01*
X94379034Y-96162664D01*
X94180726Y-96268662D01*
X94072893Y-96543288D01*
X91135000Y-96543288D01*
X91135000Y-86050000D01*
X92761928Y-86050000D01*
X92761928Y-88050000D01*
X92774188Y-88174482D01*
X92810498Y-88294180D01*
X92869463Y-88404494D01*
X92948815Y-88501185D01*
X93045506Y-88580537D01*
X93155820Y-88639502D01*
X93275518Y-88675812D01*
X93400000Y-88688072D01*
X99400000Y-88688072D01*
X99524482Y-88675812D01*
X99644180Y-88639502D01*
X99754494Y-88580537D01*
X99851185Y-88501185D01*
X99930537Y-88404494D01*
X99989502Y-88294180D01*
X100022621Y-88185000D01*
X103277379Y-88185000D01*
X103310498Y-88294180D01*
X103369463Y-88404494D01*
X103448815Y-88501185D01*
X103545506Y-88580537D01*
X103655820Y-88639502D01*
X103775518Y-88675812D01*
X103900000Y-88688072D01*
X107400000Y-88688072D01*
X107524482Y-88675812D01*
X107644180Y-88639502D01*
X107754494Y-88580537D01*
X107851185Y-88501185D01*
X107930537Y-88404494D01*
X107989502Y-88294180D01*
X108025812Y-88174482D01*
X108030517Y-88126709D01*
X108106447Y-88103676D01*
X108303623Y-87998284D01*
X108476449Y-87856449D01*
X108511996Y-87813135D01*
X117545287Y-78779845D01*
X117711111Y-78763513D01*
X117991034Y-78678599D01*
X118249014Y-78540706D01*
X118475134Y-78355134D01*
X118660706Y-78129014D01*
X118690000Y-78074209D01*
X118719294Y-78129014D01*
X118904866Y-78355134D01*
X119130986Y-78540706D01*
X119388966Y-78678599D01*
X119668889Y-78763513D01*
X119887050Y-78785000D01*
X120032950Y-78785000D01*
X120251111Y-78763513D01*
X120531034Y-78678599D01*
X120789014Y-78540706D01*
X121015134Y-78355134D01*
X121200706Y-78129014D01*
X121235201Y-78064477D01*
X121304822Y-78181355D01*
X121499731Y-78397588D01*
X121733080Y-78571641D01*
X121995901Y-78696825D01*
X122143110Y-78741476D01*
X122373000Y-78620155D01*
X122373000Y-77427000D01*
X122353000Y-77427000D01*
X122353000Y-77173000D01*
X122373000Y-77173000D01*
X122373000Y-75979845D01*
X122143110Y-75858524D01*
X121995901Y-75903175D01*
X121733080Y-76028359D01*
X121499731Y-76202412D01*
X121304822Y-76418645D01*
X121235201Y-76535523D01*
X121200706Y-76470986D01*
X121015134Y-76244866D01*
X120789014Y-76059294D01*
X120531034Y-75921401D01*
X120251111Y-75836487D01*
X120032950Y-75815000D01*
X119887050Y-75815000D01*
X119668889Y-75836487D01*
X119388966Y-75921401D01*
X119130986Y-76059294D01*
X118904866Y-76244866D01*
X118719294Y-76470986D01*
X118690000Y-76525791D01*
X118660706Y-76470986D01*
X118475134Y-76244866D01*
X118249014Y-76059294D01*
X117991034Y-75921401D01*
X117711111Y-75836487D01*
X117492950Y-75815000D01*
X117347050Y-75815000D01*
X117128889Y-75836487D01*
X116848966Y-75921401D01*
X116590986Y-76059294D01*
X116364866Y-76244866D01*
X116179294Y-76470986D01*
X116150000Y-76525791D01*
X116120706Y-76470986D01*
X115935134Y-76244866D01*
X115709014Y-76059294D01*
X115451034Y-75921401D01*
X115171111Y-75836487D01*
X114952950Y-75815000D01*
X114807050Y-75815000D01*
X114588889Y-75836487D01*
X114308966Y-75921401D01*
X114050986Y-76059294D01*
X113824866Y-76244866D01*
X113639294Y-76470986D01*
X113501401Y-76728966D01*
X113416487Y-77008889D01*
X113387815Y-77300000D01*
X113416487Y-77591111D01*
X113501401Y-77871034D01*
X113639294Y-78129014D01*
X113824866Y-78355134D01*
X114050986Y-78540706D01*
X114308966Y-78678599D01*
X114406640Y-78708228D01*
X107650821Y-85464048D01*
X107644180Y-85460498D01*
X107524482Y-85424188D01*
X107400000Y-85411928D01*
X103900000Y-85411928D01*
X103775518Y-85424188D01*
X103655820Y-85460498D01*
X103545506Y-85519463D01*
X103448815Y-85598815D01*
X103369463Y-85695506D01*
X103310498Y-85805820D01*
X103277379Y-85915000D01*
X100022621Y-85915000D01*
X99989502Y-85805820D01*
X99930537Y-85695506D01*
X99851185Y-85598815D01*
X99754494Y-85519463D01*
X99644180Y-85460498D01*
X99524482Y-85424188D01*
X99400000Y-85411928D01*
X93400000Y-85411928D01*
X93275518Y-85424188D01*
X93155820Y-85460498D01*
X93045506Y-85519463D01*
X92948815Y-85598815D01*
X92869463Y-85695506D01*
X92810498Y-85805820D01*
X92774188Y-85925518D01*
X92761928Y-86050000D01*
X91135000Y-86050000D01*
X91135000Y-84050000D01*
X92761928Y-84050000D01*
X92774188Y-84174482D01*
X92810498Y-84294180D01*
X92869463Y-84404494D01*
X92948815Y-84501185D01*
X93045506Y-84580537D01*
X93155820Y-84639502D01*
X93275518Y-84675812D01*
X93400000Y-84688072D01*
X96114250Y-84685000D01*
X96273000Y-84526250D01*
X96273000Y-83177000D01*
X96527000Y-83177000D01*
X96527000Y-84526250D01*
X96685750Y-84685000D01*
X99400000Y-84688072D01*
X99524482Y-84675812D01*
X99644180Y-84639502D01*
X99754494Y-84580537D01*
X99851185Y-84501185D01*
X99930537Y-84404494D01*
X99989502Y-84294180D01*
X100025812Y-84174482D01*
X100038072Y-84050000D01*
X103261928Y-84050000D01*
X103274188Y-84174482D01*
X103310498Y-84294180D01*
X103369463Y-84404494D01*
X103448815Y-84501185D01*
X103545506Y-84580537D01*
X103655820Y-84639502D01*
X103775518Y-84675812D01*
X103900000Y-84688072D01*
X105364250Y-84685000D01*
X105523000Y-84526250D01*
X105523000Y-83177000D01*
X105777000Y-83177000D01*
X105777000Y-84526250D01*
X105935750Y-84685000D01*
X107400000Y-84688072D01*
X107524482Y-84675812D01*
X107644180Y-84639502D01*
X107754494Y-84580537D01*
X107851185Y-84501185D01*
X107930537Y-84404494D01*
X107989502Y-84294180D01*
X108025812Y-84174482D01*
X108038072Y-84050000D01*
X108035000Y-83335750D01*
X107876250Y-83177000D01*
X105777000Y-83177000D01*
X105523000Y-83177000D01*
X103423750Y-83177000D01*
X103265000Y-83335750D01*
X103261928Y-84050000D01*
X100038072Y-84050000D01*
X100035000Y-83335750D01*
X99876250Y-83177000D01*
X96527000Y-83177000D01*
X96273000Y-83177000D01*
X92923750Y-83177000D01*
X92765000Y-83335750D01*
X92761928Y-84050000D01*
X91135000Y-84050000D01*
X91135000Y-82050000D01*
X92761928Y-82050000D01*
X92765000Y-82764250D01*
X92923750Y-82923000D01*
X96273000Y-82923000D01*
X96273000Y-81573750D01*
X96527000Y-81573750D01*
X96527000Y-82923000D01*
X99876250Y-82923000D01*
X100035000Y-82764250D01*
X100038072Y-82050000D01*
X103261928Y-82050000D01*
X103265000Y-82764250D01*
X103423750Y-82923000D01*
X105523000Y-82923000D01*
X105523000Y-81573750D01*
X105777000Y-81573750D01*
X105777000Y-82923000D01*
X107876250Y-82923000D01*
X108035000Y-82764250D01*
X108038072Y-82050000D01*
X108025812Y-81925518D01*
X107989502Y-81805820D01*
X107930537Y-81695506D01*
X107851185Y-81598815D01*
X107754494Y-81519463D01*
X107644180Y-81460498D01*
X107524482Y-81424188D01*
X107400000Y-81411928D01*
X105935750Y-81415000D01*
X105777000Y-81573750D01*
X105523000Y-81573750D01*
X105364250Y-81415000D01*
X103900000Y-81411928D01*
X103775518Y-81424188D01*
X103655820Y-81460498D01*
X103545506Y-81519463D01*
X103448815Y-81598815D01*
X103369463Y-81695506D01*
X103310498Y-81805820D01*
X103274188Y-81925518D01*
X103261928Y-82050000D01*
X100038072Y-82050000D01*
X100025812Y-81925518D01*
X99989502Y-81805820D01*
X99930537Y-81695506D01*
X99851185Y-81598815D01*
X99754494Y-81519463D01*
X99644180Y-81460498D01*
X99524482Y-81424188D01*
X99400000Y-81411928D01*
X96685750Y-81415000D01*
X96527000Y-81573750D01*
X96273000Y-81573750D01*
X96114250Y-81415000D01*
X93400000Y-81411928D01*
X93275518Y-81424188D01*
X93155820Y-81460498D01*
X93045506Y-81519463D01*
X92948815Y-81598815D01*
X92869463Y-81695506D01*
X92810498Y-81805820D01*
X92774188Y-81925518D01*
X92761928Y-82050000D01*
X91135000Y-82050000D01*
X91135000Y-78456712D01*
X94072893Y-78456712D01*
X94180726Y-78731338D01*
X94487384Y-78882216D01*
X94817585Y-78970369D01*
X95158639Y-78992409D01*
X95497439Y-78947489D01*
X95820966Y-78837336D01*
X96019274Y-78731338D01*
X96127107Y-78456712D01*
X95100000Y-77429605D01*
X94072893Y-78456712D01*
X91135000Y-78456712D01*
X91135000Y-77308639D01*
X93357591Y-77308639D01*
X93402511Y-77647439D01*
X93512664Y-77970966D01*
X93618662Y-78169274D01*
X93893288Y-78277107D01*
X94920395Y-77250000D01*
X95279605Y-77250000D01*
X96306712Y-78277107D01*
X96581338Y-78169274D01*
X96732216Y-77862616D01*
X96820369Y-77532415D01*
X96842409Y-77191361D01*
X96797489Y-76852561D01*
X96687336Y-76529034D01*
X96581338Y-76330726D01*
X96306712Y-76222893D01*
X95279605Y-77250000D01*
X94920395Y-77250000D01*
X93893288Y-76222893D01*
X93618662Y-76330726D01*
X93467784Y-76637384D01*
X93379631Y-76967585D01*
X93357591Y-77308639D01*
X91135000Y-77308639D01*
X91135000Y-76043288D01*
X94072893Y-76043288D01*
X95100000Y-77070395D01*
X96127107Y-76043288D01*
X96019274Y-75768662D01*
X95712616Y-75617784D01*
X95382415Y-75529631D01*
X95041361Y-75507591D01*
X94702561Y-75552511D01*
X94379034Y-75662664D01*
X94180726Y-75768662D01*
X94072893Y-76043288D01*
X91135000Y-76043288D01*
X91135000Y-75970131D01*
X92970132Y-74135000D01*
X174802560Y-74135000D01*
X174699866Y-74288692D01*
X174699866Y-74288692D01*
G37*
X174699866Y-74288692D02*
X174610539Y-74504348D01*
X174565000Y-74733288D01*
X174565000Y-74966712D01*
X174610539Y-75195652D01*
X174699866Y-75411308D01*
X174829550Y-75605394D01*
X174994606Y-75770450D01*
X175129980Y-75860904D01*
X171813986Y-79176898D01*
X171784988Y-79200696D01*
X171761190Y-79229694D01*
X171690015Y-79316420D01*
X171646377Y-79398061D01*
X171619443Y-79448450D01*
X171575986Y-79591711D01*
X171564989Y-79703364D01*
X171564989Y-79703374D01*
X171561313Y-79740696D01*
X171564989Y-79778018D01*
X171564991Y-94836010D01*
X170985001Y-94256020D01*
X170985001Y-80762323D01*
X170988677Y-80725000D01*
X170985001Y-80687677D01*
X170985001Y-80687668D01*
X170974004Y-80576015D01*
X170930547Y-80432754D01*
X170900035Y-80375670D01*
X170859975Y-80300724D01*
X170788800Y-80213998D01*
X170765002Y-80185000D01*
X170736004Y-80161202D01*
X170035000Y-79460199D01*
X170035000Y-79398061D01*
X169995226Y-79198102D01*
X169917205Y-79009744D01*
X169803937Y-78840226D01*
X169659774Y-78696063D01*
X169490256Y-78582795D01*
X169301898Y-78504774D01*
X169101939Y-78465000D01*
X168898061Y-78465000D01*
X168698102Y-78504774D01*
X168509744Y-78582795D01*
X168340226Y-78696063D01*
X168196063Y-78840226D01*
X168082795Y-79009744D01*
X168004774Y-79198102D01*
X167965000Y-79398061D01*
X167965000Y-79601939D01*
X168004774Y-79801898D01*
X168082795Y-79990256D01*
X168196063Y-80159774D01*
X168340226Y-80303937D01*
X168509744Y-80417205D01*
X168698102Y-80495226D01*
X168898061Y-80535000D01*
X168960199Y-80535000D01*
X169465002Y-81039804D01*
X169465002Y-84965000D01*
X169398061Y-84965000D01*
X169198102Y-85004774D01*
X169009744Y-85082795D01*
X168840226Y-85196063D01*
X168696063Y-85340226D01*
X168582795Y-85509744D01*
X168504774Y-85698102D01*
X168465000Y-85898061D01*
X168465000Y-86101939D01*
X168504774Y-86301898D01*
X168582795Y-86490256D01*
X168696063Y-86659774D01*
X168740001Y-86703712D01*
X168740000Y-92465000D01*
X168673061Y-92465000D01*
X168473102Y-92504774D01*
X168284744Y-92582795D01*
X168115226Y-92696063D01*
X167971063Y-92840226D01*
X167857795Y-93009744D01*
X167779774Y-93198102D01*
X167740000Y-93398061D01*
X167740000Y-93601939D01*
X167779774Y-93801898D01*
X167857795Y-93990256D01*
X167971063Y-94159774D01*
X168015001Y-94203712D01*
X168015000Y-95107629D01*
X167971063Y-95151566D01*
X167857795Y-95321084D01*
X167779774Y-95509442D01*
X167740000Y-95709401D01*
X167740000Y-95913279D01*
X167779774Y-96113238D01*
X167857795Y-96301596D01*
X167971063Y-96471114D01*
X168115226Y-96615277D01*
X168284744Y-96728545D01*
X168473102Y-96806566D01*
X168673061Y-96846340D01*
X168740000Y-96846340D01*
X168740000Y-97423782D01*
X168736324Y-97461104D01*
X168740000Y-97498426D01*
X168740000Y-97498436D01*
X168750997Y-97610089D01*
X168790632Y-97740750D01*
X168794454Y-97753350D01*
X168865026Y-97885380D01*
X168901321Y-97929605D01*
X168959999Y-98001105D01*
X168989003Y-98024908D01*
X170984448Y-100020354D01*
X170984448Y-100082491D01*
X171024222Y-100282450D01*
X171102243Y-100470808D01*
X171215511Y-100640326D01*
X171359674Y-100784489D01*
X171480168Y-100865000D01*
X135669801Y-100865000D01*
X137394005Y-99140797D01*
X137468889Y-99163513D01*
X137687050Y-99185000D01*
X137832950Y-99185000D01*
X138051111Y-99163513D01*
X138331034Y-99078599D01*
X138589014Y-98940706D01*
X138815134Y-98755134D01*
X139000706Y-98529014D01*
X139030000Y-98474209D01*
X139059294Y-98529014D01*
X139244866Y-98755134D01*
X139470986Y-98940706D01*
X139728966Y-99078599D01*
X140008889Y-99163513D01*
X140227050Y-99185000D01*
X140372950Y-99185000D01*
X140591111Y-99163513D01*
X140871034Y-99078599D01*
X141129014Y-98940706D01*
X141355134Y-98755134D01*
X141540706Y-98529014D01*
X141570000Y-98474209D01*
X141599294Y-98529014D01*
X141784866Y-98755134D01*
X142010986Y-98940706D01*
X142268966Y-99078599D01*
X142548889Y-99163513D01*
X142767050Y-99185000D01*
X142912950Y-99185000D01*
X143131111Y-99163513D01*
X143411034Y-99078599D01*
X143669014Y-98940706D01*
X143895134Y-98755134D01*
X144080706Y-98529014D01*
X144110000Y-98474209D01*
X144139294Y-98529014D01*
X144324866Y-98755134D01*
X144550986Y-98940706D01*
X144808966Y-99078599D01*
X145088889Y-99163513D01*
X145307050Y-99185000D01*
X145452950Y-99185000D01*
X145671111Y-99163513D01*
X145951034Y-99078599D01*
X146209014Y-98940706D01*
X146435134Y-98755134D01*
X146620706Y-98529014D01*
X146650000Y-98474209D01*
X146679294Y-98529014D01*
X146864866Y-98755134D01*
X147090986Y-98940706D01*
X147348966Y-99078599D01*
X147628889Y-99163513D01*
X147847050Y-99185000D01*
X147992950Y-99185000D01*
X148211111Y-99163513D01*
X148491034Y-99078599D01*
X148749014Y-98940706D01*
X148975134Y-98755134D01*
X149160706Y-98529014D01*
X149298599Y-98271034D01*
X149383513Y-97991111D01*
X149412185Y-97700000D01*
X149383513Y-97408889D01*
X149298599Y-97128966D01*
X149160706Y-96870986D01*
X148975134Y-96644866D01*
X148749014Y-96459294D01*
X148491034Y-96321401D01*
X148211111Y-96236487D01*
X147992950Y-96215000D01*
X147847050Y-96215000D01*
X147628889Y-96236487D01*
X147348966Y-96321401D01*
X147090986Y-96459294D01*
X146864866Y-96644866D01*
X146679294Y-96870986D01*
X146650000Y-96925791D01*
X146620706Y-96870986D01*
X146435134Y-96644866D01*
X146209014Y-96459294D01*
X145951034Y-96321401D01*
X145671111Y-96236487D01*
X145452950Y-96215000D01*
X145307050Y-96215000D01*
X145088889Y-96236487D01*
X144808966Y-96321401D01*
X144550986Y-96459294D01*
X144324866Y-96644866D01*
X144139294Y-96870986D01*
X144110000Y-96925791D01*
X144080706Y-96870986D01*
X143895134Y-96644866D01*
X143669014Y-96459294D01*
X143411034Y-96321401D01*
X143131111Y-96236487D01*
X142912950Y-96215000D01*
X142767050Y-96215000D01*
X142548889Y-96236487D01*
X142268966Y-96321401D01*
X142010986Y-96459294D01*
X141784866Y-96644866D01*
X141599294Y-96870986D01*
X141570000Y-96925791D01*
X141540706Y-96870986D01*
X141355134Y-96644866D01*
X141129014Y-96459294D01*
X140871034Y-96321401D01*
X140591111Y-96236487D01*
X140372950Y-96215000D01*
X140227050Y-96215000D01*
X140008889Y-96236487D01*
X139934005Y-96259203D01*
X137163804Y-93489003D01*
X137140001Y-93459999D01*
X137024276Y-93365026D01*
X136892247Y-93294454D01*
X136748986Y-93250997D01*
X136637333Y-93240000D01*
X136637322Y-93240000D01*
X136600000Y-93236324D01*
X136562678Y-93240000D01*
X118524802Y-93240000D01*
X116643731Y-91358930D01*
X116695000Y-91101184D01*
X116695000Y-90845817D01*
X116721495Y-90872312D01*
X116972905Y-91040299D01*
X117252257Y-91156011D01*
X117548816Y-91215000D01*
X117851184Y-91215000D01*
X118147743Y-91156011D01*
X118427095Y-91040299D01*
X118458851Y-91019080D01*
X124595525Y-91019080D01*
X124679208Y-91273261D01*
X124951775Y-91404158D01*
X125244642Y-91479365D01*
X125546553Y-91495991D01*
X125845907Y-91453397D01*
X126131199Y-91353222D01*
X126280792Y-91273261D01*
X126364475Y-91019080D01*
X125480000Y-90134605D01*
X124595525Y-91019080D01*
X118458851Y-91019080D01*
X118678505Y-90872312D01*
X118892312Y-90658505D01*
X119040298Y-90437028D01*
X119121778Y-90429003D01*
X119265039Y-90385546D01*
X119397068Y-90314974D01*
X119512793Y-90220001D01*
X119536596Y-90190997D01*
X119706040Y-90021553D01*
X123939009Y-90021553D01*
X123981603Y-90320907D01*
X124081778Y-90606199D01*
X124161739Y-90755792D01*
X124415920Y-90839475D01*
X125300395Y-89955000D01*
X124415920Y-89070525D01*
X124161739Y-89154208D01*
X124030842Y-89426775D01*
X123955635Y-89719642D01*
X123939009Y-90021553D01*
X119706040Y-90021553D01*
X124836813Y-84890781D01*
X124888176Y-85149004D01*
X124992584Y-85401067D01*
X125144161Y-85627918D01*
X125337082Y-85820839D01*
X125425623Y-85880000D01*
X125328816Y-85880000D01*
X125032257Y-85938989D01*
X124752905Y-86054701D01*
X124501495Y-86222688D01*
X124287688Y-86436495D01*
X124119701Y-86687905D01*
X124003989Y-86967257D01*
X123945000Y-87263816D01*
X123945000Y-87566184D01*
X124003989Y-87862743D01*
X124119701Y-88142095D01*
X124287688Y-88393505D01*
X124501495Y-88607312D01*
X124655105Y-88709951D01*
X124595525Y-88890920D01*
X125480000Y-89775395D01*
X125494143Y-89761253D01*
X125673748Y-89940858D01*
X125659605Y-89955000D01*
X126544080Y-90839475D01*
X126798261Y-90755792D01*
X126929158Y-90483225D01*
X127004365Y-90190358D01*
X127020991Y-89888447D01*
X127015742Y-89851559D01*
X127041495Y-89877312D01*
X127292905Y-90045299D01*
X127572257Y-90161011D01*
X127868816Y-90220000D01*
X128171184Y-90220000D01*
X128467743Y-90161011D01*
X128747095Y-90045299D01*
X128998505Y-89877312D01*
X129212312Y-89663505D01*
X129380299Y-89412095D01*
X129496011Y-89132743D01*
X129555000Y-88836184D01*
X129555000Y-88533816D01*
X129496011Y-88237257D01*
X129380299Y-87957905D01*
X129212312Y-87706495D01*
X129145873Y-87640056D01*
X129164180Y-87634502D01*
X129274494Y-87575537D01*
X129371185Y-87496185D01*
X129450537Y-87399494D01*
X129509502Y-87289180D01*
X129545812Y-87169482D01*
X129558072Y-87045000D01*
X129558072Y-85245000D01*
X129545812Y-85120518D01*
X129509502Y-85000820D01*
X129450537Y-84890506D01*
X129371185Y-84793815D01*
X129274494Y-84714463D01*
X129164180Y-84655498D01*
X129044482Y-84619188D01*
X128920000Y-84606928D01*
X127604721Y-84606928D01*
X127551824Y-84340996D01*
X127447416Y-84088933D01*
X127295839Y-83862082D01*
X127102918Y-83669161D01*
X126876067Y-83517584D01*
X126624004Y-83413176D01*
X126365781Y-83361813D01*
X126975093Y-82752501D01*
X145455179Y-82752501D01*
X145492501Y-82756177D01*
X145529823Y-82752501D01*
X145529834Y-82752501D01*
X145641487Y-82741504D01*
X145784748Y-82698047D01*
X145916777Y-82627475D01*
X146032502Y-82532502D01*
X146056305Y-82503498D01*
X149586004Y-78973800D01*
X149615002Y-78950002D01*
X149684740Y-78865026D01*
X149709975Y-78834278D01*
X149780547Y-78702248D01*
X149805449Y-78620155D01*
X149824004Y-78558987D01*
X149835001Y-78447334D01*
X149835001Y-78447325D01*
X149838677Y-78410002D01*
X149835001Y-78372679D01*
X149835001Y-76227322D01*
X149838677Y-76189999D01*
X149835001Y-76152677D01*
X149835001Y-76152666D01*
X149824004Y-76041013D01*
X149780547Y-75897752D01*
X149709975Y-75765723D01*
X149615002Y-75649998D01*
X149585999Y-75626196D01*
X149573805Y-75614002D01*
X149550002Y-75584998D01*
X149434277Y-75490025D01*
X149302248Y-75419453D01*
X149158987Y-75375996D01*
X149047334Y-75364999D01*
X149047323Y-75364999D01*
X149010001Y-75361323D01*
X148972679Y-75364999D01*
X146572323Y-75364999D01*
X146535000Y-75361323D01*
X146497677Y-75364999D01*
X146497668Y-75364999D01*
X146386015Y-75375996D01*
X146242754Y-75419453D01*
X146110725Y-75490025D01*
X145995000Y-75584998D01*
X145971202Y-75613996D01*
X145725995Y-75859203D01*
X145651111Y-75836487D01*
X145432950Y-75815000D01*
X145287050Y-75815000D01*
X145068889Y-75836487D01*
X144788966Y-75921401D01*
X144530986Y-76059294D01*
X144304866Y-76244866D01*
X144119294Y-76470986D01*
X144090000Y-76525791D01*
X144060706Y-76470986D01*
X143875134Y-76244866D01*
X143649014Y-76059294D01*
X143391034Y-75921401D01*
X143111111Y-75836487D01*
X142892950Y-75815000D01*
X142747050Y-75815000D01*
X142528889Y-75836487D01*
X142248966Y-75921401D01*
X141990986Y-76059294D01*
X141764866Y-76244866D01*
X141579294Y-76470986D01*
X141550000Y-76525791D01*
X141520706Y-76470986D01*
X141335134Y-76244866D01*
X141109014Y-76059294D01*
X140851034Y-75921401D01*
X140571111Y-75836487D01*
X140352950Y-75815000D01*
X140207050Y-75815000D01*
X139988889Y-75836487D01*
X139708966Y-75921401D01*
X139450986Y-76059294D01*
X139224866Y-76244866D01*
X139039294Y-76470986D01*
X139010000Y-76525791D01*
X138980706Y-76470986D01*
X138795134Y-76244866D01*
X138569014Y-76059294D01*
X138311034Y-75921401D01*
X138031111Y-75836487D01*
X137812950Y-75815000D01*
X137667050Y-75815000D01*
X137448889Y-75836487D01*
X137168966Y-75921401D01*
X136910986Y-76059294D01*
X136684866Y-76244866D01*
X136499294Y-76470986D01*
X136470000Y-76525791D01*
X136440706Y-76470986D01*
X136255134Y-76244866D01*
X136029014Y-76059294D01*
X135771034Y-75921401D01*
X135491111Y-75836487D01*
X135272950Y-75815000D01*
X135127050Y-75815000D01*
X134908889Y-75836487D01*
X134628966Y-75921401D01*
X134370986Y-76059294D01*
X134144866Y-76244866D01*
X133959294Y-76470986D01*
X133930000Y-76525791D01*
X133900706Y-76470986D01*
X133715134Y-76244866D01*
X133489014Y-76059294D01*
X133231034Y-75921401D01*
X132951111Y-75836487D01*
X132732950Y-75815000D01*
X132587050Y-75815000D01*
X132368889Y-75836487D01*
X132088966Y-75921401D01*
X131830986Y-76059294D01*
X131604866Y-76244866D01*
X131419294Y-76470986D01*
X131390000Y-76525791D01*
X131360706Y-76470986D01*
X131175134Y-76244866D01*
X130949014Y-76059294D01*
X130691034Y-75921401D01*
X130411111Y-75836487D01*
X130192950Y-75815000D01*
X130047050Y-75815000D01*
X129828889Y-75836487D01*
X129548966Y-75921401D01*
X129290986Y-76059294D01*
X129064866Y-76244866D01*
X128879294Y-76470986D01*
X128850000Y-76525791D01*
X128820706Y-76470986D01*
X128635134Y-76244866D01*
X128409014Y-76059294D01*
X128151034Y-75921401D01*
X127871111Y-75836487D01*
X127652950Y-75815000D01*
X127507050Y-75815000D01*
X127288889Y-75836487D01*
X127008966Y-75921401D01*
X126750986Y-76059294D01*
X126524866Y-76244866D01*
X126339294Y-76470986D01*
X126310000Y-76525791D01*
X126280706Y-76470986D01*
X126095134Y-76244866D01*
X125869014Y-76059294D01*
X125611034Y-75921401D01*
X125331111Y-75836487D01*
X125112950Y-75815000D01*
X124967050Y-75815000D01*
X124748889Y-75836487D01*
X124468966Y-75921401D01*
X124210986Y-76059294D01*
X123984866Y-76244866D01*
X123799294Y-76470986D01*
X123764799Y-76535523D01*
X123695178Y-76418645D01*
X123500269Y-76202412D01*
X123266920Y-76028359D01*
X123004099Y-75903175D01*
X122856890Y-75858524D01*
X122627000Y-75979845D01*
X122627000Y-77173000D01*
X122647000Y-77173000D01*
X122647000Y-77427000D01*
X122627000Y-77427000D01*
X122627000Y-78620155D01*
X122856890Y-78741476D01*
X123004099Y-78696825D01*
X123266920Y-78571641D01*
X123500269Y-78397588D01*
X123695178Y-78181355D01*
X123764799Y-78064477D01*
X123799294Y-78129014D01*
X123984866Y-78355134D01*
X124210986Y-78540706D01*
X124468966Y-78678599D01*
X124748889Y-78763513D01*
X124967050Y-78785000D01*
X125112950Y-78785000D01*
X125331111Y-78763513D01*
X125611034Y-78678599D01*
X125869014Y-78540706D01*
X126095134Y-78355134D01*
X126280706Y-78129014D01*
X126310000Y-78074209D01*
X126339294Y-78129014D01*
X126524866Y-78355134D01*
X126750986Y-78540706D01*
X127008966Y-78678599D01*
X127288889Y-78763513D01*
X127507050Y-78785000D01*
X127652950Y-78785000D01*
X127871111Y-78763513D01*
X128151034Y-78678599D01*
X128409014Y-78540706D01*
X128635134Y-78355134D01*
X128820706Y-78129014D01*
X128850000Y-78074209D01*
X128879294Y-78129014D01*
X129064866Y-78355134D01*
X129290986Y-78540706D01*
X129548966Y-78678599D01*
X129828889Y-78763513D01*
X130047050Y-78785000D01*
X130192950Y-78785000D01*
X130411111Y-78763513D01*
X130691034Y-78678599D01*
X130949014Y-78540706D01*
X131175134Y-78355134D01*
X131360706Y-78129014D01*
X131390000Y-78074209D01*
X131419294Y-78129014D01*
X131604866Y-78355134D01*
X131830986Y-78540706D01*
X132088966Y-78678599D01*
X132368889Y-78763513D01*
X132587050Y-78785000D01*
X132732950Y-78785000D01*
X132951111Y-78763513D01*
X133231034Y-78678599D01*
X133489014Y-78540706D01*
X133715134Y-78355134D01*
X133900706Y-78129014D01*
X133930000Y-78074209D01*
X133959294Y-78129014D01*
X134144866Y-78355134D01*
X134370986Y-78540706D01*
X134628966Y-78678599D01*
X134908889Y-78763513D01*
X135127050Y-78785000D01*
X135272950Y-78785000D01*
X135491111Y-78763513D01*
X135771034Y-78678599D01*
X136029014Y-78540706D01*
X136255134Y-78355134D01*
X136440706Y-78129014D01*
X136470000Y-78074209D01*
X136499294Y-78129014D01*
X136684866Y-78355134D01*
X136910986Y-78540706D01*
X137168966Y-78678599D01*
X137448889Y-78763513D01*
X137667050Y-78785000D01*
X137812950Y-78785000D01*
X138031111Y-78763513D01*
X138311034Y-78678599D01*
X138569014Y-78540706D01*
X138795134Y-78355134D01*
X138980706Y-78129014D01*
X139010000Y-78074209D01*
X139039294Y-78129014D01*
X139224866Y-78355134D01*
X139450986Y-78540706D01*
X139708966Y-78678599D01*
X139988889Y-78763513D01*
X140207050Y-78785000D01*
X140352950Y-78785000D01*
X140571111Y-78763513D01*
X140851034Y-78678599D01*
X141109014Y-78540706D01*
X141335134Y-78355134D01*
X141520706Y-78129014D01*
X141550000Y-78074209D01*
X141579294Y-78129014D01*
X141764866Y-78355134D01*
X141990986Y-78540706D01*
X142248966Y-78678599D01*
X142528889Y-78763513D01*
X142747050Y-78785000D01*
X142892950Y-78785000D01*
X143111111Y-78763513D01*
X143391034Y-78678599D01*
X143649014Y-78540706D01*
X143875134Y-78355134D01*
X144060706Y-78129014D01*
X144090000Y-78074209D01*
X144119294Y-78129014D01*
X144304866Y-78355134D01*
X144530986Y-78540706D01*
X144788966Y-78678599D01*
X145068889Y-78763513D01*
X145287050Y-78785000D01*
X145432950Y-78785000D01*
X145651111Y-78763513D01*
X145931034Y-78678599D01*
X146189014Y-78540706D01*
X146415134Y-78355134D01*
X146439607Y-78325313D01*
X146460498Y-78394180D01*
X146519463Y-78504494D01*
X146598815Y-78601185D01*
X146612655Y-78612543D01*
X144585199Y-80640000D01*
X125637322Y-80640000D01*
X125599999Y-80636324D01*
X125562676Y-80640000D01*
X125562667Y-80640000D01*
X125451014Y-80650997D01*
X125330124Y-80687668D01*
X125307753Y-80694454D01*
X125175723Y-80765026D01*
X125103529Y-80824275D01*
X125059999Y-80859999D01*
X125036201Y-80888997D01*
X119185456Y-86739742D01*
X119176011Y-86692257D01*
X119060299Y-86412905D01*
X118892312Y-86161495D01*
X118825873Y-86095056D01*
X118844180Y-86089502D01*
X118954494Y-86030537D01*
X119051185Y-85951185D01*
X119130537Y-85854494D01*
X119189502Y-85744180D01*
X119225812Y-85624482D01*
X119238072Y-85500000D01*
X119238072Y-83700000D01*
X119225812Y-83575518D01*
X119189502Y-83455820D01*
X119130537Y-83345506D01*
X119051185Y-83248815D01*
X118954494Y-83169463D01*
X118844180Y-83110498D01*
X118724482Y-83074188D01*
X118600000Y-83061928D01*
X117284721Y-83061928D01*
X117231824Y-82795996D01*
X117127416Y-82543933D01*
X116975839Y-82317082D01*
X116782918Y-82124161D01*
X116556067Y-81972584D01*
X116304004Y-81868176D01*
X116036416Y-81814950D01*
X115763584Y-81814950D01*
X115495996Y-81868176D01*
X115243933Y-81972584D01*
X115017082Y-82124161D01*
X114824161Y-82317082D01*
X114672584Y-82543933D01*
X114568176Y-82795996D01*
X114514950Y-83063584D01*
X114514950Y-83336416D01*
X114568176Y-83604004D01*
X114672584Y-83856067D01*
X114824161Y-84082918D01*
X115017082Y-84275839D01*
X115105623Y-84335000D01*
X115008816Y-84335000D01*
X114712257Y-84393989D01*
X114432905Y-84509701D01*
X114181495Y-84677688D01*
X113967688Y-84891495D01*
X113799701Y-85142905D01*
X113683989Y-85422257D01*
X113625000Y-85718816D01*
X113625000Y-86021184D01*
X113683989Y-86317743D01*
X113799701Y-86597095D01*
X113967688Y-86848505D01*
X114181495Y-87062312D01*
X114297763Y-87140000D01*
X114181495Y-87217688D01*
X113967688Y-87431495D01*
X113799701Y-87682905D01*
X113683989Y-87962257D01*
X113625000Y-88258816D01*
X113625000Y-88561184D01*
X113683989Y-88857743D01*
X113799701Y-89137095D01*
X113967688Y-89388505D01*
X114181495Y-89602312D01*
X114297763Y-89680000D01*
X114181495Y-89757688D01*
X113967688Y-89971495D01*
X113799701Y-90222905D01*
X113683989Y-90502257D01*
X113625000Y-90798816D01*
X113625000Y-91101184D01*
X113683989Y-91397743D01*
X113799701Y-91677095D01*
X113967688Y-91928505D01*
X114181495Y-92142312D01*
X114432905Y-92310299D01*
X114712257Y-92426011D01*
X115008816Y-92485000D01*
X115311184Y-92485000D01*
X115568930Y-92433731D01*
X116920197Y-93784999D01*
X112155000Y-93784999D01*
X112155000Y-93493816D01*
X112096011Y-93197257D01*
X111980299Y-92917905D01*
X111812312Y-92666495D01*
X111598505Y-92452688D01*
X111347095Y-92284701D01*
X111067743Y-92168989D01*
X110771184Y-92110000D01*
X110468816Y-92110000D01*
X110172257Y-92168989D01*
X109892905Y-92284701D01*
X109641495Y-92452688D01*
X109427688Y-92666495D01*
X109259701Y-92917905D01*
X109143989Y-93197257D01*
X109085000Y-93493816D01*
X109085000Y-93749183D01*
X109058505Y-93722688D01*
X108807095Y-93554701D01*
X108527743Y-93438989D01*
X108231184Y-93380000D01*
X107928816Y-93380000D01*
X107632257Y-93438989D01*
X107352905Y-93554701D01*
X107101495Y-93722688D01*
X106887688Y-93936495D01*
X106719701Y-94187905D01*
X106603989Y-94467257D01*
X106545000Y-94763816D01*
X106545000Y-95066184D01*
X106603989Y-95362743D01*
X106719701Y-95642095D01*
X106887688Y-95893505D01*
X106954127Y-95959944D01*
X106935820Y-95965498D01*
X106825506Y-96024463D01*
X106728815Y-96103815D01*
X106649463Y-96200506D01*
X106590498Y-96310820D01*
X106554188Y-96430518D01*
X106541928Y-96555000D01*
X106545000Y-97169250D01*
X106703750Y-97328000D01*
X107953000Y-97328000D01*
X107953000Y-97308000D01*
X108207000Y-97308000D01*
X108207000Y-97328000D01*
X109456250Y-97328000D01*
X109524217Y-97260034D01*
X109641495Y-97377312D01*
X109780137Y-97469950D01*
X109743584Y-97469950D01*
X109475996Y-97523176D01*
X109333982Y-97582000D01*
X108207000Y-97582000D01*
X108207000Y-98831250D01*
X108365750Y-98990000D01*
X108494950Y-98990646D01*
X108494950Y-98991416D01*
X108544396Y-99240000D01*
X107539802Y-99240000D01*
X107292312Y-98992510D01*
X107794250Y-98990000D01*
X107953000Y-98831250D01*
X107953000Y-97582000D01*
X106703750Y-97582000D01*
X106545000Y-97740750D01*
X106542490Y-98242688D01*
X102353731Y-94053930D01*
X102405000Y-93796184D01*
X102405000Y-93493816D01*
X102346011Y-93197257D01*
X102230299Y-92917905D01*
X102062312Y-92666495D01*
X101848505Y-92452688D01*
X101597095Y-92284701D01*
X101317743Y-92168989D01*
X101021184Y-92110000D01*
X100718816Y-92110000D01*
X100422257Y-92168989D01*
X100142905Y-92284701D01*
X99891495Y-92452688D01*
X99677688Y-92666495D01*
X99509701Y-92917905D01*
X99393989Y-93197257D01*
X99335000Y-93493816D01*
X99335000Y-93749183D01*
X99308505Y-93722688D01*
X99057095Y-93554701D01*
X98777743Y-93438989D01*
X98481184Y-93380000D01*
X98178816Y-93380000D01*
X97882257Y-93438989D01*
X97602905Y-93554701D01*
X97351495Y-93722688D01*
X97137688Y-93936495D01*
X96969701Y-94187905D01*
X96853989Y-94467257D01*
X96795000Y-94763816D01*
X96795000Y-95066184D01*
X96846269Y-95323930D01*
X96594002Y-95576197D01*
X96564998Y-95600000D01*
X96512473Y-95664003D01*
X96470025Y-95715725D01*
X96427943Y-95794454D01*
X96399453Y-95847755D01*
X96355996Y-95991016D01*
X96344999Y-96102669D01*
X96344999Y-96102679D01*
X96341323Y-96140001D01*
X96344999Y-96177324D01*
X96344999Y-96737927D01*
X96306712Y-96722893D01*
X95279605Y-97750000D01*
X96306712Y-98777107D01*
X96355406Y-98757987D01*
X96355997Y-98763986D01*
X96399453Y-98907247D01*
X96470025Y-99039277D01*
X96503887Y-99080537D01*
X96564999Y-99155002D01*
X96593997Y-99178800D01*
X98280196Y-100865000D01*
X91135000Y-100865000D01*
X91135000Y-98956712D01*
X94072893Y-98956712D01*
X94180726Y-99231338D01*
X94487384Y-99382216D01*
X94817585Y-99470369D01*
X95158639Y-99492409D01*
X95497439Y-99447489D01*
X95820966Y-99337336D01*
X96019274Y-99231338D01*
X96127107Y-98956712D01*
X95100000Y-97929605D01*
X94072893Y-98956712D01*
X91135000Y-98956712D01*
X91135000Y-97808639D01*
X93357591Y-97808639D01*
X93402511Y-98147439D01*
X93512664Y-98470966D01*
X93618662Y-98669274D01*
X93893288Y-98777107D01*
X94920395Y-97750000D01*
X93893288Y-96722893D01*
X93618662Y-96830726D01*
X93467784Y-97137384D01*
X93379631Y-97467585D01*
X93357591Y-97808639D01*
X91135000Y-97808639D01*
X91135000Y-96543288D01*
X94072893Y-96543288D01*
X95100000Y-97570395D01*
X96127107Y-96543288D01*
X96019274Y-96268662D01*
X95712616Y-96117784D01*
X95382415Y-96029631D01*
X95041361Y-96007591D01*
X94702561Y-96052511D01*
X94379034Y-96162664D01*
X94180726Y-96268662D01*
X94072893Y-96543288D01*
X91135000Y-96543288D01*
X91135000Y-86050000D01*
X92761928Y-86050000D01*
X92761928Y-88050000D01*
X92774188Y-88174482D01*
X92810498Y-88294180D01*
X92869463Y-88404494D01*
X92948815Y-88501185D01*
X93045506Y-88580537D01*
X93155820Y-88639502D01*
X93275518Y-88675812D01*
X93400000Y-88688072D01*
X99400000Y-88688072D01*
X99524482Y-88675812D01*
X99644180Y-88639502D01*
X99754494Y-88580537D01*
X99851185Y-88501185D01*
X99930537Y-88404494D01*
X99989502Y-88294180D01*
X100022621Y-88185000D01*
X103277379Y-88185000D01*
X103310498Y-88294180D01*
X103369463Y-88404494D01*
X103448815Y-88501185D01*
X103545506Y-88580537D01*
X103655820Y-88639502D01*
X103775518Y-88675812D01*
X103900000Y-88688072D01*
X107400000Y-88688072D01*
X107524482Y-88675812D01*
X107644180Y-88639502D01*
X107754494Y-88580537D01*
X107851185Y-88501185D01*
X107930537Y-88404494D01*
X107989502Y-88294180D01*
X108025812Y-88174482D01*
X108030517Y-88126709D01*
X108106447Y-88103676D01*
X108303623Y-87998284D01*
X108476449Y-87856449D01*
X108511996Y-87813135D01*
X117545287Y-78779845D01*
X117711111Y-78763513D01*
X117991034Y-78678599D01*
X118249014Y-78540706D01*
X118475134Y-78355134D01*
X118660706Y-78129014D01*
X118690000Y-78074209D01*
X118719294Y-78129014D01*
X118904866Y-78355134D01*
X119130986Y-78540706D01*
X119388966Y-78678599D01*
X119668889Y-78763513D01*
X119887050Y-78785000D01*
X120032950Y-78785000D01*
X120251111Y-78763513D01*
X120531034Y-78678599D01*
X120789014Y-78540706D01*
X121015134Y-78355134D01*
X121200706Y-78129014D01*
X121235201Y-78064477D01*
X121304822Y-78181355D01*
X121499731Y-78397588D01*
X121733080Y-78571641D01*
X121995901Y-78696825D01*
X122143110Y-78741476D01*
X122373000Y-78620155D01*
X122373000Y-77427000D01*
X122353000Y-77427000D01*
X122353000Y-77173000D01*
X122373000Y-77173000D01*
X122373000Y-75979845D01*
X122143110Y-75858524D01*
X121995901Y-75903175D01*
X121733080Y-76028359D01*
X121499731Y-76202412D01*
X121304822Y-76418645D01*
X121235201Y-76535523D01*
X121200706Y-76470986D01*
X121015134Y-76244866D01*
X120789014Y-76059294D01*
X120531034Y-75921401D01*
X120251111Y-75836487D01*
X120032950Y-75815000D01*
X119887050Y-75815000D01*
X119668889Y-75836487D01*
X119388966Y-75921401D01*
X119130986Y-76059294D01*
X118904866Y-76244866D01*
X118719294Y-76470986D01*
X118690000Y-76525791D01*
X118660706Y-76470986D01*
X118475134Y-76244866D01*
X118249014Y-76059294D01*
X117991034Y-75921401D01*
X117711111Y-75836487D01*
X117492950Y-75815000D01*
X117347050Y-75815000D01*
X117128889Y-75836487D01*
X116848966Y-75921401D01*
X116590986Y-76059294D01*
X116364866Y-76244866D01*
X116179294Y-76470986D01*
X116150000Y-76525791D01*
X116120706Y-76470986D01*
X115935134Y-76244866D01*
X115709014Y-76059294D01*
X115451034Y-75921401D01*
X115171111Y-75836487D01*
X114952950Y-75815000D01*
X114807050Y-75815000D01*
X114588889Y-75836487D01*
X114308966Y-75921401D01*
X114050986Y-76059294D01*
X113824866Y-76244866D01*
X113639294Y-76470986D01*
X113501401Y-76728966D01*
X113416487Y-77008889D01*
X113387815Y-77300000D01*
X113416487Y-77591111D01*
X113501401Y-77871034D01*
X113639294Y-78129014D01*
X113824866Y-78355134D01*
X114050986Y-78540706D01*
X114308966Y-78678599D01*
X114406640Y-78708228D01*
X107650821Y-85464048D01*
X107644180Y-85460498D01*
X107524482Y-85424188D01*
X107400000Y-85411928D01*
X103900000Y-85411928D01*
X103775518Y-85424188D01*
X103655820Y-85460498D01*
X103545506Y-85519463D01*
X103448815Y-85598815D01*
X103369463Y-85695506D01*
X103310498Y-85805820D01*
X103277379Y-85915000D01*
X100022621Y-85915000D01*
X99989502Y-85805820D01*
X99930537Y-85695506D01*
X99851185Y-85598815D01*
X99754494Y-85519463D01*
X99644180Y-85460498D01*
X99524482Y-85424188D01*
X99400000Y-85411928D01*
X93400000Y-85411928D01*
X93275518Y-85424188D01*
X93155820Y-85460498D01*
X93045506Y-85519463D01*
X92948815Y-85598815D01*
X92869463Y-85695506D01*
X92810498Y-85805820D01*
X92774188Y-85925518D01*
X92761928Y-86050000D01*
X91135000Y-86050000D01*
X91135000Y-84050000D01*
X92761928Y-84050000D01*
X92774188Y-84174482D01*
X92810498Y-84294180D01*
X92869463Y-84404494D01*
X92948815Y-84501185D01*
X93045506Y-84580537D01*
X93155820Y-84639502D01*
X93275518Y-84675812D01*
X93400000Y-84688072D01*
X96114250Y-84685000D01*
X96273000Y-84526250D01*
X96273000Y-83177000D01*
X96527000Y-83177000D01*
X96527000Y-84526250D01*
X96685750Y-84685000D01*
X99400000Y-84688072D01*
X99524482Y-84675812D01*
X99644180Y-84639502D01*
X99754494Y-84580537D01*
X99851185Y-84501185D01*
X99930537Y-84404494D01*
X99989502Y-84294180D01*
X100025812Y-84174482D01*
X100038072Y-84050000D01*
X103261928Y-84050000D01*
X103274188Y-84174482D01*
X103310498Y-84294180D01*
X103369463Y-84404494D01*
X103448815Y-84501185D01*
X103545506Y-84580537D01*
X103655820Y-84639502D01*
X103775518Y-84675812D01*
X103900000Y-84688072D01*
X105364250Y-84685000D01*
X105523000Y-84526250D01*
X105523000Y-83177000D01*
X105777000Y-83177000D01*
X105777000Y-84526250D01*
X105935750Y-84685000D01*
X107400000Y-84688072D01*
X107524482Y-84675812D01*
X107644180Y-84639502D01*
X107754494Y-84580537D01*
X107851185Y-84501185D01*
X107930537Y-84404494D01*
X107989502Y-84294180D01*
X108025812Y-84174482D01*
X108038072Y-84050000D01*
X108035000Y-83335750D01*
X107876250Y-83177000D01*
X105777000Y-83177000D01*
X105523000Y-83177000D01*
X103423750Y-83177000D01*
X103265000Y-83335750D01*
X103261928Y-84050000D01*
X100038072Y-84050000D01*
X100035000Y-83335750D01*
X99876250Y-83177000D01*
X96527000Y-83177000D01*
X96273000Y-83177000D01*
X92923750Y-83177000D01*
X92765000Y-83335750D01*
X92761928Y-84050000D01*
X91135000Y-84050000D01*
X91135000Y-82050000D01*
X92761928Y-82050000D01*
X92765000Y-82764250D01*
X92923750Y-82923000D01*
X96273000Y-82923000D01*
X96273000Y-81573750D01*
X96527000Y-81573750D01*
X96527000Y-82923000D01*
X99876250Y-82923000D01*
X100035000Y-82764250D01*
X100038072Y-82050000D01*
X103261928Y-82050000D01*
X103265000Y-82764250D01*
X103423750Y-82923000D01*
X105523000Y-82923000D01*
X105523000Y-81573750D01*
X105777000Y-81573750D01*
X105777000Y-82923000D01*
X107876250Y-82923000D01*
X108035000Y-82764250D01*
X108038072Y-82050000D01*
X108025812Y-81925518D01*
X107989502Y-81805820D01*
X107930537Y-81695506D01*
X107851185Y-81598815D01*
X107754494Y-81519463D01*
X107644180Y-81460498D01*
X107524482Y-81424188D01*
X107400000Y-81411928D01*
X105935750Y-81415000D01*
X105777000Y-81573750D01*
X105523000Y-81573750D01*
X105364250Y-81415000D01*
X103900000Y-81411928D01*
X103775518Y-81424188D01*
X103655820Y-81460498D01*
X103545506Y-81519463D01*
X103448815Y-81598815D01*
X103369463Y-81695506D01*
X103310498Y-81805820D01*
X103274188Y-81925518D01*
X103261928Y-82050000D01*
X100038072Y-82050000D01*
X100025812Y-81925518D01*
X99989502Y-81805820D01*
X99930537Y-81695506D01*
X99851185Y-81598815D01*
X99754494Y-81519463D01*
X99644180Y-81460498D01*
X99524482Y-81424188D01*
X99400000Y-81411928D01*
X96685750Y-81415000D01*
X96527000Y-81573750D01*
X96273000Y-81573750D01*
X96114250Y-81415000D01*
X93400000Y-81411928D01*
X93275518Y-81424188D01*
X93155820Y-81460498D01*
X93045506Y-81519463D01*
X92948815Y-81598815D01*
X92869463Y-81695506D01*
X92810498Y-81805820D01*
X92774188Y-81925518D01*
X92761928Y-82050000D01*
X91135000Y-82050000D01*
X91135000Y-78456712D01*
X94072893Y-78456712D01*
X94180726Y-78731338D01*
X94487384Y-78882216D01*
X94817585Y-78970369D01*
X95158639Y-78992409D01*
X95497439Y-78947489D01*
X95820966Y-78837336D01*
X96019274Y-78731338D01*
X96127107Y-78456712D01*
X95100000Y-77429605D01*
X94072893Y-78456712D01*
X91135000Y-78456712D01*
X91135000Y-77308639D01*
X93357591Y-77308639D01*
X93402511Y-77647439D01*
X93512664Y-77970966D01*
X93618662Y-78169274D01*
X93893288Y-78277107D01*
X94920395Y-77250000D01*
X95279605Y-77250000D01*
X96306712Y-78277107D01*
X96581338Y-78169274D01*
X96732216Y-77862616D01*
X96820369Y-77532415D01*
X96842409Y-77191361D01*
X96797489Y-76852561D01*
X96687336Y-76529034D01*
X96581338Y-76330726D01*
X96306712Y-76222893D01*
X95279605Y-77250000D01*
X94920395Y-77250000D01*
X93893288Y-76222893D01*
X93618662Y-76330726D01*
X93467784Y-76637384D01*
X93379631Y-76967585D01*
X93357591Y-77308639D01*
X91135000Y-77308639D01*
X91135000Y-76043288D01*
X94072893Y-76043288D01*
X95100000Y-77070395D01*
X96127107Y-76043288D01*
X96019274Y-75768662D01*
X95712616Y-75617784D01*
X95382415Y-75529631D01*
X95041361Y-75507591D01*
X94702561Y-75552511D01*
X94379034Y-75662664D01*
X94180726Y-75768662D01*
X94072893Y-76043288D01*
X91135000Y-76043288D01*
X91135000Y-75970131D01*
X92970132Y-74135000D01*
X174802560Y-74135000D01*
X174699866Y-74288692D01*
G36*
X99891495Y-97377312D02*
G01*
X100030137Y-97469950D01*
X99993584Y-97469950D01*
X99725996Y-97523176D01*
X99583982Y-97582000D01*
X98457000Y-97582000D01*
X98457000Y-97602000D01*
X98203000Y-97602000D01*
X98203000Y-97582000D01*
X98183000Y-97582000D01*
X98183000Y-97328000D01*
X98203000Y-97328000D01*
X98203000Y-97308000D01*
X98457000Y-97308000D01*
X98457000Y-97328000D01*
X99706250Y-97328000D01*
X99774217Y-97260034D01*
X99891495Y-97377312D01*
X99891495Y-97377312D01*
G37*
X99891495Y-97377312D02*
X100030137Y-97469950D01*
X99993584Y-97469950D01*
X99725996Y-97523176D01*
X99583982Y-97582000D01*
X98457000Y-97582000D01*
X98457000Y-97602000D01*
X98203000Y-97602000D01*
X98203000Y-97582000D01*
X98183000Y-97582000D01*
X98183000Y-97328000D01*
X98203000Y-97328000D01*
X98203000Y-97308000D01*
X98457000Y-97308000D01*
X98457000Y-97328000D01*
X99706250Y-97328000D01*
X99774217Y-97260034D01*
X99891495Y-97377312D01*
G36*
X178525198Y-94600000D02*
G01*
X176247805Y-94600000D01*
X175136805Y-93489002D01*
X175113003Y-93459999D01*
X174997278Y-93365026D01*
X174865249Y-93294454D01*
X174721988Y-93250997D01*
X174610335Y-93240000D01*
X174610324Y-93240000D01*
X174573002Y-93236324D01*
X174535680Y-93240000D01*
X174203711Y-93240000D01*
X174159774Y-93196063D01*
X173990256Y-93082795D01*
X173801898Y-93004774D01*
X173601939Y-92965000D01*
X173534999Y-92965000D01*
X173534999Y-89609800D01*
X178525198Y-94600000D01*
X178525198Y-94600000D01*
G37*
X178525198Y-94600000D02*
X176247805Y-94600000D01*
X175136805Y-93489002D01*
X175113003Y-93459999D01*
X174997278Y-93365026D01*
X174865249Y-93294454D01*
X174721988Y-93250997D01*
X174610335Y-93240000D01*
X174610324Y-93240000D01*
X174573002Y-93236324D01*
X174535680Y-93240000D01*
X174203711Y-93240000D01*
X174159774Y-93196063D01*
X173990256Y-93082795D01*
X173801898Y-93004774D01*
X173601939Y-92965000D01*
X173534999Y-92965000D01*
X173534999Y-89609800D01*
X178525198Y-94600000D01*
G36*
X190840001Y-93596385D02*
G01*
X190788800Y-93533998D01*
X190765002Y-93505000D01*
X190736005Y-93481203D01*
X190483731Y-93228930D01*
X190535000Y-92971184D01*
X190535000Y-92668816D01*
X190476011Y-92372257D01*
X190360299Y-92092905D01*
X190192312Y-91841495D01*
X189978505Y-91627688D01*
X189862237Y-91550000D01*
X189978505Y-91472312D01*
X190192312Y-91258505D01*
X190360299Y-91007095D01*
X190476011Y-90727743D01*
X190535000Y-90431184D01*
X190535000Y-90128816D01*
X190476011Y-89832257D01*
X190360299Y-89552905D01*
X190192312Y-89301495D01*
X189978505Y-89087688D01*
X189824895Y-88985049D01*
X189884475Y-88804080D01*
X189000000Y-87919605D01*
X188985858Y-87933748D01*
X188806253Y-87754143D01*
X188820395Y-87740000D01*
X189179605Y-87740000D01*
X190064080Y-88624475D01*
X190318261Y-88540792D01*
X190449158Y-88268225D01*
X190524365Y-87975358D01*
X190540991Y-87673447D01*
X190498397Y-87374093D01*
X190398222Y-87088801D01*
X190318261Y-86939208D01*
X190064080Y-86855525D01*
X189179605Y-87740000D01*
X188820395Y-87740000D01*
X188806253Y-87725858D01*
X188985858Y-87546253D01*
X189000000Y-87560395D01*
X189884475Y-86675920D01*
X189824895Y-86494951D01*
X189978505Y-86392312D01*
X190192312Y-86178505D01*
X190360299Y-85927095D01*
X190476011Y-85647743D01*
X190535000Y-85351184D01*
X190535000Y-85048816D01*
X190476011Y-84752257D01*
X190360299Y-84472905D01*
X190192312Y-84221495D01*
X189978505Y-84007688D01*
X189862237Y-83930000D01*
X189978505Y-83852312D01*
X190192312Y-83638505D01*
X190360299Y-83387095D01*
X190476011Y-83107743D01*
X190535000Y-82811184D01*
X190535000Y-82508816D01*
X190476011Y-82212257D01*
X190360299Y-81932905D01*
X190192312Y-81681495D01*
X189978505Y-81467688D01*
X189824895Y-81365049D01*
X189884475Y-81184080D01*
X189000000Y-80299605D01*
X188985858Y-80313748D01*
X188806253Y-80134143D01*
X188820395Y-80120000D01*
X189179605Y-80120000D01*
X190064080Y-81004475D01*
X190318261Y-80920792D01*
X190449158Y-80648225D01*
X190524365Y-80355358D01*
X190540991Y-80053447D01*
X190498397Y-79754093D01*
X190398222Y-79468801D01*
X190318261Y-79319208D01*
X190064080Y-79235525D01*
X189179605Y-80120000D01*
X188820395Y-80120000D01*
X188806253Y-80105858D01*
X188985858Y-79926253D01*
X189000000Y-79940395D01*
X189884475Y-79055920D01*
X189824895Y-78874951D01*
X189978505Y-78772312D01*
X190192312Y-78558505D01*
X190360299Y-78307095D01*
X190476011Y-78027743D01*
X190535000Y-77731184D01*
X190535000Y-77428816D01*
X190476011Y-77132257D01*
X190360299Y-76852905D01*
X190192312Y-76601495D01*
X189978505Y-76387688D01*
X189862237Y-76310000D01*
X189978505Y-76232312D01*
X190192312Y-76018505D01*
X190360299Y-75767095D01*
X190476011Y-75487743D01*
X190535000Y-75191184D01*
X190535000Y-74888816D01*
X190476011Y-74592257D01*
X190423966Y-74466610D01*
X190539278Y-74404974D01*
X190655003Y-74310001D01*
X190678806Y-74280997D01*
X190735999Y-74223804D01*
X190765002Y-74200002D01*
X190840000Y-74108616D01*
X190840001Y-93596385D01*
X190840001Y-93596385D01*
G37*
X190840001Y-93596385D02*
X190788800Y-93533998D01*
X190765002Y-93505000D01*
X190736005Y-93481203D01*
X190483731Y-93228930D01*
X190535000Y-92971184D01*
X190535000Y-92668816D01*
X190476011Y-92372257D01*
X190360299Y-92092905D01*
X190192312Y-91841495D01*
X189978505Y-91627688D01*
X189862237Y-91550000D01*
X189978505Y-91472312D01*
X190192312Y-91258505D01*
X190360299Y-91007095D01*
X190476011Y-90727743D01*
X190535000Y-90431184D01*
X190535000Y-90128816D01*
X190476011Y-89832257D01*
X190360299Y-89552905D01*
X190192312Y-89301495D01*
X189978505Y-89087688D01*
X189824895Y-88985049D01*
X189884475Y-88804080D01*
X189000000Y-87919605D01*
X188985858Y-87933748D01*
X188806253Y-87754143D01*
X188820395Y-87740000D01*
X189179605Y-87740000D01*
X190064080Y-88624475D01*
X190318261Y-88540792D01*
X190449158Y-88268225D01*
X190524365Y-87975358D01*
X190540991Y-87673447D01*
X190498397Y-87374093D01*
X190398222Y-87088801D01*
X190318261Y-86939208D01*
X190064080Y-86855525D01*
X189179605Y-87740000D01*
X188820395Y-87740000D01*
X188806253Y-87725858D01*
X188985858Y-87546253D01*
X189000000Y-87560395D01*
X189884475Y-86675920D01*
X189824895Y-86494951D01*
X189978505Y-86392312D01*
X190192312Y-86178505D01*
X190360299Y-85927095D01*
X190476011Y-85647743D01*
X190535000Y-85351184D01*
X190535000Y-85048816D01*
X190476011Y-84752257D01*
X190360299Y-84472905D01*
X190192312Y-84221495D01*
X189978505Y-84007688D01*
X189862237Y-83930000D01*
X189978505Y-83852312D01*
X190192312Y-83638505D01*
X190360299Y-83387095D01*
X190476011Y-83107743D01*
X190535000Y-82811184D01*
X190535000Y-82508816D01*
X190476011Y-82212257D01*
X190360299Y-81932905D01*
X190192312Y-81681495D01*
X189978505Y-81467688D01*
X189824895Y-81365049D01*
X189884475Y-81184080D01*
X189000000Y-80299605D01*
X188985858Y-80313748D01*
X188806253Y-80134143D01*
X188820395Y-80120000D01*
X189179605Y-80120000D01*
X190064080Y-81004475D01*
X190318261Y-80920792D01*
X190449158Y-80648225D01*
X190524365Y-80355358D01*
X190540991Y-80053447D01*
X190498397Y-79754093D01*
X190398222Y-79468801D01*
X190318261Y-79319208D01*
X190064080Y-79235525D01*
X189179605Y-80120000D01*
X188820395Y-80120000D01*
X188806253Y-80105858D01*
X188985858Y-79926253D01*
X189000000Y-79940395D01*
X189884475Y-79055920D01*
X189824895Y-78874951D01*
X189978505Y-78772312D01*
X190192312Y-78558505D01*
X190360299Y-78307095D01*
X190476011Y-78027743D01*
X190535000Y-77731184D01*
X190535000Y-77428816D01*
X190476011Y-77132257D01*
X190360299Y-76852905D01*
X190192312Y-76601495D01*
X189978505Y-76387688D01*
X189862237Y-76310000D01*
X189978505Y-76232312D01*
X190192312Y-76018505D01*
X190360299Y-75767095D01*
X190476011Y-75487743D01*
X190535000Y-75191184D01*
X190535000Y-74888816D01*
X190476011Y-74592257D01*
X190423966Y-74466610D01*
X190539278Y-74404974D01*
X190655003Y-74310001D01*
X190678806Y-74280997D01*
X190735999Y-74223804D01*
X190765002Y-74200002D01*
X190840000Y-74108616D01*
X190840001Y-93596385D01*
G36*
X173660449Y-81032879D02*
G01*
X173860408Y-81072653D01*
X173922546Y-81072653D01*
X179880895Y-87031003D01*
X179904693Y-87060001D01*
X179933691Y-87083799D01*
X180020417Y-87154974D01*
X180137746Y-87217688D01*
X180152447Y-87225546D01*
X180295708Y-87269003D01*
X180407361Y-87280000D01*
X180407370Y-87280000D01*
X180444693Y-87283676D01*
X180482016Y-87280000D01*
X185121687Y-87280000D01*
X185267688Y-87498505D01*
X185481495Y-87712312D01*
X185560348Y-87765000D01*
X185481495Y-87817688D01*
X185267688Y-88031495D01*
X185099701Y-88282905D01*
X184983989Y-88562257D01*
X184925000Y-88858816D01*
X184925000Y-89161184D01*
X184983989Y-89457743D01*
X185009777Y-89520000D01*
X180667804Y-89520000D01*
X174532302Y-83384499D01*
X174495226Y-83198102D01*
X174417205Y-83009744D01*
X174303937Y-82840226D01*
X174159774Y-82696063D01*
X173990256Y-82582795D01*
X173801898Y-82504774D01*
X173601939Y-82465000D01*
X173534999Y-82465000D01*
X173534999Y-80980916D01*
X173660449Y-81032879D01*
X173660449Y-81032879D01*
G37*
X173660449Y-81032879D02*
X173860408Y-81072653D01*
X173922546Y-81072653D01*
X179880895Y-87031003D01*
X179904693Y-87060001D01*
X179933691Y-87083799D01*
X180020417Y-87154974D01*
X180137746Y-87217688D01*
X180152447Y-87225546D01*
X180295708Y-87269003D01*
X180407361Y-87280000D01*
X180407370Y-87280000D01*
X180444693Y-87283676D01*
X180482016Y-87280000D01*
X185121687Y-87280000D01*
X185267688Y-87498505D01*
X185481495Y-87712312D01*
X185560348Y-87765000D01*
X185481495Y-87817688D01*
X185267688Y-88031495D01*
X185099701Y-88282905D01*
X184983989Y-88562257D01*
X184925000Y-88858816D01*
X184925000Y-89161184D01*
X184983989Y-89457743D01*
X185009777Y-89520000D01*
X180667804Y-89520000D01*
X174532302Y-83384499D01*
X174495226Y-83198102D01*
X174417205Y-83009744D01*
X174303937Y-82840226D01*
X174159774Y-82696063D01*
X173990256Y-82582795D01*
X173801898Y-82504774D01*
X173601939Y-82465000D01*
X173534999Y-82465000D01*
X173534999Y-80980916D01*
X173660449Y-81032879D01*
G36*
X183680733Y-65760016D02*
G01*
X183602995Y-65823815D01*
X183565009Y-65854989D01*
X183541211Y-65883987D01*
X182960199Y-66465000D01*
X182898061Y-66465000D01*
X182698102Y-66504774D01*
X182509744Y-66582795D01*
X182458025Y-66617352D01*
X182419274Y-66518662D01*
X182112616Y-66367784D01*
X181782415Y-66279631D01*
X181441361Y-66257591D01*
X181102561Y-66302511D01*
X180779034Y-66412664D01*
X180580726Y-66518662D01*
X180472893Y-66793288D01*
X181500000Y-67820395D01*
X181514143Y-67806253D01*
X181693748Y-67985858D01*
X181679605Y-68000000D01*
X181693748Y-68014143D01*
X181514143Y-68193748D01*
X181500000Y-68179605D01*
X181485858Y-68193748D01*
X181306253Y-68014143D01*
X181320395Y-68000000D01*
X180293288Y-66972893D01*
X180018662Y-67080726D01*
X179867784Y-67387384D01*
X179779631Y-67717585D01*
X179757591Y-68058639D01*
X179802511Y-68397439D01*
X179912664Y-68720966D01*
X179989652Y-68865000D01*
X176555752Y-68865000D01*
X176500000Y-68859509D01*
X176444249Y-68865000D01*
X176444248Y-68865000D01*
X176277501Y-68881423D01*
X176063553Y-68946324D01*
X175866377Y-69051716D01*
X175693551Y-69193551D01*
X175551716Y-69366377D01*
X175446324Y-69563553D01*
X175381423Y-69777501D01*
X175359509Y-70000000D01*
X175365001Y-70055761D01*
X175365000Y-71865000D01*
X155568387Y-71865000D01*
X155659774Y-71803937D01*
X155803937Y-71659774D01*
X155917205Y-71490256D01*
X155995226Y-71301898D01*
X156035000Y-71101939D01*
X156035000Y-70898061D01*
X155995226Y-70698102D01*
X155917205Y-70509744D01*
X155803937Y-70340226D01*
X155659774Y-70196063D01*
X155490256Y-70082795D01*
X155301898Y-70004774D01*
X155101939Y-69965000D01*
X155039802Y-69965000D01*
X153769256Y-68694455D01*
X153803937Y-68659774D01*
X153917205Y-68490256D01*
X153995226Y-68301898D01*
X154035000Y-68101939D01*
X154035000Y-67898061D01*
X153995226Y-67698102D01*
X153917205Y-67509744D01*
X153803937Y-67340226D01*
X153659774Y-67196063D01*
X153490256Y-67082795D01*
X153301898Y-67004774D01*
X153101939Y-66965000D01*
X152898061Y-66965000D01*
X152698102Y-67004774D01*
X152509744Y-67082795D01*
X152340226Y-67196063D01*
X152196063Y-67340226D01*
X152082795Y-67509744D01*
X152004774Y-67698102D01*
X151965000Y-67898061D01*
X151965000Y-68101939D01*
X152004774Y-68301898D01*
X152082795Y-68490256D01*
X152196063Y-68659774D01*
X152240000Y-68703711D01*
X152240000Y-68962677D01*
X152236324Y-69000000D01*
X152240000Y-69037322D01*
X152240000Y-69037332D01*
X152250997Y-69148985D01*
X152283319Y-69255537D01*
X152294454Y-69292246D01*
X152365026Y-69424276D01*
X152404871Y-69472826D01*
X152459999Y-69540001D01*
X152489003Y-69563804D01*
X153965000Y-71039802D01*
X153965000Y-71101939D01*
X154004774Y-71301898D01*
X154082795Y-71490256D01*
X154196063Y-71659774D01*
X154340226Y-71803937D01*
X154431613Y-71865000D01*
X92555751Y-71865000D01*
X92500000Y-71859509D01*
X92444248Y-71865000D01*
X92277501Y-71881423D01*
X92063553Y-71946324D01*
X91866377Y-72051716D01*
X91693551Y-72193551D01*
X91658009Y-72236859D01*
X89236860Y-74658009D01*
X89193552Y-74693551D01*
X89160000Y-74734434D01*
X89160000Y-66156803D01*
X183797886Y-65697396D01*
X183680733Y-65760016D01*
X183680733Y-65760016D01*
G37*
X183680733Y-65760016D02*
X183602995Y-65823815D01*
X183565009Y-65854989D01*
X183541211Y-65883987D01*
X182960199Y-66465000D01*
X182898061Y-66465000D01*
X182698102Y-66504774D01*
X182509744Y-66582795D01*
X182458025Y-66617352D01*
X182419274Y-66518662D01*
X182112616Y-66367784D01*
X181782415Y-66279631D01*
X181441361Y-66257591D01*
X181102561Y-66302511D01*
X180779034Y-66412664D01*
X180580726Y-66518662D01*
X180472893Y-66793288D01*
X181500000Y-67820395D01*
X181514143Y-67806253D01*
X181693748Y-67985858D01*
X181679605Y-68000000D01*
X181693748Y-68014143D01*
X181514143Y-68193748D01*
X181500000Y-68179605D01*
X181485858Y-68193748D01*
X181306253Y-68014143D01*
X181320395Y-68000000D01*
X180293288Y-66972893D01*
X180018662Y-67080726D01*
X179867784Y-67387384D01*
X179779631Y-67717585D01*
X179757591Y-68058639D01*
X179802511Y-68397439D01*
X179912664Y-68720966D01*
X179989652Y-68865000D01*
X176555752Y-68865000D01*
X176500000Y-68859509D01*
X176444249Y-68865000D01*
X176444248Y-68865000D01*
X176277501Y-68881423D01*
X176063553Y-68946324D01*
X175866377Y-69051716D01*
X175693551Y-69193551D01*
X175551716Y-69366377D01*
X175446324Y-69563553D01*
X175381423Y-69777501D01*
X175359509Y-70000000D01*
X175365001Y-70055761D01*
X175365000Y-71865000D01*
X155568387Y-71865000D01*
X155659774Y-71803937D01*
X155803937Y-71659774D01*
X155917205Y-71490256D01*
X155995226Y-71301898D01*
X156035000Y-71101939D01*
X156035000Y-70898061D01*
X155995226Y-70698102D01*
X155917205Y-70509744D01*
X155803937Y-70340226D01*
X155659774Y-70196063D01*
X155490256Y-70082795D01*
X155301898Y-70004774D01*
X155101939Y-69965000D01*
X155039802Y-69965000D01*
X153769256Y-68694455D01*
X153803937Y-68659774D01*
X153917205Y-68490256D01*
X153995226Y-68301898D01*
X154035000Y-68101939D01*
X154035000Y-67898061D01*
X153995226Y-67698102D01*
X153917205Y-67509744D01*
X153803937Y-67340226D01*
X153659774Y-67196063D01*
X153490256Y-67082795D01*
X153301898Y-67004774D01*
X153101939Y-66965000D01*
X152898061Y-66965000D01*
X152698102Y-67004774D01*
X152509744Y-67082795D01*
X152340226Y-67196063D01*
X152196063Y-67340226D01*
X152082795Y-67509744D01*
X152004774Y-67698102D01*
X151965000Y-67898061D01*
X151965000Y-68101939D01*
X152004774Y-68301898D01*
X152082795Y-68490256D01*
X152196063Y-68659774D01*
X152240000Y-68703711D01*
X152240000Y-68962677D01*
X152236324Y-69000000D01*
X152240000Y-69037322D01*
X152240000Y-69037332D01*
X152250997Y-69148985D01*
X152283319Y-69255537D01*
X152294454Y-69292246D01*
X152365026Y-69424276D01*
X152404871Y-69472826D01*
X152459999Y-69540001D01*
X152489003Y-69563804D01*
X153965000Y-71039802D01*
X153965000Y-71101939D01*
X154004774Y-71301898D01*
X154082795Y-71490256D01*
X154196063Y-71659774D01*
X154340226Y-71803937D01*
X154431613Y-71865000D01*
X92555751Y-71865000D01*
X92500000Y-71859509D01*
X92444248Y-71865000D01*
X92277501Y-71881423D01*
X92063553Y-71946324D01*
X91866377Y-72051716D01*
X91693551Y-72193551D01*
X91658009Y-72236859D01*
X89236860Y-74658009D01*
X89193552Y-74693551D01*
X89160000Y-74734434D01*
X89160000Y-66156803D01*
X183797886Y-65697396D01*
X183680733Y-65760016D01*
M02*
