M48
; DRILL file {KiCad 5.1.2-f72e74a~84~ubuntu18.04.1} date Sat Aug 10 16:00:57 2019
; FORMAT={-:-/ absolute / inch / decimal}
; #@! TF.CreationDate,2019-08-10T16:00:57+02:00
; #@! TF.GenerationSoftware,Kicad,Pcbnew,5.1.2-f72e74a~84~ubuntu18.04.1
; #@! TF.FileFunction,Plated,1,2,PTH
FMAT,2
INCH
T1C0.0157
T2C0.0315
T3C0.0315
T4C0.0394
T5C0.0866
%
G90
G05
T1
X3.5433Y-3.9764
X3.6417Y-2.874
X3.6811Y-4.1732
X3.6811Y-4.2126
X3.6811Y-4.252
X3.6811Y-4.2913
X3.7205Y-4.1929
X3.7205Y-4.2323
X3.7205Y-4.2717
X3.7402Y-4.0157
X3.878Y-2.874
X3.9764Y-4.0157
X4.1142Y-2.874
X4.2323Y-4.0157
X4.3504Y-2.874
X4.4685Y-4.0157
X4.5866Y-2.874
X4.7047Y-4.0157
X4.8228Y-2.874
X4.9409Y-4.0157
X5.0591Y-2.874
X5.1772Y-4.0157
X5.2953Y-2.874
X5.4134Y-4.0157
X5.5315Y-2.874
X5.5968Y-2.7891
X5.6299Y-2.874
X5.6496Y-4.0157
X5.7357Y-2.7092
X6.0236Y-2.6772
X6.1024Y-2.7953
X6.122Y-4.0157
X6.2402Y-2.874
X6.3386Y-4.0157
X6.4764Y-2.874
X6.5748Y-3.3858
X6.5945Y-4.0157
X6.6339Y-3.2874
X6.6447Y-3.6811
X6.6447Y-3.7721
X6.6535Y-3.1299
X6.6732Y-3.3858
X6.7126Y-2.874
X6.7724Y-3.9362
X6.8307Y-3.2874
X6.8307Y-3.3268
X6.8307Y-3.4843
X6.8307Y-3.7008
X6.8307Y-3.7598
X6.8307Y-4.0157
X6.8489Y-3.1511
X6.8504Y-3.563
X6.8504Y-3.7992
X6.8701Y-3.248
X6.8782Y-3.8271
X6.8898Y-3.1496
X6.9488Y-2.874
X6.9488Y-3.3268
X6.9685Y-2.9331
X7.0079Y-3.3661
X7.1457Y-3.1496
X7.2047Y-2.6575
X7.2047Y-2.815
X7.2479Y-2.6988
X7.2638Y-2.6575
X7.4606Y-2.7362
T2
X7.448Y-2.6575
T3
X4.2551Y-3.7368
X4.2551Y-3.8368
X4.3551Y-3.6868
X4.3551Y-3.7868
X7.3409Y-2.9043
X7.3409Y-3.0043
X7.3409Y-3.1043
X7.3409Y-3.2043
X7.3409Y-3.3043
X7.3409Y-3.4063
X7.3409Y-3.5043
X7.3409Y-3.6043
X7.3409Y-3.7043
X7.3409Y-3.8043
X7.4409Y-2.8543
X7.4409Y-2.9543
X7.4409Y-3.0543
X7.4409Y-3.1543
X7.4409Y-3.2543
X7.4409Y-3.3543
X7.4409Y-3.4543
X7.4409Y-3.5543
X7.4409Y-3.6543
X7.4409Y-3.7543
X4.5339Y-3.3807
X4.5339Y-3.4807
X4.5339Y-3.5807
X4.6339Y-3.3307
X4.6339Y-3.4307
X4.6339Y-3.5307
X4.9402Y-3.4415
X4.9402Y-3.5415
X5.0402Y-3.3915
X5.0402Y-3.4915
X3.8713Y-3.7368
X3.8713Y-3.8368
X3.9713Y-3.6868
X3.9713Y-3.7868
T4
X4.5228Y-3.0433
X4.6228Y-3.0433
X4.7228Y-3.0433
X4.8228Y-3.0433
X4.9228Y-3.0433
X5.0228Y-3.0433
X5.1228Y-3.0433
X5.2228Y-3.0433
X5.3228Y-3.0433
X5.4228Y-3.0433
X5.5228Y-3.0433
X5.6228Y-3.0433
X5.7228Y-3.0433
X5.8228Y-3.0433
X4.5236Y-3.8465
X4.6236Y-3.8465
X4.7236Y-3.8465
X4.8236Y-3.8465
X4.9236Y-3.8465
X5.0236Y-3.8465
X5.1236Y-3.8465
X5.2236Y-3.8465
X5.3236Y-3.8465
X5.4236Y-3.8465
X5.5236Y-3.8465
X5.6236Y-3.8465
X5.7236Y-3.8465
X5.8236Y-3.8465
T5
X3.7441Y-3.0413
X7.1457Y-2.6772
X3.7441Y-3.8484
T0
M30
