G04 #@! TF.GenerationSoftware,KiCad,Pcbnew,5.1.2-f72e74a~84~ubuntu18.04.1*
G04 #@! TF.CreationDate,2019-08-10T16:00:54+02:00*
G04 #@! TF.ProjectId,roboy_2.0_forarm_shield,726f626f-795f-4322-9e30-5f666f726172,rev?*
G04 #@! TF.SameCoordinates,Original*
G04 #@! TF.FileFunction,Paste,Bot*
G04 #@! TF.FilePolarity,Positive*
%FSLAX46Y46*%
G04 Gerber Fmt 4.6, Leading zero omitted, Abs format (unit mm)*
G04 Created by KiCad (PCBNEW 5.1.2-f72e74a~84~ubuntu18.04.1) date 2019-08-10 16:00:54*
%MOMM*%
%LPD*%
G04 APERTURE LIST*
%ADD10C,0.450000*%
%ADD11C,0.100000*%
%ADD12C,0.590000*%
%ADD13R,3.500000X2.000000*%
%ADD14R,6.000000X2.000000*%
%ADD15R,0.450000X0.750000*%
G04 APERTURE END LIST*
D10*
X188423547Y-67775326D02*
G75*
G02X188375000Y-67500000I756453J275326D01*
G01*
X188563334Y-66982556D02*
G75*
G02X188777500Y-66802850I616666J-517444D01*
G01*
X189319787Y-66707230D02*
G75*
G02X189582500Y-66802850I-139787J-792770D01*
G01*
X189936453Y-67224674D02*
G75*
G02X189985000Y-67500000I-756453J-275326D01*
G01*
X189796666Y-68017444D02*
G75*
G02X189582500Y-68197150I-616666J517444D01*
G01*
X189040213Y-68292770D02*
G75*
G02X188777500Y-68197150I139787J792770D01*
G01*
D11*
G36*
X185686958Y-67690710D02*
G01*
X185701276Y-67692834D01*
X185715317Y-67696351D01*
X185728946Y-67701228D01*
X185742031Y-67707417D01*
X185754447Y-67714858D01*
X185766073Y-67723481D01*
X185776798Y-67733202D01*
X185786519Y-67743927D01*
X185795142Y-67755553D01*
X185802583Y-67767969D01*
X185808772Y-67781054D01*
X185813649Y-67794683D01*
X185817166Y-67808724D01*
X185819290Y-67823042D01*
X185820000Y-67837500D01*
X185820000Y-68132500D01*
X185819290Y-68146958D01*
X185817166Y-68161276D01*
X185813649Y-68175317D01*
X185808772Y-68188946D01*
X185802583Y-68202031D01*
X185795142Y-68214447D01*
X185786519Y-68226073D01*
X185776798Y-68236798D01*
X185766073Y-68246519D01*
X185754447Y-68255142D01*
X185742031Y-68262583D01*
X185728946Y-68268772D01*
X185715317Y-68273649D01*
X185701276Y-68277166D01*
X185686958Y-68279290D01*
X185672500Y-68280000D01*
X185327500Y-68280000D01*
X185313042Y-68279290D01*
X185298724Y-68277166D01*
X185284683Y-68273649D01*
X185271054Y-68268772D01*
X185257969Y-68262583D01*
X185245553Y-68255142D01*
X185233927Y-68246519D01*
X185223202Y-68236798D01*
X185213481Y-68226073D01*
X185204858Y-68214447D01*
X185197417Y-68202031D01*
X185191228Y-68188946D01*
X185186351Y-68175317D01*
X185182834Y-68161276D01*
X185180710Y-68146958D01*
X185180000Y-68132500D01*
X185180000Y-67837500D01*
X185180710Y-67823042D01*
X185182834Y-67808724D01*
X185186351Y-67794683D01*
X185191228Y-67781054D01*
X185197417Y-67767969D01*
X185204858Y-67755553D01*
X185213481Y-67743927D01*
X185223202Y-67733202D01*
X185233927Y-67723481D01*
X185245553Y-67714858D01*
X185257969Y-67707417D01*
X185271054Y-67701228D01*
X185284683Y-67696351D01*
X185298724Y-67692834D01*
X185313042Y-67690710D01*
X185327500Y-67690000D01*
X185672500Y-67690000D01*
X185686958Y-67690710D01*
X185686958Y-67690710D01*
G37*
D12*
X185500000Y-67985000D03*
D11*
G36*
X185686958Y-66720710D02*
G01*
X185701276Y-66722834D01*
X185715317Y-66726351D01*
X185728946Y-66731228D01*
X185742031Y-66737417D01*
X185754447Y-66744858D01*
X185766073Y-66753481D01*
X185776798Y-66763202D01*
X185786519Y-66773927D01*
X185795142Y-66785553D01*
X185802583Y-66797969D01*
X185808772Y-66811054D01*
X185813649Y-66824683D01*
X185817166Y-66838724D01*
X185819290Y-66853042D01*
X185820000Y-66867500D01*
X185820000Y-67162500D01*
X185819290Y-67176958D01*
X185817166Y-67191276D01*
X185813649Y-67205317D01*
X185808772Y-67218946D01*
X185802583Y-67232031D01*
X185795142Y-67244447D01*
X185786519Y-67256073D01*
X185776798Y-67266798D01*
X185766073Y-67276519D01*
X185754447Y-67285142D01*
X185742031Y-67292583D01*
X185728946Y-67298772D01*
X185715317Y-67303649D01*
X185701276Y-67307166D01*
X185686958Y-67309290D01*
X185672500Y-67310000D01*
X185327500Y-67310000D01*
X185313042Y-67309290D01*
X185298724Y-67307166D01*
X185284683Y-67303649D01*
X185271054Y-67298772D01*
X185257969Y-67292583D01*
X185245553Y-67285142D01*
X185233927Y-67276519D01*
X185223202Y-67266798D01*
X185213481Y-67256073D01*
X185204858Y-67244447D01*
X185197417Y-67232031D01*
X185191228Y-67218946D01*
X185186351Y-67205317D01*
X185182834Y-67191276D01*
X185180710Y-67176958D01*
X185180000Y-67162500D01*
X185180000Y-66867500D01*
X185180710Y-66853042D01*
X185182834Y-66838724D01*
X185186351Y-66824683D01*
X185191228Y-66811054D01*
X185197417Y-66797969D01*
X185204858Y-66785553D01*
X185213481Y-66773927D01*
X185223202Y-66763202D01*
X185233927Y-66753481D01*
X185245553Y-66744858D01*
X185257969Y-66737417D01*
X185271054Y-66731228D01*
X185284683Y-66726351D01*
X185298724Y-66722834D01*
X185313042Y-66720710D01*
X185327500Y-66720000D01*
X185672500Y-66720000D01*
X185686958Y-66720710D01*
X185686958Y-66720710D01*
G37*
D12*
X185500000Y-67015000D03*
D13*
X105650000Y-87050000D03*
D14*
X96400000Y-87050000D03*
X96400000Y-83050000D03*
D13*
X105650000Y-83050000D03*
D15*
X187000000Y-68350000D03*
X187000000Y-66650000D03*
X187700000Y-66650000D03*
X187700000Y-68350000D03*
D13*
X178250000Y-103000000D03*
D14*
X187500000Y-103000000D03*
X187500000Y-107000000D03*
D13*
X178250000Y-107000000D03*
M02*
