G04 #@! TF.GenerationSoftware,KiCad,Pcbnew,5.1.2-f72e74a~84~ubuntu18.04.1*
G04 #@! TF.CreationDate,2019-08-10T16:00:54+02:00*
G04 #@! TF.ProjectId,roboy_2.0_forarm_shield,726f626f-795f-4322-9e30-5f666f726172,rev?*
G04 #@! TF.SameCoordinates,Original*
G04 #@! TF.FileFunction,Legend,Bot*
G04 #@! TF.FilePolarity,Positive*
%FSLAX46Y46*%
G04 Gerber Fmt 4.6, Leading zero omitted, Abs format (unit mm)*
G04 Created by KiCad (PCBNEW 5.1.2-f72e74a~84~ubuntu18.04.1) date 2019-08-10 16:00:54*
%MOMM*%
%LPD*%
G04 APERTURE LIST*
%ADD10C,0.120000*%
%ADD11C,0.150000*%
G04 APERTURE END LIST*
D10*
X181000000Y-96500000D02*
X186000000Y-96500000D01*
X185000000Y-95500000D02*
X189000000Y-95500000D01*
X181500000Y-94000000D02*
X186500000Y-94000000D01*
X185500000Y-93000000D02*
X189500000Y-93000000D01*
X181500000Y-91500000D02*
X186500000Y-91500000D01*
X185500000Y-90000000D02*
X189000000Y-90000000D01*
X181000000Y-89000000D02*
X186500000Y-89000000D01*
X185500000Y-87500000D02*
X189000000Y-87500000D01*
X181500000Y-86500000D02*
X187000000Y-86500000D01*
X185500000Y-85000000D02*
X189000000Y-85000000D01*
X181000000Y-84000000D02*
X186000000Y-84000000D01*
X185000000Y-82500000D02*
X189000000Y-82500000D01*
X181000000Y-81500000D02*
X186000000Y-81500000D01*
X185500000Y-80000000D02*
X189000000Y-80000000D01*
X181500000Y-79000000D02*
X186500000Y-79000000D01*
X185500000Y-77500000D02*
X189000000Y-77500000D01*
X181500000Y-76500000D02*
X186500000Y-76500000D01*
X185500000Y-75000000D02*
X189000000Y-75000000D01*
X181500000Y-74000000D02*
X186000000Y-74000000D01*
D11*
X185000000Y-73000000D02*
X189500000Y-73000000D01*
X180761904Y-96952380D02*
X180761904Y-95952380D01*
X180190476Y-96952380D01*
X180190476Y-95952380D01*
X179571428Y-96380952D02*
X179666666Y-96333333D01*
X179714285Y-96285714D01*
X179761904Y-96190476D01*
X179761904Y-96142857D01*
X179714285Y-96047619D01*
X179666666Y-96000000D01*
X179571428Y-95952380D01*
X179380952Y-95952380D01*
X179285714Y-96000000D01*
X179238095Y-96047619D01*
X179190476Y-96142857D01*
X179190476Y-96190476D01*
X179238095Y-96285714D01*
X179285714Y-96333333D01*
X179380952Y-96380952D01*
X179571428Y-96380952D01*
X179666666Y-96428571D01*
X179714285Y-96476190D01*
X179761904Y-96571428D01*
X179761904Y-96761904D01*
X179714285Y-96857142D01*
X179666666Y-96904761D01*
X179571428Y-96952380D01*
X179380952Y-96952380D01*
X179285714Y-96904761D01*
X179238095Y-96857142D01*
X179190476Y-96761904D01*
X179190476Y-96571428D01*
X179238095Y-96476190D01*
X179285714Y-96428571D01*
X179380952Y-96380952D01*
X184166666Y-95952380D02*
X184642857Y-95952380D01*
X184642857Y-94952380D01*
X183690476Y-95380952D02*
X183785714Y-95333333D01*
X183833333Y-95285714D01*
X183880952Y-95190476D01*
X183880952Y-95142857D01*
X183833333Y-95047619D01*
X183785714Y-95000000D01*
X183690476Y-94952380D01*
X183500000Y-94952380D01*
X183404761Y-95000000D01*
X183357142Y-95047619D01*
X183309523Y-95142857D01*
X183309523Y-95190476D01*
X183357142Y-95285714D01*
X183404761Y-95333333D01*
X183500000Y-95380952D01*
X183690476Y-95380952D01*
X183785714Y-95428571D01*
X183833333Y-95476190D01*
X183880952Y-95571428D01*
X183880952Y-95761904D01*
X183833333Y-95857142D01*
X183785714Y-95904761D01*
X183690476Y-95952380D01*
X183500000Y-95952380D01*
X183404761Y-95904761D01*
X183357142Y-95857142D01*
X183309523Y-95761904D01*
X183309523Y-95571428D01*
X183357142Y-95476190D01*
X183404761Y-95428571D01*
X183500000Y-95380952D01*
X181238095Y-94452380D02*
X181238095Y-93452380D01*
X180666666Y-94452380D01*
X180666666Y-93452380D01*
X179666666Y-94452380D02*
X180238095Y-94452380D01*
X179952380Y-94452380D02*
X179952380Y-93452380D01*
X180047619Y-93595238D01*
X180142857Y-93690476D01*
X180238095Y-93738095D01*
X179285714Y-93547619D02*
X179238095Y-93500000D01*
X179142857Y-93452380D01*
X178904761Y-93452380D01*
X178809523Y-93500000D01*
X178761904Y-93547619D01*
X178714285Y-93642857D01*
X178714285Y-93738095D01*
X178761904Y-93880952D01*
X179333333Y-94452380D01*
X178714285Y-94452380D01*
X185238095Y-92452380D02*
X184666666Y-92452380D01*
X184952380Y-93452380D02*
X184952380Y-92452380D01*
X183809523Y-93452380D02*
X184380952Y-93452380D01*
X184095238Y-93452380D02*
X184095238Y-92452380D01*
X184190476Y-92595238D01*
X184285714Y-92690476D01*
X184380952Y-92738095D01*
X183428571Y-92547619D02*
X183380952Y-92500000D01*
X183285714Y-92452380D01*
X183047619Y-92452380D01*
X182952380Y-92500000D01*
X182904761Y-92547619D01*
X182857142Y-92642857D01*
X182857142Y-92738095D01*
X182904761Y-92880952D01*
X183476190Y-93452380D01*
X182857142Y-93452380D01*
X180642857Y-91952380D02*
X180976190Y-91476190D01*
X181214285Y-91952380D02*
X181214285Y-90952380D01*
X180833333Y-90952380D01*
X180738095Y-91000000D01*
X180690476Y-91047619D01*
X180642857Y-91142857D01*
X180642857Y-91285714D01*
X180690476Y-91380952D01*
X180738095Y-91428571D01*
X180833333Y-91476190D01*
X181214285Y-91476190D01*
X179690476Y-91952380D02*
X180261904Y-91952380D01*
X179976190Y-91952380D02*
X179976190Y-90952380D01*
X180071428Y-91095238D01*
X180166666Y-91190476D01*
X180261904Y-91238095D01*
X179309523Y-91047619D02*
X179261904Y-91000000D01*
X179166666Y-90952380D01*
X178928571Y-90952380D01*
X178833333Y-91000000D01*
X178785714Y-91047619D01*
X178738095Y-91142857D01*
X178738095Y-91238095D01*
X178785714Y-91380952D01*
X179357142Y-91952380D01*
X178738095Y-91952380D01*
X184809523Y-89928571D02*
X185142857Y-89928571D01*
X185142857Y-90452380D02*
X185142857Y-89452380D01*
X184666666Y-89452380D01*
X183761904Y-90452380D02*
X184333333Y-90452380D01*
X184047619Y-90452380D02*
X184047619Y-89452380D01*
X184142857Y-89595238D01*
X184238095Y-89690476D01*
X184333333Y-89738095D01*
X183428571Y-89452380D02*
X182809523Y-89452380D01*
X183142857Y-89833333D01*
X183000000Y-89833333D01*
X182904761Y-89880952D01*
X182857142Y-89928571D01*
X182809523Y-90023809D01*
X182809523Y-90261904D01*
X182857142Y-90357142D01*
X182904761Y-90404761D01*
X183000000Y-90452380D01*
X183285714Y-90452380D01*
X183380952Y-90404761D01*
X183428571Y-90357142D01*
X180761904Y-88452380D02*
X180190476Y-88452380D01*
X180476190Y-89452380D02*
X180476190Y-88452380D01*
X179809523Y-89452380D02*
X179619047Y-89452380D01*
X179523809Y-89404761D01*
X179476190Y-89357142D01*
X179380952Y-89214285D01*
X179333333Y-89023809D01*
X179333333Y-88642857D01*
X179380952Y-88547619D01*
X179428571Y-88500000D01*
X179523809Y-88452380D01*
X179714285Y-88452380D01*
X179809523Y-88500000D01*
X179857142Y-88547619D01*
X179904761Y-88642857D01*
X179904761Y-88880952D01*
X179857142Y-88976190D01*
X179809523Y-89023809D01*
X179714285Y-89071428D01*
X179523809Y-89071428D01*
X179428571Y-89023809D01*
X179380952Y-88976190D01*
X179333333Y-88880952D01*
X184761904Y-87000000D02*
X184857142Y-86952380D01*
X185000000Y-86952380D01*
X185142857Y-87000000D01*
X185238095Y-87095238D01*
X185285714Y-87190476D01*
X185333333Y-87380952D01*
X185333333Y-87523809D01*
X185285714Y-87714285D01*
X185238095Y-87809523D01*
X185142857Y-87904761D01*
X185000000Y-87952380D01*
X184904761Y-87952380D01*
X184761904Y-87904761D01*
X184714285Y-87857142D01*
X184714285Y-87523809D01*
X184904761Y-87523809D01*
X184285714Y-87952380D02*
X184285714Y-86952380D01*
X183714285Y-87952380D01*
X183714285Y-86952380D01*
X183238095Y-87952380D02*
X183238095Y-86952380D01*
X183000000Y-86952380D01*
X182857142Y-87000000D01*
X182761904Y-87095238D01*
X182714285Y-87190476D01*
X182666666Y-87380952D01*
X182666666Y-87523809D01*
X182714285Y-87714285D01*
X182761904Y-87809523D01*
X182857142Y-87904761D01*
X183000000Y-87952380D01*
X183238095Y-87952380D01*
X181214285Y-86952380D02*
X181214285Y-85952380D01*
X180833333Y-85952380D01*
X180738095Y-86000000D01*
X180690476Y-86047619D01*
X180642857Y-86142857D01*
X180642857Y-86285714D01*
X180690476Y-86380952D01*
X180738095Y-86428571D01*
X180833333Y-86476190D01*
X181214285Y-86476190D01*
X179690476Y-86952380D02*
X180261904Y-86952380D01*
X179976190Y-86952380D02*
X179976190Y-85952380D01*
X180071428Y-86095238D01*
X180166666Y-86190476D01*
X180261904Y-86238095D01*
X178833333Y-86285714D02*
X178833333Y-86952380D01*
X179071428Y-85904761D02*
X179309523Y-86619047D01*
X178690476Y-86619047D01*
X184642857Y-85452380D02*
X184976190Y-84976190D01*
X185214285Y-85452380D02*
X185214285Y-84452380D01*
X184833333Y-84452380D01*
X184738095Y-84500000D01*
X184690476Y-84547619D01*
X184642857Y-84642857D01*
X184642857Y-84785714D01*
X184690476Y-84880952D01*
X184738095Y-84928571D01*
X184833333Y-84976190D01*
X185214285Y-84976190D01*
X183690476Y-85452380D02*
X184261904Y-85452380D01*
X183976190Y-85452380D02*
X183976190Y-84452380D01*
X184071428Y-84595238D01*
X184166666Y-84690476D01*
X184261904Y-84738095D01*
X182833333Y-84785714D02*
X182833333Y-85452380D01*
X183071428Y-84404761D02*
X183309523Y-85119047D01*
X182690476Y-85119047D01*
X180166666Y-84452380D02*
X180500000Y-83976190D01*
X180738095Y-84452380D02*
X180738095Y-83452380D01*
X180357142Y-83452380D01*
X180261904Y-83500000D01*
X180214285Y-83547619D01*
X180166666Y-83642857D01*
X180166666Y-83785714D01*
X180214285Y-83880952D01*
X180261904Y-83928571D01*
X180357142Y-83976190D01*
X180738095Y-83976190D01*
X179690476Y-84452380D02*
X179500000Y-84452380D01*
X179404761Y-84404761D01*
X179357142Y-84357142D01*
X179261904Y-84214285D01*
X179214285Y-84023809D01*
X179214285Y-83642857D01*
X179261904Y-83547619D01*
X179309523Y-83500000D01*
X179404761Y-83452380D01*
X179595238Y-83452380D01*
X179690476Y-83500000D01*
X179738095Y-83547619D01*
X179785714Y-83642857D01*
X179785714Y-83880952D01*
X179738095Y-83976190D01*
X179690476Y-84023809D01*
X179595238Y-84071428D01*
X179404761Y-84071428D01*
X179309523Y-84023809D01*
X179261904Y-83976190D01*
X179214285Y-83880952D01*
X184714285Y-82666666D02*
X184238095Y-82666666D01*
X184809523Y-82952380D02*
X184476190Y-81952380D01*
X184142857Y-82952380D01*
X183761904Y-82952380D02*
X183571428Y-82952380D01*
X183476190Y-82904761D01*
X183428571Y-82857142D01*
X183333333Y-82714285D01*
X183285714Y-82523809D01*
X183285714Y-82142857D01*
X183333333Y-82047619D01*
X183380952Y-82000000D01*
X183476190Y-81952380D01*
X183666666Y-81952380D01*
X183761904Y-82000000D01*
X183809523Y-82047619D01*
X183857142Y-82142857D01*
X183857142Y-82380952D01*
X183809523Y-82476190D01*
X183761904Y-82523809D01*
X183666666Y-82571428D01*
X183476190Y-82571428D01*
X183380952Y-82523809D01*
X183333333Y-82476190D01*
X183285714Y-82380952D01*
X180404761Y-81428571D02*
X180261904Y-81476190D01*
X180214285Y-81523809D01*
X180166666Y-81619047D01*
X180166666Y-81761904D01*
X180214285Y-81857142D01*
X180261904Y-81904761D01*
X180357142Y-81952380D01*
X180738095Y-81952380D01*
X180738095Y-80952380D01*
X180404761Y-80952380D01*
X180309523Y-81000000D01*
X180261904Y-81047619D01*
X180214285Y-81142857D01*
X180214285Y-81238095D01*
X180261904Y-81333333D01*
X180309523Y-81380952D01*
X180404761Y-81428571D01*
X180738095Y-81428571D01*
X179690476Y-81952380D02*
X179500000Y-81952380D01*
X179404761Y-81904761D01*
X179357142Y-81857142D01*
X179261904Y-81714285D01*
X179214285Y-81523809D01*
X179214285Y-81142857D01*
X179261904Y-81047619D01*
X179309523Y-81000000D01*
X179404761Y-80952380D01*
X179595238Y-80952380D01*
X179690476Y-81000000D01*
X179738095Y-81047619D01*
X179785714Y-81142857D01*
X179785714Y-81380952D01*
X179738095Y-81476190D01*
X179690476Y-81523809D01*
X179595238Y-81571428D01*
X179404761Y-81571428D01*
X179309523Y-81523809D01*
X179261904Y-81476190D01*
X179214285Y-81380952D01*
X184761904Y-79500000D02*
X184857142Y-79452380D01*
X185000000Y-79452380D01*
X185142857Y-79500000D01*
X185238095Y-79595238D01*
X185285714Y-79690476D01*
X185333333Y-79880952D01*
X185333333Y-80023809D01*
X185285714Y-80214285D01*
X185238095Y-80309523D01*
X185142857Y-80404761D01*
X185000000Y-80452380D01*
X184904761Y-80452380D01*
X184761904Y-80404761D01*
X184714285Y-80357142D01*
X184714285Y-80023809D01*
X184904761Y-80023809D01*
X184285714Y-80452380D02*
X184285714Y-79452380D01*
X183714285Y-80452380D01*
X183714285Y-79452380D01*
X183238095Y-80452380D02*
X183238095Y-79452380D01*
X183000000Y-79452380D01*
X182857142Y-79500000D01*
X182761904Y-79595238D01*
X182714285Y-79690476D01*
X182666666Y-79880952D01*
X182666666Y-80023809D01*
X182714285Y-80214285D01*
X182761904Y-80309523D01*
X182857142Y-80404761D01*
X183000000Y-80452380D01*
X183238095Y-80452380D01*
X181238095Y-78452380D02*
X180666666Y-78452380D01*
X180952380Y-79452380D02*
X180952380Y-78452380D01*
X179809523Y-79452380D02*
X180380952Y-79452380D01*
X180095238Y-79452380D02*
X180095238Y-78452380D01*
X180190476Y-78595238D01*
X180285714Y-78690476D01*
X180380952Y-78738095D01*
X178904761Y-78452380D02*
X179380952Y-78452380D01*
X179428571Y-78928571D01*
X179380952Y-78880952D01*
X179285714Y-78833333D01*
X179047619Y-78833333D01*
X178952380Y-78880952D01*
X178904761Y-78928571D01*
X178857142Y-79023809D01*
X178857142Y-79261904D01*
X178904761Y-79357142D01*
X178952380Y-79404761D01*
X179047619Y-79452380D01*
X179285714Y-79452380D01*
X179380952Y-79404761D01*
X179428571Y-79357142D01*
X185238095Y-76952380D02*
X184666666Y-76952380D01*
X184952380Y-77952380D02*
X184952380Y-76952380D01*
X183809523Y-77952380D02*
X184380952Y-77952380D01*
X184095238Y-77952380D02*
X184095238Y-76952380D01*
X184190476Y-77095238D01*
X184285714Y-77190476D01*
X184380952Y-77238095D01*
X182952380Y-77285714D02*
X182952380Y-77952380D01*
X183190476Y-76904761D02*
X183428571Y-77619047D01*
X182809523Y-77619047D01*
X181214285Y-76952380D02*
X181214285Y-75952380D01*
X180976190Y-75952380D01*
X180833333Y-76000000D01*
X180738095Y-76095238D01*
X180690476Y-76190476D01*
X180642857Y-76380952D01*
X180642857Y-76523809D01*
X180690476Y-76714285D01*
X180738095Y-76809523D01*
X180833333Y-76904761D01*
X180976190Y-76952380D01*
X181214285Y-76952380D01*
X179690476Y-76952380D02*
X180261904Y-76952380D01*
X179976190Y-76952380D02*
X179976190Y-75952380D01*
X180071428Y-76095238D01*
X180166666Y-76190476D01*
X180261904Y-76238095D01*
X178833333Y-75952380D02*
X179023809Y-75952380D01*
X179119047Y-76000000D01*
X179166666Y-76047619D01*
X179261904Y-76190476D01*
X179309523Y-76380952D01*
X179309523Y-76761904D01*
X179261904Y-76857142D01*
X179214285Y-76904761D01*
X179119047Y-76952380D01*
X178928571Y-76952380D01*
X178833333Y-76904761D01*
X178785714Y-76857142D01*
X178738095Y-76761904D01*
X178738095Y-76523809D01*
X178785714Y-76428571D01*
X178833333Y-76380952D01*
X178928571Y-76333333D01*
X179119047Y-76333333D01*
X179214285Y-76380952D01*
X179261904Y-76428571D01*
X179309523Y-76523809D01*
X185214285Y-75452380D02*
X185214285Y-74452380D01*
X184976190Y-74452380D01*
X184833333Y-74500000D01*
X184738095Y-74595238D01*
X184690476Y-74690476D01*
X184642857Y-74880952D01*
X184642857Y-75023809D01*
X184690476Y-75214285D01*
X184738095Y-75309523D01*
X184833333Y-75404761D01*
X184976190Y-75452380D01*
X185214285Y-75452380D01*
X183690476Y-75452380D02*
X184261904Y-75452380D01*
X183976190Y-75452380D02*
X183976190Y-74452380D01*
X184071428Y-74595238D01*
X184166666Y-74690476D01*
X184261904Y-74738095D01*
X182785714Y-74452380D02*
X183261904Y-74452380D01*
X183309523Y-74928571D01*
X183261904Y-74880952D01*
X183166666Y-74833333D01*
X182928571Y-74833333D01*
X182833333Y-74880952D01*
X182785714Y-74928571D01*
X182738095Y-75023809D01*
X182738095Y-75261904D01*
X182785714Y-75357142D01*
X182833333Y-75404761D01*
X182928571Y-75452380D01*
X183166666Y-75452380D01*
X183261904Y-75404761D01*
X183309523Y-75357142D01*
X181476190Y-73452380D02*
X180857142Y-73452380D01*
X181190476Y-73833333D01*
X181047619Y-73833333D01*
X180952380Y-73880952D01*
X180904761Y-73928571D01*
X180857142Y-74023809D01*
X180857142Y-74261904D01*
X180904761Y-74357142D01*
X180952380Y-74404761D01*
X181047619Y-74452380D01*
X181333333Y-74452380D01*
X181428571Y-74404761D01*
X181476190Y-74357142D01*
X180428571Y-74357142D02*
X180380952Y-74404761D01*
X180428571Y-74452380D01*
X180476190Y-74404761D01*
X180428571Y-74357142D01*
X180428571Y-74452380D01*
X180047619Y-73452380D02*
X179428571Y-73452380D01*
X179761904Y-73833333D01*
X179619047Y-73833333D01*
X179523809Y-73880952D01*
X179476190Y-73928571D01*
X179428571Y-74023809D01*
X179428571Y-74261904D01*
X179476190Y-74357142D01*
X179523809Y-74404761D01*
X179619047Y-74452380D01*
X179904761Y-74452380D01*
X180000000Y-74404761D01*
X180047619Y-74357142D01*
X179142857Y-73452380D02*
X178809523Y-74452380D01*
X178476190Y-73452380D01*
X184190476Y-72452380D02*
X184666666Y-72452380D01*
X184714285Y-72928571D01*
X184666666Y-72880952D01*
X184571428Y-72833333D01*
X184333333Y-72833333D01*
X184238095Y-72880952D01*
X184190476Y-72928571D01*
X184142857Y-73023809D01*
X184142857Y-73261904D01*
X184190476Y-73357142D01*
X184238095Y-73404761D01*
X184333333Y-73452380D01*
X184571428Y-73452380D01*
X184666666Y-73404761D01*
X184714285Y-73357142D01*
X183857142Y-72452380D02*
X183523809Y-73452380D01*
X183190476Y-72452380D01*
X110190476Y-86452380D02*
X110666666Y-86452380D01*
X110714285Y-86928571D01*
X110666666Y-86880952D01*
X110571428Y-86833333D01*
X110333333Y-86833333D01*
X110238095Y-86880952D01*
X110190476Y-86928571D01*
X110142857Y-87023809D01*
X110142857Y-87261904D01*
X110190476Y-87357142D01*
X110238095Y-87404761D01*
X110333333Y-87452380D01*
X110571428Y-87452380D01*
X110666666Y-87404761D01*
X110714285Y-87357142D01*
X109857142Y-86452380D02*
X109523809Y-87452380D01*
X109190476Y-86452380D01*
X110761904Y-82500000D02*
X110857142Y-82452380D01*
X111000000Y-82452380D01*
X111142857Y-82500000D01*
X111238095Y-82595238D01*
X111285714Y-82690476D01*
X111333333Y-82880952D01*
X111333333Y-83023809D01*
X111285714Y-83214285D01*
X111238095Y-83309523D01*
X111142857Y-83404761D01*
X111000000Y-83452380D01*
X110904761Y-83452380D01*
X110761904Y-83404761D01*
X110714285Y-83357142D01*
X110714285Y-83023809D01*
X110904761Y-83023809D01*
X110285714Y-83452380D02*
X110285714Y-82452380D01*
X109714285Y-83452380D01*
X109714285Y-82452380D01*
X109238095Y-83452380D02*
X109238095Y-82452380D01*
X109000000Y-82452380D01*
X108857142Y-82500000D01*
X108761904Y-82595238D01*
X108714285Y-82690476D01*
X108666666Y-82880952D01*
X108666666Y-83023809D01*
X108714285Y-83214285D01*
X108761904Y-83309523D01*
X108857142Y-83404761D01*
X109000000Y-83452380D01*
X109238095Y-83452380D01*
X175190476Y-102452380D02*
X175666666Y-102452380D01*
X175714285Y-102928571D01*
X175666666Y-102880952D01*
X175571428Y-102833333D01*
X175333333Y-102833333D01*
X175238095Y-102880952D01*
X175190476Y-102928571D01*
X175142857Y-103023809D01*
X175142857Y-103261904D01*
X175190476Y-103357142D01*
X175238095Y-103404761D01*
X175333333Y-103452380D01*
X175571428Y-103452380D01*
X175666666Y-103404761D01*
X175714285Y-103357142D01*
X174857142Y-102452380D02*
X174523809Y-103452380D01*
X174190476Y-102452380D01*
X174761904Y-106500000D02*
X174857142Y-106452380D01*
X175000000Y-106452380D01*
X175142857Y-106500000D01*
X175238095Y-106595238D01*
X175285714Y-106690476D01*
X175333333Y-106880952D01*
X175333333Y-107023809D01*
X175285714Y-107214285D01*
X175238095Y-107309523D01*
X175142857Y-107404761D01*
X175000000Y-107452380D01*
X174904761Y-107452380D01*
X174761904Y-107404761D01*
X174714285Y-107357142D01*
X174714285Y-107023809D01*
X174904761Y-107023809D01*
X174285714Y-107452380D02*
X174285714Y-106452380D01*
X173714285Y-107452380D01*
X173714285Y-106452380D01*
X173238095Y-107452380D02*
X173238095Y-106452380D01*
X173000000Y-106452380D01*
X172857142Y-106500000D01*
X172761904Y-106595238D01*
X172714285Y-106690476D01*
X172666666Y-106880952D01*
X172666666Y-107023809D01*
X172714285Y-107214285D01*
X172761904Y-107309523D01*
X172857142Y-107404761D01*
X173000000Y-107452380D01*
X173238095Y-107452380D01*
X153809523Y-88452380D02*
X153809523Y-87785714D01*
X153809523Y-87976190D02*
X153761904Y-87880952D01*
X153714285Y-87833333D01*
X153619047Y-87785714D01*
X153523809Y-87785714D01*
X153047619Y-88452380D02*
X153142857Y-88404761D01*
X153190476Y-88357142D01*
X153238095Y-88261904D01*
X153238095Y-87976190D01*
X153190476Y-87880952D01*
X153142857Y-87833333D01*
X153047619Y-87785714D01*
X152904761Y-87785714D01*
X152809523Y-87833333D01*
X152761904Y-87880952D01*
X152714285Y-87976190D01*
X152714285Y-88261904D01*
X152761904Y-88357142D01*
X152809523Y-88404761D01*
X152904761Y-88452380D01*
X153047619Y-88452380D01*
X152285714Y-88452380D02*
X152285714Y-87452380D01*
X152285714Y-87833333D02*
X152190476Y-87785714D01*
X152000000Y-87785714D01*
X151904761Y-87833333D01*
X151857142Y-87880952D01*
X151809523Y-87976190D01*
X151809523Y-88261904D01*
X151857142Y-88357142D01*
X151904761Y-88404761D01*
X152000000Y-88452380D01*
X152190476Y-88452380D01*
X152285714Y-88404761D01*
X151238095Y-88452380D02*
X151333333Y-88404761D01*
X151380952Y-88357142D01*
X151428571Y-88261904D01*
X151428571Y-87976190D01*
X151380952Y-87880952D01*
X151333333Y-87833333D01*
X151238095Y-87785714D01*
X151095238Y-87785714D01*
X151000000Y-87833333D01*
X150952380Y-87880952D01*
X150904761Y-87976190D01*
X150904761Y-88261904D01*
X150952380Y-88357142D01*
X151000000Y-88404761D01*
X151095238Y-88452380D01*
X151238095Y-88452380D01*
X150571428Y-87785714D02*
X150333333Y-88452380D01*
X150095238Y-87785714D02*
X150333333Y-88452380D01*
X150428571Y-88690476D01*
X150476190Y-88738095D01*
X150571428Y-88785714D01*
X149952380Y-88547619D02*
X149190476Y-88547619D01*
X149000000Y-87547619D02*
X148952380Y-87500000D01*
X148857142Y-87452380D01*
X148619047Y-87452380D01*
X148523809Y-87500000D01*
X148476190Y-87547619D01*
X148428571Y-87642857D01*
X148428571Y-87738095D01*
X148476190Y-87880952D01*
X149047619Y-88452380D01*
X148428571Y-88452380D01*
X148000000Y-88357142D02*
X147952380Y-88404761D01*
X148000000Y-88452380D01*
X148047619Y-88404761D01*
X148000000Y-88357142D01*
X148000000Y-88452380D01*
X147333333Y-87452380D02*
X147238095Y-87452380D01*
X147142857Y-87500000D01*
X147095238Y-87547619D01*
X147047619Y-87642857D01*
X147000000Y-87833333D01*
X147000000Y-88071428D01*
X147047619Y-88261904D01*
X147095238Y-88357142D01*
X147142857Y-88404761D01*
X147238095Y-88452380D01*
X147333333Y-88452380D01*
X147428571Y-88404761D01*
X147476190Y-88357142D01*
X147523809Y-88261904D01*
X147571428Y-88071428D01*
X147571428Y-87833333D01*
X147523809Y-87642857D01*
X147476190Y-87547619D01*
X147428571Y-87500000D01*
X147333333Y-87452380D01*
X146809523Y-88547619D02*
X146047619Y-88547619D01*
X145952380Y-87785714D02*
X145571428Y-87785714D01*
X145809523Y-88452380D02*
X145809523Y-87595238D01*
X145761904Y-87500000D01*
X145666666Y-87452380D01*
X145571428Y-87452380D01*
X145095238Y-88452380D02*
X145190476Y-88404761D01*
X145238095Y-88357142D01*
X145285714Y-88261904D01*
X145285714Y-87976190D01*
X145238095Y-87880952D01*
X145190476Y-87833333D01*
X145095238Y-87785714D01*
X144952380Y-87785714D01*
X144857142Y-87833333D01*
X144809523Y-87880952D01*
X144761904Y-87976190D01*
X144761904Y-88261904D01*
X144809523Y-88357142D01*
X144857142Y-88404761D01*
X144952380Y-88452380D01*
X145095238Y-88452380D01*
X144333333Y-88452380D02*
X144333333Y-87785714D01*
X144333333Y-87976190D02*
X144285714Y-87880952D01*
X144238095Y-87833333D01*
X144142857Y-87785714D01*
X144047619Y-87785714D01*
X143285714Y-88452380D02*
X143285714Y-87928571D01*
X143333333Y-87833333D01*
X143428571Y-87785714D01*
X143619047Y-87785714D01*
X143714285Y-87833333D01*
X143285714Y-88404761D02*
X143380952Y-88452380D01*
X143619047Y-88452380D01*
X143714285Y-88404761D01*
X143761904Y-88309523D01*
X143761904Y-88214285D01*
X143714285Y-88119047D01*
X143619047Y-88071428D01*
X143380952Y-88071428D01*
X143285714Y-88023809D01*
X142809523Y-88452380D02*
X142809523Y-87785714D01*
X142809523Y-87976190D02*
X142761904Y-87880952D01*
X142714285Y-87833333D01*
X142619047Y-87785714D01*
X142523809Y-87785714D01*
X142190476Y-88452380D02*
X142190476Y-87785714D01*
X142190476Y-87880952D02*
X142142857Y-87833333D01*
X142047619Y-87785714D01*
X141904761Y-87785714D01*
X141809523Y-87833333D01*
X141761904Y-87928571D01*
X141761904Y-88452380D01*
X141761904Y-87928571D02*
X141714285Y-87833333D01*
X141619047Y-87785714D01*
X141476190Y-87785714D01*
X141380952Y-87833333D01*
X141333333Y-87928571D01*
X141333333Y-88452380D01*
X141095238Y-88547619D02*
X140333333Y-88547619D01*
X140142857Y-88404761D02*
X140047619Y-88452380D01*
X139857142Y-88452380D01*
X139761904Y-88404761D01*
X139714285Y-88309523D01*
X139714285Y-88261904D01*
X139761904Y-88166666D01*
X139857142Y-88119047D01*
X140000000Y-88119047D01*
X140095238Y-88071428D01*
X140142857Y-87976190D01*
X140142857Y-87928571D01*
X140095238Y-87833333D01*
X140000000Y-87785714D01*
X139857142Y-87785714D01*
X139761904Y-87833333D01*
X139285714Y-88452380D02*
X139285714Y-87452380D01*
X138857142Y-88452380D02*
X138857142Y-87928571D01*
X138904761Y-87833333D01*
X139000000Y-87785714D01*
X139142857Y-87785714D01*
X139238095Y-87833333D01*
X139285714Y-87880952D01*
X138380952Y-88452380D02*
X138380952Y-87785714D01*
X138380952Y-87452380D02*
X138428571Y-87500000D01*
X138380952Y-87547619D01*
X138333333Y-87500000D01*
X138380952Y-87452380D01*
X138380952Y-87547619D01*
X137523809Y-88404761D02*
X137619047Y-88452380D01*
X137809523Y-88452380D01*
X137904761Y-88404761D01*
X137952380Y-88309523D01*
X137952380Y-87928571D01*
X137904761Y-87833333D01*
X137809523Y-87785714D01*
X137619047Y-87785714D01*
X137523809Y-87833333D01*
X137476190Y-87928571D01*
X137476190Y-88023809D01*
X137952380Y-88119047D01*
X136904761Y-88452380D02*
X137000000Y-88404761D01*
X137047619Y-88309523D01*
X137047619Y-87452380D01*
X136095238Y-88452380D02*
X136095238Y-87452380D01*
X136095238Y-88404761D02*
X136190476Y-88452380D01*
X136380952Y-88452380D01*
X136476190Y-88404761D01*
X136523809Y-88357142D01*
X136571428Y-88261904D01*
X136571428Y-87976190D01*
X136523809Y-87880952D01*
X136476190Y-87833333D01*
X136380952Y-87785714D01*
X136190476Y-87785714D01*
X136095238Y-87833333D01*
X135857142Y-88547619D02*
X135095238Y-88547619D01*
X134952380Y-87785714D02*
X134714285Y-88452380D01*
X134476190Y-87785714D01*
X133904761Y-87452380D02*
X133809523Y-87452380D01*
X133714285Y-87500000D01*
X133666666Y-87547619D01*
X133619047Y-87642857D01*
X133571428Y-87833333D01*
X133571428Y-88071428D01*
X133619047Y-88261904D01*
X133666666Y-88357142D01*
X133714285Y-88404761D01*
X133809523Y-88452380D01*
X133904761Y-88452380D01*
X134000000Y-88404761D01*
X134047619Y-88357142D01*
X134095238Y-88261904D01*
X134142857Y-88071428D01*
X134142857Y-87833333D01*
X134095238Y-87642857D01*
X134047619Y-87547619D01*
X134000000Y-87500000D01*
X133904761Y-87452380D01*
X133142857Y-88357142D02*
X133095238Y-88404761D01*
X133142857Y-88452380D01*
X133190476Y-88404761D01*
X133142857Y-88357142D01*
X133142857Y-88452380D01*
X132142857Y-88452380D02*
X132714285Y-88452380D01*
X132428571Y-88452380D02*
X132428571Y-87452380D01*
X132523809Y-87595238D01*
X132619047Y-87690476D01*
X132714285Y-87738095D01*
D10*
X129550000Y-88685000D02*
X129550000Y-91800000D01*
X129550000Y-91800000D02*
X123950000Y-91800000D01*
X123950000Y-84300000D02*
X123950000Y-91800000D01*
X125480000Y-84300000D02*
X123950000Y-84300000D01*
X126750000Y-85545000D02*
X126750000Y-87415000D01*
X126750000Y-87415000D02*
X128620000Y-87415000D01*
X129550000Y-86145000D02*
X129550000Y-84300000D01*
X129550000Y-84300000D02*
X128020000Y-84300000D01*
X119230000Y-87140000D02*
X119230000Y-92825000D01*
X119230000Y-92825000D02*
X113630000Y-92825000D01*
X113630000Y-82725000D02*
X113630000Y-92825000D01*
X115160000Y-82725000D02*
X113630000Y-82725000D01*
X116430000Y-84000000D02*
X116430000Y-85870000D01*
X116430000Y-85870000D02*
X118300000Y-85870000D01*
X119230000Y-84600000D02*
X119230000Y-82725000D01*
X119230000Y-82725000D02*
X117700000Y-82725000D01*
X96800000Y-99300000D02*
X98330000Y-99300000D01*
X96800000Y-97455000D02*
X96800000Y-99300000D01*
X99600000Y-96185000D02*
X97730000Y-96185000D01*
X99600000Y-98055000D02*
X99600000Y-96185000D01*
X100870000Y-99300000D02*
X102400000Y-99300000D01*
X102400000Y-99300000D02*
X102400000Y-91800000D01*
X96800000Y-91800000D02*
X102400000Y-91800000D01*
X96800000Y-94915000D02*
X96800000Y-91800000D01*
X106550000Y-94915000D02*
X106550000Y-91800000D01*
X106550000Y-91800000D02*
X112150000Y-91800000D01*
X112150000Y-99300000D02*
X112150000Y-91800000D01*
X110620000Y-99300000D02*
X112150000Y-99300000D01*
X109350000Y-98055000D02*
X109350000Y-96185000D01*
X109350000Y-96185000D02*
X107480000Y-96185000D01*
X106550000Y-97455000D02*
X106550000Y-99300000D01*
X106550000Y-99300000D02*
X108080000Y-99300000D01*
D11*
X95900000Y-89050000D02*
X95900000Y-88450000D01*
X95900000Y-84450000D02*
X95900000Y-85650000D01*
X95900000Y-81050000D02*
X95900000Y-81650000D01*
X92900000Y-89050000D02*
X92900000Y-81050000D01*
X92900000Y-81050000D02*
X107900000Y-81050000D01*
X107900000Y-81050000D02*
X107900000Y-89050000D01*
X107900000Y-89050000D02*
X92900000Y-89050000D01*
D10*
X190530000Y-75040000D02*
X190550000Y-98150000D01*
X190550000Y-98165000D02*
X184950000Y-98165000D01*
X184930000Y-70665000D02*
X184950000Y-98150000D01*
X186460000Y-70665000D02*
X184930000Y-70665000D01*
X187730000Y-71900000D02*
X187730000Y-73770000D01*
X187730000Y-73770000D02*
X189600000Y-73770000D01*
X190530000Y-72500000D02*
X190530000Y-70665000D01*
X190530000Y-70665000D02*
X189000000Y-70665000D01*
D11*
X186200000Y-69300000D02*
X186700000Y-69300000D01*
X186200000Y-68800000D02*
X186200000Y-69300000D01*
X190800000Y-69300000D02*
X190300000Y-69300000D01*
X190800000Y-69300000D02*
X190800000Y-68800000D01*
X190800000Y-65700000D02*
X190800000Y-66200000D01*
X190800000Y-65700000D02*
X190300000Y-65700000D01*
X186200000Y-65700000D02*
X186700000Y-65700000D01*
X186200000Y-65700000D02*
X186200000Y-66200000D01*
X186200000Y-68800000D02*
X186700000Y-69300000D01*
X188000000Y-101000000D02*
X188000000Y-101600000D01*
X188000000Y-105600000D02*
X188000000Y-104400000D01*
X188000000Y-109000000D02*
X188000000Y-108400000D01*
X191000000Y-101000000D02*
X191000000Y-109000000D01*
X191000000Y-109000000D02*
X176000000Y-109000000D01*
X176000000Y-109000000D02*
X176000000Y-101000000D01*
X176000000Y-101000000D02*
X191000000Y-101000000D01*
X187027142Y-66857142D02*
X187074761Y-66809523D01*
X187122380Y-66666666D01*
X187122380Y-66571428D01*
X187074761Y-66428571D01*
X186979523Y-66333333D01*
X186884285Y-66285714D01*
X186693809Y-66238095D01*
X186550952Y-66238095D01*
X186360476Y-66285714D01*
X186265238Y-66333333D01*
X186170000Y-66428571D01*
X186122380Y-66571428D01*
X186122380Y-66666666D01*
X186170000Y-66809523D01*
X186217619Y-66857142D01*
X186217619Y-67238095D02*
X186170000Y-67285714D01*
X186122380Y-67380952D01*
X186122380Y-67619047D01*
X186170000Y-67714285D01*
X186217619Y-67761904D01*
X186312857Y-67809523D01*
X186408095Y-67809523D01*
X186550952Y-67761904D01*
X187122380Y-67190476D01*
X187122380Y-67809523D01*
X187122380Y-68761904D02*
X187122380Y-68190476D01*
X187122380Y-68476190D02*
X186122380Y-68476190D01*
X186265238Y-68380952D01*
X186360476Y-68285714D01*
X186408095Y-68190476D01*
M02*
