G04 #@! TF.GenerationSoftware,KiCad,Pcbnew,5.1.2-f72e74a~84~ubuntu18.04.1*
G04 #@! TF.CreationDate,2019-08-10T16:00:54+02:00*
G04 #@! TF.ProjectId,roboy_2.0_forarm_shield,726f626f-795f-4322-9e30-5f666f726172,rev?*
G04 #@! TF.SameCoordinates,Original*
G04 #@! TF.FileFunction,Legend,Top*
G04 #@! TF.FilePolarity,Positive*
%FSLAX46Y46*%
G04 Gerber Fmt 4.6, Leading zero omitted, Abs format (unit mm)*
G04 Created by KiCad (PCBNEW 5.1.2-f72e74a~84~ubuntu18.04.1) date 2019-08-10 16:00:54*
%MOMM*%
%LPD*%
G04 APERTURE LIST*
%ADD10C,0.010000*%
%ADD11C,0.060000*%
%ADD12C,0.127000*%
%ADD13C,0.200000*%
%ADD14C,0.120000*%
%ADD15C,0.150000*%
G04 APERTURE END LIST*
D10*
G36*
X187918423Y-106401777D02*
G01*
X187956263Y-106405066D01*
X187976759Y-106408897D01*
X188028390Y-106425874D01*
X188073060Y-106449654D01*
X188110646Y-106479527D01*
X188141024Y-106514781D01*
X188164071Y-106554703D01*
X188179661Y-106598583D01*
X188187672Y-106645708D01*
X188187980Y-106695366D01*
X188180461Y-106746846D01*
X188164990Y-106799436D01*
X188141445Y-106852424D01*
X188109701Y-106905099D01*
X188071669Y-106954398D01*
X188022024Y-107005506D01*
X187967034Y-107050255D01*
X187907863Y-107088142D01*
X187845678Y-107118666D01*
X187781645Y-107141325D01*
X187716929Y-107155617D01*
X187652695Y-107161041D01*
X187598218Y-107158169D01*
X187543393Y-107147107D01*
X187494297Y-107128036D01*
X187451371Y-107101148D01*
X187432887Y-107085333D01*
X187401140Y-107051436D01*
X187378000Y-107016962D01*
X187362118Y-106979320D01*
X187352141Y-106935916D01*
X187350986Y-106928145D01*
X187348426Y-106873755D01*
X187355286Y-106818691D01*
X187370934Y-106763752D01*
X187384275Y-106733475D01*
X187749164Y-106733475D01*
X187751545Y-106755112D01*
X187764506Y-106799304D01*
X187785689Y-106838657D01*
X187814198Y-106872122D01*
X187849137Y-106898653D01*
X187889610Y-106917204D01*
X187890453Y-106917481D01*
X187910411Y-106921460D01*
X187937461Y-106923152D01*
X187955684Y-106922976D01*
X187979938Y-106921571D01*
X187998324Y-106918634D01*
X188015122Y-106913176D01*
X188032690Y-106905155D01*
X188069679Y-106881788D01*
X188100282Y-106851948D01*
X188123754Y-106817048D01*
X188139349Y-106778504D01*
X188146322Y-106737728D01*
X188143925Y-106696134D01*
X188143670Y-106694722D01*
X188130966Y-106652824D01*
X188109644Y-106614438D01*
X188080985Y-106581215D01*
X188046270Y-106554806D01*
X188027445Y-106544858D01*
X187997518Y-106535350D01*
X187962396Y-106530786D01*
X187925790Y-106531225D01*
X187891413Y-106536724D01*
X187873531Y-106542426D01*
X187838383Y-106561486D01*
X187807691Y-106587944D01*
X187782440Y-106620087D01*
X187763613Y-106656199D01*
X187752193Y-106694567D01*
X187749164Y-106733475D01*
X187384275Y-106733475D01*
X187394736Y-106709736D01*
X187426061Y-106657441D01*
X187464274Y-106607666D01*
X187508745Y-106561207D01*
X187558840Y-106518864D01*
X187613926Y-106481434D01*
X187673370Y-106449716D01*
X187736541Y-106424507D01*
X187754886Y-106418701D01*
X187791263Y-106410238D01*
X187832757Y-106404503D01*
X187876199Y-106401636D01*
X187918423Y-106401777D01*
X187918423Y-106401777D01*
G37*
X187918423Y-106401777D02*
X187956263Y-106405066D01*
X187976759Y-106408897D01*
X188028390Y-106425874D01*
X188073060Y-106449654D01*
X188110646Y-106479527D01*
X188141024Y-106514781D01*
X188164071Y-106554703D01*
X188179661Y-106598583D01*
X188187672Y-106645708D01*
X188187980Y-106695366D01*
X188180461Y-106746846D01*
X188164990Y-106799436D01*
X188141445Y-106852424D01*
X188109701Y-106905099D01*
X188071669Y-106954398D01*
X188022024Y-107005506D01*
X187967034Y-107050255D01*
X187907863Y-107088142D01*
X187845678Y-107118666D01*
X187781645Y-107141325D01*
X187716929Y-107155617D01*
X187652695Y-107161041D01*
X187598218Y-107158169D01*
X187543393Y-107147107D01*
X187494297Y-107128036D01*
X187451371Y-107101148D01*
X187432887Y-107085333D01*
X187401140Y-107051436D01*
X187378000Y-107016962D01*
X187362118Y-106979320D01*
X187352141Y-106935916D01*
X187350986Y-106928145D01*
X187348426Y-106873755D01*
X187355286Y-106818691D01*
X187370934Y-106763752D01*
X187384275Y-106733475D01*
X187749164Y-106733475D01*
X187751545Y-106755112D01*
X187764506Y-106799304D01*
X187785689Y-106838657D01*
X187814198Y-106872122D01*
X187849137Y-106898653D01*
X187889610Y-106917204D01*
X187890453Y-106917481D01*
X187910411Y-106921460D01*
X187937461Y-106923152D01*
X187955684Y-106922976D01*
X187979938Y-106921571D01*
X187998324Y-106918634D01*
X188015122Y-106913176D01*
X188032690Y-106905155D01*
X188069679Y-106881788D01*
X188100282Y-106851948D01*
X188123754Y-106817048D01*
X188139349Y-106778504D01*
X188146322Y-106737728D01*
X188143925Y-106696134D01*
X188143670Y-106694722D01*
X188130966Y-106652824D01*
X188109644Y-106614438D01*
X188080985Y-106581215D01*
X188046270Y-106554806D01*
X188027445Y-106544858D01*
X187997518Y-106535350D01*
X187962396Y-106530786D01*
X187925790Y-106531225D01*
X187891413Y-106536724D01*
X187873531Y-106542426D01*
X187838383Y-106561486D01*
X187807691Y-106587944D01*
X187782440Y-106620087D01*
X187763613Y-106656199D01*
X187752193Y-106694567D01*
X187749164Y-106733475D01*
X187384275Y-106733475D01*
X187394736Y-106709736D01*
X187426061Y-106657441D01*
X187464274Y-106607666D01*
X187508745Y-106561207D01*
X187558840Y-106518864D01*
X187613926Y-106481434D01*
X187673370Y-106449716D01*
X187736541Y-106424507D01*
X187754886Y-106418701D01*
X187791263Y-106410238D01*
X187832757Y-106404503D01*
X187876199Y-106401636D01*
X187918423Y-106401777D01*
G36*
X186293665Y-106592400D02*
G01*
X186311199Y-106594815D01*
X186327879Y-106600076D01*
X186346678Y-106608404D01*
X186396544Y-106636810D01*
X186446028Y-106674026D01*
X186494186Y-106718713D01*
X186540077Y-106769536D01*
X186582757Y-106825158D01*
X186621285Y-106884244D01*
X186654717Y-106945456D01*
X186682112Y-107007459D01*
X186702526Y-107068917D01*
X186715018Y-107128492D01*
X186715381Y-107131129D01*
X186718149Y-107174196D01*
X186714456Y-107212257D01*
X186704593Y-107244427D01*
X186688853Y-107269822D01*
X186667525Y-107287556D01*
X186663187Y-107289832D01*
X186635219Y-107298318D01*
X186603409Y-107299581D01*
X186571189Y-107293488D01*
X186570740Y-107293346D01*
X186527203Y-107275057D01*
X186482270Y-107247842D01*
X186436881Y-107212665D01*
X186391976Y-107170487D01*
X186348495Y-107122272D01*
X186307378Y-107068982D01*
X186269565Y-107011579D01*
X186235996Y-106951026D01*
X186235540Y-106950119D01*
X186210181Y-106895845D01*
X186201711Y-106873574D01*
X186355284Y-106873574D01*
X186355543Y-106901315D01*
X186358121Y-106929311D01*
X186362567Y-106952702D01*
X186372407Y-106982865D01*
X186386999Y-107017156D01*
X186404535Y-107051944D01*
X186423208Y-107083596D01*
X186438382Y-107105022D01*
X186469895Y-107140806D01*
X186501152Y-107168895D01*
X186531506Y-107189000D01*
X186560309Y-107200834D01*
X186586913Y-107204109D01*
X186610670Y-107198538D01*
X186626133Y-107188466D01*
X186640767Y-107171999D01*
X186650019Y-107152003D01*
X186654606Y-107126313D01*
X186655402Y-107100316D01*
X186651584Y-107061085D01*
X186641587Y-107020767D01*
X186626265Y-106980451D01*
X186606466Y-106941228D01*
X186583042Y-106904188D01*
X186556844Y-106870421D01*
X186528723Y-106841018D01*
X186499529Y-106817069D01*
X186470113Y-106799664D01*
X186441326Y-106789894D01*
X186414019Y-106788849D01*
X186412521Y-106789075D01*
X186390226Y-106797610D01*
X186371870Y-106814429D01*
X186361805Y-106831686D01*
X186357365Y-106849295D01*
X186355284Y-106873574D01*
X186201711Y-106873574D01*
X186191505Y-106846742D01*
X186178956Y-106800850D01*
X186171980Y-106756209D01*
X186170024Y-106718820D01*
X186170147Y-106693734D01*
X186171356Y-106675780D01*
X186174108Y-106661950D01*
X186178861Y-106649235D01*
X186181443Y-106643751D01*
X186192212Y-106626421D01*
X186205671Y-106610733D01*
X186211471Y-106605651D01*
X186221774Y-106598608D01*
X186231873Y-106594452D01*
X186244939Y-106592443D01*
X186264145Y-106591838D01*
X186270641Y-106591820D01*
X186293665Y-106592400D01*
X186293665Y-106592400D01*
G37*
X186293665Y-106592400D02*
X186311199Y-106594815D01*
X186327879Y-106600076D01*
X186346678Y-106608404D01*
X186396544Y-106636810D01*
X186446028Y-106674026D01*
X186494186Y-106718713D01*
X186540077Y-106769536D01*
X186582757Y-106825158D01*
X186621285Y-106884244D01*
X186654717Y-106945456D01*
X186682112Y-107007459D01*
X186702526Y-107068917D01*
X186715018Y-107128492D01*
X186715381Y-107131129D01*
X186718149Y-107174196D01*
X186714456Y-107212257D01*
X186704593Y-107244427D01*
X186688853Y-107269822D01*
X186667525Y-107287556D01*
X186663187Y-107289832D01*
X186635219Y-107298318D01*
X186603409Y-107299581D01*
X186571189Y-107293488D01*
X186570740Y-107293346D01*
X186527203Y-107275057D01*
X186482270Y-107247842D01*
X186436881Y-107212665D01*
X186391976Y-107170487D01*
X186348495Y-107122272D01*
X186307378Y-107068982D01*
X186269565Y-107011579D01*
X186235996Y-106951026D01*
X186235540Y-106950119D01*
X186210181Y-106895845D01*
X186201711Y-106873574D01*
X186355284Y-106873574D01*
X186355543Y-106901315D01*
X186358121Y-106929311D01*
X186362567Y-106952702D01*
X186372407Y-106982865D01*
X186386999Y-107017156D01*
X186404535Y-107051944D01*
X186423208Y-107083596D01*
X186438382Y-107105022D01*
X186469895Y-107140806D01*
X186501152Y-107168895D01*
X186531506Y-107189000D01*
X186560309Y-107200834D01*
X186586913Y-107204109D01*
X186610670Y-107198538D01*
X186626133Y-107188466D01*
X186640767Y-107171999D01*
X186650019Y-107152003D01*
X186654606Y-107126313D01*
X186655402Y-107100316D01*
X186651584Y-107061085D01*
X186641587Y-107020767D01*
X186626265Y-106980451D01*
X186606466Y-106941228D01*
X186583042Y-106904188D01*
X186556844Y-106870421D01*
X186528723Y-106841018D01*
X186499529Y-106817069D01*
X186470113Y-106799664D01*
X186441326Y-106789894D01*
X186414019Y-106788849D01*
X186412521Y-106789075D01*
X186390226Y-106797610D01*
X186371870Y-106814429D01*
X186361805Y-106831686D01*
X186357365Y-106849295D01*
X186355284Y-106873574D01*
X186201711Y-106873574D01*
X186191505Y-106846742D01*
X186178956Y-106800850D01*
X186171980Y-106756209D01*
X186170024Y-106718820D01*
X186170147Y-106693734D01*
X186171356Y-106675780D01*
X186174108Y-106661950D01*
X186178861Y-106649235D01*
X186181443Y-106643751D01*
X186192212Y-106626421D01*
X186205671Y-106610733D01*
X186211471Y-106605651D01*
X186221774Y-106598608D01*
X186231873Y-106594452D01*
X186244939Y-106592443D01*
X186264145Y-106591838D01*
X186270641Y-106591820D01*
X186293665Y-106592400D01*
D11*
G36*
X187624692Y-108031830D02*
G01*
X187628884Y-108037238D01*
X187629842Y-108045434D01*
X187625424Y-108050854D01*
X187613375Y-108058710D01*
X187595655Y-108068093D01*
X187574225Y-108078090D01*
X187551046Y-108087791D01*
X187528078Y-108096284D01*
X187507282Y-108102659D01*
X187505917Y-108103013D01*
X187462856Y-108110486D01*
X187414361Y-108112860D01*
X187363785Y-108110138D01*
X187317500Y-108102965D01*
X187290200Y-108097186D01*
X187271309Y-108092973D01*
X187259286Y-108089840D01*
X187252588Y-108087302D01*
X187249673Y-108084876D01*
X187248999Y-108082076D01*
X187248997Y-108081433D01*
X187250026Y-108073727D01*
X187253898Y-108069084D01*
X187262140Y-108067369D01*
X187276276Y-108068449D01*
X187297832Y-108072190D01*
X187314960Y-108075657D01*
X187373922Y-108085109D01*
X187427388Y-108087441D01*
X187477312Y-108082442D01*
X187525646Y-108069901D01*
X187574342Y-108049609D01*
X187579221Y-108047188D01*
X187601207Y-108036758D01*
X187615915Y-108031654D01*
X187624692Y-108031830D01*
X187624692Y-108031830D01*
G37*
X187624692Y-108031830D02*
X187628884Y-108037238D01*
X187629842Y-108045434D01*
X187625424Y-108050854D01*
X187613375Y-108058710D01*
X187595655Y-108068093D01*
X187574225Y-108078090D01*
X187551046Y-108087791D01*
X187528078Y-108096284D01*
X187507282Y-108102659D01*
X187505917Y-108103013D01*
X187462856Y-108110486D01*
X187414361Y-108112860D01*
X187363785Y-108110138D01*
X187317500Y-108102965D01*
X187290200Y-108097186D01*
X187271309Y-108092973D01*
X187259286Y-108089840D01*
X187252588Y-108087302D01*
X187249673Y-108084876D01*
X187248999Y-108082076D01*
X187248997Y-108081433D01*
X187250026Y-108073727D01*
X187253898Y-108069084D01*
X187262140Y-108067369D01*
X187276276Y-108068449D01*
X187297832Y-108072190D01*
X187314960Y-108075657D01*
X187373922Y-108085109D01*
X187427388Y-108087441D01*
X187477312Y-108082442D01*
X187525646Y-108069901D01*
X187574342Y-108049609D01*
X187579221Y-108047188D01*
X187601207Y-108036758D01*
X187615915Y-108031654D01*
X187624692Y-108031830D01*
D10*
G36*
X189178201Y-105229738D02*
G01*
X189198348Y-105231965D01*
X189215863Y-105235564D01*
X189231188Y-105241308D01*
X189244766Y-105249971D01*
X189257039Y-105262324D01*
X189268450Y-105279140D01*
X189279440Y-105301193D01*
X189290453Y-105329255D01*
X189301931Y-105364099D01*
X189314316Y-105406498D01*
X189328050Y-105457225D01*
X189343577Y-105517052D01*
X189344299Y-105519867D01*
X189361506Y-105592474D01*
X189375540Y-105664276D01*
X189386689Y-105737443D01*
X189395238Y-105814150D01*
X189401474Y-105896569D01*
X189405609Y-105984760D01*
X189406717Y-106018405D01*
X189407222Y-106044525D01*
X189406933Y-106065749D01*
X189405658Y-106084703D01*
X189403208Y-106104014D01*
X189399391Y-106126309D01*
X189394016Y-106154217D01*
X189392872Y-106160020D01*
X189376391Y-106238711D01*
X189358865Y-106313406D01*
X189340546Y-106383339D01*
X189321687Y-106447741D01*
X189302541Y-106505845D01*
X189283359Y-106556882D01*
X189264394Y-106600085D01*
X189245900Y-106634686D01*
X189228657Y-106659293D01*
X189217953Y-106672749D01*
X189203677Y-106691717D01*
X189187975Y-106713311D01*
X189177487Y-106728152D01*
X189151986Y-106762275D01*
X189128222Y-106789201D01*
X189106922Y-106808184D01*
X189089823Y-106818106D01*
X189077848Y-106820698D01*
X189060149Y-106822358D01*
X189045639Y-106822712D01*
X189029049Y-106821866D01*
X189013769Y-106819024D01*
X188996746Y-106813303D01*
X188974929Y-106803818D01*
X188965960Y-106799618D01*
X188943192Y-106787894D01*
X188921706Y-106775181D01*
X188904652Y-106763418D01*
X188898199Y-106757955D01*
X188875298Y-106729710D01*
X188855228Y-106691883D01*
X188837972Y-106644420D01*
X188823507Y-106587269D01*
X188814959Y-106541020D01*
X188812442Y-106523764D01*
X188810422Y-106505587D01*
X188808848Y-106485174D01*
X188807672Y-106461208D01*
X188806843Y-106432375D01*
X188806312Y-106397359D01*
X188806029Y-106354844D01*
X188805945Y-106303516D01*
X188805945Y-106302260D01*
X188806068Y-106245778D01*
X188806514Y-106197431D01*
X188807403Y-106155192D01*
X188808857Y-106117037D01*
X188810997Y-106080942D01*
X188813942Y-106044882D01*
X188817814Y-106006833D01*
X188822734Y-105964769D01*
X188828823Y-105916667D01*
X188829068Y-105914778D01*
X188838126Y-105857754D01*
X188850976Y-105795299D01*
X188867031Y-105729301D01*
X188885706Y-105661648D01*
X188906413Y-105594227D01*
X188928565Y-105528927D01*
X188951577Y-105467635D01*
X188974862Y-105412239D01*
X188997832Y-105364626D01*
X189003030Y-105354937D01*
X189030897Y-105310835D01*
X189061983Y-105273517D01*
X189062588Y-105272896D01*
X189085380Y-105251619D01*
X189106068Y-105237902D01*
X189127763Y-105230583D01*
X189153575Y-105228502D01*
X189178201Y-105229738D01*
X189178201Y-105229738D01*
G37*
X189178201Y-105229738D02*
X189198348Y-105231965D01*
X189215863Y-105235564D01*
X189231188Y-105241308D01*
X189244766Y-105249971D01*
X189257039Y-105262324D01*
X189268450Y-105279140D01*
X189279440Y-105301193D01*
X189290453Y-105329255D01*
X189301931Y-105364099D01*
X189314316Y-105406498D01*
X189328050Y-105457225D01*
X189343577Y-105517052D01*
X189344299Y-105519867D01*
X189361506Y-105592474D01*
X189375540Y-105664276D01*
X189386689Y-105737443D01*
X189395238Y-105814150D01*
X189401474Y-105896569D01*
X189405609Y-105984760D01*
X189406717Y-106018405D01*
X189407222Y-106044525D01*
X189406933Y-106065749D01*
X189405658Y-106084703D01*
X189403208Y-106104014D01*
X189399391Y-106126309D01*
X189394016Y-106154217D01*
X189392872Y-106160020D01*
X189376391Y-106238711D01*
X189358865Y-106313406D01*
X189340546Y-106383339D01*
X189321687Y-106447741D01*
X189302541Y-106505845D01*
X189283359Y-106556882D01*
X189264394Y-106600085D01*
X189245900Y-106634686D01*
X189228657Y-106659293D01*
X189217953Y-106672749D01*
X189203677Y-106691717D01*
X189187975Y-106713311D01*
X189177487Y-106728152D01*
X189151986Y-106762275D01*
X189128222Y-106789201D01*
X189106922Y-106808184D01*
X189089823Y-106818106D01*
X189077848Y-106820698D01*
X189060149Y-106822358D01*
X189045639Y-106822712D01*
X189029049Y-106821866D01*
X189013769Y-106819024D01*
X188996746Y-106813303D01*
X188974929Y-106803818D01*
X188965960Y-106799618D01*
X188943192Y-106787894D01*
X188921706Y-106775181D01*
X188904652Y-106763418D01*
X188898199Y-106757955D01*
X188875298Y-106729710D01*
X188855228Y-106691883D01*
X188837972Y-106644420D01*
X188823507Y-106587269D01*
X188814959Y-106541020D01*
X188812442Y-106523764D01*
X188810422Y-106505587D01*
X188808848Y-106485174D01*
X188807672Y-106461208D01*
X188806843Y-106432375D01*
X188806312Y-106397359D01*
X188806029Y-106354844D01*
X188805945Y-106303516D01*
X188805945Y-106302260D01*
X188806068Y-106245778D01*
X188806514Y-106197431D01*
X188807403Y-106155192D01*
X188808857Y-106117037D01*
X188810997Y-106080942D01*
X188813942Y-106044882D01*
X188817814Y-106006833D01*
X188822734Y-105964769D01*
X188828823Y-105916667D01*
X188829068Y-105914778D01*
X188838126Y-105857754D01*
X188850976Y-105795299D01*
X188867031Y-105729301D01*
X188885706Y-105661648D01*
X188906413Y-105594227D01*
X188928565Y-105528927D01*
X188951577Y-105467635D01*
X188974862Y-105412239D01*
X188997832Y-105364626D01*
X189003030Y-105354937D01*
X189030897Y-105310835D01*
X189061983Y-105273517D01*
X189062588Y-105272896D01*
X189085380Y-105251619D01*
X189106068Y-105237902D01*
X189127763Y-105230583D01*
X189153575Y-105228502D01*
X189178201Y-105229738D01*
D12*
X177100000Y-102300000D02*
X171170000Y-102300000D01*
X171170000Y-102300000D02*
X170600000Y-102300000D01*
X170600000Y-102300000D02*
X170550000Y-102350000D01*
X170550000Y-102350000D02*
X155550000Y-102350000D01*
X148950000Y-94850000D02*
X148950000Y-79900000D01*
X156100000Y-72350000D02*
X170200000Y-72350000D01*
X170200000Y-72350000D02*
X170250000Y-72400000D01*
X170250000Y-72400000D02*
X171170000Y-72400000D01*
X171170000Y-72400000D02*
X176850000Y-72400000D01*
X171170000Y-102300000D02*
X171170000Y-99550000D01*
X171170000Y-74350000D02*
X171170000Y-72400000D01*
X171170000Y-91750000D02*
X171170000Y-90500000D01*
X180260000Y-92100000D02*
X180260000Y-90850000D01*
D13*
X181250000Y-99150000D02*
G75*
G03X181250000Y-99150000I-100000J0D01*
G01*
D14*
X113550000Y-75970000D02*
X113550000Y-78630000D01*
X146630000Y-75970000D02*
X113550000Y-75970000D01*
X146630000Y-78630000D02*
X113550000Y-78630000D01*
X146630000Y-75970000D02*
X146630000Y-78630000D01*
X147900000Y-75970000D02*
X149230000Y-75970000D01*
X149230000Y-75970000D02*
X149230000Y-77300000D01*
X113570000Y-99030000D02*
X113570000Y-97700000D01*
X114900000Y-99030000D02*
X113570000Y-99030000D01*
X116170000Y-99030000D02*
X116170000Y-96370000D01*
X116170000Y-96370000D02*
X149250000Y-96370000D01*
X116170000Y-99030000D02*
X149250000Y-99030000D01*
X149250000Y-99030000D02*
X149250000Y-96370000D01*
X173050000Y-108950000D02*
X173050000Y-103050000D01*
X176950000Y-108950000D02*
X176950000Y-103050000D01*
X176950000Y-103050000D02*
X175875000Y-103050000D01*
X173050000Y-71950000D02*
X174125000Y-71950000D01*
X173050000Y-66050000D02*
X173050000Y-71950000D01*
X176950000Y-66050000D02*
X176950000Y-71950000D01*
X170950000Y-103050000D02*
X169875000Y-103050000D01*
X170950000Y-108950000D02*
X170950000Y-103050000D01*
X167050000Y-108950000D02*
X167050000Y-103050000D01*
X167050000Y-71950000D02*
X168125000Y-71950000D01*
X167050000Y-66050000D02*
X167050000Y-71950000D01*
X170950000Y-66050000D02*
X170950000Y-71950000D01*
X161050000Y-108950000D02*
X161050000Y-103050000D01*
X164950000Y-108950000D02*
X164950000Y-103050000D01*
X164950000Y-103050000D02*
X163875000Y-103050000D01*
X164950000Y-66050000D02*
X164950000Y-71950000D01*
X161050000Y-66050000D02*
X161050000Y-71950000D01*
X161050000Y-71950000D02*
X162125000Y-71950000D01*
X158950000Y-103050000D02*
X157875000Y-103050000D01*
X158950000Y-108950000D02*
X158950000Y-103050000D01*
X155050000Y-108950000D02*
X155050000Y-103050000D01*
X158950000Y-66050000D02*
X158950000Y-71950000D01*
X155050000Y-66050000D02*
X155050000Y-71950000D01*
X155050000Y-71950000D02*
X156125000Y-71950000D01*
X149050000Y-108950000D02*
X149050000Y-103050000D01*
X152950000Y-108950000D02*
X152950000Y-103050000D01*
X152950000Y-103050000D02*
X151875000Y-103050000D01*
X149050000Y-71950000D02*
X150125000Y-71950000D01*
X149050000Y-66050000D02*
X149050000Y-71950000D01*
X152950000Y-66050000D02*
X152950000Y-71950000D01*
X146950000Y-103050000D02*
X145875000Y-103050000D01*
X146950000Y-108950000D02*
X146950000Y-103050000D01*
X143050000Y-108950000D02*
X143050000Y-103050000D01*
X146950000Y-66050000D02*
X146950000Y-71950000D01*
X143050000Y-66050000D02*
X143050000Y-71950000D01*
X143050000Y-71950000D02*
X144125000Y-71950000D01*
X137050000Y-108950000D02*
X137050000Y-103050000D01*
X140950000Y-108950000D02*
X140950000Y-103050000D01*
X140950000Y-103050000D02*
X139875000Y-103050000D01*
X137050000Y-71950000D02*
X138125000Y-71950000D01*
X137050000Y-66050000D02*
X137050000Y-71950000D01*
X140950000Y-66050000D02*
X140950000Y-71950000D01*
X134950000Y-103050000D02*
X133875000Y-103050000D01*
X134950000Y-108950000D02*
X134950000Y-103050000D01*
X131050000Y-108950000D02*
X131050000Y-103050000D01*
X134950000Y-66050000D02*
X134950000Y-71950000D01*
X131050000Y-66050000D02*
X131050000Y-71950000D01*
X131050000Y-71950000D02*
X132125000Y-71950000D01*
X125050000Y-108950000D02*
X125050000Y-103050000D01*
X128950000Y-108950000D02*
X128950000Y-103050000D01*
X128950000Y-103050000D02*
X127875000Y-103050000D01*
X125050000Y-71950000D02*
X126125000Y-71950000D01*
X125050000Y-66050000D02*
X125050000Y-71950000D01*
X128950000Y-66050000D02*
X128950000Y-71950000D01*
X122950000Y-103050000D02*
X121875000Y-103050000D01*
X122950000Y-108950000D02*
X122950000Y-103050000D01*
X119050000Y-108950000D02*
X119050000Y-103050000D01*
X122950000Y-66050000D02*
X122950000Y-71950000D01*
X119050000Y-66050000D02*
X119050000Y-71950000D01*
X119050000Y-71950000D02*
X120125000Y-71950000D01*
X113050000Y-108950000D02*
X113050000Y-103050000D01*
X116950000Y-108950000D02*
X116950000Y-103050000D01*
X116950000Y-103050000D02*
X115875000Y-103050000D01*
X112925000Y-71950000D02*
X114000000Y-71950000D01*
X112925000Y-66050000D02*
X112925000Y-71950000D01*
X116825000Y-66050000D02*
X116825000Y-71950000D01*
X110950000Y-103050000D02*
X109875000Y-103050000D01*
X110950000Y-108950000D02*
X110950000Y-103050000D01*
X107050000Y-108950000D02*
X107050000Y-103050000D01*
X110950000Y-66050000D02*
X110950000Y-71950000D01*
X107050000Y-66050000D02*
X107050000Y-71950000D01*
X107050000Y-71950000D02*
X108125000Y-71950000D01*
X101050000Y-108950000D02*
X101050000Y-103050000D01*
X104950000Y-108950000D02*
X104950000Y-103050000D01*
X104950000Y-103050000D02*
X103875000Y-103050000D01*
X101050000Y-71950000D02*
X102125000Y-71950000D01*
X101050000Y-66050000D02*
X101050000Y-71950000D01*
X104950000Y-66050000D02*
X104950000Y-71950000D01*
X98950000Y-103050000D02*
X97875000Y-103050000D01*
X98950000Y-108950000D02*
X98950000Y-103050000D01*
X95050000Y-108950000D02*
X95050000Y-103050000D01*
X98950000Y-66050000D02*
X98950000Y-71950000D01*
X95050000Y-66050000D02*
X95050000Y-71950000D01*
X95050000Y-71950000D02*
X96125000Y-71950000D01*
X92950000Y-103050000D02*
X91875000Y-103050000D01*
X92950000Y-108950000D02*
X92950000Y-103050000D01*
X89050000Y-108950000D02*
X89050000Y-103050000D01*
X92950000Y-66050000D02*
X92950000Y-71950000D01*
X89050000Y-66050000D02*
X89050000Y-71950000D01*
X89050000Y-71950000D02*
X90125000Y-71950000D01*
D15*
X149682380Y-77633333D02*
X150396666Y-77633333D01*
X150539523Y-77680952D01*
X150634761Y-77776190D01*
X150682380Y-77919047D01*
X150682380Y-78014285D01*
X150682380Y-76633333D02*
X150682380Y-77204761D01*
X150682380Y-76919047D02*
X149682380Y-76919047D01*
X149825238Y-77014285D01*
X149920476Y-77109523D01*
X149968095Y-77204761D01*
M02*
